<?xml version="1.0" encoding="UTF-8" standalone="no"?>
<!-- Created with Inkscape (http://www.inkscape.org/) -->

<svg
   xmlns:dc="http://purl.org/dc/elements/1.1/"
   xmlns:cc="http://creativecommons.org/ns#"
   xmlns:rdf="http://www.w3.org/1999/02/22-rdf-syntax-ns#"
   xmlns:svg="http://www.w3.org/2000/svg"
   xmlns="http://www.w3.org/2000/svg"
   xmlns:xlink="http://www.w3.org/1999/xlink"
   xmlns:sodipodi="http://sodipodi.sourceforge.net/DTD/sodipodi-0.dtd"
   xmlns:inkscape="http://www.inkscape.org/namespaces/inkscape"
   version="1.0"
   width="583"
   height="583"
   id="svg2"
   inkscape:version="0.48.2 r9819"
   sodipodi:docname="frescobaldi-small16.svg"
   inkscape:export-filename="/Users/davide/Desktop/frescobaldi16.png"
   inkscape:export-xdpi="2.47"
   inkscape:export-ydpi="2.47">
  <metadata
     id="metadata43">
    <rdf:RDF>
      <cc:Work
         rdf:about="">
        <dc:format>image/svg+xml</dc:format>
        <dc:type
           rdf:resource="http://purl.org/dc/dcmitype/StillImage" />
        <dc:title></dc:title>
      </cc:Work>
    </rdf:RDF>
  </metadata>
  <sodipodi:namedview
     pagecolor="#ffffff"
     bordercolor="#666666"
     borderopacity="1"
     objecttolerance="10"
     gridtolerance="10"
     guidetolerance="10"
     inkscape:pageopacity="0"
     inkscape:pageshadow="2"
     inkscape:window-width="1235"
     inkscape:window-height="756"
     id="namedview41"
     showgrid="false"
     inkscape:zoom="0.92281304"
     inkscape:cx="292.58364"
     inkscape:cy="291.5"
     inkscape:window-x="45"
     inkscape:window-y="0"
     inkscape:window-maximized="1"
     inkscape:current-layer="svg2"
     fit-margin-top="0"
     fit-margin-left="0"
     fit-margin-right="0"
     fit-margin-bottom="0" />
  <defs
     id="defs4">
    <linearGradient
       id="linearGradient3988">
      <stop
         style="stop-color:#000000;stop-opacity:1;"
         offset="0"
         id="stop3990" />
      <stop
         id="stop3996"
         offset="0.84931505"
         style="stop-color:#000000;stop-opacity:1;" />
      <stop
         style="stop-color:#000000;stop-opacity:0;"
         offset="1"
         id="stop3992" />
    </linearGradient>
    <linearGradient
       id="linearGradient3325">
      <stop
         id="stop3327"
         style="stop-color:#008357;stop-opacity:0"
         offset="0" />
      <stop
         id="stop3333"
         style="stop-color:#ffffff;stop-opacity:1"
         offset="0.6785714" />
      <stop
         id="stop3329"
         style="stop-color:#008357;stop-opacity:1"
         offset="1" />
    </linearGradient>
    <linearGradient
       id="linearGradient3305">
      <stop
         id="stop3307"
         style="stop-color:#fbeb00;stop-opacity:0"
         offset="0" />
      <stop
         id="stop3313"
         style="stop-color:#fbeb00;stop-opacity:0"
         offset="0.2857143" />
      <stop
         id="stop3309"
         style="stop-color:#fbe000;stop-opacity:1"
         offset="1" />
    </linearGradient>
    <linearGradient
       id="linearGradient3239">
      <stop
         id="stop3241"
         style="stop-color:#ffffff;stop-opacity:1"
         offset="0" />
      <stop
         id="stop3243"
         style="stop-color:#ff9191;stop-opacity:1"
         offset="1" />
    </linearGradient>
    <linearGradient
       id="linearGradient3233">
      <stop
         id="stop3235"
         style="stop-color:#ffffff;stop-opacity:1"
         offset="0" />
      <stop
         id="stop3237"
         style="stop-color:#ffcbcb;stop-opacity:1"
         offset="1" />
    </linearGradient>
    <linearGradient
       id="linearGradient3207">
      <stop
         id="stop3209"
         style="stop-color:#ffffff;stop-opacity:1"
         offset="0" />
      <stop
         id="stop3211"
         style="stop-color:#ffb6b6;stop-opacity:1"
         offset="1" />
    </linearGradient>
    <radialGradient
       cx="345.71429"
       cy="452.36218"
       r="192.47151"
       fx="345.71429"
       fy="452.36218"
       id="radialGradient3215"
       xlink:href="#linearGradient3233"
       gradientUnits="userSpaceOnUse"
       gradientTransform="matrix(0.3826834,-0.9238795,0.9238795,0.3826834,-204.51301,598.64903)" />
    <radialGradient
       cx="345.71429"
       cy="452.36218"
       r="192.47151"
       fx="345.71429"
       fy="452.36218"
       id="radialGradient3219"
       xlink:href="#linearGradient3239"
       gradientUnits="userSpaceOnUse" />
    <radialGradient
       cx="345.71429"
       cy="452.36218"
       r="192.47151"
       fx="345.71429"
       fy="452.36218"
       id="radialGradient3223"
       xlink:href="#linearGradient3239"
       gradientUnits="userSpaceOnUse"
       gradientTransform="matrix(0.7071068,-0.7071068,0.7071068,0.7071068,-218.611,376.95074)" />
    <radialGradient
       cx="345.71429"
       cy="452.36218"
       r="192.47151"
       fx="345.71429"
       fy="452.36218"
       id="radialGradient3227"
       xlink:href="#linearGradient3207"
       gradientUnits="userSpaceOnUse"
       gradientTransform="matrix(0.9238795,-0.3826834,0.3826834,0.9238795,-146.79558,166.73315)" />
    <radialGradient
       cx="345.71429"
       cy="452.36218"
       r="192.47151"
       fx="345.71429"
       fy="452.36218"
       id="radialGradient3231"
       xlink:href="#linearGradient3207"
       gradientUnits="userSpaceOnUse"
       gradientTransform="matrix(0.3826834,-0.9238795,0.9238795,0.3826834,-204.51301,598.64903)" />
    <radialGradient
       cx="345.71429"
       cy="452.36218"
       r="254.36617"
       fx="345.71429"
       fy="452.36218"
       id="radialGradient3253"
       xlink:href="#linearGradient3239"
       gradientUnits="userSpaceOnUse"
       gradientTransform="translate(0,-4.4459744e-6)" />
    <radialGradient
       cx="345.71429"
       cy="452.36218"
       r="251.32288"
       fx="345.71429"
       fy="452.36218"
       id="radialGradient3261"
       xlink:href="#linearGradient3239"
       gradientUnits="userSpaceOnUse"
       gradientTransform="translate(0,-4.4998114e-6)" />
    <radialGradient
       cx="345.71429"
       cy="452.36218"
       r="192.47151"
       fx="345.71429"
       fy="452.36218"
       id="radialGradient3269"
       xlink:href="#linearGradient3233"
       gradientUnits="userSpaceOnUse" />
    <radialGradient
       cx="345.71429"
       cy="452.36218"
       r="271.98871"
       fx="345.71429"
       fy="452.36218"
       id="radialGradient3277"
       xlink:href="#linearGradient3233"
       gradientUnits="userSpaceOnUse"
       gradientTransform="translate(0,2.4947478e-6)" />
    <radialGradient
       cx="322.15863"
       cy="760.29919"
       r="329.40756"
       fx="322.15863"
       fy="760.29919"
       id="radialGradient3311"
       xlink:href="#linearGradient3305"
       gradientUnits="userSpaceOnUse"
       gradientTransform="matrix(1,0,0,1.0042199,0,-3.208376)" />
    <radialGradient
       cx="368.57144"
       cy="458.07648"
       r="291.42856"
       fx="368.57144"
       fy="458.07648"
       id="radialGradient3331"
       xlink:href="#linearGradient3325"
       gradientUnits="userSpaceOnUse" />
    <radialGradient
       cx="368.57144"
       cy="458.07648"
       r="291.42856"
       fx="368.57144"
       fy="458.07648"
       id="radialGradient3331-6"
       xlink:href="#linearGradient3325-9"
       gradientUnits="userSpaceOnUse" />
    <linearGradient
       id="linearGradient3325-9">
      <stop
         id="stop3327-4"
         style="stop-color:#008357;stop-opacity:0"
         offset="0" />
      <stop
         id="stop3333-1"
         style="stop-color:#ffffff;stop-opacity:1"
         offset="0.6785714" />
      <stop
         id="stop3329-3"
         style="stop-color:#008357;stop-opacity:1"
         offset="1" />
    </linearGradient>
    <radialGradient
       cx="345.71429"
       cy="452.36218"
       r="192.47151"
       fx="345.71429"
       fy="452.36218"
       id="radialGradient3219-7"
       xlink:href="#linearGradient3239-8"
       gradientUnits="userSpaceOnUse" />
    <linearGradient
       id="linearGradient3239-8">
      <stop
         id="stop3241-8"
         style="stop-color:#ffffff;stop-opacity:1"
         offset="0" />
      <stop
         id="stop3243-3"
         style="stop-color:#ff9191;stop-opacity:1"
         offset="1" />
    </linearGradient>
    <radialGradient
       cx="345.71429"
       cy="452.36218"
       r="192.47151"
       fx="345.71429"
       fy="452.36218"
       id="radialGradient3269-8"
       xlink:href="#linearGradient3233-1"
       gradientUnits="userSpaceOnUse" />
    <linearGradient
       id="linearGradient3233-1">
      <stop
         id="stop3235-5"
         style="stop-color:#ffffff;stop-opacity:1"
         offset="0" />
      <stop
         id="stop3237-3"
         style="stop-color:#ffcbcb;stop-opacity:1"
         offset="1" />
    </linearGradient>
    <radialGradient
       cx="345.71429"
       cy="452.36218"
       r="192.47151"
       fx="345.71429"
       fy="452.36218"
       id="radialGradient3223-5"
       xlink:href="#linearGradient3239-8"
       gradientUnits="userSpaceOnUse"
       gradientTransform="matrix(0.7071068,-0.7071068,0.7071068,0.7071068,-218.611,376.95074)" />
    <linearGradient
       id="linearGradient3044">
      <stop
         id="stop3046"
         style="stop-color:#ffffff;stop-opacity:1"
         offset="0" />
      <stop
         id="stop3048"
         style="stop-color:#ff9191;stop-opacity:1"
         offset="1" />
    </linearGradient>
    <radialGradient
       cx="345.71429"
       cy="452.36218"
       r="271.98871"
       fx="345.71429"
       fy="452.36218"
       id="radialGradient3277-4"
       xlink:href="#linearGradient3233-1"
       gradientUnits="userSpaceOnUse"
       gradientTransform="translate(0,2.4947478e-6)" />
    <linearGradient
       id="linearGradient3051">
      <stop
         id="stop3053"
         style="stop-color:#ffffff;stop-opacity:1"
         offset="0" />
      <stop
         id="stop3055"
         style="stop-color:#ffcbcb;stop-opacity:1"
         offset="1" />
    </linearGradient>
    <radialGradient
       cx="345.71429"
       cy="452.36218"
       r="192.47151"
       fx="345.71429"
       fy="452.36218"
       id="radialGradient3227-3"
       xlink:href="#linearGradient3207-6"
       gradientUnits="userSpaceOnUse"
       gradientTransform="matrix(0.9238795,-0.3826834,0.3826834,0.9238795,-146.79558,166.73315)" />
    <linearGradient
       id="linearGradient3207-6">
      <stop
         id="stop3209-5"
         style="stop-color:#ffffff;stop-opacity:1"
         offset="0" />
      <stop
         id="stop3211-9"
         style="stop-color:#ffb6b6;stop-opacity:1"
         offset="1" />
    </linearGradient>
    <radialGradient
       cx="345.71429"
       cy="452.36218"
       r="251.32288"
       fx="345.71429"
       fy="452.36218"
       id="radialGradient3261-5"
       xlink:href="#linearGradient3239-8"
       gradientUnits="userSpaceOnUse"
       gradientTransform="translate(0,-4.4998114e-6)" />
    <linearGradient
       id="linearGradient3062">
      <stop
         id="stop3064"
         style="stop-color:#ffffff;stop-opacity:1"
         offset="0" />
      <stop
         id="stop3066"
         style="stop-color:#ff9191;stop-opacity:1"
         offset="1" />
    </linearGradient>
    <radialGradient
       cx="345.71429"
       cy="452.36218"
       r="192.47151"
       fx="345.71429"
       fy="452.36218"
       id="radialGradient3231-4"
       xlink:href="#linearGradient3207-6"
       gradientUnits="userSpaceOnUse"
       gradientTransform="matrix(0.3826834,-0.9238795,0.9238795,0.3826834,-204.51301,598.64903)" />
    <linearGradient
       id="linearGradient3069">
      <stop
         id="stop3071"
         style="stop-color:#ffffff;stop-opacity:1"
         offset="0" />
      <stop
         id="stop3073"
         style="stop-color:#ffb6b6;stop-opacity:1"
         offset="1" />
    </linearGradient>
    <radialGradient
       cx="345.71429"
       cy="452.36218"
       r="192.47151"
       fx="345.71429"
       fy="452.36218"
       id="radialGradient3215-9"
       xlink:href="#linearGradient3233-1"
       gradientUnits="userSpaceOnUse"
       gradientTransform="matrix(0.3826834,-0.9238795,0.9238795,0.3826834,-204.51301,598.64903)" />
    <linearGradient
       id="linearGradient3076">
      <stop
         id="stop3078"
         style="stop-color:#ffffff;stop-opacity:1"
         offset="0" />
      <stop
         id="stop3080"
         style="stop-color:#ffcbcb;stop-opacity:1"
         offset="1" />
    </linearGradient>
    <radialGradient
       cx="345.71429"
       cy="452.36218"
       r="254.36617"
       fx="345.71429"
       fy="452.36218"
       id="radialGradient3253-1"
       xlink:href="#linearGradient3239-8"
       gradientUnits="userSpaceOnUse"
       gradientTransform="translate(0,-4.4459744e-6)" />
    <linearGradient
       id="linearGradient3083">
      <stop
         id="stop3085"
         style="stop-color:#ffffff;stop-opacity:1"
         offset="0" />
      <stop
         id="stop3087"
         style="stop-color:#ff9191;stop-opacity:1"
         offset="1" />
    </linearGradient>
    <radialGradient
       cx="322.15863"
       cy="760.29919"
       r="329.40756"
       fx="322.15863"
       fy="760.29919"
       id="radialGradient3311-7"
       xlink:href="#linearGradient3305-5"
       gradientUnits="userSpaceOnUse"
       gradientTransform="matrix(1,0,0,1.0042199,0,-3.208376)" />
    <linearGradient
       id="linearGradient3305-5">
      <stop
         id="stop3307-5"
         style="stop-color:#fbeb00;stop-opacity:0"
         offset="0" />
      <stop
         id="stop3313-4"
         style="stop-color:#fbeb00;stop-opacity:0"
         offset="0.2857143" />
      <stop
         id="stop3309-1"
         style="stop-color:#fbe000;stop-opacity:1"
         offset="1" />
    </linearGradient>
    <radialGradient
       inkscape:collect="always"
       xlink:href="#linearGradient3325"
       id="radialGradient4328"
       gradientUnits="userSpaceOnUse"
       gradientTransform="translate(-77.142882,-166.52209)"
       cx="368.57144"
       cy="458.07648"
       fx="368.57144"
       fy="458.07648"
       r="291.42856" />
    <radialGradient
       inkscape:collect="always"
       xlink:href="#linearGradient3239"
       id="radialGradient4330"
       gradientUnits="userSpaceOnUse"
       gradientTransform="translate(-51.428596,-160.8078)"
       cx="345.71429"
       cy="452.36218"
       fx="345.71429"
       fy="452.36218"
       r="192.47151" />
    <radialGradient
       inkscape:collect="always"
       xlink:href="#linearGradient3233"
       id="radialGradient4332"
       gradientUnits="userSpaceOnUse"
       gradientTransform="translate(-51.428596,-160.8078)"
       cx="345.71429"
       cy="452.36218"
       fx="345.71429"
       fy="452.36218"
       r="192.47151" />
    <radialGradient
       inkscape:collect="always"
       xlink:href="#linearGradient3239"
       id="radialGradient4334"
       gradientUnits="userSpaceOnUse"
       gradientTransform="matrix(0.7071068,-0.7071068,0.7071068,0.7071068,-270.0396,216.14294)"
       cx="345.71429"
       cy="452.36218"
       fx="345.71429"
       fy="452.36218"
       r="192.47151" />
    <radialGradient
       inkscape:collect="always"
       xlink:href="#linearGradient3233"
       id="radialGradient4336"
       gradientUnits="userSpaceOnUse"
       gradientTransform="translate(-51.428596,-160.8078)"
       cx="345.71429"
       cy="452.36218"
       fx="345.71429"
       fy="452.36218"
       r="271.98871" />
    <radialGradient
       inkscape:collect="always"
       xlink:href="#linearGradient3207"
       id="radialGradient4338"
       gradientUnits="userSpaceOnUse"
       gradientTransform="matrix(0.9238795,-0.3826834,0.3826834,0.9238795,-198.22418,5.9253559)"
       cx="345.71429"
       cy="452.36218"
       fx="345.71429"
       fy="452.36218"
       r="192.47151" />
    <radialGradient
       inkscape:collect="always"
       xlink:href="#linearGradient3239"
       id="radialGradient4340"
       gradientUnits="userSpaceOnUse"
       gradientTransform="translate(-51.428596,-160.8078)"
       cx="345.71429"
       cy="452.36218"
       fx="345.71429"
       fy="452.36218"
       r="251.32288" />
    <radialGradient
       inkscape:collect="always"
       xlink:href="#linearGradient3207"
       id="radialGradient4342"
       gradientUnits="userSpaceOnUse"
       gradientTransform="matrix(0.3826834,-0.9238795,0.9238795,0.3826834,-255.94161,437.84123)"
       cx="345.71429"
       cy="452.36218"
       fx="345.71429"
       fy="452.36218"
       r="192.47151" />
    <radialGradient
       inkscape:collect="always"
       xlink:href="#linearGradient3233"
       id="radialGradient4344"
       gradientUnits="userSpaceOnUse"
       gradientTransform="matrix(0.3826834,-0.9238795,0.9238795,0.3826834,-255.94161,437.84123)"
       cx="345.71429"
       cy="452.36218"
       fx="345.71429"
       fy="452.36218"
       r="192.47151" />
    <radialGradient
       inkscape:collect="always"
       xlink:href="#linearGradient3239"
       id="radialGradient4346"
       gradientUnits="userSpaceOnUse"
       gradientTransform="translate(-51.428596,-160.8078)"
       cx="345.71429"
       cy="452.36218"
       fx="345.71429"
       fy="452.36218"
       r="254.36617" />
    <radialGradient
       inkscape:collect="always"
       xlink:href="#linearGradient3305"
       id="radialGradient4348"
       gradientUnits="userSpaceOnUse"
       gradientTransform="matrix(0.382445,0,0,0.38405888,169.80908,-2.5082715)"
       cx="322.15863"
       cy="760.29919"
       fx="322.15863"
       fy="760.29919"
       r="329.40756" />
  </defs>
  <g
     id="g4319"
     transform="translate(0.07143975,-0.05439)">
    <path
       inkscape:export-ydpi="4.9400001"
       inkscape:export-xdpi="4.9400001"
       d="M 582.85712,291.55439 A 291.42856,291.42856 0 1 1 4.9999998e-7,291.55439 291.42856,291.42856 0 1 1 582.85712,291.55439 z"
       id="path3315"
       style="fill:url(#radialGradient4328);fill-opacity:1;stroke:none"
       inkscape:connector-curvature="0" />
    <path
       d="m 486.2572,99.582886 c -18.40856,68.701654 -42.85236,141.678404 -93.14546,191.971504 50.2931,50.2931 74.7369,123.26985 93.14546,191.97151 -68.70166,-18.40856 -141.67841,-42.85236 -191.97151,-93.14546 -50.2931,50.2931 -123.26985,74.7369 -191.97151,93.14546 18.40856,-68.70166 42.85236,-141.67841 93.14546,-191.97151 -50.2931,-50.2931 -74.7369,-123.26985 -93.14546,-191.971504 68.70166,18.408554 141.67841,42.852354 191.97151,93.145454 50.2931,-50.2931 123.26985,-74.7369 191.97151,-93.145454 z"
       id="path3217"
       style="fill:url(#radialGradient4330);fill-opacity:1;fill-rule:evenodd;stroke:url(#radialGradient4332);stroke-width:7.08661413;stroke-linecap:butt;stroke-linejoin:miter;stroke-miterlimit:4;stroke-opacity:1;stroke-dasharray:none"
       inkscape:connector-curvature="0" />
    <path
       d="m 294.28569,20.065686 c 35.56259,61.59622 69.88057,130.482954 69.88057,201.608134 71.12518,0 140.01192,34.31798 201.60814,69.88057 -61.59622,35.56259 -130.48296,69.88057 -201.60814,69.88057 0,71.12518 -34.31798,140.01192 -69.88057,201.60814 -35.56259,-61.59622 -69.88057,-130.48296 -69.88057,-201.60814 -71.12518,0 -140.011916,-34.31798 -201.608139,-69.88057 61.596223,-35.56259 130.482959,-69.88057 201.608139,-69.88057 0,-71.12518 34.31798,-140.011914 69.88057,-201.608134 z"
       id="path3221"
       style="fill:url(#radialGradient4334);fill-opacity:1;fill-rule:evenodd;stroke:url(#radialGradient4336);stroke-width:7.08661413;stroke-linecap:butt;stroke-linejoin:miter;stroke-miterlimit:4;stroke-opacity:1;stroke-dasharray:none"
       inkscape:connector-curvature="0" />
    <path
       d="m 398.17992,40.731526 c 9.2837,70.516704 14.62756,147.292674 -12.59087,213.003774 65.71111,27.21843 116.22123,85.28592 159.51951,141.71332 -70.51671,9.2837 -147.29268,14.62756 -213.00378,-12.59087 C 304.88635,448.56886 246.81886,499.07898 190.39146,542.37726 181.10776,471.86055 175.7639,395.08458 202.98233,329.37348 137.27122,302.15505 86.761104,244.08756 43.462828,187.66016 113.97953,178.37646 190.7555,173.0326 256.4666,200.25103 283.68503,134.53992 341.75252,84.029806 398.17992,40.731526 z"
       id="path3225"
       style="fill:url(#radialGradient4338);fill-opacity:1;fill-rule:evenodd;stroke:url(#radialGradient4340);stroke-width:7.08661413;stroke-linecap:butt;stroke-linejoin:miter;stroke-miterlimit:4;stroke-opacity:1;stroke-dasharray:none"
       inkscape:connector-curvature="0" />
    <path
       d="m 190.39146,40.731526 c 56.4274,43.29828 114.49489,93.808394 141.71332,159.519504 65.7111,-27.21843 142.48707,-21.87457 213.00378,-12.59087 -43.29828,56.4274 -93.8084,114.49489 -159.51951,141.71332 27.21843,65.7111 21.87457,142.48707 12.59087,213.00378 C 341.75252,499.07898 283.68503,448.56886 256.4666,382.85775 190.7555,410.07618 113.97953,404.73232 43.462828,395.44862 86.761104,339.02122 137.27122,280.95373 202.98233,253.7353 175.7639,188.0242 181.10776,111.24823 190.39146,40.731526 z"
       id="path3229"
       style="fill:url(#radialGradient4342);fill-opacity:1;fill-rule:evenodd;stroke:#000000;stroke-width:1px;stroke-linecap:butt;stroke-linejoin:miter;stroke-opacity:1"
       inkscape:connector-curvature="0" />
    <path
       d="m 190.39146,40.731526 c 56.4274,43.29828 114.49489,93.808394 141.71332,159.519504 65.7111,-27.21843 142.48707,-21.87457 213.00378,-12.59087 -43.29828,56.4274 -93.8084,114.49489 -159.51951,141.71332 27.21843,65.7111 21.87457,142.48707 12.59087,213.00378 C 341.75252,499.07898 283.68503,448.56886 256.4666,382.85775 190.7555,410.07618 113.97953,404.73232 43.462828,395.44862 86.761104,339.02122 137.27122,280.95373 202.98233,253.7353 175.7639,188.0242 181.10776,111.24823 190.39146,40.731526 z"
       id="path2404"
       style="fill:url(#radialGradient4344);fill-opacity:1;fill-rule:evenodd;stroke:url(#radialGradient4346);stroke-width:7.08661413;stroke-linecap:butt;stroke-linejoin:miter;stroke-miterlimit:4;stroke-opacity:1;stroke-dasharray:none"
       inkscape:connector-curvature="0" />
    <path
       d="m 313.01083,163.00278 c -10.13259,-0.36048 -19.96512,3.47482 -27.1775,10.6009 l -7.80427,7.72061 -9.42966,-5.61716 c -10.85008,-6.46089 -24.25489,-6.90834 -35.51167,-1.18538 -11.25678,5.72297 -18.79375,16.81725 -19.96675,29.39069 l -1.01587,10.91164 -10.82798,1.75685 c -12.46803,2.02092 -23.02896,10.29386 -27.97635,21.91536 -4.94738,11.6215 -3.59011,24.96813 3.59548,35.35578 l 6.25059,9.02331 -7.17084,8.30623 c -8.25098,9.56323 -11.02201,22.68929 -7.34058,34.77155 3.68143,12.08226 13.30104,21.43293 25.48281,24.77036 l 10.57699,2.89224 -0.15536,10.97139 c -0.17439,12.62941 6.13927,24.46613 16.72517,31.35607 10.5859,6.88994 23.96531,7.87061 35.44271,2.59787 l 9.96748,-4.57736 6.93181,8.49743 c 7.98363,9.78745 20.42826,14.79763 32.96644,13.27221 12.53817,-1.52545 23.41844,-9.37342 28.82233,-20.78967 l 4.69691,-9.91963 10.76821,2.05565 c 12.40933,2.36679 25.16541,-1.79597 33.78998,-11.02689 8.62458,-9.23092 11.9124,-22.24001 8.70922,-34.46019 l -2.78467,-10.61284 9.57307,-5.34228 c 11.02634,-6.16304 18.12194,-17.54993 18.79617,-30.16375 0.67422,-12.61383 -5.16713,-24.69221 -15.47368,-31.99552 l -8.9516,-6.34619 3.89616,-10.25431 c 4.48015,-11.80716 2.59422,-25.08681 -4.99611,-35.17976 -7.59032,-10.09295 -19.82512,-15.58981 -32.41179,-14.56199 l -10.93554,0.89635 -3.60932,-10.36187 c -4.99686,-14.33417 -18.28135,-24.13024 -33.45199,-24.6677 z"
       id="path3303"
       style="fill:url(#radialGradient4348);fill-opacity:1;stroke:#ffff00;stroke-width:7.08661413;stroke-miterlimit:4;stroke-opacity:1;stroke-dasharray:none"
       inkscape:connector-curvature="0" />
  </g>
  <path
     inkscape:connector-curvature="0"
     style="font-size:281.44699097000000165px;font-style:normal;font-variant:normal;font-weight:normal;font-stretch:normal;text-align:start;line-height:125%;writing-mode:lr-tb;text-anchor:start;fill:#000000;fill-opacity:1;stroke:#000000;font-family:Muriel;-inkscape-font-specification:Muriel;stroke-opacity:1;stroke-width:8;stroke-miterlimit:4;stroke-dasharray:none"
     id="text3289"
     d="M 468.63799,69.59071 C 437.6213,78.338994 406.60453,95.04034 384.33614,122.08053 355.70537,121.28522 328.66508,105.37921 300.03432,100.60742 257.08812,81.520232 205.39351,70.386018 155.28963,75.157808 98.02805,84.701413 33.608647,126.85237 20.088566,188.09046 c -9.543593,39.76495 4.771824,78.73476 31.812011,107.36554 37.379063,34.19787 90.664303,51.69451 139.177573,31.81201 5.56711,-3.1812 11.9295,-10.3389 10.3389,-17.4966 -6.36238,-10.3389 -14.31542,0.79529 -21.47312,0.79529 C 128.24948,322.49621 74.16895,305.79487 43.947577,259.6675 26.450976,232.6273 32.018084,192.86222 48.719374,167.41265 123.47755,64.818994 265.83647,118.10404 363.65834,137.98654 c 2.38589,0.79529 4.77181,3.18121 6.36239,3.97649 -31.81199,62.03339 -27.04022,143.15414 -27.04022,213.93579 -1.5906,0.79532 -3.18117,2.38591 -4.77181,3.97652 -31.81198,1.59059 -63.62404,3.18122 -93.8454,5.5671 -3.18122,1.59059 -6.36244,1.59059 -7.15776,4.77179 -2.38589,0 -2.38589,2.3859 0,3.9765 29.4261,7.1577 64.41939,4.77184 97.02668,5.5671 3.18117,1.59062 3.97648,1.59062 5.56712,4.7718 6.36238,18.29191 -1.59064,37.37915 0,54.08044 -11.13424,37.37908 -23.85908,78.73475 -62.82875,98.61726 -31.01669,19.0872 -80.32537,19.0872 -111.34203,0 -31.01671,-19.88251 -48.51334,-51.69457 -45.33213,-86.68776 0,-11.1342 13.52006,-19.08721 6.36238,-28.63081 -14.31539,0.7953 -17.49661,17.49661 -20.67781,29.42611 -2.38589,42.15088 16.70136,78.73476 52.48982,99.41257 45.3321,28.63079 107.3656,12.72478 147.13059,-14.31542 53.28508,-31.81199 74.75822,-85.89253 75.55352,-144.74467 0,-4.77179 1.59063,-9.54364 6.36241,-10.3389 25.44958,-3.97651 52.48986,0.79526 73.96295,-11.13422 2.3859,-2.38588 1.59058,-5.5671 -0.79532,-8.7483 -25.4496,-1.59059 -50.89925,-3.1812 -74.75823,-3.1812 -1.5906,0 -4.77181,-2.38591 -4.77181,-4.77181 -3.1812,-54.87566 -9.54359,-114.5233 -3.97648,-169.39899 3.97648,-14.31538 0.79531,-31.0167 14.3154,-42.1509 34.19788,-0.79528 67.60056,-3.97652 97.82193,-17.4966 7.95301,-6.36239 17.4966,-16.70132 17.4966,-28.630798 -0.79528,-6.362429 -2.38588,-14.315441 -7.953,-19.08723 -6.36238,-6.362384 -17.4966,-10.338898 -30.22139,-7.157692 m 19.0872,25.4496 c 1.59059,5.56711 -3.1812,11.92952 -7.15772,15.1107 -19.88247,13.52011 -46.12744,13.52011 -70.78173,14.31542 -3.18121,-0.79531 -0.79532,-4.77179 -0.79532,-6.36241 21.47314,-19.087198 43.74157,-36.583829 72.37236,-30.2214 1.59058,1.590583 4.7718,1.590583 6.36241,7.15769" />
</svg>
