<?xml version="1.0" encoding="UTF-8" standalone="no"?>
<!-- Created with Inkscape (http://www.inkscape.org/) -->

<svg
   xmlns:dc="http://purl.org/dc/elements/1.1/"
   xmlns:cc="http://creativecommons.org/ns#"
   xmlns:rdf="http://www.w3.org/1999/02/22-rdf-syntax-ns#"
   xmlns:svg="http://www.w3.org/2000/svg"
   xmlns="http://www.w3.org/2000/svg"
   xmlns:xlink="http://www.w3.org/1999/xlink"
   xmlns:sodipodi="http://sodipodi.sourceforge.net/DTD/sodipodi-0.dtd"
   xmlns:inkscape="http://www.inkscape.org/namespaces/inkscape"
   version="1.0"
   width="612.29999"
   height="612.29999"
   id="svg2"
   inkscape:version="0.48.2 r9819"
   sodipodi:docname="frescobaldi-shadow.svg"
   inkscape:export-filename="/Users/davide/Programmazione/frescobaldi_mac_icon/frescobaldi128.png"
   inkscape:export-xdpi="18.809999"
   inkscape:export-ydpi="18.809999">
  <metadata
     id="metadata43">
    <rdf:RDF>
      <cc:Work
         rdf:about="">
        <dc:format>image/svg+xml</dc:format>
        <dc:type
           rdf:resource="http://purl.org/dc/dcmitype/StillImage" />
        <dc:title></dc:title>
      </cc:Work>
    </rdf:RDF>
  </metadata>
  <sodipodi:namedview
     pagecolor="#ffffff"
     bordercolor="#666666"
     borderopacity="1"
     objecttolerance="10"
     gridtolerance="10"
     guidetolerance="10"
     inkscape:pageopacity="0"
     inkscape:pageshadow="2"
     inkscape:window-width="1234"
     inkscape:window-height="756"
     id="namedview41"
     showgrid="false"
     fit-margin-top="0"
     fit-margin-left="0"
     fit-margin-right="0"
     fit-margin-bottom="0"
     inkscape:zoom="0.87865568"
     inkscape:cx="547.91942"
     inkscape:cy="306.1495"
     inkscape:window-x="46"
     inkscape:window-y="0"
     inkscape:window-maximized="1"
     inkscape:current-layer="svg2"
     showguides="true"
     inkscape:guide-bbox="true" />
  <defs
     id="defs4">
    <linearGradient
       id="linearGradient3325">
      <stop
         id="stop3327"
         style="stop-color:#008357;stop-opacity:0"
         offset="0" />
      <stop
         id="stop3333"
         style="stop-color:#ffffff;stop-opacity:1"
         offset="0.6785714" />
      <stop
         id="stop3329"
         style="stop-color:#008357;stop-opacity:1"
         offset="1" />
    </linearGradient>
    <linearGradient
       id="linearGradient3305">
      <stop
         id="stop3307"
         style="stop-color:#fbeb00;stop-opacity:0"
         offset="0" />
      <stop
         id="stop3313"
         style="stop-color:#fbeb00;stop-opacity:0"
         offset="0.2857143" />
      <stop
         id="stop3309"
         style="stop-color:#fbe000;stop-opacity:1"
         offset="1" />
    </linearGradient>
    <linearGradient
       id="linearGradient3239">
      <stop
         id="stop3241"
         style="stop-color:#ffffff;stop-opacity:1"
         offset="0" />
      <stop
         id="stop3243"
         style="stop-color:#ff9191;stop-opacity:1"
         offset="1" />
    </linearGradient>
    <linearGradient
       id="linearGradient3233">
      <stop
         id="stop3235"
         style="stop-color:#ffffff;stop-opacity:1"
         offset="0" />
      <stop
         id="stop3237"
         style="stop-color:#ffcbcb;stop-opacity:1"
         offset="1" />
    </linearGradient>
    <linearGradient
       id="linearGradient3207">
      <stop
         id="stop3209"
         style="stop-color:#ffffff;stop-opacity:1"
         offset="0" />
      <stop
         id="stop3211"
         style="stop-color:#ffb6b6;stop-opacity:1"
         offset="1" />
    </linearGradient>
    <radialGradient
       cx="345.71429"
       cy="452.36218"
       r="192.47151"
       fx="345.71429"
       fy="452.36218"
       id="radialGradient3215"
       xlink:href="#linearGradient3233"
       gradientUnits="userSpaceOnUse"
       gradientTransform="matrix(0.3826834,-0.9238795,0.9238795,0.3826834,-204.51301,598.64903)" />
    <radialGradient
       cx="345.71429"
       cy="452.36218"
       r="192.47151"
       fx="345.71429"
       fy="452.36218"
       id="radialGradient3219"
       xlink:href="#linearGradient3239"
       gradientUnits="userSpaceOnUse" />
    <radialGradient
       cx="345.71429"
       cy="452.36218"
       r="192.47151"
       fx="345.71429"
       fy="452.36218"
       id="radialGradient3223"
       xlink:href="#linearGradient3239"
       gradientUnits="userSpaceOnUse"
       gradientTransform="matrix(0.7071068,-0.7071068,0.7071068,0.7071068,-218.611,376.95074)" />
    <radialGradient
       cx="345.71429"
       cy="452.36218"
       r="192.47151"
       fx="345.71429"
       fy="452.36218"
       id="radialGradient3227"
       xlink:href="#linearGradient3207"
       gradientUnits="userSpaceOnUse"
       gradientTransform="matrix(0.9238795,-0.3826834,0.3826834,0.9238795,-146.79558,166.73315)" />
    <radialGradient
       cx="345.71429"
       cy="452.36218"
       r="192.47151"
       fx="345.71429"
       fy="452.36218"
       id="radialGradient3231"
       xlink:href="#linearGradient3207"
       gradientUnits="userSpaceOnUse"
       gradientTransform="matrix(0.3826834,-0.9238795,0.9238795,0.3826834,-204.51301,598.64903)" />
    <radialGradient
       cx="345.71429"
       cy="452.36218"
       r="254.36617"
       fx="345.71429"
       fy="452.36218"
       id="radialGradient3253"
       xlink:href="#linearGradient3239"
       gradientUnits="userSpaceOnUse"
       gradientTransform="translate(0,-4.4459744e-6)" />
    <radialGradient
       cx="345.71429"
       cy="452.36218"
       r="251.32288"
       fx="345.71429"
       fy="452.36218"
       id="radialGradient3261"
       xlink:href="#linearGradient3239"
       gradientUnits="userSpaceOnUse"
       gradientTransform="translate(0,-4.4998114e-6)" />
    <radialGradient
       cx="345.71429"
       cy="452.36218"
       r="192.47151"
       fx="345.71429"
       fy="452.36218"
       id="radialGradient3269"
       xlink:href="#linearGradient3233"
       gradientUnits="userSpaceOnUse" />
    <radialGradient
       cx="345.71429"
       cy="452.36218"
       r="271.98871"
       fx="345.71429"
       fy="452.36218"
       id="radialGradient3277"
       xlink:href="#linearGradient3233"
       gradientUnits="userSpaceOnUse"
       gradientTransform="translate(0,2.4947478e-6)" />
    <radialGradient
       cx="322.15863"
       cy="760.29919"
       r="329.40756"
       fx="322.15863"
       fy="760.29919"
       id="radialGradient3311"
       xlink:href="#linearGradient3305"
       gradientUnits="userSpaceOnUse"
       gradientTransform="matrix(1,0,0,1.0042199,0,-3.208376)" />
    <radialGradient
       cx="368.57144"
       cy="458.07648"
       r="291.42856"
       fx="368.57144"
       fy="458.07648"
       id="radialGradient3331"
       xlink:href="#linearGradient3325"
       gradientUnits="userSpaceOnUse" />
    <filter
       inkscape:collect="always"
       id="filter3814"
       color-interpolation-filters="sRGB">
      <feGaussianBlur
         inkscape:collect="always"
         stdDeviation="1.2173423"
         id="feGaussianBlur3816" />
    </filter>
    <radialGradient
       inkscape:collect="always"
       xlink:href="#linearGradient3325"
       id="radialGradient3943"
       gradientUnits="userSpaceOnUse"
       cx="368.57144"
       cy="458.07648"
       fx="368.57144"
       fy="458.07648"
       r="291.42856" />
    <radialGradient
       inkscape:collect="always"
       xlink:href="#linearGradient3239"
       id="radialGradient3945"
       gradientUnits="userSpaceOnUse"
       cx="345.71429"
       cy="452.36218"
       fx="345.71429"
       fy="452.36218"
       r="192.47151" />
    <radialGradient
       inkscape:collect="always"
       xlink:href="#linearGradient3233"
       id="radialGradient3947"
       gradientUnits="userSpaceOnUse"
       cx="345.71429"
       cy="452.36218"
       fx="345.71429"
       fy="452.36218"
       r="192.47151" />
    <radialGradient
       inkscape:collect="always"
       xlink:href="#linearGradient3239"
       id="radialGradient3949"
       gradientUnits="userSpaceOnUse"
       gradientTransform="matrix(0.7071068,-0.7071068,0.7071068,0.7071068,-218.611,376.95074)"
       cx="345.71429"
       cy="452.36218"
       fx="345.71429"
       fy="452.36218"
       r="192.47151" />
    <radialGradient
       inkscape:collect="always"
       xlink:href="#linearGradient3233"
       id="radialGradient3951"
       gradientUnits="userSpaceOnUse"
       gradientTransform="translate(0,2.4947478e-6)"
       cx="345.71429"
       cy="452.36218"
       fx="345.71429"
       fy="452.36218"
       r="271.98871" />
    <radialGradient
       inkscape:collect="always"
       xlink:href="#linearGradient3207"
       id="radialGradient3953"
       gradientUnits="userSpaceOnUse"
       gradientTransform="matrix(0.9238795,-0.3826834,0.3826834,0.9238795,-146.79558,166.73315)"
       cx="345.71429"
       cy="452.36218"
       fx="345.71429"
       fy="452.36218"
       r="192.47151" />
    <radialGradient
       inkscape:collect="always"
       xlink:href="#linearGradient3239"
       id="radialGradient3955"
       gradientUnits="userSpaceOnUse"
       gradientTransform="translate(0,-4.4998114e-6)"
       cx="345.71429"
       cy="452.36218"
       fx="345.71429"
       fy="452.36218"
       r="251.32288" />
    <radialGradient
       inkscape:collect="always"
       xlink:href="#linearGradient3207"
       id="radialGradient3957"
       gradientUnits="userSpaceOnUse"
       gradientTransform="matrix(0.3826834,-0.9238795,0.9238795,0.3826834,-204.51301,598.64903)"
       cx="345.71429"
       cy="452.36218"
       fx="345.71429"
       fy="452.36218"
       r="192.47151" />
    <radialGradient
       inkscape:collect="always"
       xlink:href="#linearGradient3233"
       id="radialGradient3959"
       gradientUnits="userSpaceOnUse"
       gradientTransform="matrix(0.3826834,-0.9238795,0.9238795,0.3826834,-204.51301,598.64903)"
       cx="345.71429"
       cy="452.36218"
       fx="345.71429"
       fy="452.36218"
       r="192.47151" />
    <radialGradient
       inkscape:collect="always"
       xlink:href="#linearGradient3239"
       id="radialGradient3961"
       gradientUnits="userSpaceOnUse"
       gradientTransform="translate(0,-4.4459744e-6)"
       cx="345.71429"
       cy="452.36218"
       fx="345.71429"
       fy="452.36218"
       r="254.36617" />
    <radialGradient
       inkscape:collect="always"
       xlink:href="#linearGradient3305"
       id="radialGradient3963"
       gradientUnits="userSpaceOnUse"
       gradientTransform="matrix(1,0,0,1.0042199,0,-3.208376)"
       cx="322.15863"
       cy="760.29919"
       fx="322.15863"
       fy="760.29919"
       r="329.40756" />
  </defs>
  <g
     id="g3931"
     transform="translate(1.4008809,-4.9463323e-4)">
    <path
       transform="matrix(4.5593212,0,0,5.0285454,961.69814,-486.50636)"
       d="m -80.169945,157.63144 c 0,32.01081 -28.617635,57.9607 -63.919275,57.9607 -35.30164,0 -63.91927,-25.94989 -63.91927,-57.9607 0,-32.01081 28.61763,-57.960698 63.91927,-57.960698 35.30164,0 63.919275,25.949888 63.919275,57.960698 z"
       sodipodi:ry="57.960697"
       sodipodi:rx="63.919273"
       sodipodi:cy="157.63144"
       sodipodi:cx="-144.08922"
       id="path3020"
       style="fill:#000000;fill-opacity:0.50196078;stroke:none;filter:url(#filter3814)"
       sodipodi:type="arc" />
    <g
       id="layer1"
       transform="translate(-44.108051,-152.21171)">
      <path
         inkscape:connector-curvature="0"
         style="fill:url(#radialGradient3943);fill-opacity:1;stroke:none"
         id="path3315"
         transform="translate(-25.714286,-5.7142857)"
         d="m 660,458.07648 a 291.42856,291.42856 0 1 1 -582.857117,0 291.42856,291.42856 0 1 1 582.857117,0 z" />
      <path
         inkscape:connector-curvature="0"
         style="fill:url(#radialGradient3945);fill-opacity:1;fill-rule:evenodd;stroke:url(#radialGradient3947);stroke-width:7.08661413;stroke-linecap:butt;stroke-linejoin:miter;stroke-miterlimit:4;stroke-opacity:1;stroke-dasharray:none"
         id="path3217"
         d="m 537.6858,260.39068 c -18.40856,68.70166 -42.85236,141.67841 -93.14546,191.97151 50.2931,50.2931 74.7369,123.26985 93.14546,191.97151 -68.70166,-18.40856 -141.67841,-42.85236 -191.97151,-93.14546 -50.2931,50.2931 -123.26985,74.7369 -191.97151,93.14546 18.40856,-68.70166 42.85236,-141.67841 93.14546,-191.97151 -50.2931,-50.2931 -74.7369,-123.26985 -93.14546,-191.97151 68.70166,18.40856 141.67841,42.85236 191.97151,93.14546 50.2931,-50.2931 123.26985,-74.7369 191.97151,-93.14546 z" />
      <path
         inkscape:connector-curvature="0"
         style="fill:url(#radialGradient3949);fill-opacity:1;fill-rule:evenodd;stroke:url(#radialGradient3951);stroke-width:7.08661413;stroke-linecap:butt;stroke-linejoin:miter;stroke-miterlimit:4;stroke-opacity:1;stroke-dasharray:none"
         id="path3221"
         d="m 345.71429,180.87348 c 35.56259,61.59622 69.88057,130.48296 69.88057,201.60814 71.12518,0 140.01192,34.31798 201.60814,69.88057 -61.59622,35.56259 -130.48296,69.88057 -201.60814,69.88057 0,71.12518 -34.31798,140.01192 -69.88057,201.60814 -35.56259,-61.59622 -69.88057,-130.48296 -69.88057,-201.60814 -71.12518,0 -140.01192,-34.31798 -201.608143,-69.88057 61.596223,-35.56259 130.482963,-69.88057 201.608143,-69.88057 0,-71.12518 34.31798,-140.01192 69.88057,-201.60814 z" />
      <path
         inkscape:connector-curvature="0"
         style="fill:url(#radialGradient3953);fill-opacity:1;fill-rule:evenodd;stroke:url(#radialGradient3955);stroke-width:7.08661413;stroke-linecap:butt;stroke-linejoin:miter;stroke-miterlimit:4;stroke-opacity:1;stroke-dasharray:none"
         id="path3225"
         d="m 449.60852,201.53932 c 9.2837,70.51671 14.62756,147.29268 -12.59087,213.00378 65.71111,27.21843 116.22123,85.28592 159.51951,141.71332 -70.51671,9.2837 -147.29268,14.62756 -213.00378,-12.59087 C 356.31495,609.37666 298.24746,659.88678 241.82006,703.18506 232.53636,632.66835 227.1925,555.89238 254.41093,490.18128 188.69982,462.96285 138.1897,404.89536 94.891425,348.46796 165.40813,339.18426 242.1841,333.8404 307.8952,361.05883 335.11363,295.34772 393.18112,244.8376 449.60852,201.53932 z" />
      <path
         inkscape:connector-curvature="0"
         style="fill:url(#radialGradient3957);fill-opacity:1;fill-rule:evenodd;stroke:#000000;stroke-width:1px;stroke-linecap:butt;stroke-linejoin:miter;stroke-opacity:1"
         id="path3229"
         d="m 241.82006,201.53932 c 56.4274,43.29828 114.49489,93.8084 141.71332,159.51951 65.7111,-27.21843 142.48707,-21.87457 213.00378,-12.59087 -43.29828,56.4274 -93.8084,114.49489 -159.51951,141.71332 27.21843,65.7111 21.87457,142.48707 12.59087,213.00378 C 393.18112,659.88678 335.11363,609.37666 307.8952,543.66555 242.1841,570.88398 165.40813,565.54012 94.891425,556.25642 138.1897,499.82902 188.69982,441.76153 254.41093,414.5431 227.1925,348.832 232.53636,272.05603 241.82006,201.53932 z" />
      <path
         inkscape:connector-curvature="0"
         style="fill:url(#radialGradient3959);fill-opacity:1;fill-rule:evenodd;stroke:url(#radialGradient3961);stroke-width:7.08661413;stroke-linecap:butt;stroke-linejoin:miter;stroke-miterlimit:4;stroke-opacity:1;stroke-dasharray:none"
         id="path2404"
         d="m 241.82006,201.53932 c 56.4274,43.29828 114.49489,93.8084 141.71332,159.51951 65.7111,-27.21843 142.48707,-21.87457 213.00378,-12.59087 -43.29828,56.4274 -93.8084,114.49489 -159.51951,141.71332 27.21843,65.7111 21.87457,142.48707 12.59087,213.00378 C 393.18112,659.88678 335.11363,609.37666 307.8952,543.66555 242.1841,570.88398 165.40813,565.54012 94.891425,556.25642 138.1897,499.82902 188.69982,441.76153 254.41093,414.5431 227.1925,348.832 232.53636,272.05603 241.82006,201.53932 z" />
      <path
         inkscape:connector-curvature="0"
         style="fill:url(#radialGradient3963);fill-opacity:1;stroke:#ffff00;stroke-width:18.52976036;stroke-miterlimit:4;stroke-opacity:1;stroke-dasharray:none"
         id="path3303"
         transform="matrix(0.382445,0,0,0.382445,221.23768,159.52655)"
         d="m 374.4375,429.5625 c -26.49424,-0.94256 -52.20391,9.08579 -71.0625,27.71875 l -20.40625,20.1875 -24.65625,-14.6875 c -28.37032,-16.89364 -63.4206,-18.06361 -92.85433,-3.09946 -29.43373,14.96415 -49.14106,43.97298 -52.20817,76.84946 l -2.65625,28.53125 -28.3125,4.59375 c -32.600854,5.2842 -60.2151,26.9159 -73.1512991,57.30329 -12.9361994,30.38738 -9.38725655,65.28555 9.4012991,92.44671 L 34.875,743 16.125,764.71875 c -21.5742848,25.00549 -28.81984,59.32693 -19.1938102,90.91907 9.6260296,31.59215 34.7789742,56.04187 66.6313102,64.76843 l 27.65625,7.5625 -0.40625,28.6875 c -0.455967,33.02282 16.05269,63.97295 43.73223,81.98845 27.67955,18.0155 62.66343,20.5797 92.67402,6.7928 l 26.0625,-11.9687 18.125,22.2187 c 20.87522,25.5918 53.41489,38.6922 86.19915,34.7036 32.78426,-3.9887 61.23348,-24.5092 75.36335,-54.3599 l 12.28125,-25.9374 28.15625,5.375 c 32.44735,6.1886 65.80137,-4.696 88.35252,-28.8326 22.55115,-24.13659 31.148,-58.15218 22.77248,-90.10495 l -7.28125,-27.75 25.03125,-13.96875 c 28.83118,-16.11482 47.38444,-45.88875 49.14737,-78.87082 1.76293,-32.98206 -13.51077,-64.56408 -40.45987,-83.66043 L 587.5625,675.6875 597.75,648.875 c 11.7145,-30.87283 6.78326,-65.59585 -13.06359,-91.98645 -19.84685,-26.3906 -51.83784,-40.76353 -84.74891,-38.07605 l -28.59375,2.34375 -9.4375,-27.09375 C 448.8407,456.58215 414.105,430.96783 374.4375,429.5625 z" />
      <path
         inkscape:connector-curvature="0"
         style="font-size:281.44699097px;font-style:normal;font-variant:normal;font-weight:normal;font-stretch:normal;text-align:start;line-height:125%;writing-mode:lr-tb;text-anchor:start;fill:#000000;fill-opacity:1;stroke:none;font-family:Muriel;-inkscape-font-specification:Muriel"
         id="text3289"
         d="m 415.15494,371.94872 c -10.97642,3.09591 -21.95287,9.00631 -29.83338,18.5755 -10.13208,-0.28145 -19.7013,-5.91039 -29.83338,-7.59907 -15.19813,-6.75472 -33.49221,-10.69498 -51.22336,-9.0063 -20.26416,3.37736 -43.06139,18.29407 -47.84598,39.96547 -3.37736,14.07233 1.68869,27.86326 11.25788,37.99534 13.22799,12.10221 32.08497,18.29405 49.25322,11.25788 1.97013,-1.12579 4.2217,-3.65881 3.65881,-6.19183 -2.25157,-3.65881 -5.06605,0.28144 -7.59907,0.28144 -18.29403,4.22171 -37.43246,-1.68869 -48.12743,-18.0126 -6.19183,-9.56919 -4.2217,-23.64156 1.68868,-32.64785 26.45599,-36.30663 76.83506,-17.44971 111.45301,-10.41354 0.84434,0.28144 1.68868,1.12579 2.25157,1.40723 -11.25787,21.95285 -9.5692,50.66049 -9.5692,75.70924 -0.56289,0.28145 -1.12578,0.84434 -1.68868,1.40724 -11.25787,0.56289 -22.51577,1.12579 -33.21074,1.97013 -1.12579,0.56289 -2.25158,0.56289 -2.53303,1.68868 -0.84434,0 -0.84434,0.84434 0,1.40723 10.41353,2.53302 22.79722,1.68869 34.33654,1.97013 1.12578,0.5629 1.40723,0.5629 1.97013,1.68868 2.25157,6.47328 -0.5629,13.22802 0,19.1384 -3.94026,13.228 -8.44343,27.86326 -22.23432,34.89943 -10.97642,6.75472 -28.42615,6.75472 -39.40257,0 -10.97643,-7.03617 -17.16827,-18.29407 -16.04248,-30.67772 0,-3.94026 4.78459,-6.75474 2.25157,-10.1321 -5.06604,0.28145 -6.19183,6.19184 -7.31762,10.41354 -0.84434,14.91668 5.9104,27.86326 18.5755,35.18088 16.04247,10.13208 37.99536,4.50314 52.0677,-5.06605 18.85693,-11.25787 26.45601,-30.3963 26.73746,-51.22335 0,-1.68868 0.5629,-3.37737 2.25158,-3.65881 9.00629,-1.40724 18.57551,0.28144 26.17457,-3.94026 0.84434,-0.84434 0.56289,-1.97013 -0.28145,-3.09592 -9.0063,-0.56289 -18.01262,-1.12579 -26.45602,-1.12579 -0.56289,0 -1.68868,-0.84434 -1.68868,-1.68868 -1.12579,-19.41982 -3.37736,-40.52838 -1.40723,-59.94821 1.40723,-5.06604 0.28145,-10.97643 5.06604,-14.91669 12.10221,-0.28144 23.92301,-1.40724 34.61798,-6.19183 2.81447,-2.25157 6.19183,-5.91039 6.19183,-10.13209 -0.28144,-2.25158 -0.84434,-5.06605 -2.81447,-6.75473 -2.25157,-2.25157 -6.19183,-3.65881 -10.69498,-2.53302 m 6.75473,9.0063 c 0.56289,1.97013 -1.12579,4.22171 -2.53303,5.34749 -7.03616,4.7846 -16.32393,4.7846 -25.04878,5.06605 -1.12579,-0.28145 -0.28145,-1.68868 -0.28145,-2.25158 7.59907,-6.75472 15.4796,-12.94656 25.61168,-10.69498 0.56289,0.56289 1.68868,0.56289 2.25158,2.53302" />
    </g>
  </g>
</svg>
