<svg xmlns="http://www.w3.org/2000/svg" xmlns:xlink="http://www.w3.org/1999/xlink" version="1.2" width="5.62mm" height="5.62mm" viewBox="0 0 3.2000 3.2000">
<!-- Page: 1/1 -->
<path transform="translate(1.6000, 1.6000) scale(0.0040, -0.0040)" d="M-319 46c10 -16 21 -31 31 -47l98 119c4 5 10 7 16 7c7 0 12 -3 16 -9l78 -117l99 119c4 5 9 7 15 7c7 0 13 -3 17 -9l78 -117l98 119c4 5 9 7 15 7c7 0 13 -3 17 -9c25 -38 50 -74 75 -112c13 27 19 56 19 86c0 40 -11 80 -34 114c-9 14 2 31 17 31c7 0 12 -3 16 -9
c27 -41 41 -89 41 -136s-14 -94 -41 -135c-4 -6 -9 -10 -16 -10s-13 3 -17 9c-10 16 -21 31 -31 47l-98 -119c-4 -5 -10 -7 -16 -7c-7 0 -12 3 -16 9l-78 117l-99 -119c-4 -5 -9 -7 -15 -7c-7 0 -13 3 -17 9l-78 117l-98 -119c-4 -5 -10 -7 -16 -7c-7 0 -12 3 -16 9
c-31 47 -62 93 -93 140c-2 3 -4 7 -4 11c0 11 9 20 20 20c7 0 13 -3 17 -9z" fill="currentColor"/>
</svg>
