<svg xmlns="http://www.w3.org/2000/svg" xmlns:xlink="http://www.w3.org/1999/xlink" version="1.2" width="5.62mm" height="5.62mm" viewBox="0 0 3.2000 3.2000">
<!-- Page: 1/1 -->
<path transform="translate(1.6000, 1.6000) scale(0.0040, -0.0040)" d="M139 132c74 0 134 -58 134 -132c0 -70 -47 -132 -114 -132c-35 0 -68 21 -68 53c0 35 28 53 54 53c20 0 39 -10 48 -31c27 4 50 26 50 57s-28 54 -61 54c-64 0 -110 -53 -157 -97s-99 -89 -164 -89c-74 0 -134 58 -134 132c0 70 47 132 114 132c35 0 68 -21 68 -53
c0 -35 -28 -53 -54 -53c-20 0 -39 10 -48 31c-27 -4 -50 -26 -50 -57s28 -54 61 -54c64 0 110 53 157 97s99 89 164 89z" fill="currentColor"/>
</svg>
