<svg xmlns="http://www.w3.org/2000/svg" xmlns:xlink="http://www.w3.org/1999/xlink" version="1.2" width="5.62mm" height="5.62mm" viewBox="0 0 3.2000 3.2000">
<!-- Page: 1/1 -->
<path transform="translate(1.6000, 2.0500) scale(0.0040, -0.0040)" d="M-60 60c0 33 27 60 60 60s60 -27 60 -60s-27 -60 -60 -60s-60 27 -60 60zM-240 225h480c6 0 10 -4 10 -10v-196c0 -10 -9 -19 -19 -19s-19 9 -19 19v131h-424v-131c0 -10 -9 -19 -19 -19s-19 9 -19 19v196c0 6 4 10 10 10zM-365 400h730c6 0 10 -4 10 -10v-371
c0 -10 -9 -19 -19 -19s-19 9 -19 19v256h-674v-256c0 -10 -9 -19 -19 -19s-19 9 -19 19v371c0 6 4 10 10 10z" fill="currentColor"/>
</svg>
