<svg xmlns="http://www.w3.org/2000/svg" xmlns:xlink="http://www.w3.org/1999/xlink" version="1.2" width="5.62mm" height="5.62mm" viewBox="0 0 3.2000 3.2000">
<!-- Page: 1/1 -->
<path transform="translate(1.6000, 1.6000) scale(0.0033, -0.0033)" d="M-46 84l-242 -63l-141 -21l141 -21l242 -63c9 -2 16 -10 16 -20c0 -12 -9 -21 -21 -21c-2 0 -3 1 -5 1l-398 103c-14 0 -21 7 -21 21s7 21 21 21l398 103c2 0 3 1 5 1c12 0 21 -9 21 -21c0 -10 -7 -18 -16 -20zM46 84c-9 2 -16 10 -16 20c0 12 9 21 21 21c2 0 3 -1 5 -1
l398 -103c14 0 21 -7 21 -21s-7 -21 -21 -21l-398 -103c-2 0 -3 -1 -5 -1c-12 0 -21 9 -21 21c0 10 7 18 16 20l242 63l141 21l-141 21z" fill="currentColor"/>
</svg>
