<svg xmlns="http://www.w3.org/2000/svg" xmlns:xlink="http://www.w3.org/1999/xlink" version="1.2" width="5.62mm" height="5.62mm" viewBox="0 0 3.2000 3.2000">
<!-- Page: 1/1 -->
<path transform="translate(1.6000, 1.6000) scale(0.0040, -0.0040)" d="M124 -147c0 -11 -9 -20 -20 -20s-20 9 -20 20v81l-33 -50c-4 -6 -10 -9 -17 -9c-6 0 -11 2 -15 7l-99 119l-78 -117c-4 -6 -9 -9 -16 -9c-6 0 -12 2 -16 7l-98 119c-10 -16 -21 -31 -31 -47c-23 -34 -34 -74 -34 -114s11 -80 34 -114c9 -14 -2 -31 -17 -31
c-7 0 -12 3 -16 9c-27 41 -41 89 -41 136s14 95 41 136c31 47 62 93 93 140c4 6 10 9 17 9c6 0 11 -2 15 -7l98 -119l78 117c4 6 10 9 17 9c6 0 11 -2 15 -7l99 -119l4 7v141c0 11 9 20 20 20s20 -9 20 -20v-81l34 50c4 6 9 9 16 9c6 0 12 -2 16 -7l98 -119
c10 16 21 31 31 47c4 6 10 9 17 9c11 0 20 -9 20 -20c0 -4 -2 -8 -4 -11c-31 -47 -62 -93 -93 -140c-4 -6 -9 -9 -16 -9c-6 0 -12 2 -16 7l-98 119l-5 -7v-141z" fill="currentColor"/>
</svg>
