<svg xmlns="http://www.w3.org/2000/svg" xmlns:xlink="http://www.w3.org/1999/xlink" version="1.2" width="5.62mm" height="5.62mm" viewBox="0 0 3.2000 3.2000">
<!-- Page: 1/1 -->
<path transform="translate(1.6000, 1.6000) scale(0.0040, -0.0040)" d="M15 -338c0 -8 -7 -15 -15 -15s-15 7 -15 15v89c-97 10 -147 120 -151 234h-88c-8 0 -15 7 -15 15s7 15 15 15h88c4 114 54 224 151 234v89c0 8 7 15 15 15s15 -7 15 -15v-89c97 -10 147 -120 151 -234h88c8 0 15 -7 15 -15s-7 -15 -15 -15h-88
c-4 -114 -54 -224 -151 -234v-89zM15 -15v-204c70 12 77 111 78 204h-78zM15 15h78c-1 93 -8 192 -78 204v-204zM-15 -15h-78c1 -93 8 -192 78 -204v204zM-15 15v204c-70 -12 -77 -111 -78 -204h78z" fill="currentColor"/>
</svg>
