<svg xmlns="http://www.w3.org/2000/svg" xmlns:xlink="http://www.w3.org/1999/xlink" version="1.2" width="14.06mm" height="14.06mm" viewBox="0 0 8.0000 8.0000">
<!-- Page: 1/1 -->
<line transform="translate(2.0000, 6.0000)" stroke-linejoin="round" stroke-linecap="round" stroke-width="0.1000" stroke="currentColor" x1="0.0500" y1="-0.0000" x2="3.9500" y2="-0.0000"/>
<line transform="translate(2.0000, 5.0000)" stroke-linejoin="round" stroke-linecap="round" stroke-width="0.1000" stroke="currentColor" x1="0.0500" y1="-0.0000" x2="3.9500" y2="-0.0000"/>
<line transform="translate(2.0000, 4.0000)" stroke-linejoin="round" stroke-linecap="round" stroke-width="0.1000" stroke="currentColor" x1="0.0500" y1="-0.0000" x2="3.9500" y2="-0.0000"/>
<line transform="translate(2.0000, 3.0000)" stroke-linejoin="round" stroke-linecap="round" stroke-width="0.1000" stroke="currentColor" x1="0.0500" y1="-0.0000" x2="3.9500" y2="-0.0000"/>
<line transform="translate(2.0000, 2.0000)" stroke-linejoin="round" stroke-linecap="round" stroke-width="0.1000" stroke="currentColor" x1="0.0500" y1="-0.0000" x2="3.9500" y2="-0.0000"/>
<path transform="translate(2.8000, 5.0000) scale(0.0040, -0.0040)" d="M335 -262c-188 0 -333 172 -333 374c0 181 132 314 251 452c-22 70 -40 142 -49 215c-6 55 -8 109 -8 165c0 119 55 230 150 302c3 2 7 4 10 4c4 0 7 -1 10 -4c77 -89 145 -263 145 -384c0 -149 -90 -265 -188 -379c23 -73 44 -147 63 -221c1 0 2 1 3 1
c155 0 256 -128 256 -261c0 -76 -33 -154 -107 -210c-25 -19 -53 -31 -83 -39v-32c0 -48 -1 -97 -4 -145c-7 -122 -95 -228 -216 -228c-112 0 -202 92 -202 205c0 58 53 104 112 104c54 0 95 -48 95 -104c0 -52 -43 -95 -95 -95c-12 0 -23 3 -34 8c26 -45 73 -75 127 -75
c98 0 165 91 171 191c3 46 4 93 4 139v23c-26 -4 -51 -6 -78 -6zM454 -205c72 23 121 95 121 167c0 88 -63 176 -164 191c23 -109 39 -236 43 -358zM338 -219c25 0 50 1 74 4c-4 126 -21 258 -45 370c-86 -5 -135 -61 -135 -122c0 -44 26 -92 82 -124c5 -5 7 -10 7 -15
c0 -11 -10 -22 -22 -22c-3 0 -6 1 -9 2c-80 43 -117 115 -117 185c0 91 62 179 170 199c-16 63 -34 125 -53 187c-109 -125 -218 -250 -218 -415c0 -136 130 -249 266 -249zM406 1103c-100 -53 -163 -157 -163 -270c0 -87 22 -158 43 -230c84 102 155 209 155 341
c0 70 -7 98 -35 159z" fill="currentColor"/>
</svg>
