<svg xmlns="http://www.w3.org/2000/svg" xmlns:xlink="http://www.w3.org/1999/xlink" version="1.2" width="8.44mm" height="8.44mm" viewBox="0 0 4.8000 4.8000">
<!-- Page: 1/1 -->
<g transform="translate(0.2660, 3.2000)" >
<path transform="scale(0.0027, -0.0027)" d="M251 232l-48 -158c-30 -99 -121 -255 -218 -255c-47 0 -87 35 -87 80c0 39 17 77 52 77c24 0 44 -20 44 -44c0 -30 -38 -24 -38 -54c0 -10 11 -11 23 -11h6c45 0 61 51 73 98l67 267h-43c-14 0 -24 11 -24 25s10 24 24 24h56c33 94 119 186 212 186c47 0 87 -35 87 -80
c0 -39 -17 -77 -52 -77c-24 0 -44 20 -44 44c0 30 38 24 38 54c0 10 -10 11 -22 11h-7c-56 0 -70 -77 -85 -138h48c14 0 25 -10 25 -24s-11 -25 -25 -25h-62z" fill="currentColor"/>

<path transform="translate(0.8536, 0.0000) scale(0.0027, -0.0027)" d="M251 232l-48 -158c-30 -99 -121 -255 -218 -255c-47 0 -87 35 -87 80c0 39 17 77 52 77c24 0 44 -20 44 -44c0 -30 -38 -24 -38 -54c0 -10 11 -11 23 -11h6c45 0 61 51 73 98l67 267h-43c-14 0 -24 11 -24 25s10 24 24 24h56c33 94 119 186 212 186c47 0 87 -35 87 -80
c0 -39 -17 -77 -52 -77c-24 0 -44 20 -44 44c0 30 38 24 38 54c0 10 -10 11 -22 11h-7c-56 0 -70 -77 -85 -138h48c14 0 25 -10 25 -24s-11 -25 -25 -25h-62z" fill="currentColor"/>

<path transform="translate(1.7072, 0.0000) scale(0.0027, -0.0027)" d="M251 232l-48 -158c-30 -99 -121 -255 -218 -255c-47 0 -87 35 -87 80c0 39 17 77 52 77c24 0 44 -20 44 -44c0 -30 -38 -24 -38 -54c0 -10 11 -11 23 -11h6c45 0 61 51 73 98l67 267h-43c-14 0 -24 11 -24 25s10 24 24 24h56c33 94 119 186 212 186c47 0 87 -35 87 -80
c0 -39 -17 -77 -52 -77c-24 0 -44 20 -44 44c0 30 38 24 38 54c0 10 -10 11 -22 11h-7c-56 0 -70 -77 -85 -138h48c14 0 25 -10 25 -24s-11 -25 -25 -25h-62z" fill="currentColor"/>

<path transform="translate(2.5607, 0.0000) scale(0.0027, -0.0027)" d="M251 232l-48 -158c-30 -99 -121 -255 -218 -255c-47 0 -87 35 -87 80c0 39 17 77 52 77c24 0 44 -20 44 -44c0 -30 -38 -24 -38 -54c0 -10 11 -11 23 -11h6c45 0 61 51 73 98l67 267h-43c-14 0 -24 11 -24 25s10 24 24 24h56c33 94 119 186 212 186c47 0 87 -35 87 -80
c0 -39 -17 -77 -52 -77c-24 0 -44 20 -44 44c0 30 38 24 38 54c0 10 -10 11 -22 11h-7c-56 0 -70 -77 -85 -138h48c14 0 25 -10 25 -24s-11 -25 -25 -25h-62z" fill="currentColor"/>

<path transform="translate(3.4143, 0.0000) scale(0.0027, -0.0027)" d="M251 232l-48 -158c-30 -99 -121 -255 -218 -255c-47 0 -87 35 -87 80c0 39 17 77 52 77c24 0 44 -20 44 -44c0 -30 -38 -24 -38 -54c0 -10 11 -11 23 -11h6c45 0 61 51 73 98l67 267h-43c-14 0 -24 11 -24 25s10 24 24 24h56c33 94 119 186 212 186c47 0 87 -35 87 -80
c0 -39 -17 -77 -52 -77c-24 0 -44 20 -44 44c0 30 38 24 38 54c0 10 -10 11 -22 11h-7c-56 0 -70 -77 -85 -138h48c14 0 25 -10 25 -24s-11 -25 -25 -25h-62z" fill="currentColor"/>
</g>
</svg>
