<svg xmlns="http://www.w3.org/2000/svg" xmlns:xlink="http://www.w3.org/1999/xlink" version="1.2" width="8.44mm" height="8.44mm" viewBox="0 0 4.8000 4.8000">
<!-- Page: 1/1 -->
<g transform="translate(0.7953, 3.2000)" >
<path transform="scale(0.0040, -0.0040)" d="M180 216c0 10 9 19 9 29c0 13 -6 23 -18 23c-26 0 -47 -20 -47 -45c0 -17 16 -28 31 -37c33 -19 68 -42 68 -80c0 -61 -56 -106 -120 -106c-43 0 -81 28 -81 68c0 21 12 42 31 42c18 0 32 -14 32 -32c0 -13 -21 -16 -21 -29c0 -15 18 -22 35 -22c33 0 64 20 64 51
c0 57 -100 60 -100 117c0 54 45 97 99 97c56 0 79 -34 79 -62c0 -19 -11 -36 -30 -36c-18 0 -31 11 -31 22z" fill="currentColor"/>

<path transform="translate(0.8194, 0.0000) scale(0.0040, -0.0040)" d="M253 245l-50 -163c-30 -99 -121 -255 -218 -255c-45 0 -87 27 -87 69c0 39 17 77 52 77c24 0 44 -20 44 -44c0 -30 -38 -24 -38 -54c0 -10 11 -11 23 -11h6c48 0 61 58 73 108l68 273h-49c-11 0 -19 8 -19 19s8 19 19 19h60c32 96 118 191 213 191c45 0 87 -27 87 -69
c0 -39 -17 -77 -52 -77c-24 0 -44 19 -44 43c0 30 38 25 38 55c0 10 -10 11 -22 11h-7c-62 0 -70 -88 -86 -154h55c11 0 19 -8 19 -19s-8 -19 -19 -19h-66z" fill="currentColor"/>

<path transform="translate(2.0827, 0.0000) scale(0.0040, -0.0040)" d="M264 127c19 0 22 -45 22 -61c0 -52 -45 -94 -98 -94c-42 0 -73 39 -115 39c-8 0 -16 1 -24 1c-10 0 -19 -1 -26 -8c-3 -3 -6 -4 -9 -4c-7 0 -14 7 -14 14c0 3 1 7 4 10l186 176c-34 -6 -71 -5 -105 -11c-14 -2 -29 -7 -40 -7c-10 0 -17 4 -17 15c0 32 38 70 71 70
c32 0 62 -22 94 -22c8 0 15 -1 23 -1c11 0 22 1 30 9c3 3 7 4 10 4c7 0 14 -7 14 -14c0 -3 -2 -7 -5 -10l-177 -167h5c42 0 83 -11 125 -11c20 0 35 17 35 38c0 7 -4 14 -4 21c0 8 8 13 15 13z" fill="currentColor"/>
</g>
</svg>
