<svg xmlns="http://www.w3.org/2000/svg" xmlns:xlink="http://www.w3.org/1999/xlink" version="1.2" width="8.44mm" height="8.44mm" viewBox="0 0 4.8000 4.8000">
<!-- Page: 1/1 -->
<g transform="translate(0.0100, 3.2000)" >
<path transform="scale(0.0027, -0.0027)" d="M233 243c-56 0 -103 -109 -103 -175c0 -22 8 -39 30 -39c63 0 98 129 98 181c0 18 -7 33 -25 33zM109 -146c-36 0 -75 5 -112 5c-38 0 -75 -5 -111 -5c-11 0 -17 9 -17 18c0 21 29 19 49 20c24 1 48 10 56 32l97 285c3 8 6 17 6 23c0 7 -3 11 -10 11
c-33 0 -55 -61 -71 -97c-6 -15 -20 -22 -31 -22c-10 0 -18 5 -18 15c0 3 1 7 3 11c30 68 73 142 134 142c34 0 56 -22 63 -52c29 31 67 52 103 52c69 0 107 -49 107 -114c0 -21 -4 -44 -12 -67c-20 -59 -91 -121 -147 -121c-27 0 -52 5 -73 17c-10 6 -24 4 -27 -5l-23 -67
c-1 -4 -2 -9 -2 -13c0 -23 14 -31 37 -33c11 -1 16 -9 16 -17c0 -9 -6 -18 -17 -18z" fill="currentColor"/>

<path transform="translate(0.9560, 0.0000) scale(0.0027, -0.0027)" d="M233 243c-56 0 -103 -109 -103 -175c0 -22 8 -39 30 -39c63 0 98 129 98 181c0 18 -7 33 -25 33zM109 -146c-36 0 -75 5 -112 5c-38 0 -75 -5 -111 -5c-11 0 -17 9 -17 18c0 21 29 19 49 20c24 1 48 10 56 32l97 285c3 8 6 17 6 23c0 7 -3 11 -10 11
c-33 0 -55 -61 -71 -97c-6 -15 -20 -22 -31 -22c-10 0 -18 5 -18 15c0 3 1 7 3 11c30 68 73 142 134 142c34 0 56 -22 63 -52c29 31 67 52 103 52c69 0 107 -49 107 -114c0 -21 -4 -44 -12 -67c-20 -59 -91 -121 -147 -121c-27 0 -52 5 -73 17c-10 6 -24 4 -27 -5l-23 -67
c-1 -4 -2 -9 -2 -13c0 -23 14 -31 37 -33c11 -1 16 -9 16 -17c0 -9 -6 -18 -17 -18z" fill="currentColor"/>

<path transform="translate(1.9120, 0.0000) scale(0.0027, -0.0027)" d="M233 243c-56 0 -103 -109 -103 -175c0 -22 8 -39 30 -39c63 0 98 129 98 181c0 18 -7 33 -25 33zM109 -146c-36 0 -75 5 -112 5c-38 0 -75 -5 -111 -5c-11 0 -17 9 -17 18c0 21 29 19 49 20c24 1 48 10 56 32l97 285c3 8 6 17 6 23c0 7 -3 11 -10 11
c-33 0 -55 -61 -71 -97c-6 -15 -20 -22 -31 -22c-10 0 -18 5 -18 15c0 3 1 7 3 11c30 68 73 142 134 142c34 0 56 -22 63 -52c29 31 67 52 103 52c69 0 107 -49 107 -114c0 -21 -4 -44 -12 -67c-20 -59 -91 -121 -147 -121c-27 0 -52 5 -73 17c-10 6 -24 4 -27 -5l-23 -67
c-1 -4 -2 -9 -2 -13c0 -23 14 -31 37 -33c11 -1 16 -9 16 -17c0 -9 -6 -18 -17 -18z" fill="currentColor"/>

<path transform="translate(2.8680, 0.0000) scale(0.0027, -0.0027)" d="M233 243c-56 0 -103 -109 -103 -175c0 -22 8 -39 30 -39c63 0 98 129 98 181c0 18 -7 33 -25 33zM109 -146c-36 0 -75 5 -112 5c-38 0 -75 -5 -111 -5c-11 0 -17 9 -17 18c0 21 29 19 49 20c24 1 48 10 56 32l97 285c3 8 6 17 6 23c0 7 -3 11 -10 11
c-33 0 -55 -61 -71 -97c-6 -15 -20 -22 -31 -22c-10 0 -18 5 -18 15c0 3 1 7 3 11c30 68 73 142 134 142c34 0 56 -22 63 -52c29 31 67 52 103 52c69 0 107 -49 107 -114c0 -21 -4 -44 -12 -67c-20 -59 -91 -121 -147 -121c-27 0 -52 5 -73 17c-10 6 -24 4 -27 -5l-23 -67
c-1 -4 -2 -9 -2 -13c0 -23 14 -31 37 -33c11 -1 16 -9 16 -17c0 -9 -6 -18 -17 -18z" fill="currentColor"/>

<path transform="translate(3.8241, 0.0000) scale(0.0027, -0.0027)" d="M233 243c-56 0 -103 -109 -103 -175c0 -22 8 -39 30 -39c63 0 98 129 98 181c0 18 -7 33 -25 33zM109 -146c-36 0 -75 5 -112 5c-38 0 -75 -5 -111 -5c-11 0 -17 9 -17 18c0 21 29 19 49 20c24 1 48 10 56 32l97 285c3 8 6 17 6 23c0 7 -3 11 -10 11
c-33 0 -55 -61 -71 -97c-6 -15 -20 -22 -31 -22c-10 0 -18 5 -18 15c0 3 1 7 3 11c30 68 73 142 134 142c34 0 56 -22 63 -52c29 31 67 52 103 52c69 0 107 -49 107 -114c0 -21 -4 -44 -12 -67c-20 -59 -91 -121 -147 -121c-27 0 -52 5 -73 17c-10 6 -24 4 -27 -5l-23 -67
c-1 -4 -2 -9 -2 -13c0 -23 14 -31 37 -33c11 -1 16 -9 16 -17c0 -9 -6 -18 -17 -18z" fill="currentColor"/>
</g>
</svg>
