<svg xmlns="http://www.w3.org/2000/svg" xmlns:xlink="http://www.w3.org/1999/xlink" version="1.2" width="7.73mm" height="7.73mm" viewBox="0 0 4.4000 4.4000">
<!-- Page: 1/1 -->
<a style="color:inherit;" xlink:href="textedit:///home/wilbert/dev/frescobaldi/frescobaldi_app/symbols/glissando_defaults.ily:50:7:8">
<g transform="rotate(-45.0000, 0.2000, 4.1058)">
<path transform="translate(4.2000, 4.5058) scale(0.0040, -0.0040)" d="M-28 42c-3 -4 -8 -6 -12 -6c-8 0 -16 7 -16 16c0 3 1 7 4 10l107 128c6 8 13 11 20 11c24 0 51 -39 78 -68c14 -15 34 -23 53 -23c17 0 33 5 47 17l25 31c3 4 8 6 12 6c8 0 16 -7 16 -16c0 -3 -1 -7 -4 -10l-107 -128c-6 -8 -13 -11 -20 -11c-24 0 -51 39 -78 68
c-14 15 -34 23 -53 23c-17 0 -33 -5 -47 -17z" fill="currentColor"/>
<path transform="translate(3.2000, 4.5058) scale(0.0040, -0.0040)" d="M-28 42c-3 -4 -8 -6 -12 -6c-8 0 -16 7 -16 16c0 3 1 7 4 10l107 128c6 8 13 11 20 11c24 0 51 -39 78 -68c14 -15 34 -23 53 -23c17 0 33 5 47 17l25 31c3 4 8 6 12 6c8 0 16 -7 16 -16c0 -3 -1 -7 -4 -10l-107 -128c-6 -8 -13 -11 -20 -11c-24 0 -51 39 -78 68
c-14 15 -34 23 -53 23c-17 0 -33 -5 -47 -17z" fill="currentColor"/>
<path transform="translate(2.2000, 4.5058) scale(0.0040, -0.0040)" d="M-28 42c-3 -4 -8 -6 -12 -6c-8 0 -16 7 -16 16c0 3 1 7 4 10l107 128c6 8 13 11 20 11c24 0 51 -39 78 -68c14 -15 34 -23 53 -23c17 0 33 5 47 17l25 31c3 4 8 6 12 6c8 0 16 -7 16 -16c0 -3 -1 -7 -4 -10l-107 -128c-6 -8 -13 -11 -20 -11c-24 0 -51 39 -78 68
c-14 15 -34 23 -53 23c-17 0 -33 -5 -47 -17z" fill="currentColor"/>
<path transform="translate(1.2000, 4.5058) scale(0.0040, -0.0040)" d="M-28 42c-3 -4 -8 -6 -12 -6c-8 0 -16 7 -16 16c0 3 1 7 4 10l107 128c6 8 13 11 20 11c24 0 51 -39 78 -68c14 -15 34 -23 53 -23c17 0 33 5 47 17l25 31c3 4 8 6 12 6c8 0 16 -7 16 -16c0 -3 -1 -7 -4 -10l-107 -128c-6 -8 -13 -11 -20 -11c-24 0 -51 39 -78 68
c-14 15 -34 23 -53 23c-17 0 -33 -5 -47 -17z" fill="currentColor"/>
<path transform="translate(0.2000, 4.5058) scale(0.0040, -0.0040)" d="M-28 42c-3 -4 -8 -6 -12 -6c-8 0 -16 7 -16 16c0 3 1 7 4 10l107 128c6 8 13 11 20 11c24 0 51 -39 78 -68c14 -15 34 -23 53 -23c17 0 33 5 47 17l25 31c3 4 8 6 12 6c8 0 16 -7 16 -16c0 -3 -1 -7 -4 -10l-107 -128c-6 -8 -13 -11 -20 -11c-24 0 -51 39 -78 68
c-14 15 -34 23 -53 23c-17 0 -33 -5 -47 -17z" fill="currentColor"/>
</g>
</a>
<a style="color:inherit;" xlink:href="textedit:///home/wilbert/dev/frescobaldi/frescobaldi_app/symbols/glissando_trill.ly:3:0:1">
</a>
<a style="color:inherit;" xlink:href="textedit:///home/wilbert/dev/frescobaldi/frescobaldi_app/symbols/glissando_trill.ly:3:0:1">
</a>
</svg>
