<svg xmlns="http://www.w3.org/2000/svg" xmlns:xlink="http://www.w3.org/1999/xlink" version="1.2" width="7.73mm" height="7.73mm" viewBox="0 0 4.4000 4.4000">
<!-- Page: 1/1 -->
<line transform="translate(3.7000, 0.7000)" stroke-linejoin="round" stroke-linecap="round" stroke-width="0.1000" stroke="currentColor" x1="0.0335" y1="-0.4665" x2="0.7165" y2="-0.2835"/>
<line transform="translate(3.7000, 0.7000)" stroke-linejoin="round" stroke-linecap="round" stroke-width="0.1000" stroke="currentColor" x1="0.2165" y1="0.2165" x2="0.0335" y2="-0.4665"/>
<line transform="translate(3.2000, 1.2000)" stroke-linejoin="round" stroke-linecap="round" stroke-width="0.1000" stroke="currentColor" x1="0.0335" y1="-0.4665" x2="0.7165" y2="-0.2835"/>
<line transform="translate(3.2000, 1.2000)" stroke-linejoin="round" stroke-linecap="round" stroke-width="0.1000" stroke="currentColor" x1="0.2165" y1="0.2165" x2="0.0335" y2="-0.4665"/>
<line transform="translate(2.7000, 1.7000)" stroke-linejoin="round" stroke-linecap="round" stroke-width="0.1000" stroke="currentColor" x1="0.0335" y1="-0.4665" x2="0.7165" y2="-0.2835"/>
<line transform="translate(2.7000, 1.7000)" stroke-linejoin="round" stroke-linecap="round" stroke-width="0.1000" stroke="currentColor" x1="0.2165" y1="0.2165" x2="0.0335" y2="-0.4665"/>
<line transform="translate(2.2000, 2.2000)" stroke-linejoin="round" stroke-linecap="round" stroke-width="0.1000" stroke="currentColor" x1="0.0335" y1="-0.4665" x2="0.7165" y2="-0.2835"/>
<line transform="translate(2.2000, 2.2000)" stroke-linejoin="round" stroke-linecap="round" stroke-width="0.1000" stroke="currentColor" x1="0.2165" y1="0.2165" x2="0.0335" y2="-0.4665"/>
<line transform="translate(1.7000, 2.7000)" stroke-linejoin="round" stroke-linecap="round" stroke-width="0.1000" stroke="currentColor" x1="0.0335" y1="-0.4665" x2="0.7165" y2="-0.2835"/>
<line transform="translate(1.7000, 2.7000)" stroke-linejoin="round" stroke-linecap="round" stroke-width="0.1000" stroke="currentColor" x1="0.2165" y1="0.2165" x2="0.0335" y2="-0.4665"/>
<line transform="translate(1.2000, 3.2000)" stroke-linejoin="round" stroke-linecap="round" stroke-width="0.1000" stroke="currentColor" x1="0.0335" y1="-0.4665" x2="0.7165" y2="-0.2835"/>
<line transform="translate(1.2000, 3.2000)" stroke-linejoin="round" stroke-linecap="round" stroke-width="0.1000" stroke="currentColor" x1="0.2165" y1="0.2165" x2="0.0335" y2="-0.4665"/>
<line transform="translate(0.7000, 3.7000)" stroke-linejoin="round" stroke-linecap="round" stroke-width="0.1000" stroke="currentColor" x1="0.0335" y1="-0.4665" x2="0.7165" y2="-0.2835"/>
<line transform="translate(0.7000, 3.7000)" stroke-linejoin="round" stroke-linecap="round" stroke-width="0.1000" stroke="currentColor" x1="0.2165" y1="0.2165" x2="0.0335" y2="-0.4665"/>
<line transform="translate(0.2000, 4.2000)" stroke-linejoin="round" stroke-linecap="round" stroke-width="0.1000" stroke="currentColor" x1="0.0335" y1="-0.4665" x2="0.7165" y2="-0.2835"/>
<line transform="translate(0.2000, 4.2000)" stroke-linejoin="round" stroke-linecap="round" stroke-width="0.1000" stroke="currentColor" x1="0.2165" y1="0.2165" x2="0.0335" y2="-0.4665"/>
</svg>
