<?xml version="1.0" encoding="UTF-8" standalone="no"?>
<svg
   xmlns:dc="http://purl.org/dc/elements/1.1/"
   xmlns:cc="http://creativecommons.org/ns#"
   xmlns:rdf="http://www.w3.org/1999/02/22-rdf-syntax-ns#"
   xmlns:svg="http://www.w3.org/2000/svg"
   xmlns="http://www.w3.org/2000/svg"
   xmlns:sodipodi="http://sodipodi.sourceforge.net/DTD/sodipodi-0.dtd"
   xmlns:inkscape="http://www.inkscape.org/namespaces/inkscape"
   version="1.2"
   width="7.73mm"
   height="7.73mm"
   viewBox="0 0 4.4000 4.4000"
   id="svg3054"
   inkscape:version="0.48.4 r9939"
   sodipodi:docname="grace_accia.svg">
  <metadata
     id="metadata3076">
    <rdf:RDF>
      <cc:Work
         rdf:about="">
        <dc:format>image/svg+xml</dc:format>
        <dc:type
           rdf:resource="http://purl.org/dc/dcmitype/StillImage" />
      </cc:Work>
    </rdf:RDF>
  </metadata>
  <defs
     id="defs3074" />
  <sodipodi:namedview
     pagecolor="#ffffff"
     bordercolor="#666666"
     borderopacity="1"
     objecttolerance="10"
     gridtolerance="10"
     guidetolerance="10"
     inkscape:pageopacity="0"
     inkscape:pageshadow="2"
     inkscape:window-width="1535"
     inkscape:window-height="876"
     id="namedview3072"
     showgrid="false"
     inkscape:zoom="8.6163573"
     inkscape:cx="13.694882"
     inkscape:cy="13.694882"
     inkscape:window-x="65"
     inkscape:window-y="24"
     inkscape:window-maximized="1"
     inkscape:current-layer="svg3054" />
  <!-- Page: 1/1 -->
  <path
     d="M 0.83640924,3.7020656 C 1.2929214,4.2408945 2.1001064,4.3003991 2.6213114,3.8336462 2.106797,4.196401 1.2996119,4.1368964 0.83640924,3.7020656 z"
     id="path3056"
     inkscape:connector-curvature="0"
     style="fill:currentColor;stroke:currentColor;stroke-width:0.06717022;stroke-linecap:round;stroke-linejoin:round" />
  <path
     d="m 3.235695,0.25138172 c 0,0.68801312 0.6784351,1.16406258 0.6784351,1.85207568 0,0.2467118 -0.051938,0.4899488 -0.1363362,0.7192865 -0.01623,0.027798 -0.038953,0.041698 -0.061676,0.041698 -0.042199,0 -0.084399,-0.038223 -0.07466,-0.09382 0.084399,-0.2119637 0.1363363,-0.4378266 0.1363363,-0.6671643 0,-0.3613806 -0.3083796,-0.7227612 -0.5420989,-0.9833723 H 3.1837574 V 0.25138172 h 0.051938 z"
     id="path3058"
     inkscape:connector-curvature="0"
     style="fill:currentColor" />
  <rect
     x="3.1301968"
     y="0.2166336"
     width="0.10549828"
     height="2.8773196"
     ry="0.034748137"
     id="rect3060"
     style="fill:currentColor" />
  <path
     d="m 2.8817077,2.7775713 c 0.1817817,0 0.353825,0.1007696 0.353825,0.316208 0,0.2501866 -0.1817816,0.4204525 -0.3343484,0.5177473 -0.1168596,0.072971 -0.2467036,0.1250933 -0.3797938,0.1250933 -0.1817816,0 -0.353825,-0.1007696 -0.353825,-0.3162081 0,-0.2501866 0.1817817,-0.4204524 0.3343484,-0.5177472 0.1168597,-0.072971 0.2467037,-0.1250933 0.3797938,-0.1250933 z"
     id="path3062"
     inkscape:connector-curvature="0"
     style="fill:currentColor" />
  <path
     d="m 1.7611537,1.392163 c 0.040901,0 0.072713,0.034053 0.072713,0.077836 0,0.021891 -0.011361,0.04135 -0.027267,0.055944 L 0.98858174,2.2313306 c -0.011361,0.00973 -0.027267,0.017027 -0.043173,0.017027 h -0.00227 c -0.038629,0 -0.07044,-0.036485 -0.07044,-0.077836 0,-0.021891 0.011361,-0.04135 0.027267,-0.055945 L 1.7179806,1.4091896 c 0.011361,-0.00973 0.027267,-0.017027 0.043173,-0.017027 z"
     id="path3064"
     inkscape:connector-curvature="0"
     style="fill:currentColor" />
  <path
     d="m 1.2862492,0.85947414 c 0,0.47917676 0.4749045,0.80997906 0.4749045,1.28915586 0,0.1726982 -0.034084,0.3405317 -0.093163,0.5010681 -0.011361,0.024324 -0.031812,0.031621 -0.052262,0.031621 -0.031812,0 -0.063624,-0.024324 -0.063624,-0.063242 V 2.6059155 C 1.6134561,2.4624057 1.6498125,2.306734 1.6498125,2.14863 c 0,-0.2481017 -0.2067767,-0.4986358 -0.3635633,-0.6810635 H 1.2385315 V 0.85947414 h 0.047718 z"
     id="path3066"
     inkscape:connector-curvature="0"
     style="fill:currentColor" />
  <rect
     x="1.180751"
     y="0.8247261"
     width="0.10549828"
     height="2.3318605"
     ry="0.034748137"
     id="rect3068"
     style="fill:currentColor" />
  <path
     d="m 1.0122782,2.9141315 c 0.1386086,0 0.2658557,0.080268 0.2658557,0.2432369 0,0.1726983 -0.1181581,0.2943168 -0.2249548,0.3624231 -0.077257,0.048647 -0.16587566,0.080268 -0.25449426,0.080268 -0.1386085,0 -0.2658557,-0.080268 -0.2658557,-0.243237 0,-0.1726982 0.1181581,-0.2943167 0.2249548,-0.362423 0.077257,-0.048647 0.1658758,-0.080268 0.25449426,-0.080268 z"
     id="path3070"
     inkscape:connector-curvature="0"
     style="fill:currentColor" />
</svg>
