<?xml version="1.0" encoding="UTF-8" standalone="no"?>
<svg
   xmlns:dc="http://purl.org/dc/elements/1.1/"
   xmlns:cc="http://creativecommons.org/ns#"
   xmlns:rdf="http://www.w3.org/1999/02/22-rdf-syntax-ns#"
   xmlns:svg="http://www.w3.org/2000/svg"
   xmlns="http://www.w3.org/2000/svg"
   xmlns:sodipodi="http://sodipodi.sourceforge.net/DTD/sodipodi-0.dtd"
   xmlns:inkscape="http://www.inkscape.org/namespaces/inkscape"
   version="1.2"
   width="7.73mm"
   height="7.73mm"
   viewBox="0 0 4.4000 4.4000"
   id="svg3400"
   inkscape:version="0.48.4 r9939"
   sodipodi:docname="grace_after.svg">
  <metadata
     id="metadata3422">
    <rdf:RDF>
      <cc:Work
         rdf:about="">
        <dc:format>image/svg+xml</dc:format>
        <dc:type
           rdf:resource="http://purl.org/dc/dcmitype/StillImage" />
      </cc:Work>
    </rdf:RDF>
  </metadata>
  <defs
     id="defs3420" />
  <sodipodi:namedview
     pagecolor="#ffffff"
     bordercolor="#666666"
     borderopacity="1"
     objecttolerance="10"
     gridtolerance="10"
     guidetolerance="10"
     inkscape:pageopacity="0"
     inkscape:pageshadow="2"
     inkscape:window-width="1535"
     inkscape:window-height="876"
     id="namedview3418"
     showgrid="false"
     inkscape:zoom="8.6163573"
     inkscape:cx="13.694882"
     inkscape:cy="13.694882"
     inkscape:window-x="65"
     inkscape:window-y="24"
     inkscape:window-maximized="1"
     inkscape:current-layer="svg3400" />
  <!-- Page: 1/1 -->
  <path
     d="m 3.7179984,3.1357084 c 0.1708,0 0.3276,0.0924 0.3276,0.28 0,0.1988 -0.1456,0.3388 -0.2772,0.4172 -0.0952,0.056 -0.2044,0.0924 -0.3136,0.0924 -0.1708,0 -0.3276,-0.0924 -0.3276,-0.28 0,-0.1988 0.1456,-0.3388 0.2772,-0.4172 0.0952,-0.056 0.2044,-0.0924 0.3136,-0.0924 z"
     id="path3402"
     inkscape:connector-curvature="0"
     style="fill:currentColor" />
  <rect
     x="3.8882103"
     y="1.1625254"
     width="0.13"
     height="2.2522831"
     ry="0.035845827"
     id="rect3404"
     style="fill:currentColor" />
  <polygon
     transform="translate(2.6182542,1.6013219)"
     points="1.3787,-0.132 0.04,0.152 0.04,-0.152 1.3787,-0.436 "
     id="polygon3406"
     style="fill:currentColor;stroke:currentColor;stroke-width:0.08;stroke-linecap:round;stroke-linejoin:round" />
  <polygon
     transform="translate(2.5809662,2.2131457)"
     points="0.04,-0.152 1.3787,-0.436 1.3787,-0.132 0.04,0.152 "
     id="polygon3408"
     style="fill:currentColor;stroke:currentColor;stroke-width:0.08;stroke-linecap:round;stroke-linejoin:round" />
  <path
     d="m 1.4102525,3.3459322 c 0,-0.096 -0.084,-0.164 -0.168,-0.164 -0.016,0 -0.032,0 -0.048,0.004 -0.124,0.036 -0.30799996,0.16 -0.45599996,0.256 -0.148,0.096 -0.336,0.212 -0.416,0.312 -0.028,0.032 -0.044,0.072 -0.044,0.112 0,0.096 0.084,0.164 0.168,0.164 0.016,0 0.032,0 0.048,-0.004 0.124,-0.036 0.312,-0.16 0.46,-0.256 0.14799996,-0.096 0.33599996,-0.212 0.41599996,-0.312 0.028,-0.032 0.04,-0.072 0.04,-0.112 z m -0.204,-0.288 c 0.188,0 0.332,0.084 0.332,0.288 0,0.076 -0.016,0.148 -0.04,0.224 -0.048,0.152 -0.128,0.296 -0.26,0.384 -0.216,0.144 -0.45199996,0.204 -0.75199996,0.204 -0.188,0 -0.336,-0.088 -0.336,-0.292 0,-0.076 0.02,-0.148 0.044,-0.224 0.048,-0.152 0.124,-0.296 0.256,-0.384 0.216,-0.144 0.456,-0.2 0.75599996,-0.2 z"
     id="path3410"
     inkscape:connector-curvature="0"
     style="fill:currentColor" />
  <rect
     x="1.4101526"
     y="0.16186441"
     width="0.13"
     height="3.2386"
     ry="0.039999999"
     id="rect3412"
     style="fill:currentColor" />
  <path
     d="m 2.3733661,3.4865559 c 0.1708,0 0.3276,0.0924 0.3276,0.28 0,0.1988 -0.1456,0.3388 -0.2772,0.4172 -0.0952,0.056 -0.2044,0.0924 -0.3136,0.0924 -0.1708,0 -0.3276,-0.0924 -0.3276,-0.28 0,-0.1988 0.1456,-0.3388 0.2772,-0.4172 0.0952,-0.056 0.2044,-0.0924 0.3136,-0.0924 z"
     id="path3414"
     inkscape:connector-curvature="0"
     style="fill:currentColor" />
  <rect
     x="2.5623221"
     y="1.4391694"
     width="0.13"
     height="2.4756391"
     ry="0.035940029"
     id="rect3416"
     style="fill:currentColor" />
</svg>
