<?xml version="1.0" encoding="UTF-8" standalone="no"?>
<svg
   xmlns:dc="http://purl.org/dc/elements/1.1/"
   xmlns:cc="http://creativecommons.org/ns#"
   xmlns:rdf="http://www.w3.org/1999/02/22-rdf-syntax-ns#"
   xmlns:svg="http://www.w3.org/2000/svg"
   xmlns="http://www.w3.org/2000/svg"
   xmlns:sodipodi="http://sodipodi.sourceforge.net/DTD/sodipodi-0.dtd"
   xmlns:inkscape="http://www.inkscape.org/namespaces/inkscape"
   version="1.2"
   width="7.73mm"
   height="7.73mm"
   viewBox="0 0 4.4000 4.4000"
   id="svg3214"
   inkscape:version="0.48.4 r9939"
   sodipodi:docname="grace_beam.svg">
  <metadata
     id="metadata3234">
    <rdf:RDF>
      <cc:Work
         rdf:about="">
        <dc:format>image/svg+xml</dc:format>
        <dc:type
           rdf:resource="http://purl.org/dc/dcmitype/StillImage" />
      </cc:Work>
    </rdf:RDF>
  </metadata>
  <defs
     id="defs3232" />
  <sodipodi:namedview
     pagecolor="#ffffff"
     bordercolor="#666666"
     borderopacity="1"
     objecttolerance="10"
     gridtolerance="10"
     guidetolerance="10"
     inkscape:pageopacity="0"
     inkscape:pageshadow="2"
     inkscape:window-width="1535"
     inkscape:window-height="876"
     id="namedview3230"
     showgrid="false"
     inkscape:zoom="8.6163573"
     inkscape:cx="13.694882"
     inkscape:cy="13.694882"
     inkscape:window-x="65"
     inkscape:window-y="24"
     inkscape:window-maximized="1"
     inkscape:current-layer="svg3214" />
  <!-- Page: 1/1 -->
  <polygon
     transform="translate(1.0612847,1.4335254)"
     points="1.3986,-0.132 0.04,0.152 0.04,-0.152 1.3986,-0.436 "
     id="polygon3216"
     style="fill:currentColor;stroke:currentColor;stroke-width:0.08;stroke-linecap:round;stroke-linejoin:round" />
  <rect
     x="4.0662847"
     y="-0.70847458"
     width="0.13"
     height="3.3122001"
     ry="0.039999999"
     id="rect3218"
     style="fill:currentColor" />
  <path
     d="m 3.7600847,2.2395254 c 0.224,0 0.436,0.116 0.436,0.364 0,0.288 -0.224,0.484 -0.412,0.596 -0.144,0.084 -0.304,0.144 -0.468,0.144 -0.224,0 -0.436,-0.116 -0.436,-0.364 0,-0.288 0.224,-0.484 0.412,-0.596 0.144,-0.084 0.304,-0.144 0.468,-0.144 z"
     id="path3220"
     inkscape:connector-curvature="0"
     style="fill:currentColor" />
  <rect
     x="2.3698847"
     y="1.1623255"
     width="0.13"
     height="2.0134001"
     ry="0.039999999"
     id="rect3222"
     style="fill:currentColor" />
  <path
     d="m 2.1622847,2.8967254 c 0.1708,0 0.3276,0.0924 0.3276,0.28 0,0.1988 -0.1456,0.3388 -0.2772,0.4172 -0.0952,0.056 -0.2044,0.0924 -0.3136,0.0924 -0.1708,0 -0.3276,-0.0924 -0.3276,-0.28 0,-0.1988 0.1456,-0.3388 0.2772,-0.4172 0.0952,-0.056 0.2044,-0.0924 0.3136,-0.0924 z"
     id="path3224"
     inkscape:connector-curvature="0"
     style="fill:currentColor" />
  <rect
     x="1.0612848"
     y="1.4207255"
     width="0.13"
     height="2.2551"
     ry="0.039999999"
     id="rect3226"
     style="fill:currentColor" />
  <path
     d="m 0.85368475,3.3967254 c 0.17079995,0 0.32759995,0.0924 0.32759995,0.28 0,0.1988 -0.1456,0.3388 -0.27719995,0.4172 -0.0952,0.056 -0.2044,0.0924 -0.3136,0.0924 -0.1708,0 -0.3276,-0.0924 -0.3276,-0.28 0,-0.1988 0.1456,-0.3388 0.2772,-0.4172 0.0952,-0.056 0.2044,-0.0924 0.3136,-0.0924 z"
     id="path3228"
     inkscape:connector-curvature="0"
     style="fill:currentColor" />
</svg>
