<?xml version="1.0" encoding="UTF-8" standalone="no"?>
<svg
   xmlns:dc="http://purl.org/dc/elements/1.1/"
   xmlns:cc="http://creativecommons.org/ns#"
   xmlns:rdf="http://www.w3.org/1999/02/22-rdf-syntax-ns#"
   xmlns:svg="http://www.w3.org/2000/svg"
   xmlns="http://www.w3.org/2000/svg"
   xmlns:sodipodi="http://sodipodi.sourceforge.net/DTD/sodipodi-0.dtd"
   xmlns:inkscape="http://www.inkscape.org/namespaces/inkscape"
   version="1.2"
   width="7.73mm"
   height="7.73mm"
   viewBox="0 0 4.4000 4.4000"
   id="svg3293"
   inkscape:version="0.48.4 r9939"
   sodipodi:docname="grace_slash.svg">
  <metadata
     id="metadata3313">
    <rdf:RDF>
      <cc:Work
         rdf:about="">
        <dc:format>image/svg+xml</dc:format>
        <dc:type
           rdf:resource="http://purl.org/dc/dcmitype/StillImage" />
      </cc:Work>
    </rdf:RDF>
  </metadata>
  <defs
     id="defs3311" />
  <sodipodi:namedview
     pagecolor="#ffffff"
     bordercolor="#666666"
     borderopacity="1"
     objecttolerance="10"
     gridtolerance="10"
     guidetolerance="10"
     inkscape:pageopacity="0"
     inkscape:pageshadow="2"
     inkscape:window-width="1535"
     inkscape:window-height="876"
     id="namedview3309"
     showgrid="false"
     inkscape:zoom="8.6163573"
     inkscape:cx="13.694882"
     inkscape:cy="13.694882"
     inkscape:window-x="65"
     inkscape:window-y="24"
     inkscape:window-maximized="1"
     inkscape:current-layer="svg3293" />
  <!-- Page: 1/1 -->
  <polygon
     transform="translate(1.1218, 1.0580)"
     stroke-linejoin="round"
     stroke-linecap="round"
     stroke-width="0.0800"
     fill="currentColor"
     stroke="currentColor"
     points="2.8931 -0.8680 2.8931 -0.5640 0.0400 0.1520 0.0400 -0.1520"
     id="polygon3295" />
  <rect
     transform="translate(3.9899, 2.2000)"
     x="-0.0650"
     y="-1.8421"
     width="0.1300"
     height="2.2264"
     ry="0.0400"
     fill="currentColor"
     id="rect3297" />
  <path
     transform="translate(3.1265, 2.7000) scale(0.0028, -0.0028)"
     d="M211 141c61 0 117 -33 117 -100c0 -71 -52 -121 -99 -149c-34 -20 -73 -33 -112 -33c-61 0 -117 33 -117 100c0 71 52 121 99 149c34 20 73 33 112 33z"
     fill="currentColor"
     id="path3299" />
  <rect
     transform="translate(2.5883, 2.2000)"
     x="-0.0650"
     y="-1.5000"
     width="0.1300"
     height="2.3843"
     ry="0.0400"
     fill="currentColor"
     id="rect3301" />
  <path
     transform="translate(1.7249, 3.2000) scale(0.0028, -0.0028)"
     d="M211 141c61 0 117 -33 117 -100c0 -71 -52 -121 -99 -149c-34 -20 -73 -33 -112 -33c-61 0 -117 33 -117 100c0 71 52 121 99 149c34 20 73 33 112 33z"
     fill="currentColor"
     id="path3303" />
  <rect
     transform="translate(1.1868, 2.2000)"
     x="-0.0650"
     y="-1.1579"
     width="0.1300"
     height="2.5421"
     ry="0.0400"
     fill="currentColor"
     id="rect3305" />
  <path
     transform="translate(0.3234, 3.7000) scale(0.0028, -0.0028)"
     d="M211 141c61 0 117 -33 117 -100c0 -71 -52 -121 -99 -149c-34 -20 -73 -33 -112 -33c-61 0 -117 33 -117 100c0 71 52 121 99 149c34 20 73 33 112 33z"
     fill="currentColor"
     id="path3307" />
  <path
     style="fill:none;stroke:#000000;stroke-width:1px;stroke-linecap:butt;stroke-linejoin:miter;stroke-opacity:1"
     d="M 4.990508,11.141599 12.186124,2.3211665"
     id="path3315"
     inkscape:connector-curvature="0"
     transform="scale(0.16064395,0.16064395)" />
</svg>
