<svg xmlns="http://www.w3.org/2000/svg" xmlns:xlink="http://www.w3.org/1999/xlink" version="1.2" width="7.73mm" height="7.73mm" viewBox="0 0 4.4000 4.4000">
<!-- Page: 1/1 -->
<a style="color:inherit;" xlink:href="textedit:///home/wilbert/lilypond_bin/2.18.0-1/lilypond/usr/share/lilypond/current/ly/grace-init.ly:23:6:7">
<path transform="translate(0.2334, 1.6140)" stroke-width="0.0800" stroke-linejoin="round" stroke-linecap="round" stroke="currentColor" fill="currentColor" d="M0.443008066529829 2.23853818380998C0.998082204419668 2.85328793122721 2.00834389578053 2.92286110839175 2.64244955256378 2.390006C2.01658834772233 2.80314465583748 1.00632665636147 2.73357147867294 0.443008066529829 2.23853818380998z"/>
</a>
<path transform="translate(3.5640, 0.0900) scale(0.0040, -0.0040)" d="M0 0c0 -198 209 -335 209 -533c0 -71 -16 -141 -42 -207c-5 -8 -12 -12 -19 -12c-13 0 -26 11 -23 27c26 61 42 126 42 192c0 104 -95 208 -167 283h-16v250h16z" fill="currentColor"/>
<rect transform="translate(3.4990, 1.8900)" x="-0.0650" y="-1.8400" width="0.1300" height="3.0322" ry="0.0400" fill="currentColor"/>
<a style="color:inherit;" xlink:href="textedit:///home/wilbert/dev/frescobaldi/frescobaldi_app/symbols/grace_accia.ly:7:20:21">
<path transform="translate(2.2478, 3.2700) scale(0.0040, -0.0040)" d="M220 138c56 0 109 -29 109 -91c0 -72 -56 -121 -103 -149c-36 -21 -76 -36 -117 -36c-56 0 -109 29 -109 91c0 72 56 121 103 149c36 21 76 36 117 36z" fill="currentColor"/>
</a>
<path transform="translate(1.1618, 0.7340) scale(0.0028, -0.0028)" d="M-150 -571c-18 0 -32 14 -32 32c0 9 5 17 12 23l360 290c5 4 12 7 19 7c18 0 32 -14 32 -32c0 -9 -5 -17 -12 -23l-360 -290c-5 -4 -12 -7 -19 -7z" fill="currentColor"/>
<path transform="translate(1.1618, 0.7340) scale(0.0028, -0.0028)" d="M0 0c0 -197 209 -333 209 -530c0 -71 -15 -140 -41 -206c-5 -10 -14 -13 -23 -13c-14 0 -28 10 -28 26v5c27 59 43 123 43 188c0 102 -91 205 -160 280h-21v250h21z" fill="currentColor"/>
<rect transform="translate(1.0968, 1.8900)" x="-0.0650" y="-1.1960" width="0.1300" height="2.4603" ry="0.0400" fill="currentColor"/>
<a style="color:inherit;" xlink:href="textedit:///home/wilbert/dev/frescobaldi/frescobaldi_app/symbols/grace_accia.ly:7:16:17">
<path transform="translate(0.2334, 3.2700) scale(0.0028, -0.0028)" d="M211 141c61 0 117 -33 117 -100c0 -71 -52 -121 -99 -149c-34 -20 -73 -33 -112 -33c-61 0 -117 33 -117 100c0 71 52 121 99 149c34 20 73 33 112 33z" fill="currentColor"/>
</a>
</svg>
