<svg xmlns="http://www.w3.org/2000/svg" xmlns:xlink="http://www.w3.org/1999/xlink" version="1.2" width="7.73mm" height="7.73mm" viewBox="0 0 4.4000 4.4000">
<!-- Page: 1/1 -->
<rect transform="translate(3.4498, 2.2000)" x="-0.0650" y="-2.0000" width="0.1300" height="3.3122" ry="0.0400" fill="currentColor"/>
<a style="color:inherit;" xlink:href="textedit:///home/wilbert/dev/frescobaldi/frescobaldi_app/symbols/grace_slash.ly:5:20:21">
<path transform="translate(2.1986, 3.7000) scale(0.0040, -0.0040)" d="M220 138c56 0 109 -29 109 -91c0 -72 -56 -121 -103 -149c-36 -21 -76 -36 -117 -36c-56 0 -109 29 -109 91c0 72 56 121 103 149c36 21 76 36 117 36z" fill="currentColor"/>
</a>
<path transform="translate(1.1126, 0.9400) scale(0.0028, -0.0028)" d="M-150 -571c-18 0 -32 14 -32 32c0 9 5 17 12 23l360 290c5 4 12 7 19 7c18 0 32 -14 32 -32c0 -9 -5 -17 -12 -23l-360 -290c-5 -4 -12 -7 -19 -7z" fill="currentColor"/>
<path transform="translate(1.1126, 0.9400) scale(0.0028, -0.0028)" d="M0 0c0 -197 209 -333 209 -530c0 -71 -15 -140 -41 -206c-5 -10 -14 -13 -23 -13c-14 0 -28 10 -28 26v5c27 59 43 123 43 188c0 102 -91 205 -160 280h-21v250h21z" fill="currentColor"/>
<rect transform="translate(1.0476, 2.2000)" x="-0.0650" y="-1.3000" width="0.1300" height="2.6843" ry="0.0400" fill="currentColor"/>
<a style="color:inherit;" xlink:href="textedit:///home/wilbert/dev/frescobaldi/frescobaldi_app/symbols/grace_slash.ly:5:16:17">
<path transform="translate(0.1843, 3.7000) scale(0.0028, -0.0028)" d="M211 141c61 0 117 -33 117 -100c0 -71 -52 -121 -99 -149c-34 -20 -73 -33 -112 -33c-61 0 -117 33 -117 100c0 71 52 121 99 149c34 20 73 33 112 33z" fill="currentColor"/>
</a>
</svg>
