<svg xmlns="http://www.w3.org/2000/svg" xmlns:xlink="http://www.w3.org/1999/xlink" version="1.2" width="7.73mm" height="7.73mm" viewBox="0 0 4.4000 4.4000">
<!-- Page: 1/1 -->
<rect transform="translate(3.3133, 2.5000)" x="-0.0650" y="-2.5000" width="0.1300" height="3.3122" ry="0.0400" fill="currentColor"/>
<path transform="translate(2.0622, 3.5000) scale(0.0040, -0.0040)" d="M220 138c56 0 109 -29 109 -91c0 -72 -56 -121 -103 -149c-36 -21 -76 -36 -117 -36c-56 0 -109 29 -109 91c0 72 56 121 103 149c36 21 76 36 117 36z" fill="currentColor"/>
<path transform="translate(1.1489, 1.2400) scale(0.0028, -0.0028)" d="M0 0c0 -166 213 -255 213 -421c0 -42 -9 -83 -25 -122c19 -35 31 -72 31 -113c0 -71 -17 -140 -44 -205c-3 -5 -7 -7 -11 -7c-8 0 -16 6 -14 16c25 62 39 129 39 196c0 92 -107 166 -189 214v-58h-21v500h21zM169 -512c9 29 14 60 14 91c0 86 -103 150 -182 191
c9 -111 106 -190 168 -282z" fill="currentColor"/>
<rect transform="translate(1.0839, 2.5000)" x="-0.0650" y="-1.3000" width="0.1300" height="2.6843" ry="0.0400" fill="currentColor"/>
<path transform="translate(0.2205, 4.0000) scale(0.0028, -0.0028)" d="M211 141c61 0 117 -33 117 -100c0 -71 -52 -121 -99 -149c-34 -20 -73 -33 -112 -33c-61 0 -117 33 -117 100c0 71 52 121 99 149c34 20 73 33 112 33z" fill="currentColor"/>
</svg>
