<svg xmlns="http://www.w3.org/2000/svg" xmlns:xlink="http://www.w3.org/1999/xlink" version="1.2" width="7.73mm" height="7.73mm" viewBox="0 0 4.4000 4.4000">
<!-- Page: 1/1 -->
<polygon transform="translate(1.1984, 1.3420)" stroke-linejoin="round" stroke-linecap="round" stroke-width="0.0800" fill="currentColor" stroke="currentColor" points="1.5184 -0.4360 1.5184 -0.1320 0.0400 0.1520 0.0400 -0.1520"/>
<rect transform="translate(2.6917, 2.2000)" x="-0.0650" y="-1.1302" width="0.1300" height="2.0144" ry="0.0400" fill="currentColor"/>
<path transform="translate(1.8284, 3.2000) scale(0.0028, -0.0028)" d="M211 141c61 0 117 -33 117 -100c0 -71 -52 -121 -99 -149c-34 -20 -73 -33 -112 -33c-61 0 -117 33 -117 100c0 71 52 121 99 149c34 20 73 33 112 33z" fill="currentColor"/>
<rect transform="translate(1.2634, 2.2000)" x="-0.0650" y="-0.8698" width="0.1300" height="2.2541" ry="0.0400" fill="currentColor"/>
<path transform="translate(0.4000, 3.7000) scale(0.0028, -0.0028)" d="M211 141c61 0 117 -33 117 -100c0 -71 -52 -121 -99 -149c-34 -20 -73 -33 -112 -33c-61 0 -117 33 -117 100c0 71 52 121 99 149c34 20 73 33 112 33z" fill="currentColor"/>
</svg>
