<svg xmlns="http://www.w3.org/2000/svg" xmlns:xlink="http://www.w3.org/1999/xlink" version="1.2" width="7.73mm" height="7.73mm" viewBox="0 0 4.4000 4.4000">
<!-- Page: 1/1 -->
<path transform="translate(1.3000, 3.0000) scale(0.0040, -0.0040)" d="M-297 227c0 -22 17 -30 39 -30c39 0 72 14 103 28l5 24c-23 17 -50 29 -81 29c-32 0 -66 -16 -66 -51zM-26 104c0 -61 -47 -115 -98 -115c-39 0 -56 44 -56 91c0 14 1 28 4 41l15 76c-31 -13 -62 -25 -101 -25c-35 0 -60 18 -60 51c0 51 49 80 96 80c31 0 58 -10 82 -25
l46 232c6 -3 13 -5 20 -5c22 0 48 16 68 35l-53 -266l64 36c26 14 51 20 74 20c29 0 53 -10 64 -28c18 20 44 30 69 30c36 0 69 -22 69 -69c0 -45 -27 -90 -65 -90c-25 0 -38 22 -38 48c0 41 29 64 60 64h3c-8 14 -23 20 -38 20c-24 0 -50 -16 -55 -43l-54 -270
c-11 7 -24 11 -38 11s-29 -4 -43 -11l54 270v7c0 16 -12 26 -29 26c-7 0 -16 -3 -24 -7l-79 -44l-7 -31c27 -31 50 -67 50 -109zM-86 39c23 0 35 34 35 61c0 30 -14 55 -32 78l-5 -27c-4 -18 -13 -56 -13 -83c0 -17 4 -29 15 -29z" fill="currentColor"/>
<path transform="translate(2.1500, 3.0000) scale(0.0040, -0.0040)" d="M-28 42c-3 -4 -8 -6 -12 -6c-8 0 -16 7 -16 16c0 3 1 7 4 10l107 128c6 8 13 11 20 11c24 0 51 -39 78 -68c14 -15 34 -23 53 -23c17 0 33 5 47 17l25 31c3 4 8 6 12 6c8 0 16 -7 16 -16c0 -3 -1 -7 -4 -10l-107 -128c-6 -8 -13 -11 -20 -11c-24 0 -51 39 -78 68
c-14 15 -34 23 -53 23c-17 0 -33 -5 -47 -17z" fill="currentColor"/>
<path transform="translate(3.1500, 3.0000) scale(0.0040, -0.0040)" d="M-28 42c-3 -4 -8 -6 -12 -6c-8 0 -16 7 -16 16c0 3 1 7 4 10l107 128c6 8 13 11 20 11c24 0 51 -39 78 -68c14 -15 34 -23 53 -23c17 0 33 5 47 17l25 31c3 4 8 6 12 6c8 0 16 -7 16 -16c0 -3 -1 -7 -4 -10l-107 -128c-6 -8 -13 -11 -20 -11c-24 0 -51 39 -78 68
c-14 15 -34 23 -53 23c-17 0 -33 -5 -47 -17z" fill="currentColor"/>
</svg>
