<svg xmlns="http://www.w3.org/2000/svg" xmlns:xlink="http://www.w3.org/1999/xlink" version="1.2" width="14.06mm" height="14.06mm" viewBox="0 0 16.0000 16.0000">
<!-- Page: 1/1 -->
<line transform="translate(3.0000, 5.9000)" stroke-linejoin="round" stroke-linecap="round" stroke-width="0.1657" stroke="currentColor" x1="0.0829" y1="-0.0000" x2="10.9171" y2="-0.0000"/>
<line transform="translate(3.0000, 4.9000)" stroke-linejoin="round" stroke-linecap="round" stroke-width="0.1657" stroke="currentColor" x1="0.0829" y1="-0.0000" x2="10.9171" y2="-0.0000"/>
<line transform="translate(3.0000, 3.9000)" stroke-linejoin="round" stroke-linecap="round" stroke-width="0.1657" stroke="currentColor" x1="0.0829" y1="-0.0000" x2="10.9171" y2="-0.0000"/>
<line transform="translate(3.0000, 2.9000)" stroke-linejoin="round" stroke-linecap="round" stroke-width="0.1657" stroke="currentColor" x1="0.0829" y1="-0.0000" x2="10.9171" y2="-0.0000"/>
<line transform="translate(3.0000, 1.9000)" stroke-linejoin="round" stroke-linecap="round" stroke-width="0.1657" stroke="currentColor" x1="0.0829" y1="-0.0000" x2="10.9171" y2="-0.0000"/>
<line transform="translate(3.0000, 13.9000)" stroke-linejoin="round" stroke-linecap="round" stroke-width="0.1657" stroke="currentColor" x1="0.0829" y1="-0.0000" x2="10.9171" y2="-0.0000"/>
<line transform="translate(3.0000, 12.9000)" stroke-linejoin="round" stroke-linecap="round" stroke-width="0.1657" stroke="currentColor" x1="0.0829" y1="-0.0000" x2="10.9171" y2="-0.0000"/>
<line transform="translate(3.0000, 11.9000)" stroke-linejoin="round" stroke-linecap="round" stroke-width="0.1657" stroke="currentColor" x1="0.0829" y1="-0.0000" x2="10.9171" y2="-0.0000"/>
<line transform="translate(3.0000, 10.9000)" stroke-linejoin="round" stroke-linecap="round" stroke-width="0.1657" stroke="currentColor" x1="0.0829" y1="-0.0000" x2="10.9171" y2="-0.0000"/>
<line transform="translate(3.0000, 9.9000)" stroke-linejoin="round" stroke-linecap="round" stroke-width="0.1657" stroke="currentColor" x1="0.0829" y1="-0.0000" x2="10.9171" y2="-0.0000"/>
<path transform="translate(2.5349, 7.9000) scale(0.0040, -0.0040)" d="M-18 -465c0 -243 -93 -477 -93 -705c0 -126 30 -246 123 -336c3 -3 3 -6 3 -9c0 -9 -6 -18 -15 -18c-3 0 -9 3 -12 6c-126 123 -168 288 -168 465c0 246 99 489 99 723c0 126 -30 243 -123 333c-3 3 -3 3 -3 6s0 3 3 6c93 90 123 207 123 333c0 234 -99 477 -99 723
c0 177 42 342 168 465c3 3 9 6 12 6c9 0 15 -9 15 -18c0 -3 0 -6 -3 -9c-93 -90 -123 -210 -123 -336c0 -228 93 -462 93 -705c0 -174 -42 -342 -162 -465c120 -123 162 -291 162 -465z" fill="currentColor"/>
<rect transform="translate(2.8349, 7.9000)" x="0.0000" y="-6.0829" width="0.2651" height="12.1657" ry="0.0829" fill="currentColor"/>
</svg>
