<svg xmlns="http://www.w3.org/2000/svg" xmlns:xlink="http://www.w3.org/1999/xlink" version="1.2" width="14.06mm" height="14.06mm" viewBox="0 0 16.0000 16.0000">
<!-- Page: 1/1 -->
<line transform="translate(3.0000, 6.0000)" stroke-linejoin="round" stroke-linecap="round" stroke-width="0.1657" stroke="currentColor" x1="0.0829" y1="-0.0000" x2="10.9171" y2="-0.0000"/>
<line transform="translate(3.0000, 5.0000)" stroke-linejoin="round" stroke-linecap="round" stroke-width="0.1657" stroke="currentColor" x1="0.0829" y1="-0.0000" x2="10.9171" y2="-0.0000"/>
<line transform="translate(3.0000, 4.0000)" stroke-linejoin="round" stroke-linecap="round" stroke-width="0.1657" stroke="currentColor" x1="0.0829" y1="-0.0000" x2="10.9171" y2="-0.0000"/>
<line transform="translate(3.0000, 3.0000)" stroke-linejoin="round" stroke-linecap="round" stroke-width="0.1657" stroke="currentColor" x1="0.0829" y1="-0.0000" x2="10.9171" y2="-0.0000"/>
<line transform="translate(3.0000, 2.0000)" stroke-linejoin="round" stroke-linecap="round" stroke-width="0.1657" stroke="currentColor" x1="0.0829" y1="-0.0000" x2="10.9171" y2="-0.0000"/>
<line transform="translate(3.0000, 14.0000)" stroke-linejoin="round" stroke-linecap="round" stroke-width="0.1657" stroke="currentColor" x1="0.0829" y1="-0.0000" x2="10.9171" y2="-0.0000"/>
<line transform="translate(3.0000, 13.0000)" stroke-linejoin="round" stroke-linecap="round" stroke-width="0.1657" stroke="currentColor" x1="0.0829" y1="-0.0000" x2="10.9171" y2="-0.0000"/>
<line transform="translate(3.0000, 12.0000)" stroke-linejoin="round" stroke-linecap="round" stroke-width="0.1657" stroke="currentColor" x1="0.0829" y1="-0.0000" x2="10.9171" y2="-0.0000"/>
<line transform="translate(3.0000, 11.0000)" stroke-linejoin="round" stroke-linecap="round" stroke-width="0.1657" stroke="currentColor" x1="0.0829" y1="-0.0000" x2="10.9171" y2="-0.0000"/>
<line transform="translate(3.0000, 10.0000)" stroke-linejoin="round" stroke-linecap="round" stroke-width="0.1657" stroke="currentColor" x1="0.0829" y1="-0.0000" x2="10.9171" y2="-0.0000"/>
<path transform="translate(1.5849, 1.6921) scale(0.0040, -0.0040)" d="M437 328c14 0 24 -12 24 -24c0 -4 -1 -8 -3 -12c-82 -141 -184 -348 -344 -348h-114v74c0 21 17 38 38 38h76c142 0 230 134 303 260c4 8 12 12 20 12z" fill="currentColor"/>
<path transform="translate(1.5849, 14.3079) scale(0.0040, -0.0040)" d="M461 -304c0 -12 -10 -24 -24 -24c-8 0 -16 4 -20 12c-73 126 -161 260 -303 260h-76c-21 0 -38 17 -38 38v74h114c160 0 262 -207 344 -348c2 -4 3 -8 3 -12z" fill="currentColor"/>
<rect transform="translate(1.5849, 8.0000)" x="0.0000" y="-6.1279" width="0.4500" height="12.2557" ry="0.0000" fill="currentColor"/>
<rect transform="translate(2.8349, 8.0000)" x="0.0000" y="-6.0829" width="0.2651" height="12.1657" ry="0.0829" fill="currentColor"/>
</svg>
