<svg xmlns="http://www.w3.org/2000/svg" xmlns:xlink="http://www.w3.org/1999/xlink" version="1.2" width="14.06mm" height="14.06mm" viewBox="0 0 16.0000 16.0000">
<!-- Page: 1/1 -->
<line transform="translate(3.0000, 5.9000)" stroke-linejoin="round" stroke-linecap="round" stroke-width="0.1657" stroke="currentColor" x1="0.0829" y1="-0.0000" x2="10.9171" y2="-0.0000"/>
<line transform="translate(3.0000, 4.9000)" stroke-linejoin="round" stroke-linecap="round" stroke-width="0.1657" stroke="currentColor" x1="0.0829" y1="-0.0000" x2="10.9171" y2="-0.0000"/>
<line transform="translate(3.0000, 3.9000)" stroke-linejoin="round" stroke-linecap="round" stroke-width="0.1657" stroke="currentColor" x1="0.0829" y1="-0.0000" x2="10.9171" y2="-0.0000"/>
<line transform="translate(3.0000, 2.9000)" stroke-linejoin="round" stroke-linecap="round" stroke-width="0.1657" stroke="currentColor" x1="0.0829" y1="-0.0000" x2="10.9171" y2="-0.0000"/>
<line transform="translate(3.0000, 1.9000)" stroke-linejoin="round" stroke-linecap="round" stroke-width="0.1657" stroke="currentColor" x1="0.0829" y1="-0.0000" x2="10.9171" y2="-0.0000"/>
<line transform="translate(3.0000, 13.9000)" stroke-linejoin="round" stroke-linecap="round" stroke-width="0.1657" stroke="currentColor" x1="0.0829" y1="-0.0000" x2="10.9171" y2="-0.0000"/>
<line transform="translate(3.0000, 12.9000)" stroke-linejoin="round" stroke-linecap="round" stroke-width="0.1657" stroke="currentColor" x1="0.0829" y1="-0.0000" x2="10.9171" y2="-0.0000"/>
<line transform="translate(3.0000, 11.9000)" stroke-linejoin="round" stroke-linecap="round" stroke-width="0.1657" stroke="currentColor" x1="0.0829" y1="-0.0000" x2="10.9171" y2="-0.0000"/>
<line transform="translate(3.0000, 10.9000)" stroke-linejoin="round" stroke-linecap="round" stroke-width="0.1657" stroke="currentColor" x1="0.0829" y1="-0.0000" x2="10.9171" y2="-0.0000"/>
<line transform="translate(3.0000, 9.9000)" stroke-linejoin="round" stroke-linecap="round" stroke-width="0.1657" stroke="currentColor" x1="0.0829" y1="-0.0000" x2="10.9171" y2="-0.0000"/>
<path transform="translate(2.5349, 7.9000) scale(0.0040, -0.0040)" d="M-35 -515c0 -215 -60 -420 -60 -625c0 -130 25 -255 110 -360c5 -5 5 -10 5 -15c0 -10 -10 -20 -20 -20c-5 0 -10 5 -15 10c-115 145 -155 330 -155 515c0 225 65 440 65 650c0 130 -30 245 -110 350v10v10c80 105 110 220 110 350c0 210 -65 425 -65 650
c0 185 40 370 155 515c5 5 10 10 15 10c10 0 20 -10 20 -20c0 -5 0 -10 -5 -15c-85 -105 -110 -230 -110 -360c0 -205 60 -410 60 -625c0 -185 -35 -370 -150 -515c115 -145 150 -330 150 -515z" fill="currentColor"/>
<rect transform="translate(2.8349, 7.9000)" x="0.0000" y="-6.0829" width="0.2651" height="12.1657" ry="0.0829" fill="currentColor"/>
</svg>
