<?xml version="1.0" encoding="UTF-8" standalone="no"?>
<!-- Created with Inkscape (http://www.inkscape.org/) -->

<svg
   xmlns:osb="http://www.openswatchbook.org/uri/2009/osb"
   xmlns:dc="http://purl.org/dc/elements/1.1/"
   xmlns:cc="http://creativecommons.org/ns#"
   xmlns:rdf="http://www.w3.org/1999/02/22-rdf-syntax-ns#"
   xmlns:svg="http://www.w3.org/2000/svg"
   xmlns="http://www.w3.org/2000/svg"
   xmlns:xlink="http://www.w3.org/1999/xlink"
   xmlns:sodipodi="http://sodipodi.sourceforge.net/DTD/sodipodi-0.dtd"
   xmlns:inkscape="http://www.inkscape.org/namespaces/inkscape"
   width="640"
   height="480"
   id="svg2"
   version="1.1"
   inkscape:version="0.48.2 r9819"
   sodipodi:docname="background.svg"
   inkscape:export-xdpi="90"
   inkscape:export-ydpi="90">
  <defs
     id="defs4">
    <linearGradient
       id="linearGradient5634"
       osb:paint="solid">
      <stop
         style="stop-color:#aaaaaa;stop-opacity:1;"
         offset="0"
         id="stop5636" />
    </linearGradient>
    <linearGradient
       id="linearGradient5626">
      <stop
         style="stop-color:#aaaaaa;stop-opacity:1;"
         offset="0"
         id="stop5628" />
      <stop
         style="stop-color:#ffffff;stop-opacity:1;"
         offset="1"
         id="stop5630" />
    </linearGradient>
    <linearGradient
       id="linearGradient5609">
      <stop
         style="stop-color:#ffffff;stop-opacity:1;"
         offset="0"
         id="stop5611" />
      <stop
         style="stop-color:#aaaaaa;stop-opacity:1;"
         offset="1"
         id="stop5613" />
    </linearGradient>
    <linearGradient
       id="linearGradient5601"
       osb:paint="solid">
      <stop
         style="stop-color:#ffffff;stop-opacity:1;"
         offset="0"
         id="stop5603" />
    </linearGradient>
    <linearGradient
       id="linearGradient4151"
       osb:paint="solid">
      <stop
         style="stop-color:#ffffff;stop-opacity:1;"
         offset="0"
         id="stop4153" />
    </linearGradient>
    <linearGradient
       id="linearGradient4135"
       osb:paint="solid">
      <stop
         style="stop-color:#ffffff;stop-opacity:1;"
         offset="0"
         id="stop4137" />
    </linearGradient>
    <linearGradient
       id="linearGradient4129"
       osb:paint="solid">
      <stop
         style="stop-color:#ffffff;stop-opacity:1;"
         offset="0"
         id="stop4131" />
    </linearGradient>
    <linearGradient
       id="linearGradient4123"
       osb:paint="solid">
      <stop
         style="stop-color:#ffffff;stop-opacity:1;"
         offset="0"
         id="stop4125" />
    </linearGradient>
    <radialGradient
       gradientTransform="matrix(1,0,0,1.013572,0,-1.0236264)"
       gradientUnits="userSpaceOnUse"
       xlink:href="#linearGradient3308"
       id="radialGradient3314"
       fy="83.386719"
       fx="90.575012"
       r="29.610207"
       cy="83.386719"
       cx="90.575012" />
    <radialGradient
       gradientTransform="matrix(1,0,0,0.9939293,0,0.5760033)"
       gradientUnits="userSpaceOnUse"
       xlink:href="#linearGradient3277"
       id="radialGradient3302"
       fy="94.882584"
       fx="343.39087"
       r="52.186886"
       cy="94.882584"
       cx="343.39087" />
    <radialGradient
       gradientTransform="matrix(1,0,0,0.8547144,242.77108,20.87401)"
       gradientUnits="userSpaceOnUse"
       xlink:href="#linearGradient3243"
       id="radialGradient3300"
       fy="93.919113"
       fx="100.44232"
       r="72.179527"
       cy="93.919113"
       cx="100.44232" />
    <radialGradient
       gradientTransform="matrix(0.7967507,0.5836919,-0.5217273,0.7121678,303.65773,-37.387246)"
       gradientUnits="userSpaceOnUse"
       xlink:href="#linearGradient3229"
       id="radialGradient3298"
       fy="62.611969"
       fx="116.44111"
       r="84.505844"
       cy="62.611969"
       cx="116.44111" />
    <radialGradient
       gradientTransform="matrix(1,0,0,0.8731028,242.77108,20.38086)"
       gradientUnits="userSpaceOnUse"
       xlink:href="#linearGradient3208"
       id="radialGradient3296"
       fy="103.64254"
       fx="107.71911"
       r="83.039093"
       cy="103.64254"
       cx="107.71911" />
    <radialGradient
       gradientTransform="matrix(1,0,0,0.9939293,0,0.5760033)"
       gradientUnits="userSpaceOnUse"
       xlink:href="#linearGradient3277"
       id="radialGradient3275"
       fy="94.882584"
       fx="343.39087"
       r="52.186886"
       cy="94.882584"
       cx="343.39087" />
    <radialGradient
       gradientTransform="matrix(1,0,0,0.8547144,-172.02929,-78.916172)"
       gradientUnits="userSpaceOnUse"
       xlink:href="#linearGradient3243"
       id="radialGradient3259"
       fy="93.919113"
       fx="100.44232"
       r="72.179527"
       cy="93.919113"
       cx="100.44232" />
    <radialGradient
       gradientTransform="matrix(0.7967507,0.5836919,-0.5217273,0.7121678,-111.14264,-137.17743)"
       gradientUnits="userSpaceOnUse"
       xlink:href="#linearGradient3229"
       id="radialGradient3257"
       fy="62.611969"
       fx="116.44111"
       r="84.505844"
       cy="62.611969"
       cx="116.44111" />
    <radialGradient
       gradientTransform="matrix(1,0,0,0.8731028,-172.02929,-79.409322)"
       gradientUnits="userSpaceOnUse"
       xlink:href="#linearGradient3208"
       id="radialGradient3255"
       fy="103.64254"
       fx="107.71911"
       r="83.039093"
       cy="103.64254"
       cx="107.71911" />
    <radialGradient
       gradientTransform="matrix(1,0,0,0.8547144,242.77108,20.87401)"
       gradientUnits="userSpaceOnUse"
       xlink:href="#linearGradient3243"
       id="radialGradient3241"
       fy="93.919113"
       fx="100.44232"
       r="72.179527"
       cy="93.919113"
       cx="100.44232" />
    <radialGradient
       gradientTransform="matrix(0.7967507,0.5836919,-0.5217273,0.7121678,303.65773,-37.387246)"
       gradientUnits="userSpaceOnUse"
       xlink:href="#linearGradient3229"
       id="radialGradient3227"
       fy="62.611969"
       fx="116.44111"
       r="84.505844"
       cy="62.611969"
       cx="116.44111" />
    <radialGradient
       gradientTransform="matrix(1,0,0,0.8731028,242.77108,20.38086)"
       gradientUnits="userSpaceOnUse"
       xlink:href="#linearGradient3208"
       id="radialGradient3219"
       fy="103.64254"
       fx="107.71911"
       r="83.039093"
       cy="103.64254"
       cx="107.71911" />
    <inkscape:path-effect
       id="path-effect2423"
       effect="bend_path" />
    <inkscape:path-effect
       id="path-effect2425"
       effect="bend_path" />
    <inkscape:path-effect
       id="path-effect2428"
       effect="bend_path" />
    <linearGradient
       id="linearGradient3208">
      <stop
         offset="0"
         style="stop-color:#ffffff;stop-opacity:1;"
         id="stop3210" />
      <stop
         offset="1"
         style="stop-color:#fd2567;stop-opacity:1;"
         id="stop3212" />
    </linearGradient>
    <linearGradient
       id="linearGradient3229">
      <stop
         offset="0"
         style="stop-color:#f7f7f7;stop-opacity:1"
         id="stop3231" />
      <stop
         offset="1"
         style="stop-color:#ff3e8a;stop-opacity:1;"
         id="stop3233" />
    </linearGradient>
    <linearGradient
       id="linearGradient3243">
      <stop
         offset="0"
         style="stop-color:#ffffff;stop-opacity:1"
         id="stop3245" />
      <stop
         offset="1"
         style="stop-color:#ff89b5;stop-opacity:1;"
         id="stop3247" />
    </linearGradient>
    <linearGradient
       id="linearGradient3277">
      <stop
         offset="0"
         style="stop-color:#ffffff;stop-opacity:1"
         id="stop3279" />
      <stop
         offset="1"
         style="stop-color:#ffc3d3;stop-opacity:1;"
         id="stop3281" />
    </linearGradient>
    <linearGradient
       id="linearGradient3283">
      <stop
         offset="0"
         style="stop-color:#ffffff;stop-opacity:1"
         id="stop3285" />
      <stop
         offset="1"
         style="stop-color:#e7e7e7;stop-opacity:1"
         id="stop3287" />
    </linearGradient>
    <linearGradient
       id="linearGradient3308">
      <stop
         offset="0"
         style="stop-color:#ff8c00;stop-opacity:1"
         id="stop3310" />
      <stop
         offset="0.52631581"
         style="stop-color:#ffc500;stop-opacity:1"
         id="stop3316" />
      <stop
         offset="1"
         style="stop-color:#ffff00;stop-opacity:1"
         id="stop3312" />
    </linearGradient>
    <linearGradient
       id="linearGradient3807">
      <stop
         id="stop3809"
         offset="0"
         style="stop-color:#69ffcd;stop-opacity:1;" />
      <stop
         id="stop3811"
         offset="1"
         style="stop-color:#008357;stop-opacity:1;" />
    </linearGradient>
    <filter
       id="filter5686"
       inkscape:label="Diffuse light"
       inkscape:menu="ABCs"
       inkscape:menu-tooltip="Basic diffuse bevel to use for building textures"
       color-interpolation-filters="sRGB">
      <feGaussianBlur
         id="feGaussianBlur5688"
         stdDeviation="6"
         in="SourceGraphic"
         result="result0" />
      <feDiffuseLighting
         id="feDiffuseLighting5690"
         diffuseConstant="1"
         surfaceScale="10"
         result="result5">
        <feDistantLight
           id="feDistantLight5692"
           elevation="25"
           azimuth="235" />
      </feDiffuseLighting>
      <feComposite
         id="feComposite5694"
         in2="SourceGraphic"
         k1="1"
         in="result5"
         result="result4"
         operator="arithmetic"
         k2="0"
         k3="0.6" />
    </filter>
    <filter
       id="filter5706"
       inkscape:label="Diffuse light"
       inkscape:menu="ABCs"
       inkscape:menu-tooltip="Basic diffuse bevel to use for building textures"
       color-interpolation-filters="sRGB">
      <feGaussianBlur
         id="feGaussianBlur5708"
         stdDeviation="3"
         result="fbSourceGraphic" />
      <feColorMatrix
         result="fbSourceGraphicAlpha"
         in="fbSourceGraphic"
         values="0 0 0 -1 0 0 0 0 -1 0 0 0 0 -1 0 0 0 0 1 0"
         id="feColorMatrix5710" />
      <feGaussianBlur
         id="feGaussianBlur5712"
         stdDeviation="6"
         in="fbSourceGraphic"
         result="result0" />
      <feDiffuseLighting
         id="feDiffuseLighting5714"
         diffuseConstant="1"
         surfaceScale="10"
         result="result5">
        <feDistantLight
           id="feDistantLight5716"
           elevation="25"
           azimuth="235" />
      </feDiffuseLighting>
      <feComposite
         id="feComposite5718"
         in2="fbSourceGraphic"
         k1="1"
         in="result5"
         result="result4"
         operator="arithmetic"
         k2="0"
         k3="0.6" />
    </filter>
    <filter
       id="filter5738"
       inkscape:label="Diffuse light"
       inkscape:menu="ABCs"
       inkscape:menu-tooltip="Basic diffuse bevel to use for building textures"
       color-interpolation-filters="sRGB">
      <feGaussianBlur
         id="feGaussianBlur5740"
         stdDeviation="6"
         in="SourceGraphic"
         result="result0" />
      <feDiffuseLighting
         id="feDiffuseLighting5742"
         diffuseConstant="1"
         surfaceScale="10"
         result="result5">
        <feDistantLight
           id="feDistantLight5744"
           elevation="25"
           azimuth="235" />
      </feDiffuseLighting>
      <feComposite
         id="feComposite5746"
         in2="SourceGraphic"
         k1="1"
         in="result5"
         result="result4"
         operator="arithmetic"
         k2="0"
         k3="0.6" />
    </filter>
    <radialGradient
       inkscape:collect="always"
       xlink:href="#linearGradient3807"
       id="radialGradient3923"
       gradientUnits="userSpaceOnUse"
       gradientTransform="matrix(1,0,0,0.70312498,0,220.84165)"
       cx="220.33899"
       cy="743.88763"
       fx="220.33899"
       fy="743.88763"
       r="108.47458" />
    <radialGradient
       inkscape:collect="always"
       xlink:href="#linearGradient3208"
       id="radialGradient3925"
       gradientUnits="userSpaceOnUse"
       gradientTransform="matrix(1,0,0,0.8731028,2.73225,9.214876)"
       cx="107.71911"
       cy="103.64254"
       fx="107.71911"
       fy="103.64254"
       r="83.039093" />
    <radialGradient
       inkscape:collect="always"
       xlink:href="#linearGradient3229"
       id="radialGradient3927"
       gradientUnits="userSpaceOnUse"
       gradientTransform="matrix(0.7967507,0.5836919,-0.5217273,0.7121678,63.6189,-48.55323)"
       cx="116.44111"
       cy="62.611969"
       fx="116.44111"
       fy="62.611969"
       r="84.505844" />
    <radialGradient
       inkscape:collect="always"
       xlink:href="#linearGradient3243"
       id="radialGradient3929"
       gradientUnits="userSpaceOnUse"
       gradientTransform="matrix(0.78558867,-0.24376409,0.1179343,0.38007177,13.191937,78.770272)"
       cx="100.44232"
       cy="93.919113"
       fx="100.44232"
       fy="93.919113"
       r="72.179527" />
    <radialGradient
       inkscape:collect="always"
       xlink:href="#linearGradient3277"
       id="radialGradient3931"
       gradientUnits="userSpaceOnUse"
       gradientTransform="matrix(1,0,0,0.9939293,-240.03883,-10.589981)"
       cx="343.39087"
       cy="94.882584"
       fx="343.39087"
       fy="94.882584"
       r="52.186886" />
    <radialGradient
       inkscape:collect="always"
       xlink:href="#linearGradient3308"
       id="radialGradient3933"
       gradientUnits="userSpaceOnUse"
       gradientTransform="matrix(1,0,0,1.013572,0,-1.0236264)"
       cx="90.575012"
       cy="83.386719"
       fx="90.575012"
       fy="83.386719"
       r="29.610207" />
  </defs>
  <sodipodi:namedview
     id="base"
     pagecolor="#ffffff"
     bordercolor="#666666"
     borderopacity="1.0"
     inkscape:pageopacity="0"
     inkscape:pageshadow="2"
     inkscape:zoom="1.1208333"
     inkscape:cx="320"
     inkscape:cy="240"
     inkscape:document-units="px"
     inkscape:current-layer="layer1"
     showgrid="false"
     inkscape:window-width="1234"
     inkscape:window-height="756"
     inkscape:window-x="46"
     inkscape:window-y="0"
     inkscape:window-maximized="1" />
  <metadata
     id="metadata7">
    <rdf:RDF>
      <cc:Work
         rdf:about="">
        <dc:format>image/svg+xml</dc:format>
        <dc:type
           rdf:resource="http://purl.org/dc/dcmitype/StillImage" />
        <dc:title />
      </cc:Work>
    </rdf:RDF>
  </metadata>
  <g
     inkscape:label="Livello 1"
     inkscape:groupmode="layer"
     id="layer1"
     transform="translate(0,-572.36218)">
    <rect
       style="fill:#22aaff;fill-opacity:1;stroke:none"
       id="rect3078"
       width="640"
       height="480"
       x="0"
       y="572.36218" />
    <g
       id="g3270"
       transform="translate(209.42771,591.55221)">
      <path
         style="fill:#395a40;fill-opacity:1;fill-rule:nonzero;stroke:#000000;stroke-width:0;stroke-linecap:butt;stroke-linejoin:round;stroke-miterlimit:4;stroke-opacity:1;stroke-dasharray:none;stroke-dashoffset:0"
         id="path3779"
         transform="translate(-109.76671,-607.34885)"
         d="m 328.81357,743.88763 a 108.47458,76.271187 0 1 1 -216.94916,0 108.47458,76.271187 0 1 1 216.94916,0 z"
         inkscape:connector-curvature="0" />
      <path
         style="fill:url(#radialGradient3923);fill-opacity:1;fill-rule:nonzero;stroke:#000000;stroke-width:0;stroke-linecap:butt;stroke-linejoin:round;stroke-miterlimit:4;stroke-opacity:1;stroke-dasharray:none;stroke-dashoffset:0"
         id="path3777"
         transform="translate(-109.7667,-614.15186)"
         d="m 328.81357,743.88763 a 108.47458,76.271187 0 1 1 -216.94916,0 108.47458,76.271187 0 1 1 216.94916,0 z"
         inkscape:connector-curvature="0" />
      <path
         d="m 127.49885,39.863146 c -5.34316,-0.187503 -16.82572,18.242202 -25.42912,30.727403 -0.65959,-0.360263 -1.30065,-0.720163 -1.96124,-1.080203 -7.70613,-8.602858 -15.21346,-16.075632 -18.99552,-14.809307 -1.24316,0.416239 -2.21391,1.636573 -2.97074,3.397146 -9.03793,-4.230202 -15.98532,-6.471766 -17.82488,-4.170082 -3.15802,3.951329 -2.71681,15.533856 -1.33475,27.687869 -15.09104,-0.69059 -29.59681,-1.00523 -30.66562,2.32975 -1.39581,4.35535 7.55947,15.491534 18.35336,27.122998 -8.5693,2.78087 -15.82972,5.69688 -15.59377,9.08137 0.27623,3.96211 7.79989,8.79947 17.66624,13.54983 -12.18804,12.31599 -26.66866,26.46347 -21.93553,32.64797 5.05202,6.60116 37.88895,-6.56938 57.99838,-9.20571 2.02965,8.2806 4.48891,22.88052 8.25532,23.66318 3.39087,0.70462 16.51184,-13.78555 26.69479,-19.67316 17.2236,8.60568 31.58598,31.32643 35.71385,26.16161 4.60897,-5.76678 7.96165,-26.66308 6.20967,-41.68884 14.63011,-6.49326 31.84122,-16.10878 32.92296,-20.50377 0.77248,-3.13849 -7.94684,-9.13708 -19.14474,-16.47449 11.17355,-12.123014 23.42624,-24.941428 18.41802,-27.991588 -8.15897,-4.96907 -34.59712,3.03504 -49.37036,5.90145 -4.01515,-9.33316 -9.73952,-45.195821 -16.66381,-46.634678 -0.11541,-0.02398 -0.22063,-0.03447 -0.34251,-0.03875 z"
         id="path3249"
         style="fill:#395a40;fill-opacity:1;fill-rule:evenodd"
         inkscape:connector-curvature="0" />
      <path
         d="m 162.82676,170.71553 c -5.77429,8.55621 -53.11953,-22.44415 -62.994,-23.48425 -11.56639,-1.2183 -64.52504,15.33135 -71.39481,6.1069 C 20.19231,142.26627 64.40364,105.09282 63.33497,94.947166 62.16221,83.813349 51.47043,37.698239 57.80715,28.308639 c 5.77427,-8.55622 68.39663,35.42536 78.94414,34.39102 11.57485,-1.13508 45.7486,-15.51752 55.50556,-9.4277 8.89097,5.5493 -33.2293,45.464697 -32.16063,55.610311 1.17277,11.13383 9.06726,52.44366 2.73054,61.83326 z"
         id="path2417"
         style="fill:url(#radialGradient3925);fill-opacity:1;fill-rule:evenodd"
         inkscape:connector-curvature="0" />
      <path
         d="M 95.18691,167.04991 C 87.74851,165.60535 84.37828,134.06647 80.12435,127.70348 75.87043,121.3405 24.11537,73.460139 26.91713,62.45781 c 1.89692,-7.449077 58.47425,-0.524639 64.73982,-4.844698 6.26557,-4.32006 25.66497,-48.464504 33.10338,-47.019934 7.4384,1.444561 14.94658,46.0869 19.2005,52.449879 4.25392,6.362982 53.25036,32.864029 51.82791,40.418083 -1.42245,7.55406 -43.9915,27.42119 -50.25707,31.74125 -6.26557,4.32006 -42.90635,33.29209 -50.34476,31.84752 z"
         id="path2430"
         style="fill:url(#radialGradient3927);fill-opacity:1;fill-rule:evenodd"
         inkscape:connector-curvature="0" />
      <path
         d="m 133.07709,151.23536 c -7.94504,3.23973 -28.00851,-12.38093 -35.91733,-15.70809 -7.90883,-3.32716 -64.98087,-21.17446 -66.15164,-33.25744 -0.82748,-8.540194 37.89817,-15.594719 41.22533,-23.503547 3.32716,-7.90883 -1.58416,-47.049836 6.36089,-50.289563 7.94504,-3.239728 34.2154,36.518853 42.12423,39.846015 7.90883,3.327162 51.18776,-13.308297 54.42749,-5.363252 3.23973,7.945046 -32.38092,39.042997 -35.70808,46.951827 -3.32717,7.90883 1.58416,38.08432 -6.36089,41.32405 z"
         id="path2435"
         style="fill:url(#radialGradient3929);fill-opacity:1;fill-rule:evenodd"
         inkscape:connector-curvature="0" />
      <path
         d="m 154.63373,110.30797 c -2.81131,6.14292 -31.09983,3.85387 -37.43141,6.20967 -6.33159,2.3558 -16.00092,20.96694 -22.14382,18.15565 -6.14291,-2.81131 -17.10686,-16.642 -19.46267,-22.97358 -2.3558,-6.33158 -26.38864,-35.278028 -23.57734,-41.420934 2.81131,-6.142911 37.72633,-6.26349 44.05792,-8.619292 6.33158,-2.355802 37.68766,-31.810326 43.83056,-28.999022 6.14291,2.811303 -6.38711,49.172112 -4.0313,55.503693 2.3558,6.331581 21.56936,16.000915 18.75806,22.143815 z"
         id="path3264"
         style="fill:url(#radialGradient3931);fill-opacity:1;fill-rule:evenodd"
         inkscape:connector-curvature="0" />
      <path
         style="fill:url(#radialGradient3933);fill-opacity:1;fill-rule:evenodd;stroke:#ffe60c;stroke-opacity:1"
         id="path3304"
         transform="matrix(1.0834086,-0.1454124,0.1330247,0.9911127,-1.8829419,29.897343)"
         d="m 115.66265,83.855419 c -0.82561,3.361172 0.3211,10.209773 -2.30254,12.46712 -3.63299,3.125787 -12.44715,2.847027 -17.049485,4.184091 -3.323663,0.96559 -8.681369,5.38298 -11.948109,4.23951 -4.52351,-1.58337 -8.689175,-9.356038 -12.148276,-12.673241 -2.498057,-2.395582 -9.002476,-4.8268 -9.645576,-8.227612 -0.890512,-4.709163 3.75798,-12.203067 4.901211,-16.857338 0.825607,-3.361171 -0.321105,-10.209772 2.302534,-12.467119 3.632998,-3.125787 12.447155,-2.847028 17.049488,-4.184096 3.323664,-0.965589 8.68137,-5.382972 11.948109,-4.239507 4.523514,1.583375 8.689174,9.356039 12.148274,12.673243 2.49806,2.395582 9.00248,4.8268 9.64558,8.227612 0.89051,4.709162 -3.75798,12.203066 -4.90121,16.857337 z"
         inkscape:connector-curvature="0" />
    </g>
    <g
       id="g3881"
       transform="translate(0,-30.000003)">
      <g
         id="g3876">
        <rect
           style="fill:#000000;fill-opacity:0.26666667;stroke:none"
           id="rect5990"
           width="120"
           height="120"
           x="131"
           y="878.36218"
           rx="10"
           ry="10" />
        <path
           sodipodi:nodetypes="cccccccc"
           inkscape:connector-curvature="0"
           id="path5992"
           d="m 271.5,923.36219 0,30 60,0 0,15 40,-30 -40,-30 0,15 z"
           style="fill:#000000;fill-opacity:0.26666667;stroke:none" />
        <rect
           ry="10"
           rx="10"
           y="878.36218"
           x="392"
           height="120"
           width="120"
           id="rect5994"
           style="fill:#000000;fill-opacity:0.26666667;stroke:none" />
      </g>
      <g
         id="g3871">
        <rect
           ry="10"
           rx="10"
           y="872.36218"
           x="128"
           height="120"
           width="120"
           id="rect5776"
           style="fill:#ffffff;fill-opacity:1;stroke:none" />
        <path
           style="fill:#ffffff;fill-opacity:1;stroke:none"
           d="m 268.5,917.36218 0,30 60,0 0,15 40,-30 -40,-30 0,15 z"
           id="path5788"
           inkscape:connector-curvature="0"
           sodipodi:nodetypes="cccccccc" />
        <rect
           style="fill:#ffffff;fill-opacity:1;stroke:none"
           id="rect5981"
           width="120"
           height="120"
           x="389"
           y="872.36218"
           rx="10"
           ry="10" />
      </g>
    </g>
  </g>
</svg>
