<?xml version="1.0" encoding="UTF-8" standalone="no"?>
<svg
   xmlns:dc="http://purl.org/dc/elements/1.1/"
   xmlns:cc="http://creativecommons.org/ns#"
   xmlns:rdf="http://www.w3.org/1999/02/22-rdf-syntax-ns#"
   xmlns:svg="http://www.w3.org/2000/svg"
   xmlns="http://www.w3.org/2000/svg"
   xmlns:xlink="http://www.w3.org/1999/xlink"
   xmlns:sodipodi="http://sodipodi.sourceforge.net/DTD/sodipodi-0.dtd"
   xmlns:inkscape="http://www.inkscape.org/namespaces/inkscape"
   version="1.2"
   width="128"
   height="128"
   viewBox="0 0 20.556804 20.556804"
   id="svg2"
   inkscape:version="0.48.5 r10040"
   sodipodi:docname="bluerest.svg">
  <metadata
     id="metadata24">
    <rdf:RDF>
      <cc:Work
         rdf:about="">
        <dc:format>image/svg+xml</dc:format>
        <dc:type
           rdf:resource="http://purl.org/dc/dcmitype/StillImage" />
      </cc:Work>
    </rdf:RDF>
  </metadata>
  <defs
     id="defs22" />
  <sodipodi:namedview
     pagecolor="#ffffff"
     bordercolor="#666666"
     borderopacity="1"
     objecttolerance="10"
     gridtolerance="10"
     guidetolerance="10"
     inkscape:pageopacity="0"
     inkscape:pageshadow="2"
     inkscape:window-width="1215"
     inkscape:window-height="1000"
     id="namedview20"
     showgrid="false"
     inkscape:zoom="1"
     inkscape:cx="105.35412"
     inkscape:cy="366.6665"
     inkscape:window-x="65"
     inkscape:window-y="24"
     inkscape:window-maximized="1"
     inkscape:current-layer="svg2" />
  <!-- Page: 1/1 -->
  <text
     font-size="2.2001"
     id="text4"
     style="font-size:2.20009995px;text-anchor:start;fill:currentColor;font-family:Century Schoolbook L"
     x="5.6905999"
     y="-145.6073">
    <tspan
       id="tspan6" />
  </text>
  <g
     id="g8"
     style="color:#0000ff"
     transform="matrix(8.3088748,0,0,8.3088748,-116.38633,-28.865749)">
    <path
       transform="matrix(0.004,0,0,-0.004,14.7264,4.6653)"
       d="M 72,-250 189,76 C 155,64 120,54 84,54 38,54 -3,87 -3,133 c 0,40 33,72 73,72 25,0 48,-15 56,-39 10,-28 6,-59 35,-59 16,0 54,48 61,63 6,12 23,12 28,0 L 127,-250 c -8,-7 -17,-10 -27,-10 -10,0 -20,3 -28,10 z"
       id="path10"
       inkscape:connector-curvature="0"
       style="fill:currentColor" />
  </g>
  <a
     transform="translate(31.0704,16.698604)"
     xlink:href="http://lilypond.org/"
     id="a12">
    <rect
       x="0"
       y="-0.44389999"
       width="57.360802"
       height="2.0486"
       id="rect14"
       style="fill:none;stroke:none" />
  </a>
</svg>
