<?xml version="1.0" encoding="UTF-8" standalone="no"?>
<svg
   xmlns:osb="http://www.openswatchbook.org/uri/2009/osb"
   xmlns:dc="http://purl.org/dc/elements/1.1/"
   xmlns:cc="http://creativecommons.org/ns#"
   xmlns:rdf="http://www.w3.org/1999/02/22-rdf-syntax-ns#"
   xmlns:svg="http://www.w3.org/2000/svg"
   xmlns="http://www.w3.org/2000/svg"
   xmlns:xlink="http://www.w3.org/1999/xlink"
   xmlns:sodipodi="http://sodipodi.sourceforge.net/DTD/sodipodi-0.dtd"
   xmlns:inkscape="http://www.inkscape.org/namespaces/inkscape"
   version="1.2"
   width="128"
   height="128"
   viewBox="0 0 20.554449 20.554449"
   id="svg2"
   inkscape:version="0.48.2 r9819"
   sodipodi:docname="tools_transpose.svg">
  <metadata
     id="metadata20">
    <rdf:RDF>
      <cc:Work
         rdf:about="">
        <dc:format>image/svg+xml</dc:format>
        <dc:type
           rdf:resource="http://purl.org/dc/dcmitype/StillImage" />
        <dc:title></dc:title>
      </cc:Work>
    </rdf:RDF>
  </metadata>
  <defs
     id="defs18">
    <linearGradient
       id="linearGradient3814">
      <stop
         style="stop-color:#004cf9;stop-opacity:1;"
         offset="0"
         id="stop3816" />
      <stop
         style="stop-color:#2265ff;stop-opacity:1;"
         offset="1"
         id="stop3818" />
    </linearGradient>
    <linearGradient
       id="linearGradient3808"
       osb:paint="gradient">
      <stop
         id="stop3810"
         offset="0"
         style="stop-color:#4a8081;stop-opacity:1;" />
      <stop
         style="stop-color:#ffffff;stop-opacity:1;"
         offset="1"
         id="stop3812" />
    </linearGradient>
    <linearGradient
       id="linearGradient3798"
       osb:paint="gradient">
      <stop
         style="stop-color:#4a8081;stop-opacity:1;"
         offset="0"
         id="stop3804" />
      <stop
         id="stop3802"
         offset="1"
         style="stop-color:#ffffff;stop-opacity:1;" />
    </linearGradient>
    <linearGradient
       id="linearGradient3784"
       osb:paint="solid">
      <stop
         style="stop-color:#000000;stop-opacity:1;"
         offset="0"
         id="stop3786" />
    </linearGradient>
    <linearGradient
       inkscape:collect="always"
       xlink:href="#linearGradient3798"
       id="linearGradient3828"
       x1="4.2404366"
       y1="8.1821833"
       x2="3.7730191"
       y2="-0.48690748"
       gradientUnits="userSpaceOnUse" />
    <linearGradient
       inkscape:collect="always"
       xlink:href="#linearGradient3814-4"
       id="linearGradient3820-2"
       x1="4.2404366"
       y1="8.1821833"
       x2="3.7730191"
       y2="-0.48690748"
       gradientUnits="userSpaceOnUse" />
    <linearGradient
       id="linearGradient3814-4">
      <stop
         style="stop-color:#004cf9;stop-opacity:1;"
         offset="0"
         id="stop3816-7" />
      <stop
         style="stop-color:#2265ff;stop-opacity:1;"
         offset="1"
         id="stop3818-7" />
    </linearGradient>
  </defs>
  <sodipodi:namedview
     pagecolor="#ffffff"
     bordercolor="#666666"
     borderopacity="1"
     objecttolerance="10"
     gridtolerance="10"
     guidetolerance="10"
     inkscape:pageopacity="0"
     inkscape:pageshadow="2"
     inkscape:window-width="1920"
     inkscape:window-height="1055"
     id="namedview16"
     showgrid="false"
     inkscape:zoom="2.96"
     inkscape:cx="-59.244029"
     inkscape:cy="16.498224"
     inkscape:window-x="0"
     inkscape:window-y="0"
     inkscape:window-maximized="1"
     inkscape:current-layer="svg2" />
  <!-- Page: 1/1 -->
  <path
     style="fill:currentColor"
     d="m 13.9963,18.47328 c -0.243316,0.759599 -1.744097,0.612308 -1.63265,-0.266835 0,-1.111007 0,-2.222014 0,-3.333022 -1.220811,0.256542 -2.441622,0.513083 -3.6624329,0.769626 -0.011996,1.338019 0.023967,2.676432 -0.017919,4.014151 -0.3828608,0.643484 -1.7691861,0.489987 -1.6147244,-0.402833 0,-1.096192 0,-2.192382 0,-3.288572 -0.8053163,0.09482 -1.7772776,0.626053 -2.5019933,0.05071 -0.2061985,-0.855716 -0.3702733,-2.35618 0.9364543,-2.279057 0.4587265,-0.273175 1.6705051,0.08107 1.5655265,-0.659939 0,-1.205429 0,-2.410861 0,-3.6162913 -0.8072649,0.0789 -1.7795495,0.5942043 -2.501987,0.02589 -0.209185,-0.857205 -0.3662828,-2.338437 0.9378416,-2.259689 0.6837498,-0.225424 1.8995263,-0.017746 1.5663913,-1.076061 -0.00112,-1.087133 -0.016669,-2.174534 0.01377,-3.2614321 0.3707235,-0.6580644 1.7606818,-0.4759175 1.6166205,0.4028328 0,1.0961923 0,2.1923823 0,3.2885723 1.2208148,-0.256541 2.4416292,-0.513082 3.6624442,-0.769623 0.012,-1.338021 -0.02397,-2.6764372 0.01792,-4.0141559 0.38286,-0.6434819 1.769186,-0.4899876 1.614725,0.4028354 0,1.0961899 0,2.1923795 0,3.2885725 0.805323,-0.09484 1.777283,-0.626056 2.502,-0.05073 0.206201,0.855716 0.370268,2.356171 -0.936458,2.27905 -0.458727,0.273178 -1.67051,-0.08107 -1.565533,0.659946 0,1.205432 0,2.4108643 0,3.6162963 0.807267,-0.0789 1.779554,-0.594206 2.501994,-0.02589 0.209189,0.857206 0.366277,2.338427 -0.937845,2.259682 -0.458157,0.278786 -1.668351,-0.05985 -1.564146,0.679312 2e-6,1.18888 3e-6,2.377763 4e-6,3.566643 z M 8.7012171,9.1136477 c 0,1.3240863 0,2.6481723 0,3.9722583 1.2208109,-0.248264 2.4416219,-0.496531 3.6624329,-0.744797 0,-1.324086 0,-2.6481723 0,-3.9722583 -1.220811,0.248264 -2.441622,0.496533 -3.6624329,0.744797 z"
     id="path3877"
     inkscape:connector-curvature="0" />
  <path
     style="fill:#0052bf;fill-opacity:1"
     d="m 13.229291,17.850216 c -0.243316,0.759599 -1.744097,0.612308 -1.63265,-0.266835 0,-1.111007 0,-2.222014 0,-3.333022 -1.220811,0.256542 -2.4416218,0.513085 -3.662433,0.769626 -0.011996,1.338019 0.023967,2.676432 -0.017919,4.014151 -0.3828607,0.643484 -1.7691861,0.489987 -1.6147244,-0.402833 0,-1.096192 0,-2.192382 0,-3.288572 -0.8053163,0.09482 -1.7772772,0.626055 -2.501993,0.05071 -0.2061985,-0.855716 -0.3702733,-2.35618 0.9364541,-2.279057 0.4587264,-0.273175 1.670505,0.08107 1.5655264,-0.659939 0,-1.205429 0,-2.410861 0,-3.6162913 -0.8072648,0.07887 -1.7795492,0.594204 -2.5019867,0.02589 -0.209185,-0.857205 -0.3662828,-2.338437 0.9378413,-2.259689 0.6837497,-0.225422 1.8995261,-0.01774 1.5663911,-1.076059 -0.00112,-1.087136 -0.016669,-2.1745364 0.01377,-3.2614321 0.3707235,-0.6580643 1.7606819,-0.47592 1.6166206,0.4028328 0,1.09619 0,2.1923823 0,3.2885723 1.2208144,-0.256541 2.4416294,-0.513082 3.6624434,-0.769626 0.012,-1.3380182 -0.02397,-2.6764342 0.01792,-4.0141528 0.382861,-0.64348443 1.769187,-0.48998773 1.614725,0.4028328 0,1.0961924 0,2.1923823 0,3.288572 0.805323,-0.09482 1.777284,-0.626055 2.502001,-0.05073 0.206201,0.855718 0.370268,2.356173 -0.936458,2.279052 -0.458728,0.273178 -1.67051,-0.08107 -1.565533,0.659946 0,1.205432 0,2.4108643 0,3.6162943 0.807267,-0.0789 1.779554,-0.594204 2.501994,-0.02589 0.20919,0.857205 0.366277,2.338429 -0.937845,2.259684 -0.458157,0.278786 -1.668351,-0.05985 -1.564146,0.679309 1e-6,1.188883 3e-6,2.377764 4e-6,3.566646 z M 7.934208,8.4905867 c 0,1.324085 0,2.6481713 0,3.9722553 1.2208112,-0.248264 2.441622,-0.496531 3.662433,-0.744797 0,-1.324086 0,-2.6481723 0,-3.9722583 -1.220811,0.248264 -2.4416218,0.496533 -3.662433,0.7448 z"
     id="path3877-9"
     inkscape:connector-curvature="0" />
</svg>
