<?xml version="1.0" encoding="UTF-8" standalone="no"?>
<svg xmlns:rdf="http://www.w3.org/1999/02/22-rdf-syntax-ns#" xmlns="http://www.w3.org/2000/svg" height="32" width="32" version="1.2" xmlns:cc="http://creativecommons.org/ns#" xmlns:dc="http://purl.org/dc/elements/1.1/" viewBox="0 0 5.1380497 5.1380498">
 <path d="m1.1822 0.16405c-0.32796 0-0.59934 0.092304-0.75038 0.25608-0.10355 0.11338-0.1471 0.23973-0.15573 0.4581h0.36237c0.030197-0.26875 0.19427-0.39036 0.53089-0.39036 0.32365 0 0.50494 0.11742 0.50494 0.32738v0.092095c0 0.14697-0.090387 0.21001-0.37519 0.24361-0.50919 0.062992-0.58697 0.08032-0.72504 0.13487-0.26323 0.10499-0.39687 0.3021-0.39687 0.58763 0 0.39893 0.28442 0.65061 0.74184 0.65061 0.28481 0 0.5138-0.096464 0.76839-0.32322 0.025892 0.22256 0.13759 0.32322 0.37061 0.32322 0.073359 0 0.12955-0.00834 0.24606-0.03773v-0.2644c-0.038838 0.00841-0.055659 0.00832-0.077236 0.00832-0.12515 0-0.19446-0.06313-0.19446-0.17231v-1.2929c0-0.39053-0.29355-0.60099-0.85021-0.60099zm0.49211 1.1761v0.39452c0 0.11758-0.034378 0.18892-0.14226 0.28549-0.14671 0.13017-0.32371 0.19756-0.53516 0.19756-0.2805 0-0.44449-0.13006-0.44449-0.35264 0-0.23096 0.15964-0.34884 0.54371-0.40344 0.37979-0.050398 0.4574-0.066941 0.5782-0.12151z" fill="#c00"/>
 <path fill="#3465a4" d="m3.3423 1.9518c-0.3021 0.0545-0.5132 0.0842-0.8972 0.1262v0.11319c0.21145 0 0.2717 0.029677 0.2717 0.12626 0 0.05459-0.056317 0.2768-0.16852 0.65893l-0.4052 1.3731c-0.038838 0.13438-0.087005 0.31916-0.087005 0.34016 0 0.11758 0.31572 0.25192 0.59622 0.25192 0.70338 0 1.3808-0.72187 1.3808-1.4735 0-0.30655-0.19845-0.52078-0.48326-0.52078-0.22007 0-0.37552 0.1004-0.59561 0.38175l0.3881-1.3773zm-0.038771 1.2807c0.12515 0 0.19019 0.096793 0.19019 0.28995 0 0.24776-0.11666 0.63802-0.27201 0.89837-0.14671 0.25196-0.31511 0.38234-0.50066 0.38234-0.077674 0-0.13402-0.050795-0.13402-0.11378 0-0.037795 0.078126-0.38136 0.11265-0.51573 0.0475-0.1639 0.1469-0.429 0.2116-0.576 0.1123-0.2394 0.25-0.3651 0.3923-0.3651z"/>
 <metadata>
  <rdf:RDF>
   <cc:Work rdf:about="">
    <dc:format>image/svg+xml</dc:format>
    <dc:type rdf:resource="http://purl.org/dc/dcmitype/StillImage"/>
    <dc:title/>
   </cc:Work>
  </rdf:RDF>
 </metadata>
<!-- Page: 1/1 -->
 <g fill="#4e9a06" transform="matrix(.86248 0 0 1 .94450 2.9845)">
  <path fill="#4e9a06" d="m4.2505-2.6639c-0.1807-0.1004-0.3693-0.1526-0.5781-0.1526-0.60613 0-1.0356 0.41747-1.0356 0.95536 0 0.5419 0.41747 0.95134 1.0678 0.95134 0.54592 0 0.94733-0.24486 0.94733-0.47366 0-0.11641-0.076268-0.19669-0.17261-0.19669-0.16056 0-0.33718 0.2569-0.73859 0.2569-0.34923 0-0.55796-0.22479-0.55796-0.5419 0-0.30507 0.21275-0.53388 0.52183-0.53388 0.24887 0 0.41345 0.084296 0.51782 0.26092 0.064226 0.10838 0.12042 0.16056 0.22479 0.16056 0.14049 0 0.19669-0.076268 0.19669-0.23282v-0.32113c0-0.19268-0.040141-0.28902-0.19268-0.28902-0.10035 0-0.16458 0.052183-0.2007 0.15655z"/>
 </g>
</svg>
