<svg xmlns="http://www.w3.org/2000/svg" xmlns:xlink="http://www.w3.org/1999/xlink" version="1.2" width="5.62mm" height="5.62mm" viewBox="0 0 3.2000 3.2000">
<!-- Page: 1/1 -->
<path transform="translate(1.6000, 1.6000) scale(0.0040, -0.0040)" d="M-202 -50c0 17 13 30 30 30s30 -13 30 -30s-13 -30 -30 -30s-30 13 -30 30zM142 50c0 17 13 30 30 30s30 -13 30 -30s-13 -30 -30 -30s-30 13 -30 30zM-35 -227c0 34 17 59 54 59c39 0 58 -31 58 -62c0 -27 -15 -55 -40 -64c8 -29 36 -51 69 -51c38 0 66 35 66 75
c0 99 -83 168 -172 219l-190 -324h-60l204 349c-104 58 -204 132 -204 245c0 86 62 156 144 156c79 0 141 -68 141 -148c0 -34 -17 -59 -54 -59c-39 0 -58 31 -58 62c0 27 15 55 40 64c-8 29 -36 51 -69 51c-38 0 -66 -35 -66 -75c0 -99 83 -168 172 -219l190 324h60
l-204 -349c104 -58 204 -132 204 -245c0 -86 -62 -156 -144 -156c-79 0 -141 68 -141 148z" fill="currentColor"/>
</svg>
