<svg xmlns="http://www.w3.org/2000/svg" xmlns:xlink="http://www.w3.org/1999/xlink" version="1.2" width="5.62mm" height="5.62mm" viewBox="0 0 3.2000 3.2000">
<!-- Page: 1/1 -->
<path transform="translate(1.6000, 1.6000) scale(0.0040, -0.0040)" d="M139 -132c-65 0 -117 45 -164 89s-93 97 -157 97c-33 0 -61 -23 -61 -54s23 -53 50 -57c9 21 28 31 48 31c26 0 54 -18 54 -53c0 -32 -33 -53 -68 -53c-67 0 -114 62 -114 132c0 74 60 132 134 132c65 0 117 -45 164 -89s93 -97 157 -97c33 0 61 23 61 54s-23 53 -50 57
c-9 -21 -28 -31 -48 -31c-26 0 -54 18 -54 53c0 32 33 53 68 53c67 0 114 -62 114 -132c0 -74 -60 -132 -134 -132z" fill="currentColor"/>
</svg>
