<svg xmlns="http://www.w3.org/2000/svg" xmlns:xlink="http://www.w3.org/1999/xlink" version="1.2" width="5.62mm" height="5.62mm" viewBox="0 0 3.2000 3.2000">
<!-- Page: 1/1 -->
<path transform="translate(1.6000, 2.6000) scale(0.0040, -0.0040)" d="M87 0c0 21 17 38 38 38s38 -17 38 -38s-17 -38 -38 -38s-38 17 -38 38zM-163 0c0 21 17 38 38 38s38 -17 38 -38s-17 -38 -38 -38s-38 17 -38 38zM40 468c-57 0 -120 -37 -120 -91c0 -39 27 -59 53 -76c28 -18 63 -27 88 -50c31 -28 46 -65 46 -103
c0 -73 -52 -153 -137 -198c-2 -1 -3 -2 -4 -2c-13 0 34 72 38 77c13 15 18 34 18 52c0 26 -12 53 -33 72c-25 23 -59 32 -87 50c-39 25 -66 68 -66 113c0 6 1 12 2 18c16 102 98 178 193 221c25 11 52 20 77 20c20 0 38 -5 53 -20c1 -1 1 -2 1 -4c0 -22 -61 -110 -73 -98
c-13 13 -31 19 -49 19z" fill="currentColor"/>
</svg>
