<svg xmlns="http://www.w3.org/2000/svg" xmlns:xlink="http://www.w3.org/1999/xlink" version="1.2" width="5.62mm" height="5.62mm" viewBox="0 0 3.2000 3.2000">
<!-- Page: 1/1 -->
<path transform="translate(1.6000, 1.6000) scale(0.0040, -0.0040)" d="M-125 -169c-7 0 -13 6 -13 13c0 3 1 6 3 8l56 70c-14 22 -21 50 -21 78c0 65 40 125 100 125c25 0 46 -10 62 -26l53 65c3 3 6 5 10 5c7 0 13 -6 13 -13c0 -3 -1 -6 -3 -8l-56 -70c14 -22 21 -50 21 -78c0 -65 -40 -125 -100 -125c-25 0 -46 10 -62 26l-53 -65
c-3 -3 -6 -5 -10 -5zM-52 -44l92 115c-9 14 -22 24 -40 24c-41 0 -57 -48 -57 -95c0 -15 1 -30 5 -44zM-40 -71c9 -14 22 -24 40 -24c41 0 57 48 57 95c0 15 -1 30 -5 44z" fill="currentColor"/>
</svg>
