<svg xmlns="http://www.w3.org/2000/svg" xmlns:xlink="http://www.w3.org/1999/xlink" version="1.2" width="5.62mm" height="5.62mm" viewBox="0 0 3.2000 3.2000">
<!-- Page: 1/1 -->
<path transform="translate(1.6000, 1.6000) scale(0.0040, -0.0040)" d="M16 0c0 -9 -7 -16 -16 -16s-16 7 -16 16v100c-48 -8 -85 -50 -85 -100c0 -56 45 -101 101 -101s101 45 101 101c0 50 -37 92 -85 100v-100zM-16 132v68c0 9 7 16 16 16s16 -7 16 -16v-68c66 -8 117 -64 117 -132c0 -74 -59 -133 -133 -133s-133 59 -133 133
c0 68 51 124 117 132z" fill="currentColor"/>
</svg>
