<svg xmlns="http://www.w3.org/2000/svg" xmlns:xlink="http://www.w3.org/1999/xlink" version="1.2" width="5.62mm" height="5.62mm" viewBox="0 0 3.2000 3.2000">
<!-- Page: 1/1 -->
<path transform="translate(1.6000, 2.6000) scale(0.0040, -0.0040)" d="M-91 67c0 37 29 66 66 66s67 -29 67 -66s-30 -67 -67 -67s-66 30 -66 67zM-231 0c-11 0 -19 9 -19 19c0 3 1 4 2 7l231 513c3 7 10 11 17 11s14 -4 17 -11l231 -513c1 -3 2 -4 2 -7c0 -10 -8 -19 -19 -19h-49c-7 0 -14 4 -17 11l-190 418l-189 -418
c-3 -7 -10 -11 -17 -11z" fill="currentColor"/>
</svg>
