<svg xmlns="http://www.w3.org/2000/svg" xmlns:xlink="http://www.w3.org/1999/xlink" version="1.2" width="14.06mm" height="14.06mm" viewBox="0 0 8.0000 8.0000">
<!-- Page: 1/1 -->
<line transform="translate(0.5000, 6.0000)" stroke-linejoin="round" stroke-linecap="round" stroke-width="0.1200" stroke="currentColor" x1="0.0600" y1="-0.0000" x2="6.9400" y2="-0.0000"/>
<line transform="translate(0.5000, 5.0000)" stroke-linejoin="round" stroke-linecap="round" stroke-width="0.1200" stroke="currentColor" x1="0.0600" y1="-0.0000" x2="6.9400" y2="-0.0000"/>
<line transform="translate(0.5000, 4.0000)" stroke-linejoin="round" stroke-linecap="round" stroke-width="0.1200" stroke="currentColor" x1="0.0600" y1="-0.0000" x2="6.9400" y2="-0.0000"/>
<line transform="translate(0.5000, 3.0000)" stroke-linejoin="round" stroke-linecap="round" stroke-width="0.1200" stroke="currentColor" x1="0.0600" y1="-0.0000" x2="6.9400" y2="-0.0000"/>
<line transform="translate(0.5000, 2.0000)" stroke-linejoin="round" stroke-linecap="round" stroke-width="0.1200" stroke="currentColor" x1="0.0600" y1="-0.0000" x2="6.9400" y2="-0.0000"/>
<path transform="translate(4.0000, 4.0000) scale(0.0040, -0.0040)" d="M-287 -791c0 36 26 67 67 67c48 0 74 -37 74 -75c0 -21 -8 -42 -25 -56c62 -57 141 -96 238 -96c82 0 169 39 169 129c0 65 -58 121 -118 163l-307 215c-75 52 -125 133 -125 211c0 67 42 125 90 151c-55 51 -90 118 -90 183c0 67 42 124 90 150c-55 51 -90 118 -90 183
c0 67 42 126 90 151c-53 51 -83 119 -83 188c0 44 12 89 39 128c49 71 133 102 219 102c16 0 33 -1 49 -3c113 -15 213 -78 277 -172c7 -12 10 -25 10 -37c0 -36 -26 -67 -67 -67c-48 0 -74 37 -74 75c0 21 8 42 25 56c-62 57 -141 96 -238 96c-82 0 -169 -39 -169 -129
c0 -65 58 -121 118 -163l307 -215c75 -52 125 -133 125 -211c0 -67 -42 -125 -90 -151c55 -51 90 -118 90 -183c0 -67 -42 -124 -90 -150c55 -51 90 -118 90 -183c0 -67 -42 -126 -90 -151c53 -51 83 -119 83 -188c0 -44 -12 -89 -39 -128c-49 -71 -133 -102 -219 -102
c-16 0 -33 1 -49 3c-113 15 -213 78 -277 172c-7 12 -10 25 -10 37zM217 126c28 0 56 22 56 53c0 53 -83 112 -155 162l-154 108c-61 43 -131 92 -181 92c-28 0 -56 -23 -56 -54c0 -53 83 -112 155 -162l153 -106c61 -43 131 -93 182 -93zM217 -541c28 0 56 23 56 54
c0 53 -83 112 -155 162l-153 106c-61 43 -132 93 -182 93c-28 0 -56 -22 -56 -53c0 -53 83 -112 155 -162l154 -108c61 -43 131 -92 181 -92zM-217 207c-28 0 -56 -22 -56 -53c0 -53 83 -112 155 -162l164 -115c58 -41 124 -84 171 -84c28 0 56 22 56 53
c0 53 -83 112 -155 162l-164 115c-58 41 -124 84 -171 84z" fill="currentColor"/>
<rect transform="translate(3.6600, 4.0000)" x="0.0000" y="-2.0000" width="0.1900" height="4.0000" ry="0.0000" fill="currentColor"/>
<rect transform="translate(4.1500, 4.0000)" x="0.0000" y="-2.0000" width="0.1900" height="4.0000" ry="0.0000" fill="currentColor"/>
</svg>
