<svg xmlns="http://www.w3.org/2000/svg" xmlns:xlink="http://www.w3.org/1999/xlink" version="1.2" width="5.62mm" height="5.62mm" viewBox="0 0 3.2000 3.2000">
<!-- Page: 1/1 -->
<path transform="translate(0.6500, 1.8000) scale(0.0040, -0.0040)" d="M149 -182l232 464c5 11 17 18 29 18h32c7 0 12 -6 12 -12c0 -2 0 -4 -1 -6l-232 -464c-5 -11 -17 -18 -29 -18h-32c-9 0 -15 10 -11 18zM9 -182l232 464c5 11 17 18 29 18h32c7 0 12 -6 12 -12c0 -2 0 -4 -1 -6l-232 -464c-5 -11 -17 -18 -29 -18h-32c-7 0 -12 6 -12 12
c0 2 0 4 1 6z" fill="currentColor"/>
</svg>
