<svg xmlns="http://www.w3.org/2000/svg" xmlns:xlink="http://www.w3.org/1999/xlink" version="1.2" width="5.62mm" height="5.62mm" viewBox="0 0 3.2000 3.2000">
<!-- Page: 1/1 -->
<path transform="translate(0.9500, 1.8000) scale(0.0040, -0.0040)" d="M282 313c18 0 31 -15 31 -32c0 -160 -63 -326 -127 -470c-3 -7 -10 -11 -17 -11c-15 0 -22 15 -17 26c63 144 89 300 99 457c1 17 15 30 31 30zM19 -200c-11 0 -19 10 -19 19c0 3 1 5 2 7c63 144 89 300 99 457c1 17 15 30 31 30c18 0 31 -15 31 -32
c0 -160 -63 -326 -127 -470c-3 -7 -10 -11 -17 -11z" fill="currentColor"/>
</svg>
