<svg xmlns="http://www.w3.org/2000/svg" xmlns:xlink="http://www.w3.org/1999/xlink" version="1.2" width="8.44mm" height="8.44mm" viewBox="0 0 4.8000 4.8000">
<!-- Page: 1/1 -->
<g transform="translate(0.9489, 3.2000)" >
<path transform="scale(0.0055, -0.0055)" d="M162 74c0 58 -99 63 -99 120c0 55 46 98 101 98s78 -34 78 -62c0 -20 -12 -37 -31 -37c-18 0 -32 11 -32 22c0 3 1 5 3 7c6 8 9 18 9 26c0 13 -7 24 -19 24c-27 0 -48 -23 -48 -50c0 -17 16 -29 31 -38c33 -20 68 -43 68 -81c0 -60 -57 -103 -120 -103
c-43 0 -82 26 -82 65c0 21 12 42 31 42c18 0 32 -15 32 -33c0 -13 -21 -15 -21 -28c0 -16 18 -23 36 -23c33 0 63 20 63 51z" fill="currentColor"/>

<path transform="translate(1.1267, 0.0000) scale(0.0055, -0.0055)" d="M254 251l-51 -165c-30 -99 -121 -256 -218 -256c-45 0 -87 25 -87 65c0 39 17 77 52 77c24 0 44 -20 44 -44c0 -30 -38 -25 -38 -55c0 -10 11 -10 23 -10h6c50 0 60 61 73 113l69 275h-53c-9 0 -16 8 -16 17s7 17 16 17h62c31 97 119 193 214 193c45 0 87 -24 87 -64
c0 -39 -17 -78 -52 -78c-24 0 -44 20 -44 44c0 30 38 25 38 55c0 10 -10 11 -22 11c-2 0 -5 -1 -7 -1c-65 0 -70 -93 -87 -160h58c9 0 17 -8 17 -17s-8 -17 -17 -17h-67z" fill="currentColor"/>
</g>
</svg>
