<svg xmlns="http://www.w3.org/2000/svg" xmlns:xlink="http://www.w3.org/1999/xlink" version="1.2" width="8.44mm" height="8.44mm" viewBox="0 0 4.8000 4.8000">
<!-- Page: 1/1 -->
<g transform="translate(0.7611, 3.2000)" >
<path transform="scale(0.0040, -0.0040)" d="M227 306c32 0 60 -13 60 -41c0 -24 -21 -47 -43 -47c-13 0 -24 5 -29 15c-7 13 -5 30 -25 30c-21 0 -52 -22 -58 -44l-52 -201c-3 -10 -12 -18 -22 -18h-40c-10 0 -16 8 -13 18l57 223c1 4 2 8 2 12c0 11 -4 20 -15 20c-20 0 -45 -31 -51 -54c-4 -7 -10 -10 -16 -10
c-7 0 -12 5 -12 12c0 3 1 6 3 9c12 44 52 75 97 75c29 0 52 -13 64 -35c28 23 62 36 93 36z" fill="currentColor"/>

<path transform="translate(0.8877, 0.0000) scale(0.0040, -0.0040)" d="M253 245l-50 -163c-30 -99 -121 -255 -218 -255c-45 0 -87 27 -87 69c0 39 17 77 52 77c24 0 44 -20 44 -44c0 -30 -38 -24 -38 -54c0 -10 11 -11 23 -11h6c48 0 61 58 73 108l68 273h-49c-11 0 -19 8 -19 19s8 19 19 19h60c32 96 118 191 213 191c45 0 87 -27 87 -69
c0 -39 -17 -77 -52 -77c-24 0 -44 19 -44 43c0 30 38 25 38 55c0 10 -10 11 -22 11h-7c-62 0 -70 -88 -86 -154h55c11 0 19 -8 19 -19s-8 -19 -19 -19h-66z" fill="currentColor"/>

<path transform="translate(2.1510, 0.0000) scale(0.0040, -0.0040)" d="M264 127c19 0 22 -45 22 -61c0 -52 -45 -94 -98 -94c-42 0 -73 39 -115 39c-8 0 -16 1 -24 1c-10 0 -19 -1 -26 -8c-3 -3 -6 -4 -9 -4c-7 0 -14 7 -14 14c0 3 1 7 4 10l186 176c-34 -6 -71 -5 -105 -11c-14 -2 -29 -7 -40 -7c-10 0 -17 4 -17 15c0 32 38 70 71 70
c32 0 62 -22 94 -22c8 0 15 -1 23 -1c11 0 22 1 30 9c3 3 7 4 10 4c7 0 14 -7 14 -14c0 -3 -2 -7 -5 -10l-177 -167h5c42 0 83 -11 125 -11c20 0 35 17 35 38c0 7 -4 14 -4 21c0 8 8 13 15 13z" fill="currentColor"/>
</g>
</svg>
