<svg xmlns="http://www.w3.org/2000/svg" xmlns:xlink="http://www.w3.org/1999/xlink" version="1.2" width="5.62mm" height="5.62mm" viewBox="0 0 3.2000 3.2000">
<!-- Page: 1/1 -->
<path transform="translate(1.4566, 0.0626) scale(0.0036, -0.0036)" d="M0 0c0 -178 203 -291 203 -469c0 -33 -8 -65 -23 -95c18 -36 29 -75 29 -117c0 -63 -16 -126 -42 -183c-5 -8 -12 -12 -20 -12c-14 0 -27 11 -24 28c26 52 42 109 42 167c0 97 -94 190 -165 256v-75h-18v500h18zM151 -514c5 15 8 30 8 45c0 95 -91 189 -159 256
c0 -117 89 -204 151 -301z" fill="currentColor"/>
<rect transform="translate(0.2845, 2.6818)" x="1.0563" y="-2.6192" width="0.1158" height="2.4579" ry="0.0193" fill="currentColor"/>
<path transform="translate(0.2845, 2.6818) scale(0.0036, -0.0036)" d="M217 139c57 0 112 -31 112 -94c0 -72 -55 -121 -102 -149c-35 -21 -74 -35 -115 -35c-57 0 -112 31 -112 94c0 72 55 121 102 149c35 21 74 35 115 35z" fill="currentColor"/>
</svg>
