<svg xmlns="http://www.w3.org/2000/svg" xmlns:xlink="http://www.w3.org/1999/xlink" version="1.2" width="14.06mm" height="14.06mm" viewBox="0 0 16.0000 16.0000">
<!-- Page: 1/1 -->
<line transform="translate(3.0000, 5.9000)" stroke-linejoin="round" stroke-linecap="round" stroke-width="0.1657" stroke="currentColor" x1="0.0829" y1="-0.0000" x2="10.9171" y2="-0.0000"/>
<line transform="translate(3.0000, 4.9000)" stroke-linejoin="round" stroke-linecap="round" stroke-width="0.1657" stroke="currentColor" x1="0.0829" y1="-0.0000" x2="10.9171" y2="-0.0000"/>
<line transform="translate(3.0000, 3.9000)" stroke-linejoin="round" stroke-linecap="round" stroke-width="0.1657" stroke="currentColor" x1="0.0829" y1="-0.0000" x2="10.9171" y2="-0.0000"/>
<line transform="translate(3.0000, 2.9000)" stroke-linejoin="round" stroke-linecap="round" stroke-width="0.1657" stroke="currentColor" x1="0.0829" y1="-0.0000" x2="10.9171" y2="-0.0000"/>
<line transform="translate(3.0000, 1.9000)" stroke-linejoin="round" stroke-linecap="round" stroke-width="0.1657" stroke="currentColor" x1="0.0829" y1="-0.0000" x2="10.9171" y2="-0.0000"/>
<line transform="translate(3.0000, 13.9000)" stroke-linejoin="round" stroke-linecap="round" stroke-width="0.1657" stroke="currentColor" x1="0.0829" y1="-0.0000" x2="10.9171" y2="-0.0000"/>
<line transform="translate(3.0000, 12.9000)" stroke-linejoin="round" stroke-linecap="round" stroke-width="0.1657" stroke="currentColor" x1="0.0829" y1="-0.0000" x2="10.9171" y2="-0.0000"/>
<line transform="translate(3.0000, 11.9000)" stroke-linejoin="round" stroke-linecap="round" stroke-width="0.1657" stroke="currentColor" x1="0.0829" y1="-0.0000" x2="10.9171" y2="-0.0000"/>
<line transform="translate(3.0000, 10.9000)" stroke-linejoin="round" stroke-linecap="round" stroke-width="0.1657" stroke="currentColor" x1="0.0829" y1="-0.0000" x2="10.9171" y2="-0.0000"/>
<line transform="translate(3.0000, 9.9000)" stroke-linejoin="round" stroke-linecap="round" stroke-width="0.1657" stroke="currentColor" x1="0.0829" y1="-0.0000" x2="10.9171" y2="-0.0000"/>
<line transform="translate(1.9520, 7.9000)" stroke-linejoin="round" stroke-linecap="round" stroke-width="0.1657" stroke="currentColor" x1="0.0000" y1="-6.0829" x2="0.8000" y2="-6.0829"/>
<line transform="translate(1.9520, 7.9000)" stroke-linejoin="round" stroke-linecap="round" stroke-width="0.1657" stroke="currentColor" x1="0.0000" y1="6.0829" x2="0.8000" y2="6.0829"/>
<line transform="translate(1.9520, 7.9000)" stroke-linejoin="round" stroke-linecap="round" stroke-width="0.1657" stroke="currentColor" x1="0.0000" y1="6.0829" x2="0.0000" y2="-6.0829"/>
<rect transform="translate(2.8349, 7.9000)" x="0.0000" y="-6.0829" width="0.2651" height="12.1657" ry="0.0829" fill="currentColor"/>
</svg>
