<?xml version="1.0" encoding="UTF-8" standalone="no"?>
<svg
   width="24px"
   height="24px" fill="white"
   viewBox="0 0 24 24"
   version="1.1"
   xml:space="preserve"
   style="fill-rule:evenodd;clip-rule:evenodd;stroke-linejoin:round;stroke-miterlimit:2;"
   id="svg1"
   sodipodi:docname="application-pdf.svg"
   inkscape:version="1.4.2 (ebf0e940, 2025-05-08)"
   xmlns:inkscape="http://www.inkscape.org/namespaces/inkscape"
   xmlns:sodipodi="http://sodipodi.sourceforge.net/DTD/sodipodi-0.dtd"
   xmlns="http://www.w3.org/2000/svg"
   xmlns:svg="http://www.w3.org/2000/svg"><defs
   id="defs1" /><sodipodi:namedview
   id="namedview1"
   pagecolor="#ffffff"
   bordercolor="#000000"
   borderopacity="0.25"
   inkscape:showpageshadow="2"
   inkscape:pageopacity="0.0"
   inkscape:pagecheckerboard="0"
   inkscape:deskcolor="#d1d1d1"
   inkscape:zoom="34.666667"
   inkscape:cx="12.014423"
   inkscape:cy="11.985577"
   inkscape:window-width="976"
   inkscape:window-height="1186"
   inkscape:window-x="0"
   inkscape:window-y="25"
   inkscape:window-maximized="0"
   inkscape:current-layer="svg1" />
    <path
   id="path1"
   d="M19.5,8L19.5,19C19.5,20.371 18.371,21.5 17,21.5L7,21.5C5.629,21.5 4.5,20.371 4.5,19L4.5,5C4.5,3.629 5.629,2.5 7,2.5L14,2.5C14.135,2.5 14.261,2.555 14.353,2.647L19.353,7.647C19.445,7.739 19.5,7.865 19.5,8ZM13.5,3.5L7,3.5C6.177,3.5 5.5,4.177 5.5,5L5.5,19C5.5,19.823 6.177,20.5 7,20.5L17,20.5C17.823,20.5 18.5,19.823 18.5,19L18.5,8.5L15,8.5C14.177,8.5 13.5,7.823 13.5,7L13.5,3.5ZM17.793,7.5L14.5,4.207L14.5,7C14.5,7.275 14.725,7.5 15,7.5L17.793,7.5ZM14.132,16.289L14.132,12.299C14.132,12.025 14.357,11.8 14.631,11.8L16.626,11.8C16.899,11.8 17.124,12.025 17.124,12.299C17.124,12.572 16.899,12.797 16.626,12.797L15.129,12.797L15.129,13.795L16.127,13.795C16.4,13.795 16.626,14.02 16.626,14.294C16.626,14.567 16.4,14.792 16.127,14.792L15.129,14.792L15.129,16.289C15.129,16.562 14.904,16.787 14.631,16.787C14.357,16.787 14.132,16.562 14.132,16.289ZM11.139,11.8L12.137,11.8C12.958,11.8 13.633,12.475 13.633,13.296L13.633,15.291C13.633,16.112 12.958,16.787 12.137,16.787L11.139,16.787C10.866,16.787 10.64,16.562 10.64,16.289L10.64,12.299C10.64,12.025 10.866,11.8 11.139,11.8ZM11.638,12.797L11.638,15.79L12.137,15.79C12.41,15.79 12.635,15.565 12.635,15.291L12.635,13.296C12.635,13.023 12.41,12.797 12.137,12.797L11.638,12.797ZM7.648,11.8L8.645,11.8C9.466,11.8 10.142,12.475 10.142,13.296C10.142,14.117 9.466,14.792 8.645,14.792L8.147,14.792L8.147,16.289C8.147,16.562 7.921,16.787 7.648,16.787C7.374,16.787 7.149,16.562 7.149,16.289L7.149,12.299C7.149,12.025 7.374,11.8 7.648,11.8ZM8.147,12.797L8.147,13.795L8.645,13.795C8.919,13.795 9.144,13.569 9.144,13.296C9.144,13.023 8.919,12.797 8.645,12.797L8.147,12.797Z" />
    
    
    
    
</svg>
