<?xml version="1.0" encoding="UTF-8" standalone="no"?>
<svg
   width="24"
   height="24"
   viewBox="0 0 24 24"
   version="1.1"
   xml:space="preserve"
   style="fill-rule:evenodd;fill:white;clip-rule:evenodd;stroke-linejoin:round;stroke-miterlimit:2;"
   id="svg1"
   sodipodi:docname="audio-volume-high.svg"
   xmlns:inkscape="http://www.inkscape.org/namespaces/inkscape"
   xmlns:sodipodi="http://sodipodi.sourceforge.net/DTD/sodipodi-0.dtd"
   xmlns="http://www.w3.org/2000/svg"
   xmlns:svg="http://www.w3.org/2000/svg"><defs
   id="defs1" /><sodipodi:namedview
   id="namedview1"
   pagecolor="#ffffff"
   bordercolor="#000000"
   borderopacity="0.25"
   inkscape:showpageshadow="2"
   inkscape:pageopacity="0.0"
   inkscape:pagecheckerboard="0"
   inkscape:deskcolor="#d1d1d1" />
    <g
   transform="matrix(0.0422807,0,0,0.0422807,-1.93777,1.82971)"
   id="g1">
        <path
   d="M357.115,155.946C362.08,154.987 366.373,158.123 370.207,160.793C379.454,167.453 386.762,176.523 392.214,186.473C404.153,208.601 407.594,234.713 404.148,259.456C402.319,272.038 398.541,284.399 392.48,295.596C386.95,305.801 379.443,315.07 369.958,321.841C367.936,323.359 365.542,324.489 362.983,324.617C358.046,325.038 353.076,321.952 351.259,317.348C349.702,313.696 350.196,309.281 352.495,306.056C354.146,303.63 356.816,302.245 358.971,300.344C366.578,293.84 371.914,285.058 375.543,275.817C380.551,262.902 382.313,248.852 381.51,235.062C380.723,222.286 377.648,209.527 371.581,198.202C367.216,190.108 361.165,182.678 353.16,177.969C349.176,175.691 346.661,171.054 347.198,166.467C347.614,161.237 351.93,156.683 357.115,155.946ZM419.766,94.265C423.5,93.234 427.484,94.409 430.531,96.669C449.368,108.598 464.139,126.144 474.771,145.591C493.314,179.797 499.874,219.771 496.289,258.32C493.325,289.092 483.541,319.569 465.79,345.049C457.95,356.219 448.554,366.369 437.6,374.541C434.487,376.591 431.672,379.422 427.888,380.153C423.007,381.211 417.655,378.774 415.25,374.408C412.53,369.831 413.472,363.488 417.417,359.914C420.209,357.471 423.483,355.648 426.276,353.205C440.243,341.842 450.714,326.689 458.282,310.466C472.981,278.277 476.61,241.594 470.837,206.834C467.607,188.285 461.562,170.118 452.083,153.802C444.265,140.35 434.043,128.105 421.284,119.091C418.929,117.451 416.375,116.061 414.27,114.099C411.223,111.074 410.054,106.343 411.367,102.254C412.525,98.37 415.832,95.234 419.766,94.265ZM480.156,29.415C483.574,28.628 487.187,29.653 490.001,31.664C494.456,34.767 499.159,37.537 503.315,41.055C507.68,44.413 511.924,47.92 515.864,51.776C520.412,55.726 524.34,60.308 528.479,64.674C557.588,97.921 575.578,139.912 583.461,183.154C589.467,215.915 589.838,249.689 584.78,282.598C578.675,321.359 564.757,359.233 541.981,391.345C538.989,395.843 535.421,399.921 532.147,404.215C524.263,413.467 515.753,422.238 506.218,429.811C502.14,433.407 497.525,436.299 493.142,439.49C491.07,440.992 488.649,442.139 486.056,442.233C481.873,442.532 477.635,440.355 475.43,436.787C473.02,433.108 472.992,428.066 475.314,424.338C476.942,421.556 479.857,419.983 482.378,418.132C503.619,403.561 520.517,383.322 533.277,361.089C543.078,343.891 550.491,325.364 555.627,306.261C564.635,272.731 566.752,237.455 562.596,203.022C558.092,166.434 546.131,130.438 525.598,99.667C513.337,81.494 498.029,65.128 479.574,53.161C477.314,51.576 474.765,50.241 473.109,47.964C470.754,44.828 470.133,40.484 471.541,36.822C472.892,33.094 476.267,30.19 480.156,29.415ZM287.661,62.708C293.223,61.659 299.414,62.821 303.642,66.764C307.832,70.674 311.668,75.456 312.846,81.201C313.453,84.433 313.276,87.736 313.297,91.006C313.265,192.496 313.313,293.991 313.276,395.48C313.491,402.822 309.096,409.272 303.922,414.07C300.162,417.706 294.724,419.169 289.598,418.636C283.622,418.12 278.361,414.871 273.542,411.541C264.5,404.904 256.356,397.169 247.922,389.811C233.028,376.557 217.978,363.481 203.25,350.05L181.783,330.616C177.41,326.694 172.956,322.805 167.975,319.664C164.947,317.728 161.413,316.604 157.804,316.647C143.108,316.555 128.413,316.421 113.718,316.292C104.455,316.125 95.123,316.614 85.963,314.925C80.96,313.963 75.662,312.892 71.682,309.487C65.759,304.641 62.059,297.487 60.402,290.102C57.514,279.199 58.025,267.844 57.847,256.677C57.696,240.535 57.783,224.387 58.057,208.245C58.358,200.435 59.509,192.582 62.134,185.197C64.861,178.408 69.46,171.841 76.302,168.748C82.897,166.187 90.018,165.408 97.027,164.94C115.681,164.767 134.335,164.595 152.989,164.472C157.077,164.429 161.386,164.741 165.178,162.901C170.422,160.384 174.822,156.473 179.228,152.746C190.368,142.735 201.443,132.645 212.556,122.602C229.456,107.59 246.389,92.609 263.338,77.656C270.729,71.707 278.108,64.784 287.661,62.708ZM282.842,91.243C278.539,92.276 275.096,95.245 271.482,97.628C261.315,105.078 251.859,113.453 242.651,122.043C232.291,131.574 222.119,141.31 211.932,151.03C203.637,158.867 195.806,167.226 187.011,174.514C182.735,177.989 178.018,181.507 172.354,182.077C156.539,184.062 140.569,182.599 124.686,183.196C114.202,183.61 103.509,183.013 93.262,185.675C88.679,186.799 84.279,189.494 82.068,193.792C78.443,200.892 78.12,209.063 78.034,216.873C77.921,232.649 77.943,248.426 78.034,264.207C78.104,270.13 78.319,276.133 79.933,281.866C80.976,285.287 82.375,288.784 85.107,291.22C88.528,294.405 93.224,295.577 97.705,296.379C105.843,297.75 114.127,297.584 122.351,297.826C135.427,298.283 148.514,297.713 161.59,298.079C165.565,298.261 169.54,298.557 173.472,299.17C177.517,299.794 181.062,302.032 184.295,304.431C187.748,307.04 190.986,309.923 194.176,312.844C203.142,321.455 211.969,330.212 221.027,338.722C234.329,351.244 247.422,364.029 261.504,375.691C267.082,380.231 272.746,384.744 278.985,388.353C281.572,389.773 285.236,391.005 287.71,388.713C290.62,385.69 290.894,381.167 291.072,377.197C290.948,362.125 290.959,347.054 290.873,331.982C290.878,303.829 290.442,275.681 290.276,247.527C290.141,231.934 290.475,216.335 290.545,200.736C290.905,170.797 290.867,140.853 291.018,110.914C291.045,106.971 291.308,102.996 290.657,99.091C290.211,96.676 289.539,94.115 287.704,92.367C286.435,91.125 284.52,90.861 282.842,91.243Z"
   id="path1" />
    </g>
</svg>
