<?xml version="1.0" encoding="UTF-8" standalone="no"?>
<svg
   width="24"
   height="24"
   viewBox="0 0 24 24"
   version="1.1"
   xml:space="preserve"
   style="fill-rule:evenodd;clip-rule:evenodd;stroke-linecap:round;stroke-linejoin:round;"
   id="svg5"
   sodipodi:docname="audio-midi.svg"
   xmlns:inkscape="http://www.inkscape.org/namespaces/inkscape"
   xmlns:sodipodi="http://sodipodi.sourceforge.net/DTD/sodipodi-0.dtd"
   xmlns="http://www.w3.org/2000/svg"
   xmlns:svg="http://www.w3.org/2000/svg"><defs
   id="defs5" /><sodipodi:namedview
   id="namedview5"
   pagecolor="#ffffff"
   bordercolor="#000000"
   borderopacity="0.25"
   inkscape:showpageshadow="2"
   inkscape:pageopacity="0.0"
   inkscape:pagecheckerboard="0"
   inkscape:deskcolor="#d1d1d1" />
    <path
   d="M3,7C3,5.903 3.903,5 5,5L19,5C20.097,5 21,5.903 21,7L21,17C21,18.097 20.097,19 19,19L5,19C3.903,19 3,18.097 3,17L3,7Z"
   style="fill:none;fill-rule:nonzero;stroke:white;stroke-width:1px;"
   id="path1" />
    <path
   d="M9,19L9,13"
   style="fill:none;fill-rule:nonzero;stroke:white;stroke-width:1px;"
   id="path2" />
    <path
   d="M8,5L8,13L10,13L10,5"
   style="fill-rule:nonzero;stroke:white;fill:white;stroke-width:1px;"
   id="path3" />
    <path
   d="M15,19L15,13"
   style="fill:none;fill-rule:nonzero;stroke:white;stroke-width:1px;"
   id="path4" />
    <path
   d="M14,5L14,13L16,13L16,5"
   style="fill-rule:nonzero;stroke:white;fill:white;stroke-width:1px;"
   id="path5" />
</svg>
