<?xml version="1.0" encoding="UTF-8" standalone="no"?>
<!DOCTYPE svg PUBLIC "-//W3C//DTD SVG 1.1//EN" "http://www.w3.org/Graphics/SVG/1.1/DTD/svg11.dtd">
<svg width="24px" height="24px" fill="white" viewBox="0 0 24 24" version="1.1" xmlns="http://www.w3.org/2000/svg" xmlns:xlink="http://www.w3.org/1999/xlink" xml:space="preserve" xmlns:serif="http://www.serif.com/" style="fill-rule:evenodd;clip-rule:evenodd;stroke-linejoin:round;stroke-miterlimit:2;">
    <path id="path1" d="M11.5,17.484C7.596,17.225 4.5,13.968 4.5,10C4.5,9.726 4.726,9.5 5,9.5C5.274,9.5 5.5,9.726 5.5,10C5.5,13.596 8.404,16.5 12,16.5C15.596,16.5 18.5,13.596 18.5,10C18.5,9.726 18.726,9.5 19,9.5C19.274,9.5 19.5,9.726 19.5,10C19.5,13.968 16.404,17.225 12.5,17.484L12.5,20.5L16,20.5C16.274,20.5 16.5,20.726 16.5,21C16.5,21.274 16.274,21.5 16,21.5L8,21.5C7.726,21.5 7.5,21.274 7.5,21C7.5,20.726 7.726,20.5 8,20.5L11.5,20.5L11.5,17.484ZM12,1.5C13.927,1.5 15.5,3.073 15.5,5L15.5,10C15.5,11.927 13.927,13.5 12,13.5C10.073,13.5 8.5,11.927 8.5,10L8.5,5C8.5,3.073 10.073,1.5 12,1.5ZM12,2.5C10.613,2.5 9.5,3.613 9.5,5L9.5,10C9.5,11.387 10.613,12.5 12,12.5C13.387,12.5 14.5,11.387 14.5,10L14.5,5C14.5,3.613 13.387,2.5 12,2.5Z"/>
</svg>
