<?xml version="1.0" encoding="UTF-8" standalone="no"?>
<svg
   width="24px"
   height="24px" fill="white"
   viewBox="0 0 24 24"
   version="1.1"
   xml:space="preserve"
   style="fill-rule:evenodd;clip-rule:evenodd;stroke-linejoin:round;stroke-miterlimit:2;"
   id="svg1"
   sodipodi:docname="audio-midi.svg"
   inkscape:version="1.4.2 (ebf0e940, 2025-05-08)"
   xmlns:inkscape="http://www.inkscape.org/namespaces/inkscape"
   xmlns:sodipodi="http://sodipodi.sourceforge.net/DTD/sodipodi-0.dtd"
   xmlns="http://www.w3.org/2000/svg"
   xmlns:svg="http://www.w3.org/2000/svg"><defs
   id="defs1" /><sodipodi:namedview
   id="namedview1"
   pagecolor="#ffffff"
   bordercolor="#000000"
   borderopacity="0.25"
   inkscape:showpageshadow="2"
   inkscape:pageopacity="0.0"
   inkscape:pagecheckerboard="0"
   inkscape:deskcolor="#d1d1d1"
   inkscape:zoom="34.666667"
   inkscape:cx="12.014423"
   inkscape:cy="11.985577"
   inkscape:window-width="976"
   inkscape:window-height="1186"
   inkscape:window-x="0"
   inkscape:window-y="25"
   inkscape:window-maximized="0"
   inkscape:current-layer="svg1" />
    <path
   id="path1"
   d="M19,19.5L5,19.5C3.629,19.5 2.5,18.371 2.5,17L2.5,7C2.5,5.629 3.629,4.5 5,4.5L19,4.5C20.371,4.5 21.5,5.629 21.5,7L21.5,17C21.5,18.371 20.371,19.5 19,19.5ZM7.5,5.5L5,5.5C4.177,5.5 3.5,6.177 3.5,7L3.5,17C3.5,17.823 4.177,18.5 5,18.5L8.5,18.5L8.5,13.5L8,13.5C7.726,13.5 7.5,13.274 7.5,13L7.5,5.5ZM13.5,5.5L10.5,5.5L10.5,13C10.5,13.274 10.274,13.5 10,13.5L9.5,13.5L9.5,18.5L14.5,18.5L14.5,13.5L14,13.5C13.726,13.5 13.5,13.274 13.5,13L13.5,5.5ZM15.5,18.5L19,18.5C19.823,18.5 20.5,17.823 20.5,17L20.5,7C20.5,6.177 19.823,5.5 19,5.5L16.5,5.5L16.5,13C16.5,13.274 16.274,13.5 16,13.5L15.5,13.5L15.5,18.5Z" />
    
    
</svg>
