<?xml version="1.0" encoding="UTF-8" standalone="no"?>
<!DOCTYPE svg PUBLIC "-//W3C//DTD SVG 1.1//EN" "http://www.w3.org/Graphics/SVG/1.1/DTD/svg11.dtd">
<svg width="24px" height="24px" fill="white" viewBox="0 0 24 24" version="1.1" xmlns="http://www.w3.org/2000/svg" xmlns:xlink="http://www.w3.org/1999/xlink" xml:space="preserve" xmlns:serif="http://www.serif.com/" style="fill-rule:evenodd;clip-rule:evenodd;stroke-linejoin:round;stroke-miterlimit:2;">
    <path id="path1" d="M18.5,19.5L16,19.5C15.726,19.5 15.5,19.274 15.5,19C15.5,18.726 15.726,18.5 16,18.5L18.5,18.5L18.5,16C18.5,15.726 18.726,15.5 19,15.5C19.274,15.5 19.5,15.726 19.5,16L19.5,18.5L22,18.5C22.274,18.5 22.5,18.726 22.5,19C22.5,19.274 22.274,19.5 22,19.5L19.5,19.5L19.5,22C19.5,22.274 19.274,22.5 19,22.5C18.726,22.5 18.5,22.274 18.5,22L18.5,19.5ZM10,2.5L14,2.5C16.479,2.5 18.5,4.521 18.5,7L18.5,12C18.5,12.274 18.274,12.5 18,12.5C17.726,12.5 17.5,12.274 17.5,12L17.5,7C17.5,5.061 15.939,3.5 14,3.5L10,3.5C8.061,3.5 6.5,5.061 6.5,7L6.5,20.066L11.723,16.584C11.951,16.432 12.264,16.494 12.416,16.723C12.568,16.951 12.506,17.264 12.277,17.416L6.277,21.416C6.195,21.471 6.099,21.5 6,21.5C5.726,21.5 5.5,21.274 5.5,21L5.5,7C5.5,4.521 7.521,2.5 10,2.5Z"/>
</svg>
