<?xml version="1.0" encoding="UTF-8" standalone="no"?>
<svg
   width="24px"
   height="24px" fill="white"
   viewBox="0 0 24 24"
   version="1.1"
   xml:space="preserve"
   style="fill-rule:evenodd;clip-rule:evenodd;stroke-linejoin:round;stroke-miterlimit:2;"
   id="svg1"
   sodipodi:docname="document-export.svg"
   inkscape:version="1.4.2 (ebf0e940, 2025-05-08)"
   xmlns:inkscape="http://www.inkscape.org/namespaces/inkscape"
   xmlns:sodipodi="http://sodipodi.sourceforge.net/DTD/sodipodi-0.dtd"
   xmlns="http://www.w3.org/2000/svg"
   xmlns:svg="http://www.w3.org/2000/svg"><defs
   id="defs1" /><sodipodi:namedview
   id="namedview1"
   pagecolor="#ffffff"
   bordercolor="#000000"
   borderopacity="0.25"
   inkscape:showpageshadow="2"
   inkscape:pageopacity="0.0"
   inkscape:pagecheckerboard="0"
   inkscape:deskcolor="#d1d1d1"
   inkscape:zoom="34.666667"
   inkscape:cx="12.014423"
   inkscape:cy="11.985577"
   inkscape:window-width="976"
   inkscape:window-height="1186"
   inkscape:window-x="0"
   inkscape:window-y="25"
   inkscape:window-maximized="0"
   inkscape:current-layer="svg1" />
    <path
   d="M200,-224.62C200,-218.46 202.563,-212.817 207.69,-207.69C212.817,-202.563 218.46,-200 224.62,-200L429.23,-200C434.897,-200 439.647,-198.08 443.48,-194.24C447.313,-190.4 449.23,-185.643 449.23,-179.97C449.23,-174.297 447.313,-169.55 443.48,-165.73C439.647,-161.91 434.897,-160 429.23,-160L224.62,-160C206.847,-160 191.633,-166.327 178.98,-178.98C166.327,-191.633 160,-206.847 160,-224.62L160,-735.38C160,-753.153 166.327,-768.367 178.98,-781.02C191.633,-793.673 206.847,-800 224.62,-800L735.38,-800C753.153,-800 768.367,-793.673 781.02,-781.02C793.673,-768.367 800,-753.153 800,-735.38L800,-530.77C800,-525.103 798.08,-520.353 794.24,-516.52C790.4,-512.687 785.643,-510.77 779.97,-510.77C774.297,-510.77 769.55,-512.687 765.73,-516.52C761.91,-520.353 760,-525.103 760,-530.77L760,-735.38C760,-741.54 757.437,-747.183 752.31,-752.31C747.183,-757.437 741.54,-760 735.38,-760L224.62,-760C218.46,-760 212.817,-757.437 207.69,-752.31C202.563,-747.183 200,-741.54 200,-735.38L200,-224.62ZM300,-329.2C300,-334.88 301.917,-339.637 305.75,-343.47C309.583,-347.31 314.333,-349.23 320,-349.23L438.38,-349.23C444.047,-349.23 448.797,-347.32 452.63,-343.5C456.463,-339.68 458.38,-334.933 458.38,-329.26C458.38,-323.587 456.463,-318.83 452.63,-314.99C448.797,-311.15 444.047,-309.23 438.38,-309.23L320,-309.23C314.333,-309.23 309.583,-311.14 305.75,-314.96C301.917,-318.78 300,-323.527 300,-329.2ZM300,-479.97C300,-485.643 301.917,-490.4 305.75,-494.24C309.583,-498.08 314.333,-500 320,-500L579.23,-500C584.897,-500 589.647,-498.09 593.48,-494.27C597.313,-490.45 599.23,-485.703 599.23,-480.03C599.23,-474.357 597.313,-469.6 593.48,-465.76C589.647,-461.92 584.897,-460 579.23,-460L320,-460C314.333,-460 309.583,-461.91 305.75,-465.73C301.917,-469.55 300,-474.297 300,-479.97ZM300,-630.74C300,-636.413 301.917,-641.17 305.75,-645.01C309.583,-648.85 314.333,-650.77 320,-650.77L640,-650.77C645.667,-650.77 650.417,-648.86 654.25,-645.04C658.083,-641.22 660,-636.473 660,-630.8C660,-625.12 658.083,-620.363 654.25,-616.53C650.417,-612.69 645.667,-610.77 640,-610.77L320,-610.77C314.333,-610.77 309.583,-612.68 305.75,-616.5C301.917,-620.32 300,-625.067 300,-630.74ZM705.005,-442.685C808.826,-442.685 894.254,-357.256 894.254,-253.435C894.254,-149.614 808.826,-64.186 705.005,-64.186C601.184,-64.186 515.755,-149.614 515.755,-253.435C515.755,-357.256 601.184,-442.685 705.005,-442.685ZM705.005,-402.653C623.158,-402.653 555.787,-335.282 555.787,-253.435C555.787,-171.589 623.158,-104.218 705.005,-104.218C786.851,-104.218 854.222,-171.589 854.222,-253.435C854.222,-335.282 786.851,-402.653 705.005,-402.653ZM741.4,-261.478L662.77,-182.848C659.014,-179.084 653.91,-176.967 648.593,-176.967C643.277,-176.967 638.173,-179.084 634.417,-182.848C630.653,-186.603 628.536,-191.707 628.536,-197.024C628.536,-202.341 630.653,-207.445 634.417,-211.2L713.048,-289.831L648.593,-289.831C637.615,-289.836 628.583,-298.868 628.578,-309.847C628.583,-320.825 637.615,-329.857 648.593,-329.862L761.416,-329.883C766.733,-329.883 771.837,-327.787 775.592,-324.023C779.356,-320.267 781.452,-315.163 781.452,-309.847L781.431,-197.024C781.426,-186.046 772.394,-177.014 761.416,-177.009C750.438,-177.014 741.406,-186.046 741.4,-197.024L741.4,-261.478Z"
   id="path1"
   style="fill-rule:evenodd;clip-rule:evenodd;stroke-linejoin:round;stroke-miterlimit:2"
   transform="matrix(0.025,0,0,0.025,0,24)" />
</svg>
