<?xml version="1.0" encoding="UTF-8" standalone="no"?>
<svg
   width="24"
   height="24"
   viewBox="0 0 24 24"
   version="1.1"
   xml:space="preserve"
   style="fill-rule:evenodd;fill:white;clip-rule:evenodd;stroke-linecap:round;stroke-linejoin:round;"
   id="svg4"
   sodipodi:docname="document-export.svg"
   xmlns:inkscape="http://www.inkscape.org/namespaces/inkscape"
   xmlns:sodipodi="http://sodipodi.sourceforge.net/DTD/sodipodi-0.dtd"
   xmlns="http://www.w3.org/2000/svg"
   xmlns:svg="http://www.w3.org/2000/svg"><defs
   id="defs4" /><sodipodi:namedview
   id="namedview4"
   pagecolor="#ffffff"
   bordercolor="#000000"
   borderopacity="0.25"
   inkscape:showpageshadow="2"
   inkscape:pageopacity="0.0"
   inkscape:pagecheckerboard="0"
   inkscape:deskcolor="#d1d1d1" />
    <g
   transform="matrix(0.025,0,0,0.025,0,24)"
   id="g1">
        <path
   d="M200,-224.62C200,-218.46 202.563,-212.817 207.69,-207.69C212.817,-202.563 218.46,-200 224.62,-200L429.23,-200C434.897,-200 439.647,-198.08 443.48,-194.24C447.313,-190.4 449.23,-185.643 449.23,-179.97C449.23,-174.297 447.313,-169.55 443.48,-165.73C439.647,-161.91 434.897,-160 429.23,-160L224.62,-160C206.847,-160 191.633,-166.327 178.98,-178.98C166.327,-191.633 160,-206.847 160,-224.62L160,-735.38C160,-753.153 166.327,-768.367 178.98,-781.02C191.633,-793.673 206.847,-800 224.62,-800L735.38,-800C753.153,-800 768.367,-793.673 781.02,-781.02C793.673,-768.367 800,-753.153 800,-735.38L800,-530.77C800,-525.103 798.08,-520.353 794.24,-516.52C790.4,-512.687 785.643,-510.77 779.97,-510.77C774.297,-510.77 769.55,-512.687 765.73,-516.52C761.91,-520.353 760,-525.103 760,-530.77L760,-735.38C760,-741.54 757.437,-747.183 752.31,-752.31C747.183,-757.437 741.54,-760 735.38,-760L224.62,-760C218.46,-760 212.817,-757.437 207.69,-752.31C202.563,-747.183 200,-741.54 200,-735.38L200,-224.62ZM300,-329.2C300,-334.88 301.917,-339.637 305.75,-343.47C309.583,-347.31 314.333,-349.23 320,-349.23L438.38,-349.23C444.047,-349.23 448.797,-347.32 452.63,-343.5C456.463,-339.68 458.38,-334.933 458.38,-329.26C458.38,-323.587 456.463,-318.83 452.63,-314.99C448.797,-311.15 444.047,-309.23 438.38,-309.23L320,-309.23C314.333,-309.23 309.583,-311.14 305.75,-314.96C301.917,-318.78 300,-323.527 300,-329.2ZM300,-479.97C300,-485.643 301.917,-490.4 305.75,-494.24C309.583,-498.08 314.333,-500 320,-500L579.23,-500C584.897,-500 589.647,-498.09 593.48,-494.27C597.313,-490.45 599.23,-485.703 599.23,-480.03C599.23,-474.357 597.313,-469.6 593.48,-465.76C589.647,-461.92 584.897,-460 579.23,-460L320,-460C314.333,-460 309.583,-461.91 305.75,-465.73C301.917,-469.55 300,-474.297 300,-479.97ZM300,-630.74C300,-636.413 301.917,-641.17 305.75,-645.01C309.583,-648.85 314.333,-650.77 320,-650.77L640,-650.77C645.667,-650.77 650.417,-648.86 654.25,-645.04C658.083,-641.22 660,-636.473 660,-630.8C660,-625.12 658.083,-620.363 654.25,-616.53C650.417,-612.69 645.667,-610.77 640,-610.77L320,-610.77C314.333,-610.77 309.583,-612.68 305.75,-616.5C301.917,-620.32 300,-625.067 300,-630.74Z"
   id="path1" />
    </g>
    <g
   transform="matrix(0.470093,0,0,0.470093,11.984,12.023)"
   id="g2">
        <path
   d="M3,12C3,16.937 7.063,21 12,21C16.937,21 21,16.937 21,12C21,7.063 16.937,3 12,3C7.063,3 3,7.063 3,12"
   style="fill:none;fill-rule:nonzero;stroke:white;stroke-width:2.13px;"
   id="path2" />
    </g>
    <g
   transform="matrix(0.470093,0,0,0.470093,11.984,12.023)"
   id="g3">
        <path
   d="M15,9L9,15"
   style="fill:none;fill-rule:nonzero;stroke:white;stroke-width:2.13px;"
   id="path3" />
    </g>
    <g
   transform="matrix(0.470093,0,0,0.470093,11.984,12.023)"
   id="g4">
        <path
   d="M15,15L15,9L9,9"
   style="fill:none;fill-rule:nonzero;stroke:white;stroke-width:2.13px;"
   id="path4" />
    </g>
</svg>
