<?xml version="1.0" encoding="UTF-8" standalone="no"?>
<!DOCTYPE svg PUBLIC "-//W3C//DTD SVG 1.1//EN" "http://www.w3.org/Graphics/SVG/1.1/DTD/svg11.dtd">
<svg width="24px" height="24px" viewBox="0 0 24 24" version="1.1" xmlns="http://www.w3.org/2000/svg" xmlns:xlink="http://www.w3.org/1999/xlink" xml:space="preserve" xmlns:serif="http://www.serif.com/" style="fill-rule:evenodd;clip-rule:evenodd;stroke-linejoin:round;stroke-miterlimit:2;">
    <path id="path1" d="M12,2.5C17.211,2.5 21.5,6.789 21.5,12C21.5,17.211 17.211,21.5 12,21.5C6.789,21.5 2.5,17.211 2.5,12C2.5,6.789 6.789,2.5 12,2.5ZM12,3.5C7.337,3.5 3.5,7.337 3.5,12C3.5,16.663 7.337,20.5 12,20.5C16.663,20.5 20.5,16.663 20.5,12C20.5,7.337 16.663,3.5 12,3.5ZM10.585,14.201L15.92,8.866C16.026,8.76 16.144,8.707 16.274,8.707C16.403,8.707 16.521,8.76 16.628,8.866C16.734,8.973 16.784,9.094 16.778,9.23C16.771,9.366 16.721,9.481 16.628,9.574L11.151,15.051C10.989,15.212 10.801,15.293 10.585,15.293C10.37,15.293 10.182,15.212 10.02,15.051L7.382,12.412C7.275,12.306 7.222,12.188 7.222,12.059C7.222,11.929 7.275,11.811 7.382,11.705C7.488,11.598 7.609,11.548 7.745,11.555C7.881,11.561 7.996,11.611 8.089,11.705L10.585,14.201Z" style="fill:rgb(0,255,0);"/>
</svg>
