<?xml version="1.0" encoding="UTF-8" standalone="no"?>
<!DOCTYPE svg PUBLIC "-//W3C//DTD SVG 1.1//EN" "http://www.w3.org/Graphics/SVG/1.1/DTD/svg11.dtd">
<svg width="24px" height="24px" fill="white" viewBox="0 0 24 24" version="1.1" xmlns="http://www.w3.org/2000/svg" xmlns:xlink="http://www.w3.org/1999/xlink" xml:space="preserve" xmlns:serif="http://www.serif.com/" style="fill-rule:evenodd;clip-rule:evenodd;stroke-linejoin:round;stroke-miterlimit:2;">
    <path id="path1" d="M6,3.5L16,3.5C16.133,3.5 16.26,3.553 16.354,3.646L20.354,7.646C20.447,7.74 20.5,7.867 20.5,8L20.5,18C20.5,19.375 19.375,20.5 18,20.5L6,20.5C4.625,20.5 3.5,19.375 3.5,18L3.5,6C3.5,4.625 4.625,3.5 6,3.5ZM7.5,4.5L6,4.5C5.166,4.5 4.5,5.166 4.5,6L4.5,18C4.5,18.834 5.166,19.5 6,19.5L18,19.5C18.834,19.5 19.5,18.834 19.5,18L19.5,8.207L15.793,4.5L14.5,4.5L14.5,8C14.5,8.274 14.274,8.5 14,8.5L8,8.5C7.726,8.5 7.5,8.274 7.5,8L7.5,4.5ZM13.5,4.5L8.5,4.5L8.5,7.5L13.5,7.5L13.5,4.5ZM12,11.5C12.611,11.5 13.229,11.702 13.707,12.127C14.185,12.552 14.5,13.208 14.5,14C14.5,14.792 14.185,15.448 13.707,15.873C13.229,16.298 12.611,16.5 12,16.5C11.389,16.5 10.771,16.298 10.293,15.873C9.815,15.448 9.5,14.792 9.5,14C9.5,13.208 9.815,12.552 10.293,12.127C10.771,11.702 11.389,11.5 12,11.5ZM12,12.5C11.611,12.5 11.229,12.631 10.957,12.873C10.685,13.115 10.5,13.458 10.5,14C10.5,14.542 10.685,14.885 10.957,15.127C11.229,15.369 11.611,15.5 12,15.5C12.389,15.5 12.771,15.369 13.043,15.127C13.315,14.885 13.5,14.542 13.5,14C13.5,13.458 13.315,13.115 13.043,12.873C12.771,12.631 12.389,12.5 12,12.5Z"/>
</svg>
