<?xml version="1.0" encoding="UTF-8" standalone="no"?>
<svg
   width="24"
   height="24"
   viewBox="0 0 24 24"
   version="1.1"
   xml:space="preserve"
   style="fill-rule:evenodd;fill:white;clip-rule:evenodd;stroke-linecap:round;stroke-linejoin:round;"
   id="svg2"
   sodipodi:docname="document-compile-success.svg"
   xmlns:inkscape="http://www.inkscape.org/namespaces/inkscape"
   xmlns:sodipodi="http://sodipodi.sourceforge.net/DTD/sodipodi-0.dtd"
   xmlns="http://www.w3.org/2000/svg"
   xmlns:svg="http://www.w3.org/2000/svg"><defs
   id="defs2" /><sodipodi:namedview
   id="namedview2"
   pagecolor="#ffffff"
   bordercolor="#000000"
   borderopacity="0.25"
   inkscape:showpageshadow="2"
   inkscape:pageopacity="0.0"
   inkscape:pagecheckerboard="0"
   inkscape:deskcolor="#d1d1d1" />
    <path
   d="M12,21C16.937,21 21,16.937 21,12C21,7.063 16.937,3 12,3C7.063,3 3,7.063 3,12C3,16.937 7.063,21 12,21Z"
   style="fill:none;fill-rule:nonzero;stroke:rgb(0,255,0);stroke-width:1px;"
   id="path1" />
    <g
   transform="matrix(0.025,0,0,0.025,0.0238446,23.7087)"
   id="g2">
        <path
   d="M422.46,-380.31L635.85,-593.69C640.103,-597.95 644.82,-600.08 650,-600.08C655.18,-600.08 659.897,-597.95 664.15,-593.69C668.41,-589.437 670.41,-584.59 670.15,-579.15C669.897,-573.717 667.897,-569.127 664.15,-565.38L445.08,-346.31C438.613,-339.85 431.073,-336.62 422.46,-336.62C413.847,-336.62 406.31,-339.85 399.85,-346.31L294.31,-451.85C290.05,-456.103 287.92,-460.82 287.92,-466C287.92,-471.18 290.05,-475.897 294.31,-480.15C298.563,-484.41 303.41,-486.41 308.85,-486.15C314.283,-485.897 318.873,-483.897 322.62,-480.15L422.46,-380.31Z"
   style="fill:rgb(0,255,0);"
   id="path2" />
    </g>
</svg>
