<?xml version="1.0" encoding="UTF-8" standalone="no"?>
<!DOCTYPE svg PUBLIC "-//W3C//DTD SVG 1.1//EN" "http://www.w3.org/Graphics/SVG/1.1/DTD/svg11.dtd">
<svg width="24px" height="24px" fill="white" viewBox="0 0 24 24" version="1.1" xmlns="http://www.w3.org/2000/svg" xmlns:xlink="http://www.w3.org/1999/xlink" xml:space="preserve" xmlns:serif="http://www.serif.com/" style="fill-rule:evenodd;clip-rule:evenodd;stroke-linejoin:round;stroke-miterlimit:2;">
    <path id="path1" d="M6.5,17.5L5,17.5C3.625,17.5 2.5,16.375 2.5,15L2.5,11C2.5,9.625 3.625,8.5 5,8.5L6.5,8.5L6.5,5C6.5,3.625 7.625,2.5 9,2.5L15,2.5C16.375,2.5 17.5,3.625 17.5,5L17.5,8.5L19,8.5C20.375,8.5 21.5,9.625 21.5,11L21.5,15C21.5,16.375 20.375,17.5 19,17.5L17.5,17.5L17.5,19C17.5,20.375 16.375,21.5 15,21.5L9,21.5C7.625,21.5 6.5,20.375 6.5,19L6.5,17.5ZM19,9.5L5,9.5C4.166,9.5 3.5,10.166 3.5,11L3.5,15C3.5,15.834 4.166,16.5 5,16.5L6.5,16.5L6.5,15C6.5,13.625 7.625,12.5 9,12.5L15,12.5C16.375,12.5 17.5,13.625 17.5,15L17.5,16.5L19,16.5C19.834,16.5 20.5,15.834 20.5,15L20.5,11C20.5,10.166 19.834,9.5 19,9.5ZM16.5,8.5L16.5,5C16.5,4.166 15.834,3.5 15,3.5L9,3.5C8.166,3.5 7.5,4.166 7.5,5L7.5,8.5L16.5,8.5ZM7.5,15L7.5,19C7.5,19.834 8.166,20.5 9,20.5L15,20.5C15.834,20.5 16.5,19.834 16.5,19L16.5,15C16.5,14.166 15.834,13.5 15,13.5L9,13.5C8.166,13.5 7.5,14.166 7.5,15Z"/>
</svg>
