<?xml version="1.0" encoding="UTF-8" standalone="no"?>
<!DOCTYPE svg PUBLIC "-//W3C//DTD SVG 1.1//EN" "http://www.w3.org/Graphics/SVG/1.1/DTD/svg11.dtd">
<svg width="24px" height="24px" fill="white" viewBox="0 0 24 24" version="1.1" xmlns="http://www.w3.org/2000/svg" xmlns:xlink="http://www.w3.org/1999/xlink" xml:space="preserve" xmlns:serif="http://www.serif.com/" style="fill-rule:evenodd;clip-rule:evenodd;stroke-linejoin:round;stroke-miterlimit:2;">
    <path id="path1" d="M9.668,6.5L18.332,6.5C20.075,6.5 21.5,7.925 21.5,9.668L21.5,18.332C21.5,20.075 20.075,21.5 18.332,21.5L9.668,21.5C7.925,21.5 6.5,20.075 6.5,18.332L6.5,9.668C6.5,7.925 7.925,6.5 9.668,6.5ZM9.668,7.5C8.465,7.5 7.5,8.465 7.5,9.668L7.5,18.332C7.5,19.535 8.465,20.5 9.668,20.5L18.332,20.5C19.535,20.5 20.5,19.535 20.5,18.332L20.5,9.668C20.5,8.465 19.535,7.5 18.332,7.5L9.668,7.5ZM5,2.5L15,2.5C15.461,2.5 15.874,2.631 16.197,2.865C16.52,3.1 16.747,3.415 16.938,3.758C16.979,3.832 17,3.915 17,4C17,4.182 16.901,4.35 16.742,4.438C16.668,4.479 16.585,4.5 16.5,4.5C16.318,4.5 16.15,4.401 16.063,4.242C15.911,3.97 15.764,3.786 15.609,3.674C15.455,3.562 15.289,3.5 15,3.5L5,3.5C4.173,3.5 3.5,4.173 3.5,5L3.5,15C3.502,15.539 3.791,16.036 4.26,16.303C4.498,16.438 4.583,16.746 4.447,16.984C4.359,17.141 4.192,17.238 4.012,17.238C3.925,17.238 3.839,17.215 3.764,17.172C2.985,16.728 2.502,15.899 2.5,15.002L2.5,5C2.5,3.627 3.627,2.5 5,2.5Z"/>
</svg>
