<?xml version="1.0" encoding="UTF-8" standalone="no"?>
<!DOCTYPE svg PUBLIC "-//W3C//DTD SVG 1.1//EN" "http://www.w3.org/Graphics/SVG/1.1/DTD/svg11.dtd">
<svg width="24px" height="24px" fill="white" viewBox="0 0 24 24" version="1.1" xmlns="http://www.w3.org/2000/svg" xmlns:xlink="http://www.w3.org/1999/xlink" xml:space="preserve" xmlns:serif="http://www.serif.com/" style="fill-rule:evenodd;clip-rule:evenodd;stroke-linejoin:round;stroke-miterlimit:2;">
    <path id="path1" d="M4.54,7.5L4,7.5C3.726,7.5 3.5,7.274 3.5,7C3.5,6.726 3.726,6.5 4,6.5L8.5,6.5L8.5,4C8.5,3.177 9.177,2.5 10,2.5L14,2.5C14.823,2.5 15.5,3.177 15.5,4L15.5,6.5L20,6.5C20.274,6.5 20.5,6.726 20.5,7C20.5,7.274 20.274,7.5 20,7.5L19.46,7.5L18.5,19.018C18.49,20.384 17.369,21.5 16,21.5L8,21.5C6.631,21.5 5.51,20.385 5.5,19.018L4.54,7.5ZM18.457,7.5L5.543,7.5L6.498,18.959L6.5,19C6.5,19.834 7.166,20.5 8,20.5L16,20.5C16.834,20.5 17.5,19.834 17.5,19L17.502,18.959L18.457,7.5ZM14.5,6.5L14.5,4C14.5,3.718 14.282,3.5 14,3.5L10,3.5C9.718,3.5 9.5,3.718 9.5,4L9.5,6.5L14.5,6.5ZM10,10.5C10.274,10.5 10.5,10.726 10.5,11L10.5,17C10.5,17.274 10.274,17.5 10,17.5C9.726,17.5 9.5,17.274 9.5,17L9.5,11C9.5,10.726 9.726,10.5 10,10.5ZM14,10.5C14.274,10.5 14.5,10.726 14.5,11L14.5,17C14.5,17.274 14.274,17.5 14,17.5C13.726,17.5 13.5,17.274 13.5,17L13.5,11C13.5,10.726 13.726,10.5 14,10.5Z"/>
</svg>
