<?xml version="1.0" encoding="UTF-8" standalone="no"?>
<!--
tags: [find, change, switch, swap]
category: Map
version: "1.79"
unicode: "f2a7"
-->

<svg
   width="24"
   height="24"
   viewBox="0 0 24 24"
   fill="none"
   stroke="currentColor"
   stroke-width="1"
   stroke-linecap="round"
   stroke-linejoin="round"
   version="1.1"
   id="svg5"
   sodipodi:docname="edit-find-replace.svg"
   xmlns:inkscape="http://www.inkscape.org/namespaces/inkscape"
   xmlns:sodipodi="http://sodipodi.sourceforge.net/DTD/sodipodi-0.dtd"
   xmlns="http://www.w3.org/2000/svg"
   xmlns:svg="http://www.w3.org/2000/svg">
  <defs
     id="defs5" />
  <sodipodi:namedview
     id="namedview5"
     pagecolor="#ffffff"
     bordercolor="#000000"
     borderopacity="0.25"
     inkscape:showpageshadow="2"
     inkscape:pageopacity="0.0"
     inkscape:pagecheckerboard="0"
     inkscape:deskcolor="#d1d1d1" />
  <path
     style="baseline-shift:baseline;display:inline;overflow:visible;vector-effect:none;fill:#ffffff;stroke:none;stroke-linecap:butt;stroke-linejoin:miter;enable-background:accumulate;stop-color:#000000;stop-opacity:1;opacity:1"
     d="m 14.646484,14.646484 a 0.5,0.5 0 0 0 0,0.707032 l 6,6 a 0.5,0.5 0 0 0 0.707032,0 0.5,0.5 0 0 0 0,-0.707032 l -6,-6 a 0.5,0.5 0 0 0 -0.707032,0 z"
     id="path1" />
  <path
     style="baseline-shift:baseline;display:inline;overflow:visible;vector-effect:none;fill:#ffffff;stroke:none;stroke-linecap:butt;stroke-linejoin:miter;enable-background:accumulate;stop-color:#000000;stop-opacity:1;opacity:1"
     d="M 11.009766,2.5625 C 10.110977,2.4423225 9.1774623,2.484511 8.25,2.7089844 5.6500646,3.332768 3.5769862,5.2951929 2.8125,7.8574219 A 0.5,0.5 0 0 0 3.1484375,8.4785156 0.5,0.5 0 0 0 3.7695313,8.1425781 C 4.4327229,5.9198449 6.2286386,4.2200758 8.484375,3.6796875 a 0.50005,0.50005 0 0 0 0.00195,0 C 11.710321,2.8993857 14.996833,4.655893 16.140625,7.7695312 a 0.5,0.5 0 0 0 0.642578,0.2968751 0.5,0.5 0 0 0 0.296875,-0.6425782 C 16.092957,4.7366803 13.706131,2.9230324 11.009766,2.5625 Z"
     id="path2" />
  <path
     style="baseline-shift:baseline;display:inline;overflow:visible;vector-effect:none;fill:#ffffff;stroke:none;stroke-linecap:butt;stroke-linejoin:miter;enable-background:accumulate;stop-color:#000000;stop-opacity:1;opacity:1"
     d="M 17,3.5 A 0.5,0.5 0 0 0 16.5,4 V 7.5 H 13 A 0.5,0.5 0 0 0 12.5,8 0.5,0.5 0 0 0 13,8.5 h 4 A 0.50005,0.50005 0 0 0 17.5,8 V 4 A 0.5,0.5 0 0 0 17,3.5 Z"
     id="path3" />
  <path
     style="baseline-shift:baseline;display:inline;overflow:visible;vector-effect:none;fill:#ffffff;stroke:none;stroke-linecap:butt;stroke-linejoin:miter;enable-background:accumulate;stop-color:#000000;stop-opacity:1;opacity:1"
     d="m 16.847656,11.521484 a 0.5,0.5 0 0 0 -0.621094,0.335938 c -0.664945,2.219137 -2.460068,3.915159 -4.71289,4.455078 -3.223689,0.779769 -6.5105452,-0.976639 -7.654297,-4.089844 a 0.5,0.5 0 0 0 -0.6425781,-0.296875 0.5,0.5 0 0 0 -0.296875,0.642578 c 1.3161166,3.582368 5.1186223,5.612125 8.8281251,4.714844 v 0.002 c 2.597753,-0.622587 4.668791,-2.583668 5.435547,-5.142578 a 0.5,0.5 0 0 0 -0.335938,-0.621094 z"
     id="path4" />
  <path
     style="baseline-shift:baseline;display:inline;overflow:visible;vector-effect:none;fill:#ffffff;stroke:none;stroke-linecap:butt;stroke-linejoin:miter;enable-background:accumulate;stop-color:#000000;stop-opacity:1;opacity:1"
     d="M 3,11.5 A 0.50005,0.50005 0 0 0 2.5,12 v 4 A 0.5,0.5 0 0 0 3,16.5 0.5,0.5 0 0 0 3.5,16 V 12.5 H 7 A 0.5,0.5 0 0 0 7.5,12 0.5,0.5 0 0 0 7,11.5 Z"
     id="path5" />
</svg>
