<?xml version="1.0" encoding="UTF-8" standalone="no"?>
<!DOCTYPE svg PUBLIC "-//W3C//DTD SVG 1.1//EN" "http://www.w3.org/Graphics/SVG/1.1/DTD/svg11.dtd">
<svg width="24px" height="24px" fill="white" viewBox="0 0 24 24" version="1.1" xmlns="http://www.w3.org/2000/svg" xmlns:xlink="http://www.w3.org/1999/xlink" xml:space="preserve" xmlns:serif="http://www.serif.com/" style="fill-rule:evenodd;clip-rule:evenodd;stroke-linejoin:round;stroke-miterlimit:2;">
    <path id="path1" d="M9,7.5L15,7.5C15.823,7.5 16.5,8.177 16.5,9L16.5,15C16.5,15.823 15.823,16.5 15,16.5L9,16.5C8.177,16.5 7.5,15.823 7.5,15L7.5,9C7.5,8.177 8.177,7.5 9,7.5ZM9,8.5C8.718,8.5 8.5,8.718 8.5,9L8.5,15C8.5,15.282 8.718,15.5 9,15.5L15,15.5C15.282,15.5 15.5,15.282 15.5,15L15.5,9C15.5,8.718 15.282,8.5 15,8.5L9,8.5ZM12,19.5C12.274,19.5 12.5,19.726 12.5,20L12.5,20.01C12.5,20.284 12.274,20.51 12,20.51C11.726,20.51 11.5,20.284 11.5,20.01L11.5,20C11.5,19.726 11.726,19.5 12,19.5ZM16,19.5C16.274,19.5 16.5,19.726 16.5,20L16.5,20.01C16.5,20.284 16.274,20.51 16,20.51C15.726,20.51 15.5,20.284 15.5,20.01L15.5,20C15.5,19.726 15.726,19.5 16,19.5ZM8,19.5C8.274,19.5 8.5,19.726 8.5,20L8.5,20.01C8.5,20.284 8.274,20.51 8,20.51C7.726,20.51 7.5,20.284 7.5,20.01L7.5,20C7.5,19.726 7.726,19.5 8,19.5ZM4,19.5C4.274,19.5 4.5,19.726 4.5,20L4.5,20.01C4.5,20.284 4.274,20.51 4,20.51C3.726,20.51 3.5,20.284 3.5,20.01L3.5,20C3.5,19.726 3.726,19.5 4,19.5ZM4,15.5C4.274,15.5 4.5,15.726 4.5,16L4.5,16.01C4.5,16.284 4.274,16.51 4,16.51C3.726,16.51 3.5,16.284 3.5,16.01L3.5,16C3.5,15.726 3.726,15.5 4,15.5ZM4,11.5C4.274,11.5 4.5,11.726 4.5,12L4.5,12.01C4.5,12.284 4.274,12.51 4,12.51C3.726,12.51 3.5,12.284 3.5,12.01L3.5,12C3.5,11.726 3.726,11.5 4,11.5ZM4,7.5C4.274,7.5 4.5,7.726 4.5,8L4.5,8.01C4.5,8.284 4.274,8.51 4,8.51C3.726,8.51 3.5,8.284 3.5,8.01L3.5,8C3.5,7.726 3.726,7.5 4,7.5ZM4,3.5C4.274,3.5 4.5,3.726 4.5,4L4.5,4.01C4.5,4.284 4.274,4.51 4,4.51C3.726,4.51 3.5,4.284 3.5,4.01L3.5,4C3.5,3.726 3.726,3.5 4,3.5ZM8,3.5C8.274,3.5 8.5,3.726 8.5,4L8.5,4.01C8.5,4.284 8.274,4.51 8,4.51C7.726,4.51 7.5,4.284 7.5,4.01L7.5,4C7.5,3.726 7.726,3.5 8,3.5ZM12,3.5C12.274,3.5 12.5,3.726 12.5,4L12.5,4.01C12.5,4.284 12.274,4.51 12,4.51C11.726,4.51 11.5,4.284 11.5,4.01L11.5,4C11.5,3.726 11.726,3.5 12,3.5ZM16,3.5C16.274,3.5 16.5,3.726 16.5,4L16.5,4.01C16.5,4.284 16.274,4.51 16,4.51C15.726,4.51 15.5,4.284 15.5,4.01L15.5,4C15.5,3.726 15.726,3.5 16,3.5ZM20,3.5C20.274,3.5 20.5,3.726 20.5,4L20.5,4.01C20.5,4.284 20.274,4.51 20,4.51C19.726,4.51 19.5,4.284 19.5,4.01L19.5,4C19.5,3.726 19.726,3.5 20,3.5ZM20,7.5C20.274,7.5 20.5,7.726 20.5,8L20.5,8.01C20.5,8.284 20.274,8.51 20,8.51C19.726,8.51 19.5,8.284 19.5,8.01L19.5,8C19.5,7.726 19.726,7.5 20,7.5ZM20,11.5C20.274,11.5 20.5,11.726 20.5,12L20.5,12.01C20.5,12.284 20.274,12.51 20,12.51C19.726,12.51 19.5,12.284 19.5,12.01L19.5,12C19.5,11.726 19.726,11.5 20,11.5ZM20,15.5C20.274,15.5 20.5,15.726 20.5,16L20.5,16.01C20.5,16.284 20.274,16.51 20,16.51C19.726,16.51 19.5,16.284 19.5,16.01L19.5,16C19.5,15.726 19.726,15.5 20,15.5ZM20,19.5C20.274,19.5 20.5,19.726 20.5,20L20.5,20.01C20.5,20.284 20.274,20.51 20,20.51C19.726,20.51 19.5,20.284 19.5,20.01L19.5,20C19.5,19.726 19.726,19.5 20,19.5Z"/>
</svg>
