<?xml version="1.0" encoding="UTF-8" standalone="no"?>
<!DOCTYPE svg PUBLIC "-//W3C//DTD SVG 1.1//EN" "http://www.w3.org/Graphics/SVG/1.1/DTD/svg11.dtd">
<svg width="24px" height="24px" fill="white" viewBox="0 0 24 24" version="1.1" xmlns="http://www.w3.org/2000/svg" xmlns:xlink="http://www.w3.org/1999/xlink" xml:space="preserve" xmlns:serif="http://www.serif.com/" style="fill-rule:evenodd;clip-rule:evenodd;stroke-linejoin:round;stroke-miterlimit:2;">
    <path id="path1" d="M13.5,3.5L7,3.5C6.166,3.5 5.5,4.166 5.5,5L5.5,19C5.5,19.834 6.166,20.5 7,20.5L12,20.5C12.274,20.5 12.5,20.726 12.5,21C12.5,21.274 12.274,21.5 12,21.5L7,21.5C5.625,21.5 4.5,20.375 4.5,19L4.5,5C4.5,3.625 5.625,2.5 7,2.5L14,2.5C14.135,2.5 14.261,2.555 14.353,2.647L19.353,7.647C19.445,7.739 19.5,7.865 19.5,8L19.5,12.5C19.5,12.774 19.274,13 19,13C18.726,13 18.5,12.774 18.5,12.5L18.5,8.5L15,8.5C14.177,8.5 13.5,7.823 13.5,7L13.5,3.5ZM17.793,7.5L14.5,4.207L14.5,7C14.5,7.282 14.718,7.5 15,7.5L17.793,7.5ZM18.264,19.971C17.742,20.328 17.119,20.5 16.5,20.5C15.764,20.5 15.021,20.256 14.449,19.748C13.877,19.24 13.5,18.458 13.5,17.5C13.5,16.542 13.877,15.76 14.449,15.252C15.021,14.744 15.764,14.5 16.5,14.5C17.236,14.5 17.979,14.744 18.551,15.252C19.123,15.76 19.5,16.542 19.5,17.5C19.5,18.194 19.302,18.796 18.975,19.268L21.354,21.646C21.547,21.84 21.547,22.16 21.354,22.354C21.16,22.547 20.84,22.547 20.646,22.354L18.264,19.971ZM16.5,15.5C15.986,15.5 15.479,15.673 15.113,15.998C14.748,16.323 14.5,16.792 14.5,17.5C14.5,18.208 14.748,18.677 15.113,19.002C15.479,19.327 15.986,19.5 16.5,19.5C17.014,19.5 17.521,19.327 17.887,19.002C18.252,18.677 18.5,18.208 18.5,17.5C18.5,16.792 18.252,16.323 17.887,15.998C17.521,15.673 17.014,15.5 16.5,15.5Z"/>
</svg>
