<?xml version="1.0" encoding="UTF-8" standalone="no"?>
<!DOCTYPE svg PUBLIC "-//W3C//DTD SVG 1.1//EN" "http://www.w3.org/Graphics/SVG/1.1/DTD/svg11.dtd">
<svg width="24px" height="24px" fill="white" viewBox="0 0 24 24" version="1.1" xmlns="http://www.w3.org/2000/svg" xmlns:xlink="http://www.w3.org/1999/xlink" xml:space="preserve" xmlns:serif="http://www.serif.com/" style="fill-rule:evenodd;clip-rule:evenodd;stroke-linejoin:round;stroke-miterlimit:2;">
    <path id="path1" d="M15.449,4.5L17,4.5C18.375,4.5 19.5,5.625 19.5,7L19.5,19C19.5,20.375 18.375,21.5 17,21.5L7,21.5C5.625,21.5 4.5,20.375 4.5,19L4.5,7C4.5,5.625 5.625,4.5 7,4.5L8.551,4.5C8.784,3.363 9.796,2.5 11,2.5L13,2.5C14.204,2.5 15.216,3.363 15.449,4.5ZM8.551,5.5L7,5.5C6.166,5.5 5.5,6.166 5.5,7L5.5,19C5.5,19.834 6.166,20.5 7,20.5L17,20.5C17.834,20.5 18.5,19.834 18.5,19L18.5,7C18.5,6.166 17.834,5.5 17,5.5L15.449,5.5C15.216,6.637 14.204,7.5 13,7.5L11,7.5C9.796,7.5 8.784,6.637 8.551,5.5ZM14.5,5C14.5,4.166 13.834,3.5 13,3.5L11,3.5C10.166,3.5 9.5,4.166 9.5,5C9.5,5.834 10.166,6.5 11,6.5L13,6.5C13.834,6.5 14.5,5.834 14.5,5Z"/>
</svg>
