<?xml version="1.0" encoding="UTF-8" standalone="no"?>
<!DOCTYPE svg PUBLIC "-//W3C//DTD SVG 1.1//EN" "http://www.w3.org/Graphics/SVG/1.1/DTD/svg11.dtd">
<svg width="24px" height="24px" fill="white" viewBox="0 0 24 24" version="1.1" xmlns="http://www.w3.org/2000/svg" xmlns:xlink="http://www.w3.org/1999/xlink" xml:space="preserve" xmlns:serif="http://www.serif.com/" style="fill-rule:evenodd;clip-rule:evenodd;stroke-linejoin:round;stroke-miterlimit:2;">
    <path id="path1" d="M11.647,19.353L5.646,13.354C5.453,13.16 5.453,12.84 5.646,12.646C5.74,12.553 5.867,12.5 6,12.5C6.133,12.5 6.26,12.553 6.354,12.646L11.5,17.793L11.5,5C11.5,4.726 11.726,4.5 12,4.5C12.274,4.5 12.5,4.726 12.5,5L12.5,17.793L17.646,12.646C17.84,12.453 18.16,12.453 18.354,12.646C18.547,12.84 18.547,13.16 18.354,13.354L12.353,19.353C12.333,19.374 12.311,19.392 12.287,19.409C12.206,19.466 12.106,19.5 12,19.5C11.894,19.5 11.794,19.466 11.713,19.409C11.689,19.392 11.667,19.374 11.647,19.353Z"/>
</svg>
