<?xml version="1.0" encoding="UTF-8" standalone="no"?>
<!DOCTYPE svg PUBLIC "-//W3C//DTD SVG 1.1//EN" "http://www.w3.org/Graphics/SVG/1.1/DTD/svg11.dtd">
<svg width="24px" height="24px" fill="white" viewBox="0 0 24 24" version="1.1" xmlns="http://www.w3.org/2000/svg" xmlns:xlink="http://www.w3.org/1999/xlink" xml:space="preserve" xmlns:serif="http://www.serif.com/" style="fill-rule:evenodd;clip-rule:evenodd;stroke-linejoin:round;stroke-miterlimit:2;">
    <path id="path1" d="M4.5,12.5L3,12.5C2.726,12.5 2.5,12.274 2.5,12C2.5,11.867 2.553,11.74 2.646,11.646L11.646,2.646C11.84,2.453 12.16,2.453 12.354,2.646L21.354,11.646C21.447,11.74 21.5,11.867 21.5,12C21.5,12.274 21.274,12.5 21,12.5L19.5,12.5L19.5,19C19.5,20.371 18.371,21.5 17,21.5L7,21.5C5.629,21.5 4.5,20.371 4.5,19L4.5,12.5ZM19,11.5L19.793,11.5L12,3.707L4.207,11.5L5,11.5C5.274,11.5 5.5,11.726 5.5,12L5.5,19C5.5,19.823 6.177,20.5 7,20.5L17,20.5C17.823,20.5 18.5,19.823 18.5,19L18.5,12C18.5,11.726 18.726,11.5 19,11.5ZM10,12.985L14,12.985C14.274,12.985 14.5,13.21 14.5,13.485L14.5,17.485C14.5,17.759 14.274,17.985 14,17.985L10,17.985C9.726,17.985 9.5,17.759 9.5,17.485L9.5,13.485C9.5,13.21 9.726,12.985 10,12.985Z"/>
</svg>
