<?xml version="1.0" encoding="UTF-8" standalone="no"?>
<!DOCTYPE svg PUBLIC "-//W3C//DTD SVG 1.1//EN" "http://www.w3.org/Graphics/SVG/1.1/DTD/svg11.dtd">
<svg width="24px" height="24px" fill="white" viewBox="0 0 24 24" version="1.1" xmlns="http://www.w3.org/2000/svg" xmlns:xlink="http://www.w3.org/1999/xlink" xml:space="preserve" xmlns:serif="http://www.serif.com/" style="fill-rule:evenodd;clip-rule:evenodd;stroke-linejoin:round;stroke-miterlimit:2;">
    <path id="path1" d="M13.793,10.5L8,10.5C6.792,10.5 5.948,10.935 5.373,11.582C4.798,12.229 4.5,13.111 4.5,14C4.5,14.889 4.798,15.771 5.373,16.418C5.948,17.065 6.792,17.5 8,17.5L9,17.5C9.274,17.5 9.5,17.726 9.5,18C9.5,18.274 9.274,18.5 9,18.5L8,18.5C6.542,18.5 5.385,17.935 4.627,17.082C3.869,16.229 3.5,15.111 3.5,14C3.5,12.889 3.869,11.771 4.627,10.918C5.385,10.065 6.542,9.5 8,9.5L13.793,9.5L10.646,6.354C10.453,6.16 10.453,5.84 10.646,5.646C10.84,5.453 11.16,5.453 11.354,5.646L15.353,9.647C15.444,9.738 15.5,9.863 15.5,10C15.5,10.137 15.444,10.262 15.353,10.353L11.354,14.354C11.16,14.547 10.84,14.547 10.646,14.354C10.453,14.16 10.453,13.84 10.646,13.646L13.793,10.5ZM15.646,5.646C15.84,5.453 16.16,5.453 16.354,5.646L20.354,9.646C20.547,9.84 20.547,10.16 20.354,10.354L16.354,14.354C16.16,14.547 15.84,14.547 15.646,14.354C15.453,14.16 15.453,13.84 15.646,13.646L19.293,10L15.646,6.354C15.453,6.16 15.453,5.84 15.646,5.646Z"/>
</svg>
