<?xml version="1.0" encoding="UTF-8" standalone="no"?>
<!DOCTYPE svg PUBLIC "-//W3C//DTD SVG 1.1//EN" "http://www.w3.org/Graphics/SVG/1.1/DTD/svg11.dtd">
<svg width="100%" height="100%" viewBox="0 0 24 24" version="1.1" fill="#e3e3e3" xmlns="http://www.w3.org/2000/svg" xmlns:xlink="http://www.w3.org/1999/xlink" xml:space="preserve" xmlns:serif="http://www.serif.com/" style="fill-rule:evenodd;clip-rule:evenodd;stroke-linejoin:round;stroke-miterlimit:2;">
    <g transform="matrix(-0.025,0,0,0.025,24.3287,24)">
        <path d="M276.85,-460L494.38,-242.46C498.28,-238.567 500.32,-233.977 500.5,-228.69C500.68,-223.41 498.563,-218.563 494.15,-214.15C489.743,-209.897 485.027,-207.73 480,-207.65C474.973,-207.577 470.257,-209.743 465.85,-214.15L222.62,-457.38C219.127,-460.873 216.677,-464.44 215.27,-468.08C213.857,-471.72 213.15,-475.693 213.15,-480C213.15,-484.307 213.857,-488.28 215.27,-491.92C216.677,-495.56 219.127,-499.127 222.62,-502.62L465.85,-745.85C469.59,-749.59 474.14,-751.59 479.5,-751.85C484.86,-752.103 489.743,-750.103 494.15,-745.85C498.563,-741.437 500.77,-736.68 500.77,-731.58C500.77,-726.473 498.563,-721.717 494.15,-717.31L276.85,-500L740,-500C745.693,-500 750.45,-498.09 754.27,-494.27C758.09,-490.45 760,-485.693 760,-480C760,-474.307 758.09,-469.55 754.27,-465.73C750.45,-461.91 745.693,-460 740,-460L276.85,-460Z"/>
    </g>
</svg>
