<?xml version="1.0" encoding="UTF-8" standalone="no"?>
<!DOCTYPE svg PUBLIC "-//W3C//DTD SVG 1.1//EN" "http://www.w3.org/Graphics/SVG/1.1/DTD/svg11.dtd">
<svg width="24px" height="24px" fill="white" viewBox="0 0 24 24" version="1.1" xmlns="http://www.w3.org/2000/svg" xmlns:xlink="http://www.w3.org/1999/xlink" xml:space="preserve" xmlns:serif="http://www.serif.com/" style="fill-rule:evenodd;clip-rule:evenodd;stroke-linejoin:round;stroke-miterlimit:2;">
    <path id="path1" d="M11.5,6.207L6.354,11.354C6.16,11.547 5.84,11.547 5.646,11.354C5.453,11.16 5.453,10.84 5.646,10.646L11.647,4.647C11.667,4.626 11.689,4.608 11.713,4.591C11.794,4.534 11.894,4.5 12,4.5C12.106,4.5 12.206,4.534 12.287,4.591C12.311,4.608 12.333,4.626 12.353,4.647L18.354,10.646C18.547,10.84 18.547,11.16 18.354,11.354C18.16,11.547 17.84,11.547 17.646,11.354L12.5,6.207L12.5,19C12.5,19.274 12.274,19.5 12,19.5C11.726,19.5 11.5,19.274 11.5,19L11.5,6.207Z"/>
</svg>
