<?xml version="1.0" encoding="UTF-8" standalone="no"?>
<!--
tags: [ask, help, support, cue, "?"]
category: Map
version: "1.37"
unicode: "edeb"
-->

<svg
   width="24"
   height="24"
   viewBox="0 0 24 24"
   fill="none"
   stroke="currentColor"
   stroke-width="1"
   stroke-linecap="round"
   stroke-linejoin="round"
   version="1.1"
   id="svg4"
   sodipodi:docname="help-contextual.svg"
   inkscape:version="1.4.2 (ebf0e940, 2025-05-08)"
   xmlns:inkscape="http://www.inkscape.org/namespaces/inkscape"
   xmlns:sodipodi="http://sodipodi.sourceforge.net/DTD/sodipodi-0.dtd"
   xmlns="http://www.w3.org/2000/svg"
   xmlns:svg="http://www.w3.org/2000/svg">
  <defs
     id="defs4" />
  <sodipodi:namedview
     id="namedview4"
     pagecolor="#ffffff"
     bordercolor="#000000"
     borderopacity="0.25"
     inkscape:showpageshadow="2"
     inkscape:pageopacity="0.0"
     inkscape:pagecheckerboard="0"
     inkscape:deskcolor="#d1d1d1"
     inkscape:zoom="34.666667"
     inkscape:cx="12"
     inkscape:cy="11.985577"
     inkscape:window-width="2560"
     inkscape:window-height="1316"
     inkscape:window-x="0"
     inkscape:window-y="31"
     inkscape:window-maximized="1"
     inkscape:current-layer="svg4" />
  <path
     style="baseline-shift:baseline;display:inline;overflow:visible;vector-effect:none;fill:#ffffff;stroke:none;stroke-linecap:butt;stroke-linejoin:miter;enable-background:accumulate;stop-color:#000000;stop-opacity:1;opacity:1"
     d="m 10,2.5 c -4.1362127,0 -7.5,3.3637843 -7.5,7.5 0,4.136216 3.3637873,7.5 7.5,7.5 4.136213,0 7.5,-3.363784 7.5,-7.5 0,-4.1362157 -3.363787,-7.5 -7.5,-7.5 z m 0,1 c 3.595774,0 6.5,2.904224 6.5,6.5 0,3.595776 -2.904226,6.5 -6.5,6.5 C 6.4042264,16.5 3.5,13.595776 3.5,10 3.5,6.404224 6.4042264,3.5 10,3.5 Z"
     id="path1" />
  <path
     style="baseline-shift:baseline;display:inline;overflow:visible;vector-effect:none;fill:#ffffff;stroke:none;stroke-linecap:butt;stroke-linejoin:miter;enable-background:accumulate;stop-color:#000000;stop-opacity:1;opacity:1"
     d="m 14.646484,14.646484 a 0.5,0.5 0 0 0 0,0.707032 l 6,6 a 0.5,0.5 0 0 0 0.707032,0 0.5,0.5 0 0 0 0,-0.707032 l -6,-6 a 0.5,0.5 0 0 0 -0.707032,0 z"
     id="path2" />
  <path
     style="baseline-shift:baseline;display:inline;overflow:visible;vector-effect:none;fill:#ffffff;stroke:none;stroke-linecap:butt;stroke-linejoin:miter;enable-background:accumulate;stop-color:#000000;stop-opacity:1;opacity:1"
     d="M 10,12.5 A 0.5,0.5 0 0 0 9.5,13 v 0.0098 a 0.5,0.5 0 0 0 0.5,0.5 0.5,0.5 0 0 0 0.5,-0.5 V 13 A 0.5,0.5 0 0 0 10,12.5 Z"
     id="path3" />
  <path
     style="baseline-shift:baseline;display:inline;overflow:visible;vector-effect:none;fill:#ffffff;stroke:none;stroke-linecap:butt;stroke-linejoin:miter;enable-background:accumulate;stop-color:#000000;stop-opacity:1;opacity:1"
     d="M 10.273438,6.53125 C 9.6313029,6.4424202 8.9480234,6.6535686 8.4804688,7.2011719 A 0.5,0.5 0 0 0 8.5351563,7.90625 0.5,0.5 0 0 0 9.2402344,7.8515625 C 9.7266776,7.2818368 10.594694,7.4016604 10.908203,8.0820313 11.221713,8.7624021 10.749142,9.5003774 10,9.5 A 0.5,0.5 0 0 0 9.5,10 0.5,0.5 0 0 0 10,10.5 c 1.440106,7.26e-4 2.419083,-1.529977 1.816406,-2.8378906 C 11.515068,7.0081525 10.915572,6.6200798 10.273438,6.53125 Z"
     id="path4" />
  <path
     style="baseline-shift:baseline;display:inline;overflow:visible;vector-effect:none;fill:#ffffff;stroke:none;stroke-linecap:butt;stroke-linejoin:miter;enable-background:accumulate;stop-color:#000000;stop-opacity:1;opacity:1"
     d="M 9.8339844,9.5097656 A 0.49774826,0.49774826 0 0 0 9.3359375,10.007813 v 1.158203 a 0.49774826,0.49774826 0 0 0 0.4980469,0.498047 h 0.033203 A 0.49774826,0.49774826 0 0 0 10.365234,11.166016 V 10.007813 A 0.49774826,0.49774826 0 0 0 9.8671875,9.5097656 Z"
     id="rect4" />
</svg>
