<?xml version="1.0" encoding="UTF-8" standalone="no"?>
<svg
   width="24"
   height="24"
   viewBox="0 0 24 24"
   version="1.1"
   xml:space="preserve"
   style="fill-rule:evenodd;fill:white;clip-rule:evenodd;stroke-linejoin:round;stroke-miterlimit:2;"
   id="svg2"
   sodipodi:docname="list-add.svg"
   xmlns:inkscape="http://www.inkscape.org/namespaces/inkscape"
   xmlns:sodipodi="http://sodipodi.sourceforge.net/DTD/sodipodi-0.dtd"
   xmlns="http://www.w3.org/2000/svg"
   xmlns:svg="http://www.w3.org/2000/svg"><defs
   id="defs2" /><sodipodi:namedview
   id="namedview2"
   pagecolor="#ffffff"
   bordercolor="#000000"
   borderopacity="0.25"
   inkscape:showpageshadow="2"
   inkscape:pageopacity="0.0"
   inkscape:pagecheckerboard="0"
   inkscape:deskcolor="#d1d1d1" />
    <g
   transform="matrix(0.025,0,0,0.025,0,24)"
   id="g1">
        <path
   d="M180,-459.992C174.333,-459.992 169.583,-461.92 165.75,-465.76C161.917,-469.6 160,-474.357 160,-480.03C160,-485.703 161.917,-490.45 165.75,-494.27C169.583,-498.09 174.333,-500 180,-500L780,-500C785.667,-500 790.417,-498.08 794.25,-494.24C798.083,-490.4 800,-485.643 800,-479.97C800,-474.297 798.083,-469.55 794.25,-465.73C790.417,-461.91 785.667,-459.992 780,-459.992L180,-459.992Z"
   id="path1" />
    </g>
    <g
   transform="matrix(1.53081e-18,-0.025,0.025,1.53081e-18,23.9999,24.0001)"
   id="g2">
        <path
   d="M180,-459.992C174.333,-459.992 169.583,-461.92 165.75,-465.76C161.917,-469.6 160,-474.357 160,-480.03C160,-485.703 161.917,-490.45 165.75,-494.27C169.583,-498.09 174.333,-500 180,-500L780,-500C785.667,-500 790.417,-498.08 794.25,-494.24C798.083,-490.4 800,-485.643 800,-479.97C800,-474.297 798.083,-469.55 794.25,-465.73C790.417,-461.91 785.667,-459.992 780,-459.992L180,-459.992Z"
   id="path2" />
    </g>
</svg>
