<?xml version="1.0" encoding="UTF-8" standalone="no"?>
<!DOCTYPE svg PUBLIC "-//W3C//DTD SVG 1.1//EN" "http://www.w3.org/Graphics/SVG/1.1/DTD/svg11.dtd">
<svg height="24px" viewBox="0 0 24 24" version="1.1" fill="#e3e3e3" xmlns="http://www.w3.org/2000/svg" xmlns:xlink="http://www.w3.org/1999/xlink" xml:space="preserve" xmlns:serif="http://www.serif.com/" style="fill-rule:evenodd;clip-rule:evenodd;stroke-linejoin:round;stroke-miterlimit:2;">
    <g transform="matrix(-1.25245e-18,0.0344832,0.038352,3.20742e-18,26.3862,-4.55193)">
        <path d="M492.98,-373.85L647.15,-373.85C659.817,-373.85 669.317,-379.567 675.65,-391C681.983,-402.433 681.51,-413.537 674.23,-424.31L506.85,-673.52C503.363,-678.713 499.35,-682.423 494.81,-684.65C490.277,-686.883 485.34,-688 480,-688C474.66,-688 469.723,-686.883 465.19,-684.65C460.65,-682.423 456.637,-678.713 453.15,-673.52L285.77,-424.31C278.49,-413.537 278.017,-402.433 284.35,-391C290.683,-379.567 300.183,-373.85 312.85,-373.85L467.02,-373.85C466.403,-373.592 465.793,-373.315 465.19,-373.018C460.65,-370.791 456.637,-367.081 453.15,-361.888L285.77,-112.678C278.49,-101.905 278.017,-90.801 284.35,-79.368C290.683,-67.935 300.183,-62.218 312.85,-62.218L647.15,-62.218C659.817,-62.218 669.317,-67.935 675.65,-79.368C681.983,-90.801 681.51,-101.905 674.23,-112.678L506.85,-361.888C503.363,-367.081 499.35,-370.791 494.81,-373.018C494.207,-373.315 493.597,-373.592 492.98,-373.85ZM652.83,-408.069L653.303,-407.364C653.773,-406.535 654.053,-405.556 654.053,-404.518C654.053,-401.862 652.299,-399.635 649.953,-399.077L312.141,-399.077L312.141,-399.122L311.825,-399.077L310.722,-399.077C308.078,-399.366 306.016,-401.742 306.016,-404.622C306.016,-405.66 306.295,-406.638 306.765,-407.467L307.239,-408.173L480,-665.543L652.83,-408.069ZM652.83,-96.437L653.303,-95.732C653.773,-94.903 654.053,-93.924 654.053,-92.886C654.053,-90.23 652.299,-88.003 649.953,-87.445L312.141,-87.445L312.141,-87.49L311.825,-87.445L310.722,-87.445C308.078,-87.734 306.016,-90.11 306.016,-92.99C306.016,-94.028 306.295,-95.006 306.765,-95.835L307.239,-96.541L480,-353.911L652.83,-96.437Z"/>
    </g>
</svg>
