<?xml version="1.0" encoding="UTF-8" standalone="no"?>
<!DOCTYPE svg PUBLIC "-//W3C//DTD SVG 1.1//EN" "http://www.w3.org/Graphics/SVG/1.1/DTD/svg11.dtd">
<svg width="24px" height="24px" fill="white" viewBox="0 0 24 24" version="1.1" xmlns="http://www.w3.org/2000/svg" xmlns:xlink="http://www.w3.org/1999/xlink" xml:space="preserve" xmlns:serif="http://www.serif.com/" style="fill-rule:evenodd;clip-rule:evenodd;stroke-linejoin:round;stroke-miterlimit:2;">
    <path id="path1" d="M7,4.5C5.625,4.5 4.5,5.625 4.5,7L4.5,17C4.5,18.375 5.625,19.5 7,19.5L17,19.5C18.375,19.5 19.5,18.375 19.5,17L19.5,7C19.5,5.625 18.375,4.5 17,4.5L7,4.5ZM7,5.5L17,5.5C17.834,5.5 18.5,6.166 18.5,7L18.5,17C18.5,17.834 17.834,18.5 17,18.5L7,18.5C6.166,18.5 5.5,17.834 5.5,17L5.5,7C5.5,6.166 6.166,5.5 7,5.5Z" style="fill-rule:nonzero;"/>
</svg>
