<?xml version="1.0" encoding="UTF-8" standalone="no"?>
<!DOCTYPE svg PUBLIC "-//W3C//DTD SVG 1.1//EN" "http://www.w3.org/Graphics/SVG/1.1/DTD/svg11.dtd">
<svg width="24px" height="24px" fill="white" viewBox="0 0 24 24" version="1.1" xmlns="http://www.w3.org/2000/svg" xmlns:xlink="http://www.w3.org/1999/xlink" xml:space="preserve" xmlns:serif="http://www.serif.com/" style="fill-rule:evenodd;clip-rule:evenodd;stroke-linejoin:round;stroke-miterlimit:2;">
    <path id="path1" d="M2.793,4.545C2.971,4.463 3.182,4.494 3.33,4.623L11.33,11.623C11.439,11.718 11.502,11.856 11.502,12C11.502,12.144 11.439,12.282 11.33,12.377L3.33,19.377C3.239,19.457 3.121,19.501 3,19.501C2.726,19.501 2.5,19.275 2.5,19.001L2.5,5C2.5,4.804 2.615,4.626 2.793,4.545ZM3.5,6.104L3.5,17.896L10.238,12L3.5,6.104ZM13.793,4.545C13.971,4.463 14.182,4.494 14.33,4.623L22.33,11.623C22.439,11.718 22.502,11.856 22.502,12C22.502,12.144 22.439,12.282 22.33,12.377L14.33,19.377C14.239,19.457 14.121,19.501 14,19.501C13.726,19.501 13.5,19.275 13.5,19.001L13.5,5C13.5,4.804 13.615,4.626 13.793,4.545ZM14.5,6.104L14.5,17.896L21.238,12L14.5,6.104Z"/>
</svg>
