<?xml version="1.0" encoding="UTF-8" standalone="no"?>
<!DOCTYPE svg PUBLIC "-//W3C//DTD SVG 1.1//EN" "http://www.w3.org/Graphics/SVG/1.1/DTD/svg11.dtd">
<svg height="24px" viewBox="0 0 24 24" version="1.1" fill="#e3e3e3" xmlns="http://www.w3.org/2000/svg" xmlns:xlink="http://www.w3.org/1999/xlink" xml:space="preserve" xmlns:serif="http://www.serif.com/" style="fill-rule:evenodd;clip-rule:evenodd;stroke-linejoin:round;stroke-miterlimit:2;">
    <g transform="matrix(0.0521739,0,0,0.0521739,-13.0435,37.0435)">
        <path d="M382.791,-659.531C385.802,-660.41 388.975,-660.85 392.31,-660.85C395.13,-660.85 397.987,-660.477 400.88,-659.73C403.78,-658.99 406.64,-657.877 409.46,-656.39L643.15,-507.08C648.13,-503.593 651.863,-499.617 654.35,-495.15C656.837,-490.69 658.08,-485.64 658.08,-480C658.08,-474.36 656.837,-469.31 654.35,-464.85C651.863,-460.383 648.13,-456.407 643.15,-452.92L409.46,-303.61C406.64,-302.123 403.78,-301.01 400.88,-300.27C397.987,-299.523 395.13,-299.15 392.31,-299.15C383.69,-299.15 376.15,-302.087 369.69,-307.96C363.23,-313.833 360,-321.667 360,-331.46L360,-628.54C360,-638.333 363.23,-646.167 369.69,-652.04C372.525,-654.618 375.569,-656.63 378.82,-658.076C380.103,-658.677 381.431,-659.162 382.791,-659.531ZM378.735,-623.934L378.735,-338.735C378.745,-338.74 378.756,-338.745 378.766,-338.75C379.016,-329.397 387.008,-321.883 396.821,-321.883C399.244,-321.883 401.549,-322.336 403.659,-323.165L631.608,-467.177C637.195,-471.617 638.848,-480.102 635.158,-487.432C633.628,-490.47 631.407,-492.88 628.815,-494.546C628.825,-494.554 628.835,-494.562 628.845,-494.57L402.794,-637.382C395.922,-640.024 387.676,-637.968 382.558,-631.749C380.613,-629.385 379.346,-626.707 378.735,-623.934Z"/>
    </g>
</svg>
