<?xml version="1.0" encoding="UTF-8" standalone="no"?>
<!DOCTYPE svg PUBLIC "-//W3C//DTD SVG 1.1//EN" "http://www.w3.org/Graphics/SVG/1.1/DTD/svg11.dtd">
<svg width="24px" height="24px" fill="white" viewBox="0 0 24 24" version="1.1" xmlns="http://www.w3.org/2000/svg" xmlns:xlink="http://www.w3.org/1999/xlink" xml:space="preserve" xmlns:serif="http://www.serif.com/" style="fill-rule:evenodd;clip-rule:evenodd;stroke-linejoin:round;stroke-miterlimit:2;">
    <path id="path1" d="M3.752,4.566C3.907,4.478 4.098,4.479 4.252,4.568L16.252,11.568C16.405,11.658 16.5,11.823 16.5,12C16.5,12.177 16.405,12.342 16.252,12.432L4.252,19.432C4.175,19.476 4.089,19.5 4,19.5C3.726,19.5 3.5,19.274 3.5,19L3.5,5C3.5,4.821 3.597,4.655 3.752,4.566ZM4.5,5.871L4.5,18.129L15.008,12L4.5,5.871ZM20,4.5C20.274,4.5 20.5,4.726 20.5,5L20.5,19C20.5,19.274 20.274,19.5 20,19.5C19.726,19.5 19.5,19.274 19.5,19L19.5,5C19.5,4.726 19.726,4.5 20,4.5Z"/>
</svg>
