<?xml version="1.0" encoding="UTF-8" standalone="no"?>
<svg
   width="24"
   height="24"
   viewBox="0 0 1024 1024"
   version="1.1"
   id="svg2"
   sodipodi:docname="music-directions.svg"
   xmlns:inkscape="http://www.inkscape.org/namespaces/inkscape"
   xmlns:sodipodi="http://sodipodi.sourceforge.net/DTD/sodipodi-0.dtd"
   xmlns="http://www.w3.org/2000/svg"
   xmlns:svg="http://www.w3.org/2000/svg">
  <defs
     id="defs2" />
  <sodipodi:namedview
     id="namedview2"
     pagecolor="#ffffff"
     bordercolor="#000000"
     borderopacity="0.25"
     inkscape:showpageshadow="2"
     inkscape:pageopacity="0.0"
     inkscape:pagecheckerboard="0"
     inkscape:deskcolor="#d1d1d1" />
  <g
     id="#000000ff">
    <path
       fill="white"
       opacity="1.00"
       d=" M 833.70 63.65 C 836.21 55.72 843.69 49.62 852.02 49.01 C 859.62 48.23 867.49 51.94 871.63 58.38 C 874.49 62.84 875.45 68.15 876.74 73.21 C 886.91 114.35 897.16 155.47 907.45 196.58 C 909.14 203.25 911.48 210.37 909.15 217.19 C 907.04 224.08 901.09 229.22 894.29 231.26 C 853.28 244.29 812.23 257.22 771.23 270.27 C 765.25 272.17 758.99 274.68 752.63 273.25 C 743.22 271.41 735.75 262.63 735.69 253.01 C 735.24 243.56 741.88 234.62 750.88 231.95 C 781.59 222.11 812.41 212.55 843.10 202.66 C 828.51 191.98 812.81 182.88 797.20 173.79 C 763.86 154.90 728.91 138.76 692.65 126.33 C 650.86 112.15 607.24 102.54 563.01 101.25 C 520.88 99.97 478.69 105.90 438.11 117.10 C 405.56 125.61 373.97 137.52 343.29 151.28 C 302.80 169.79 263.75 191.62 227.40 217.37 C 223.00 220.52 218.48 224.09 212.93 224.78 C 205.52 225.94 197.68 222.84 193.08 216.93 C 187.29 209.82 187.01 198.83 192.45 191.45 C 196.05 186.64 201.33 183.55 206.13 180.10 C 246.02 152.37 288.72 128.74 333.13 109.09 C 376.47 90.06 421.75 75.20 468.28 66.34 C 518.50 56.82 570.39 55.70 620.85 64.13 C 696.25 76.74 768.03 106.43 833.45 145.51 C 840.15 149.36 846.36 154.04 853.35 157.38 C 850.74 143.86 846.77 130.63 843.70 117.21 C 840.45 104.15 837.22 91.09 833.90 78.05 C 832.73 73.36 832.12 68.32 833.70 63.65 Z"
       id="path1" />
    <path
       fill="white"
       opacity="1.00"
       d=" M 460.72 239.71 C 466.94 236.37 474.22 237.34 481.00 237.22 C 540.03 237.26 599.05 237.23 658.07 237.23 C 663.34 237.21 668.72 238.73 672.74 242.23 C 678.04 246.47 680.54 253.33 680.41 259.99 C 680.36 317.01 680.79 374.04 680.68 431.06 C 680.83 442.12 671.15 452.07 660.05 452.04 C 604.07 452.24 548.07 451.94 492.08 452.19 C 491.68 502.12 492.03 552.06 491.91 602.00 C 491.91 657.33 491.91 712.67 491.91 768.00 C 491.94 780.68 491.78 793.36 492.19 806.03 C 492.95 838.96 482.11 871.97 462.21 898.18 C 442.10 925.05 412.75 944.92 380.22 953.27 C 350.81 961.03 319.01 959.30 290.60 948.44 C 259.42 936.74 232.50 914.19 215.29 885.70 C 197.33 856.30 190.06 820.48 195.46 786.42 C 200.47 752.89 217.56 721.42 242.66 698.67 C 270.90 672.62 309.53 658.16 347.95 659.68 C 381.39 660.64 414.27 673.56 439.59 695.38 C 442.64 698.18 445.69 701.00 449.04 703.46 C 449.63 679.65 449.12 655.81 449.29 632.00 C 449.30 507.65 449.27 383.29 449.31 258.94 C 449.20 251.06 453.65 243.30 460.72 239.71 Z"
       id="path2" />
  </g>
</svg>
