<?xml version="1.0" encoding="UTF-8" standalone="no"?>
<svg
   width="24px"
   height="24px" fill="white"
   viewBox="0 0 24 24"
   version="1.1"
   xml:space="preserve"
   style="fill-rule:evenodd;clip-rule:evenodd;stroke-linejoin:round;stroke-miterlimit:2;"
   id="svg1"
   sodipodi:docname="music-directions.svg"
   inkscape:version="1.4.2 (ebf0e940, 2025-05-08)"
   xmlns:inkscape="http://www.inkscape.org/namespaces/inkscape"
   xmlns:sodipodi="http://sodipodi.sourceforge.net/DTD/sodipodi-0.dtd"
   xmlns="http://www.w3.org/2000/svg"
   xmlns:svg="http://www.w3.org/2000/svg"><defs
   id="defs1" /><sodipodi:namedview
   id="namedview1"
   pagecolor="#ffffff"
   bordercolor="#000000"
   borderopacity="0.25"
   inkscape:showpageshadow="2"
   inkscape:pageopacity="0.0"
   inkscape:pagecheckerboard="0"
   inkscape:deskcolor="#d1d1d1"
   inkscape:zoom="34.666667"
   inkscape:cx="12.014423"
   inkscape:cy="11.985577"
   inkscape:window-width="976"
   inkscape:window-height="1186"
   inkscape:window-x="0"
   inkscape:window-y="25"
   inkscape:window-maximized="0"
   inkscape:current-layer="svg1" />
    <path
   d="M833.7,63.65C836.21,55.72 843.69,49.62 852.02,49.01C859.62,48.23 867.49,51.94 871.63,58.38C874.49,62.84 875.45,68.15 876.74,73.21C886.91,114.35 897.16,155.47 907.45,196.58C909.14,203.25 911.48,210.37 909.15,217.19C907.04,224.08 901.09,229.22 894.29,231.26C853.28,244.29 812.23,257.22 771.23,270.27C765.25,272.17 758.99,274.68 752.63,273.25C743.22,271.41 735.75,262.63 735.69,253.01C735.24,243.56 741.88,234.62 750.88,231.95C781.59,222.11 812.41,212.55 843.1,202.66C828.51,191.98 812.81,182.88 797.2,173.79C763.86,154.9 728.91,138.76 692.65,126.33C650.86,112.15 607.24,102.54 563.01,101.25C520.88,99.97 478.69,105.9 438.11,117.1C405.56,125.61 373.97,137.52 343.29,151.28C302.8,169.79 263.75,191.62 227.4,217.37C223,220.52 218.48,224.09 212.93,224.78C205.52,225.94 197.68,222.84 193.08,216.93C187.29,209.82 187.01,198.83 192.45,191.45C196.05,186.64 201.33,183.55 206.13,180.1C246.02,152.37 288.72,128.74 333.13,109.09C376.47,90.06 421.75,75.2 468.28,66.34C518.5,56.82 570.39,55.7 620.85,64.13C696.25,76.74 768.03,106.43 833.45,145.51C840.15,149.36 846.36,154.04 853.35,157.38C850.74,143.86 846.77,130.63 843.7,117.21C840.45,104.15 837.22,91.09 833.9,78.05C832.73,73.36 832.12,68.32 833.7,63.65ZM460.72,239.71C466.94,236.37 474.22,237.34 481,237.22L658.07,237.23C663.34,237.21 668.72,238.73 672.74,242.23C678.04,246.47 680.54,253.33 680.41,259.99C680.36,317.01 680.79,374.04 680.68,431.06C680.83,442.12 671.15,452.07 660.05,452.04C604.07,452.24 548.07,451.94 492.08,452.19C491.68,502.12 492.03,552.06 491.91,602L491.91,768C491.94,780.68 491.78,793.36 492.19,806.03C492.95,838.96 482.11,871.97 462.21,898.18C442.1,925.05 412.75,944.92 380.22,953.27C350.81,961.03 319.01,959.3 290.6,948.44C259.42,936.74 232.5,914.19 215.29,885.7C197.33,856.3 190.06,820.48 195.46,786.42C200.47,752.89 217.56,721.42 242.66,698.67C270.9,672.62 309.53,658.16 347.95,659.68C381.39,660.64 414.27,673.56 439.59,695.38C442.64,698.18 445.69,701 449.04,703.46C449.63,679.65 449.12,655.81 449.29,632L449.31,258.94C449.2,251.06 453.65,243.3 460.72,239.71Z"
   id="path1"
   style="fill-rule:evenodd;clip-rule:evenodd;stroke-linejoin:round;stroke-miterlimit:2"
   transform="scale(0.0234375)" />
</svg>
