<?xml version="1.0" encoding="UTF-8" standalone="no"?>
<!DOCTYPE svg PUBLIC "-//W3C//DTD SVG 1.1//EN" "http://www.w3.org/Graphics/SVG/1.1/DTD/svg11.dtd">
<svg width="100%" height="100%" viewBox="0 0 220 220" version="1.1" xmlns="http://www.w3.org/2000/svg" xmlns:xlink="http://www.w3.org/1999/xlink" xml:space="preserve" xmlns:serif="http://www.serif.com/" style="fill-rule:evenodd;clip-rule:evenodd;">
    <g transform="matrix(0.892063,0,0,0.873475,15.6654,16.8991)">
        <path d="M206.584,46.136L206.584,167.449C206.584,191.027 187.841,210.169 164.755,210.169L46.509,210.169C23.423,210.169 4.68,191.027 4.68,167.449L4.68,46.136C4.68,22.559 23.423,3.417 46.509,3.417L164.755,3.417C187.841,3.417 206.584,22.559 206.584,46.136Z"/>
    </g>
    <g id="path3249" transform="matrix(0.780949,0.00067795,-0.000676221,0.778957,24.3504,32.9364)">
        <path d="M127.499,39.863C122.156,39.676 110.673,58.105 102.07,70.591C101.41,70.23 100.769,69.87 100.108,69.51C92.402,60.907 84.895,53.435 81.113,54.701C79.87,55.117 78.899,56.338 78.142,58.098C69.104,53.868 62.157,51.626 60.317,53.928C57.159,57.879 57.601,69.462 58.983,81.616C43.892,80.925 29.386,80.611 28.317,83.946C26.921,88.301 35.876,99.437 46.67,111.069C38.101,113.85 30.841,116.766 31.077,120.15C31.353,124.112 38.876,128.95 48.743,133.7C36.555,146.016 22.074,160.163 26.807,166.348C31.859,172.949 64.696,159.779 84.806,157.142C86.835,165.423 89.295,180.023 93.061,180.805C96.452,181.51 109.573,167.02 119.756,161.132C136.979,169.738 151.342,192.459 155.47,187.294C160.079,181.527 163.431,160.631 161.679,145.605C176.309,139.112 193.521,129.496 194.602,125.101C195.375,121.963 186.655,115.964 175.458,108.627C186.631,96.504 198.884,83.685 193.876,80.635C185.717,75.666 159.278,83.67 144.505,86.537C140.49,77.203 134.766,41.341 127.841,39.902C127.726,39.878 127.621,39.867 127.499,39.863L127.499,39.863Z" style="fill:url(#_Radial1);"/>
    </g>
    <g id="path2417" transform="matrix(0.780949,0,0,0.778958,24.2733,33.0112)">
        <path d="M162.827,170.716C157.052,179.272 109.707,148.271 99.833,147.231C88.266,146.013 35.308,162.563 28.438,153.338C20.192,142.266 64.404,105.093 63.335,94.947C62.162,83.813 51.47,37.698 57.807,28.309C63.581,19.752 126.204,63.734 136.751,62.7C148.326,61.565 182.5,47.182 192.257,53.272C201.148,58.821 159.028,98.737 160.096,108.882C161.269,120.016 169.163,161.326 162.827,170.716Z" style="fill:url(#_Radial2);"/>
    </g>
    <g id="path2430" transform="matrix(0.780949,0,0,0.778958,24.2733,33.0112)">
        <path d="M95.187,167.05C87.749,165.605 84.378,134.066 80.124,127.703C75.87,121.341 24.115,73.46 26.917,62.458C28.814,55.009 85.391,61.933 91.657,57.613C97.923,53.293 117.322,9.149 124.76,10.593C132.199,12.038 139.707,56.68 143.961,63.043C148.215,69.406 197.211,95.907 195.789,103.461C194.366,111.015 151.797,130.882 145.532,135.202C139.266,139.522 102.625,168.494 95.187,167.05Z" style="fill:url(#_Radial3);"/>
    </g>
    <g id="path2435" transform="matrix(0.780949,0,0,0.778958,24.2733,33.0112)">
        <path d="M133.077,151.235C125.132,154.475 105.069,138.854 97.16,135.527C89.251,132.2 32.179,114.353 31.008,102.27C30.181,93.73 68.906,86.675 72.233,78.766C75.561,70.857 70.649,31.716 78.594,28.477C86.539,25.237 112.81,64.996 120.719,68.323C128.627,71.65 171.906,55.014 175.146,62.959C178.386,70.905 142.765,102.002 139.438,109.911C136.111,117.82 141.022,147.996 133.077,151.235Z" style="fill:url(#_Radial4);"/>
    </g>
    <g id="path3264" transform="matrix(0.780949,0,0,0.778958,24.2733,33.0112)">
        <path d="M154.634,110.308C151.822,116.451 123.534,114.162 117.202,116.518C110.871,118.873 101.201,137.485 95.059,134.673C88.916,131.862 77.952,118.031 75.596,111.7C73.24,105.368 49.207,76.422 52.018,70.279C54.83,64.136 89.745,64.015 96.076,61.659C102.408,59.304 133.764,29.849 139.907,32.66C146.05,35.472 133.52,81.833 135.876,88.164C138.231,94.496 157.445,104.165 154.634,110.308Z" style="fill:url(#_Radial5);"/>
    </g>
    <g id="path3304" transform="matrix(0.846087,-0.11327,0.103886,0.772035,22.8028,56.3)">
        <path d="M115.663,83.855C114.837,87.217 115.984,94.065 113.36,96.323C109.727,99.448 100.913,99.17 96.311,100.507C92.987,101.472 87.629,105.89 84.363,104.746C79.839,103.163 75.673,95.39 72.214,92.073C69.716,89.677 63.212,87.246 62.569,83.845C61.678,79.136 66.327,71.642 67.47,66.988C68.295,63.627 67.149,56.778 69.772,54.521C73.405,51.395 82.22,51.674 86.822,50.337C90.146,49.371 95.503,44.954 98.77,46.097C103.294,47.681 107.459,55.453 110.918,58.77C113.416,61.166 119.921,63.597 120.564,66.998C121.454,71.707 116.806,79.201 115.663,83.855Z" style="fill:url(#_Radial6);stroke:rgb(255,230,12);stroke-width:1px;"/>
    </g>
    <defs>
        <radialGradient id="_Radial1" cx="0" cy="0" r="1" gradientUnits="userSpaceOnUse" gradientTransform="matrix(63.4426,-78.7578,68.6654,55.596,110.142,94.5889)"><stop offset="0" style="stop-color:black;stop-opacity:1"/><stop offset="1" style="stop-color:rgb(64,64,64);stop-opacity:1"/></radialGradient>
        <radialGradient id="_Radial2" cx="0" cy="0" r="1" gradientUnits="userSpaceOnUse" gradientTransform="matrix(83.0391,0,0,72.5017,110.451,99.7055)"><stop offset="0" style="stop-color:white;stop-opacity:1"/><stop offset="1" style="stop-color:rgb(253,37,103);stop-opacity:1"/></radialGradient>
        <radialGradient id="_Radial3" cx="0" cy="0" r="1" gradientUnits="userSpaceOnUse" gradientTransform="matrix(67.3301,49.3254,-44.089,60.1823,123.727,64.0027)"><stop offset="0" style="stop-color:rgb(247,247,247);stop-opacity:1"/><stop offset="1" style="stop-color:rgb(255,62,138);stop-opacity:1"/></radialGradient>
        <radialGradient id="_Radial4" cx="0" cy="0" r="1" gradientUnits="userSpaceOnUse" gradientTransform="matrix(56.7034,-17.5948,8.51244,27.4334,103.175,89.982)"><stop offset="0" style="stop-color:white;stop-opacity:1"/><stop offset="1" style="stop-color:rgb(255,137,181);stop-opacity:1"/></radialGradient>
        <radialGradient id="_Radial5" cx="0" cy="0" r="1" gradientUnits="userSpaceOnUse" gradientTransform="matrix(52.1869,0,0,51.8701,103.352,83.7166)"><stop offset="0" style="stop-color:white;stop-opacity:1"/><stop offset="1" style="stop-color:rgb(255,195,211);stop-opacity:1"/></radialGradient>
        <radialGradient id="_Radial6" cx="0" cy="0" r="1" gradientUnits="userSpaceOnUse" gradientTransform="matrix(29.6102,0,0,30.0121,90.575,83.4948)"><stop offset="0" style="stop-color:rgb(255,140,0);stop-opacity:1"/><stop offset="0.53" style="stop-color:rgb(255,197,0);stop-opacity:1"/><stop offset="1" style="stop-color:rgb(255,255,0);stop-opacity:1"/></radialGradient>
    </defs>
</svg>
