<?xml version="1.0" encoding="UTF-8" standalone="no"?>
<svg
   width="24"
   height="24"
   viewBox="0 0 24 24"
   version="1.1"
   xml:space="preserve"
   style="fill-rule:evenodd;fill:white;clip-rule:evenodd;stroke-linecap:round;stroke-linejoin:round;"
   id="svg6"
   sodipodi:docname="preferences-desktop-font.svg"
   xmlns:inkscape="http://www.inkscape.org/namespaces/inkscape"
   xmlns:sodipodi="http://sodipodi.sourceforge.net/DTD/sodipodi-0.dtd"
   xmlns="http://www.w3.org/2000/svg"
   xmlns:svg="http://www.w3.org/2000/svg"><defs
   id="defs6" /><sodipodi:namedview
   id="namedview6"
   pagecolor="#ffffff"
   bordercolor="#000000"
   borderopacity="0.25"
   inkscape:showpageshadow="2"
   inkscape:pageopacity="0.0"
   inkscape:pagecheckerboard="0"
   inkscape:deskcolor="#d1d1d1" />
    <path
   d="M14,9C14,10.646 15.354,12 17,12C18.646,12 20,10.646 20,9C20,7.354 18.646,6 17,6C15.354,6 14,7.354 14,9"
   style="fill:none;fill-rule:nonzero;stroke:white;stroke-width:1px;"
   id="path1" />
    <path
   d="M4,12L4,7C4,5.354 5.354,4 7,4C8.646,4 10,5.354 10,7L10,12"
   style="fill:none;fill-rule:nonzero;stroke:white;stroke-width:1px;"
   id="path2" />
    <path
   d="M4,9L10,9"
   style="fill:none;fill-rule:nonzero;stroke:white;stroke-width:1px;"
   id="path3" />
    <path
   d="M20,6L20,12"
   style="fill:none;fill-rule:nonzero;stroke:white;stroke-width:1px;"
   id="path4" />
    <g
   transform="matrix(1.29467,0,0,1,-1.17868,0)"
   id="g5">
        <path
   d="M4,16L16,16"
   style="fill:none;fill-rule:nonzero;stroke:white;stroke-width:0.86px;"
   id="path5" />
    </g>
    <g
   transform="matrix(1.29467,0,0,1,-1.17868,4)"
   id="g6">
        <path
   d="M4,16L16,16"
   style="fill:none;fill-rule:nonzero;stroke:white;stroke-width:0.86px;"
   id="path6" />
    </g>
</svg>
