<?xml version="1.0" encoding="UTF-8" standalone="no"?>
<svg
   width="24"
   height="24"
   viewBox="0 0 24 24"
   version="1.1"
   xml:space="preserve"
   style="fill-rule:evenodd;fill:white;clip-rule:evenodd;stroke-linecap:round;stroke-linejoin:round;"
   id="svg2"
   sodipodi:docname="preferences-system.svg"
   xmlns:inkscape="http://www.inkscape.org/namespaces/inkscape"
   xmlns:sodipodi="http://sodipodi.sourceforge.net/DTD/sodipodi-0.dtd"
   xmlns="http://www.w3.org/2000/svg"
   xmlns:svg="http://www.w3.org/2000/svg"><defs
   id="defs2" /><sodipodi:namedview
   id="namedview2"
   pagecolor="#ffffff"
   bordercolor="#000000"
   borderopacity="0.25"
   inkscape:showpageshadow="2"
   inkscape:pageopacity="0.0"
   inkscape:pagecheckerboard="0"
   inkscape:deskcolor="#d1d1d1" />
    <path
   d="M10.325,4.317C10.751,2.561 13.249,2.561 13.675,4.317C13.862,5.088 14.557,5.635 15.351,5.635C15.667,5.635 15.978,5.548 16.248,5.383C17.791,4.443 19.558,6.209 18.618,7.753C18.453,8.023 18.366,8.333 18.366,8.65C18.366,9.442 18.913,10.138 19.683,10.325C21.439,10.751 21.439,13.249 19.683,13.675C18.912,13.862 18.365,14.557 18.365,15.351C18.365,15.667 18.452,15.978 18.617,16.248C19.557,17.791 17.791,19.558 16.247,18.618C15.977,18.453 15.667,18.366 15.35,18.366C14.558,18.366 13.862,18.913 13.675,19.683C13.249,21.439 10.751,21.439 10.325,19.683C10.138,18.912 9.443,18.365 8.649,18.365C8.333,18.365 8.022,18.452 7.752,18.617C6.209,19.557 4.442,17.791 5.382,16.247C5.547,15.977 5.634,15.667 5.634,15.35C5.634,14.558 5.087,13.862 4.317,13.675C2.561,13.249 2.561,10.751 4.317,10.325C5.088,10.138 5.635,9.443 5.635,8.649C5.635,8.333 5.548,8.022 5.383,7.752C4.443,6.209 6.209,4.442 7.753,5.382C8.753,5.99 10.049,5.452 10.325,4.317Z"
   style="fill:none;fill-rule:nonzero;stroke:white;stroke-width:1px;"
   id="path1" />
    <path
   d="M9,12C9,13.646 10.354,15 12,15C13.646,15 15,13.646 15,12C15,10.354 13.646,9 12,9C10.354,9 9,10.354 9,12"
   style="fill:none;fill-rule:nonzero;stroke:white;stroke-width:1px;"
   id="path2" />
</svg>
