<?xml version="1.0" encoding="UTF-8" standalone="no"?>
<svg
   width="24"
   height="24"
   viewBox="0 0 24 24"
   version="1.1"
   xml:space="preserve"
   style="fill-rule:evenodd;fill:white;clip-rule:evenodd;stroke-linecap:round;stroke-linejoin:round;"
   id="svg4"
   sodipodi:docname="pushpin.svg"
   xmlns:inkscape="http://www.inkscape.org/namespaces/inkscape"
   xmlns:sodipodi="http://sodipodi.sourceforge.net/DTD/sodipodi-0.dtd"
   xmlns="http://www.w3.org/2000/svg"
   xmlns:svg="http://www.w3.org/2000/svg"><defs
   id="defs4" /><sodipodi:namedview
   id="namedview4"
   pagecolor="#ffffff"
   bordercolor="#000000"
   borderopacity="0.25"
   inkscape:showpageshadow="2"
   inkscape:pageopacity="0.0"
   inkscape:pagecheckerboard="0"
   inkscape:deskcolor="#d1d1d1" />
    <path
   d="M12,19L5,19C3.903,19 3,18.097 3,17L3,7C3,5.903 3.903,5 5,5L19,5C20.097,5 21,5.903 21,7L21,11.5"
   style="fill:none;fill-rule:nonzero;stroke:white;stroke-width:1px;"
   id="path1" />
    <g
   transform="matrix(0.519159,0,0,0.519159,11.4811,11.3537)"
   id="g2">
        <path
   d="M9,4L9,10L7,14L7,16L17,16L17,14L15,10L15,4"
   style="fill:none;fill-rule:nonzero;stroke:white;stroke-width:1.93px;"
   id="path2" />
    </g>
    <g
   transform="matrix(0.519159,0,0,0.519159,11.4811,11.3537)"
   id="g3">
        <path
   d="M12,16L12,21"
   style="fill:none;fill-rule:nonzero;stroke:white;stroke-width:1.93px;"
   id="path3" />
    </g>
    <g
   transform="matrix(0.519159,0,0,0.519159,11.4811,11.3537)"
   id="g4">
        <path
   d="M8,4L16,4"
   style="fill:none;fill-rule:nonzero;stroke:white;stroke-width:1.93px;"
   id="path4" />
    </g>
</svg>
