<?xml version="1.0" encoding="UTF-8" standalone="no"?>
<!DOCTYPE svg PUBLIC "-//W3C//DTD SVG 1.1//EN" "http://www.w3.org/Graphics/SVG/1.1/DTD/svg11.dtd">
<svg width="24px" height="24px" fill="white" viewBox="0 0 24 24" version="1.1" xmlns="http://www.w3.org/2000/svg" xmlns:xlink="http://www.w3.org/1999/xlink" xml:space="preserve" xmlns:serif="http://www.serif.com/" style="fill-rule:evenodd;clip-rule:evenodd;stroke-linejoin:round;stroke-miterlimit:2;">
    <path id="path1" d="M8.646,4.646L4.646,8.646C4.505,8.827 4.505,9.083 4.646,9.264C4.644,9.294 4.644,9.324 4.646,9.354L8.646,13.354C8.84,13.547 9.16,13.547 9.354,13.354C9.547,13.16 9.547,12.84 9.354,12.646L6.207,9.5L15,9.5C16.387,9.5 17.5,10.613 17.5,12L17.5,18C17.5,18.274 17.726,18.5 18,18.5C18.274,18.5 18.5,18.274 18.5,18L18.5,12C18.5,10.073 16.927,8.5 15,8.5L6.207,8.5L9.354,5.354C9.547,5.16 9.547,4.84 9.354,4.646C9.16,4.453 8.84,4.453 8.646,4.646Z" style="fill-rule:nonzero;"/>
</svg>
