<?xml version="1.0" encoding="UTF-8" standalone="no"?>
<!DOCTYPE svg PUBLIC "-//W3C//DTD SVG 1.1//EN" "http://www.w3.org/Graphics/SVG/1.1/DTD/svg11.dtd">
<svg height="24px" viewBox="0 0 24 24" version="1.1" fill="#e3e3e3" xmlns="http://www.w3.org/2000/svg" xmlns:xlink="http://www.w3.org/1999/xlink" xml:space="preserve" xmlns:serif="http://www.serif.com/" style="fill-rule:evenodd;clip-rule:evenodd;stroke-linejoin:round;stroke-miterlimit:2;">
    <g transform="matrix(1.53081e-18,0.025,-0.025,1.53081e-18,0,1.46958e-15)">
        <path d="M735.38,-160L224.62,-160C206.207,-160 190.833,-166.167 178.5,-178.5C166.167,-190.833 160,-206.207 160,-224.62L160,-735.38C160,-753.793 166.167,-769.167 178.5,-781.5C190.833,-793.833 206.207,-800 224.62,-800L735.38,-800C753.793,-800 769.167,-793.833 781.5,-781.5C793.833,-769.167 800,-753.793 800,-735.38L800,-224.62C800,-206.207 793.833,-190.833 781.5,-178.5C769.167,-166.167 753.793,-160 735.38,-160ZM200,-735.38L200,-224.62C200,-218.46 202.563,-212.817 207.69,-207.69C212.817,-202.563 218.46,-200 224.62,-200L735.38,-200C741.54,-200 747.183,-202.563 752.31,-207.69C757.437,-212.817 760,-218.46 760,-224.62L760,-735.38C760,-741.54 757.437,-747.183 752.31,-752.31C747.183,-757.437 741.54,-760 735.38,-760L224.62,-760C218.46,-760 212.817,-757.437 207.69,-752.31C202.563,-747.183 200,-741.54 200,-735.38ZM490.572,-276.902C490.572,-271.235 488.652,-266.485 484.812,-262.652C480.972,-258.819 476.215,-256.902 470.542,-256.902C464.869,-256.902 460.122,-258.819 456.302,-262.652C452.482,-266.485 450.572,-271.235 450.572,-276.902L450.572,-676.902C450.572,-682.569 452.492,-687.319 456.332,-691.152C460.172,-694.985 464.929,-696.902 470.602,-696.902C476.275,-696.902 481.022,-694.985 484.842,-691.152C488.662,-687.319 490.572,-682.569 490.572,-676.902L490.572,-276.902ZM330.572,-276.902C330.572,-271.235 328.652,-266.485 324.812,-262.652C320.972,-258.819 316.215,-256.902 310.542,-256.902C304.869,-256.902 300.122,-258.819 296.302,-262.652C292.482,-266.485 290.572,-271.235 290.572,-276.902L290.572,-676.902C290.572,-682.569 292.492,-687.319 296.332,-691.152C300.172,-694.985 304.929,-696.902 310.602,-696.902C316.275,-696.902 321.022,-694.985 324.842,-691.152C328.662,-687.319 330.572,-682.569 330.572,-676.902L330.572,-276.902ZM650.572,-276.902C650.572,-271.235 648.652,-266.485 644.812,-262.652C640.972,-258.819 636.215,-256.902 630.542,-256.902C624.869,-256.902 620.122,-258.819 616.302,-262.652C612.482,-266.485 610.572,-271.235 610.572,-276.902L610.572,-676.902C610.572,-682.569 612.492,-687.319 616.332,-691.152C620.172,-694.985 624.929,-696.902 630.602,-696.902C636.275,-696.902 641.022,-694.985 644.842,-691.152C648.662,-687.319 650.572,-682.569 650.572,-676.902L650.572,-276.902Z"/>
    </g>
</svg>
