<?xml version="1.0" encoding="UTF-8" standalone="no"?>
<!DOCTYPE svg PUBLIC "-//W3C//DTD SVG 1.1//EN" "http://www.w3.org/Graphics/SVG/1.1/DTD/svg11.dtd">
<svg height="24px" viewBox="0 0 24 24" version="1.1" fill="#e3e3e3" xmlns="http://www.w3.org/2000/svg" xmlns:xlink="http://www.w3.org/1999/xlink" xml:space="preserve" xmlns:serif="http://www.serif.com/" style="fill-rule:evenodd;clip-rule:evenodd;stroke-linejoin:round;stroke-miterlimit:2;">
    <g transform="matrix(1,0,0,1,-1.74902,0.124033)">
        <g id="Livello2">
            <path d="M9.651,3.63C10.675,3.814 11.453,4.711 11.453,5.787C11.453,6.997 10.471,7.979 9.261,7.979C8.051,7.979 7.068,6.997 7.068,5.787C7.068,5.019 7.465,4.342 8.064,3.951L8.115,3.919C8.959,3.389 9.903,3.093 10.899,3.093C14.502,3.093 17.426,6.972 17.426,11.749C17.426,16.527 14.502,20.406 10.899,20.406C9.951,20.406 9.049,20.137 8.236,19.654C8.767,19.829 9.324,19.921 9.899,19.921C13.502,19.921 16.426,16.27 16.426,11.773C16.426,7.275 13.502,3.624 9.899,3.624C9.816,3.624 9.733,3.626 9.651,3.63ZM20.16,5.445C20.799,5.445 21.318,5.964 21.318,6.603C21.318,7.242 20.799,7.761 20.16,7.761C19.521,7.761 19.002,7.242 19.002,6.603C19.002,5.964 19.521,5.445 20.16,5.445ZM20.16,10.445C20.799,10.445 21.318,10.964 21.318,11.603C21.318,12.242 20.799,12.761 20.16,12.761C19.521,12.761 19.002,12.242 19.002,11.603C19.002,10.964 19.521,10.445 20.16,10.445Z"/>
        </g>
    </g>
</svg>
