<?xml version="1.0" encoding="UTF-8" standalone="no"?>
<svg
   width="24"
   height="24"
   viewBox="0 0 24 24"
   version="1.1"
   xml:space="preserve"
   style="fill-rule:evenodd;fill:white;clip-rule:evenodd;stroke-linejoin:round;stroke-miterlimit:2;"
   id="svg1"
   sodipodi:docname="tools-score-wizard.svg"
   xmlns:inkscape="http://www.inkscape.org/namespaces/inkscape"
   xmlns:sodipodi="http://sodipodi.sourceforge.net/DTD/sodipodi-0.dtd"
   xmlns="http://www.w3.org/2000/svg"
   xmlns:svg="http://www.w3.org/2000/svg"><defs
   id="defs1" /><sodipodi:namedview
   id="namedview1"
   pagecolor="#ffffff"
   bordercolor="#000000"
   borderopacity="0.25"
   inkscape:showpageshadow="2"
   inkscape:pageopacity="0.0"
   inkscape:pagecheckerboard="0"
   inkscape:deskcolor="#d1d1d1" />
    <g
   transform="matrix(0.025,0,0,0.025,4.48446,19.6213)"
   id="g1">
        <path
   d="M480,-397.92L414,-357.31C408.207,-353.67 402.283,-353.963 396.23,-358.19C390.177,-362.423 387.893,-368.103 389.38,-375.23L407.08,-450.69L348.31,-501.23C342.67,-506.203 341.053,-511.96 343.46,-518.5C345.873,-525.04 350.72,-528.643 358,-529.31L434.69,-536.31L465.08,-606.77C467.9,-613.23 472.873,-616.46 480,-616.46C487.127,-616.46 492.1,-613.23 494.92,-606.77L525.31,-536.31L602,-529.31C609.28,-528.643 614.127,-525.04 616.54,-518.5C618.947,-511.96 617.33,-506.203 611.69,-501.23L552.92,-450.69L570.62,-375.23C572.107,-368.103 569.823,-362.423 563.77,-358.19C557.717,-353.963 551.793,-353.67 546,-357.31L480,-397.92ZM45.242,15.148C26.828,15.148 11.455,8.982 -0.878,-3.352C-13.212,-15.685 -19.378,-31.058 -19.378,-49.472L-19.378,-560.232C-19.378,-578.645 -13.212,-594.018 -0.878,-606.352C11.455,-618.685 26.828,-624.852 45.242,-624.852L225.242,-624.852C230.908,-624.852 235.658,-622.932 239.492,-619.092C243.325,-615.252 245.242,-610.495 245.242,-604.822C245.242,-599.148 243.325,-594.402 239.492,-590.582C235.658,-586.762 230.908,-584.852 225.242,-584.852L45.242,-584.852C39.082,-584.852 33.438,-582.288 28.312,-577.162C23.185,-572.035 20.622,-566.392 20.622,-560.232L20.622,-49.472C20.622,-43.312 23.185,-37.668 28.312,-32.542C33.438,-27.415 39.082,-24.852 45.242,-24.852L556.002,-24.852C562.162,-24.852 567.805,-27.415 572.932,-32.542C578.058,-37.668 580.622,-43.312 580.622,-49.472L580.622,-229.472C580.622,-235.138 582.542,-239.888 586.382,-243.722C590.222,-247.555 594.978,-249.472 600.652,-249.472C606.325,-249.472 611.072,-247.555 614.892,-243.722C618.712,-239.888 620.622,-235.138 620.622,-229.472L620.622,-49.472C620.622,-31.058 614.455,-15.685 602.122,-3.352C589.788,8.982 574.415,15.148 556.002,15.148L45.242,15.148Z"
   id="path1" />
    </g>
</svg>
