<?xml version="1.0" encoding="UTF-8" standalone="no"?>
<svg
   width="24px"
   height="24px" fill="white"
   viewBox="0 0 24 24"
   version="1.1"
   xml:space="preserve"
   style="fill-rule:evenodd;clip-rule:evenodd;stroke-linejoin:round;stroke-miterlimit:2;"
   id="svg1"
   sodipodi:docname="tools-rest.svg"
   inkscape:version="1.4.2 (ebf0e940, 2025-05-08)"
   xmlns:inkscape="http://www.inkscape.org/namespaces/inkscape"
   xmlns:sodipodi="http://sodipodi.sourceforge.net/DTD/sodipodi-0.dtd"
   xmlns="http://www.w3.org/2000/svg"
   xmlns:svg="http://www.w3.org/2000/svg"><defs
   id="defs1" /><sodipodi:namedview
   id="namedview1"
   pagecolor="#ffffff"
   bordercolor="#000000"
   borderopacity="0.25"
   inkscape:showpageshadow="2"
   inkscape:pageopacity="0.0"
   inkscape:pagecheckerboard="0"
   inkscape:deskcolor="#d1d1d1"
   inkscape:zoom="34.666667"
   inkscape:cx="12.014423"
   inkscape:cy="11.985577"
   inkscape:window-width="976"
   inkscape:window-height="1186"
   inkscape:window-x="0"
   inkscape:window-y="25"
   inkscape:window-maximized="0"
   inkscape:current-layer="svg1" />
    <path
   d="M496.101,-484.089L620.529,-503.479C622.369,-503.669 624.217,-503.959 626.066,-504.355C652.852,-510.102 669.784,-535.838 663.852,-561.791C657.921,-587.744 631.359,-604.149 604.573,-598.402C577.787,-592.655 560.856,-566.919 566.787,-540.966C567.187,-539.216 567.681,-537.509 568.262,-535.85L475.749,-521.431C475.371,-521.372 474.999,-521.306 474.632,-521.231L416.504,-621.79L402.01,-647.053L529.526,-666.925C531.366,-667.115 533.214,-667.404 535.063,-667.801C561.849,-673.548 578.781,-699.284 572.849,-725.237C566.918,-751.19 540.356,-767.594 513.57,-761.848C486.784,-756.101 469.853,-730.365 475.784,-704.412C476.184,-702.662 476.678,-700.955 477.259,-699.295L384.746,-684.877C383.377,-684.664 382.081,-684.346 380.858,-683.923L348.485,-740.35C345.732,-745.149 341.751,-748.27 336.541,-749.714C331.332,-751.158 326.241,-750.541 321.27,-747.864C316.299,-745.186 313.062,-741.319 311.559,-736.26C310.057,-731.202 310.682,-726.273 313.435,-721.474L334.488,-684.781C334.405,-684.725 334.322,-684.669 334.239,-684.613L381.458,-602.916C381.485,-602.87 381.511,-602.823 381.538,-602.777L581.059,-257.628L606.714,-212.878C609.467,-208.079 613.449,-204.958 618.658,-203.514C623.868,-202.071 628.958,-202.687 633.93,-205.365C638.901,-208.042 642.138,-211.91 643.64,-216.968C645.143,-222.026 644.517,-226.955 641.764,-231.754L619.178,-271.161C619.208,-271.171 619.238,-271.18 619.269,-271.189L618.524,-272.301L573.749,-350.316C573.128,-351.397 572.446,-352.393 571.701,-353.304L496.101,-484.089Z"
   id="path1"
   style="fill-rule:evenodd;clip-rule:evenodd;stroke-linejoin:round;stroke-miterlimit:2"
   transform="matrix(-0.0265562,0.00588044,0.00606919,0.0274086,28.5316,22.6253)" />
</svg>
