<?xml version="1.0" encoding="UTF-8" standalone="no"?>
<!DOCTYPE svg PUBLIC "-//W3C//DTD SVG 1.1//EN" "http://www.w3.org/Graphics/SVG/1.1/DTD/svg11.dtd">
<svg width="24px" height="24px" fill="white" viewBox="0 0 24 24" version="1.1" xmlns="http://www.w3.org/2000/svg" xmlns:xlink="http://www.w3.org/1999/xlink" xml:space="preserve" xmlns:serif="http://www.serif.com/" style="fill-rule:evenodd;clip-rule:evenodd;stroke-linejoin:round;stroke-miterlimit:2;">
    <path id="path1" d="M14.936,15.643C13.616,16.799 11.889,17.5 10,17.5C5.864,17.5 2.5,14.136 2.5,10C2.5,5.864 5.864,2.5 10,2.5C14.136,2.5 17.5,5.864 17.5,10C17.5,11.889 16.799,13.616 15.643,14.936L21.354,20.646C21.547,20.84 21.547,21.16 21.354,21.354C21.16,21.547 20.84,21.547 20.646,21.354L14.936,15.643ZM10,3.5C6.404,3.5 3.5,6.404 3.5,10C3.5,13.596 6.404,16.5 10,16.5C13.596,16.5 16.5,13.596 16.5,10C16.5,6.404 13.596,3.5 10,3.5ZM7,9.5L13,9.5C13.274,9.5 13.5,9.726 13.5,10C13.5,10.274 13.274,10.5 13,10.5L7,10.5C6.726,10.5 6.5,10.274 6.5,10C6.5,9.726 6.726,9.5 7,9.5Z"/>
</svg>
