<?xml version="1.0" encoding="UTF-8" standalone="no"?>
<!DOCTYPE svg PUBLIC "-//W3C//DTD SVG 1.1//EN" "http://www.w3.org/Graphics/SVG/1.1/DTD/svg11.dtd">
<svg height="24px" viewBox="0 0 24 24" version="1.1" fill="#e3e3e3" xmlns="http://www.w3.org/2000/svg" xmlns:xlink="http://www.w3.org/1999/xlink" xml:space="preserve" xmlns:serif="http://www.serif.com/" style="fill-rule:evenodd;clip-rule:evenodd;stroke-linejoin:round;stroke-miterlimit:2;">
    <g transform="matrix(0.025,0,0,0.025,0,24)">
        <path d="M381.54,-350.77C317.593,-350.77 263.4,-372.987 218.96,-417.42C174.527,-461.86 152.31,-516.053 152.31,-580C152.31,-643.947 174.527,-698.14 218.96,-742.58C263.4,-787.013 317.593,-809.23 381.54,-809.23C445.487,-809.23 499.68,-787.013 544.12,-742.58C588.553,-698.14 610.77,-643.947 610.77,-580C610.77,-552.207 605.847,-525.31 596,-499.31C586.153,-473.31 573.23,-451.08 557.23,-432.62L793.54,-196.31C797.28,-192.563 799.28,-187.973 799.54,-182.54C799.793,-177.1 797.793,-172.253 793.54,-168C789.28,-163.747 784.56,-161.62 779.38,-161.62C774.207,-161.62 769.49,-163.747 765.23,-168L528.92,-404.31C508.92,-387.283 485.92,-374.103 459.92,-364.77C433.92,-355.437 407.793,-350.77 381.54,-350.77ZM381.54,-390.77C434.613,-390.77 479.42,-409.04 515.96,-445.58C552.5,-482.113 570.77,-526.92 570.77,-580C570.77,-633.08 552.5,-677.887 515.96,-714.42C479.42,-750.96 434.613,-769.23 381.54,-769.23C328.46,-769.23 283.653,-750.96 247.12,-714.42C210.58,-677.887 192.31,-633.08 192.31,-580C192.31,-526.92 210.58,-482.113 247.12,-445.58C283.653,-409.04 328.46,-390.77 381.54,-390.77ZM379.735,-641.957C414.16,-641.957 442.109,-614.008 442.109,-579.583C442.109,-545.158 414.16,-517.21 379.735,-517.21C345.31,-517.21 317.362,-545.158 317.362,-579.583C317.362,-614.008 345.31,-641.957 379.735,-641.957Z"/>
    </g>
</svg>
