<?xml version="1.0" encoding="UTF-8" standalone="no"?>
<!DOCTYPE svg PUBLIC "-//W3C//DTD SVG 1.1//EN" "http://www.w3.org/Graphics/SVG/1.1/DTD/svg11.dtd">
<svg width="24px" height="24px" fill="white" viewBox="0 0 24 24" version="1.1" xmlns="http://www.w3.org/2000/svg" xmlns:xlink="http://www.w3.org/1999/xlink" xml:space="preserve" xmlns:serif="http://www.serif.com/" style="fill-rule:evenodd;clip-rule:evenodd;stroke-linejoin:round;stroke-miterlimit:2;">
    <path id="path1" d="M5.383,7.076C5.756,7.231 6,7.596 6,8L6,16C6,16.549 5.549,17 5,17C4.451,17 4,16.549 4,16L4,10.414L3.707,10.707C3.319,11.095 2.681,11.095 2.293,10.707C1.905,10.319 1.905,9.681 2.293,9.293L4.293,7.293C4.578,7.008 5.01,6.922 5.383,7.076ZM20.383,7.076C20.756,7.231 21,7.596 21,8L21,16C21,16.549 20.549,17 20,17C19.451,17 19,16.549 19,16L19,10.414L18.707,10.707C18.319,11.095 17.681,11.095 17.293,10.707C16.905,10.319 16.905,9.681 17.293,9.293L19.293,7.293C19.578,7.008 20.01,6.922 20.383,7.076ZM11.843,8.383C12.641,8.383 13.296,9.035 13.296,9.834C13.296,10.632 12.641,11.287 11.843,11.287C11.044,11.287 10.391,10.632 10.391,9.834C10.391,9.035 11.044,8.383 11.843,8.383ZM11.843,13.383C12.641,13.383 13.296,14.035 13.296,14.834C13.296,15.632 12.641,16.287 11.843,16.287C11.044,16.287 10.391,15.632 10.391,14.834C10.391,14.035 11.044,13.383 11.843,13.383Z"/>
</svg>
