<?xml version="1.0" encoding="UTF-8" standalone="no"?>
<!-- Created with Inkscape (http://www.inkscape.org/) -->

<svg
   xmlns:dc="http://purl.org/dc/elements/1.1/"
   xmlns:cc="http://creativecommons.org/ns#"
   xmlns:rdf="http://www.w3.org/1999/02/22-rdf-syntax-ns#"
   xmlns:svg="http://www.w3.org/2000/svg"
   xmlns="http://www.w3.org/2000/svg"
   xmlns:xlink="http://www.w3.org/1999/xlink"
   xmlns:sodipodi="http://sodipodi.sourceforge.net/DTD/sodipodi-0.dtd"
   xmlns:inkscape="http://www.inkscape.org/namespaces/inkscape"
   width="128"
   height="128"
   id="svg1307"
   sodipodi:version="0.32"
   inkscape:version="0.47 r22583"
   version="1.0"
   sodipodi:docname="score_wizard.svg">
  <defs
     id="defs1309">
    <inkscape:perspective
       sodipodi:type="inkscape:persp3d"
       inkscape:vp_x="0 : 64 : 1"
       inkscape:vp_y="0 : 1000 : 0"
       inkscape:vp_z="128 : 64 : 1"
       inkscape:persp3d-origin="64 : 42.666667 : 1"
       id="perspective63" />
    <linearGradient
       id="linearGradient3303">
      <stop
         style="stop-color:#ffffff;stop-opacity:0.68345326;"
         offset="0"
         id="stop3305" />
      <stop
         style="stop-color:#ffffff;stop-opacity:0;"
         offset="1"
         id="stop3307" />
    </linearGradient>
    <linearGradient
       id="linearGradient3273">
      <stop
         style="stop-color:#ffffff;stop-opacity:0.55035973;"
         offset="0"
         id="stop3275" />
      <stop
         style="stop-color:#ffffff;stop-opacity:0;"
         offset="1"
         id="stop3277" />
    </linearGradient>
    <linearGradient
       id="linearGradient3259">
      <stop
         id="stop3261"
         offset="0"
         style="stop-color:#ffffff;stop-opacity:0.55035973;" />
      <stop
         id="stop3263"
         offset="1"
         style="stop-color:#000000;stop-opacity:0;" />
    </linearGradient>
    <linearGradient
       inkscape:collect="always"
       id="linearGradient3235">
      <stop
         style="stop-color:#ffffff;stop-opacity:1;"
         offset="0"
         id="stop3237" />
      <stop
         style="stop-color:#ffffff;stop-opacity:0;"
         offset="1"
         id="stop3239" />
    </linearGradient>
    <linearGradient
       id="linearGradient3225">
      <stop
         style="stop-color:#ffffff;stop-opacity:1;"
         offset="0"
         id="stop3227" />
      <stop
         style="stop-color:#aeaeae;stop-opacity:1;"
         offset="1"
         id="stop3229" />
    </linearGradient>
    <linearGradient
       id="linearGradient3207">
      <stop
         style="stop-color:#ffffff;stop-opacity:1;"
         offset="0"
         id="stop3209" />
      <stop
         style="stop-color:#252525;stop-opacity:0;"
         offset="1"
         id="stop3211" />
    </linearGradient>
    <radialGradient
       inkscape:collect="always"
       xlink:href="#linearGradient3225"
       id="radialGradient2489"
       gradientUnits="userSpaceOnUse"
       gradientTransform="matrix(0.769753,1.181802,-7.650992,7.762471,62.39291,-29.03898)"
       cx="49.009884"
       cy="8.4953122"
       fx="47.370888"
       fy="6.7701697"
       r="3.9750405" />
    <linearGradient
       inkscape:collect="always"
       xlink:href="#linearGradient3235"
       id="linearGradient2491"
       gradientUnits="userSpaceOnUse"
       gradientTransform="matrix(0.981227,0.967355,-1.189872,1.227494,77.89405,-44.83244)"
       x1="48.498562"
       y1="0.81150496"
       x2="48.732723"
       y2="2.3657269" />
    <radialGradient
       inkscape:collect="always"
       xlink:href="#linearGradient3273"
       id="radialGradient2493"
       gradientUnits="userSpaceOnUse"
       gradientTransform="matrix(0.913761,0,0,0.207981,43.52233,-82.64466)"
       cx="49.011971"
       cy="2.6743078"
       fx="49.011971"
       fy="2.6743078"
       r="1.7246193" />
    <radialGradient
       inkscape:collect="always"
       xlink:href="#linearGradient3207"
       id="radialGradient2495"
       gradientUnits="userSpaceOnUse"
       gradientTransform="matrix(3.15491,0,0,0.208011,-61.469,-82.65113)"
       cx="49.011971"
       cy="2.6743078"
       fx="49.011971"
       fy="2.6743078"
       r="1.7246193" />
    <radialGradient
       inkscape:collect="always"
       xlink:href="#linearGradient3259"
       id="radialGradient2497"
       gradientUnits="userSpaceOnUse"
       gradientTransform="matrix(0.906625,0,0,0.207981,-140.6272,-82.64466)"
       cx="49.011971"
       cy="2.6743078"
       fx="49.011971"
       fy="2.6743078"
       r="1.7246193" />
    <radialGradient
       inkscape:collect="always"
       xlink:href="#linearGradient3303"
       id="radialGradient2499"
       gradientUnits="userSpaceOnUse"
       gradientTransform="matrix(1.135556,0.00325649,-1.156204e-5,0.02608447,-4.700669,7.1547)"
       cx="34.677639"
       cy="7.4622769"
       fx="34.672806"
       fy="32.105339"
       r="47.595197" />
    <linearGradient
       inkscape:collect="always"
       xlink:href="#linearGradient3235"
       id="linearGradient2501"
       gradientUnits="userSpaceOnUse"
       gradientTransform="matrix(1.37789,1.262983e-4,0.01423919,1.378513,65.76164,-93.88427)"
       x1="48.498562"
       y1="0.81150496"
       x2="48.732723"
       y2="2.3657269" />
    <radialGradient
       inkscape:collect="always"
       xlink:href="#linearGradient3273"
       id="radialGradient2503"
       gradientUnits="userSpaceOnUse"
       gradientTransform="matrix(0.913761,0,0,0.167717,85.52731,-90.69359)"
       cx="49.011971"
       cy="2.6743078"
       fx="49.011971"
       fy="2.6743078"
       r="1.7246193" />
    <radialGradient
       inkscape:collect="always"
       xlink:href="#linearGradient3207"
       id="radialGradient2505"
       gradientUnits="userSpaceOnUse"
       gradientTransform="matrix(3.15491,0,0,0.167755,-19.14379,-90.70726)"
       cx="49.011971"
       cy="2.6743078"
       fx="49.011971"
       fy="2.6743078"
       r="1.7246193" />
    <radialGradient
       inkscape:collect="always"
       xlink:href="#linearGradient3259"
       id="radialGradient2507"
       gradientUnits="userSpaceOnUse"
       gradientTransform="matrix(0.906625,0,0,0.167717,-182.6324,-90.69359)"
       cx="49.011971"
       cy="2.6743078"
       fx="49.011971"
       fy="2.6743078"
       r="1.7246193" />
    <inkscape:perspective
       id="perspective3284"
       inkscape:persp3d-origin="0.5 : 0.33333333 : 1"
       inkscape:vp_z="1 : 0.5 : 1"
       inkscape:vp_y="0 : 1000 : 0"
       inkscape:vp_x="0 : 0.5 : 1"
       sodipodi:type="inkscape:persp3d" />
    <inkscape:perspective
       id="perspective3447"
       inkscape:persp3d-origin="0.5 : 0.33333333 : 1"
       inkscape:vp_z="1 : 0.5 : 1"
       inkscape:vp_y="0 : 1000 : 0"
       inkscape:vp_x="0 : 0.5 : 1"
       sodipodi:type="inkscape:persp3d" />
    <inkscape:perspective
       id="perspective3536"
       inkscape:persp3d-origin="0.5 : 0.33333333 : 1"
       inkscape:vp_z="1 : 0.5 : 1"
       inkscape:vp_y="0 : 1000 : 0"
       inkscape:vp_x="0 : 0.5 : 1"
       sodipodi:type="inkscape:persp3d" />
    <inkscape:perspective
       id="perspective4735"
       inkscape:persp3d-origin="0.5 : 0.33333333 : 1"
       inkscape:vp_z="1 : 0.5 : 1"
       inkscape:vp_y="0 : 1000 : 0"
       inkscape:vp_x="0 : 0.5 : 1"
       sodipodi:type="inkscape:persp3d" />
    <radialGradient
       r="86.70845"
       fy="35.736916"
       fx="33.966679"
       cy="35.736916"
       cx="33.966679"
       gradientTransform="scale(0.960493,1.041132)"
       gradientUnits="userSpaceOnUse"
       id="radialGradient15658"
       xlink:href="#linearGradient259"
       inkscape:collect="always" />
    <linearGradient
       id="linearGradient259">
      <stop
         style="stop-color:#fafafa;stop-opacity:1.0000000;"
         offset="0.0000000"
         id="stop260" />
      <stop
         style="stop-color:#bbbbbb;stop-opacity:1.0000000;"
         offset="1.0000000"
         id="stop261" />
    </linearGradient>
    <radialGradient
       r="37.751713"
       fy="3.7561285"
       fx="8.824419"
       cy="3.7561285"
       cx="8.824419"
       gradientTransform="matrix(0.968273,0,0,1.032767,3.353553,0.646447)"
       gradientUnits="userSpaceOnUse"
       id="radialGradient15656"
       xlink:href="#linearGradient269"
       inkscape:collect="always" />
    <linearGradient
       id="linearGradient269">
      <stop
         style="stop-color:#a3a3a3;stop-opacity:1.0000000;"
         offset="0.0000000"
         id="stop270" />
      <stop
         style="stop-color:#4c4c4c;stop-opacity:1.0000000;"
         offset="1.0000000"
         id="stop271" />
    </linearGradient>
    <radialGradient
       r="86.70845"
       fy="35.736916"
       fx="33.966679"
       cy="35.736916"
       cx="33.966679"
       gradientTransform="matrix(0.960493,0,0,1.041132,15.941948,39.476249)"
       gradientUnits="userSpaceOnUse"
       id="radialGradient4748"
       xlink:href="#linearGradient259"
       inkscape:collect="always" />
    <radialGradient
       r="37.751713"
       fy="3.7561285"
       fx="8.824419"
       cy="3.7561285"
       cx="8.824419"
       gradientTransform="matrix(0.968273,0,0,1.032767,19.295498,40.122696)"
       gradientUnits="userSpaceOnUse"
       id="radialGradient4750"
       xlink:href="#linearGradient269"
       inkscape:collect="always" />
    <radialGradient
       inkscape:collect="always"
       xlink:href="#linearGradient259"
       id="radialGradient4785"
       gradientUnits="userSpaceOnUse"
       gradientTransform="matrix(2.8365939,0,0,3.0747426,-13.928821,-7.393035)"
       cx="33.966679"
       cy="35.736916"
       fx="33.966679"
       fy="35.736916"
       r="86.70845" />
    <radialGradient
       inkscape:collect="always"
       xlink:href="#linearGradient269"
       id="radialGradient4787"
       gradientUnits="userSpaceOnUse"
       gradientTransform="matrix(2.8595704,0,0,3.0500385,-4.0248867,-5.4839033)"
       cx="8.824419"
       cy="3.7561285"
       fx="8.824419"
       fy="3.7561285"
       r="37.751713" />
  </defs>
  <sodipodi:namedview
     id="base"
     pagecolor="#ffffff"
     bordercolor="#666666"
     borderopacity="1.0"
     inkscape:pageopacity="0.0"
     inkscape:pageshadow="2"
     inkscape:zoom="3.82"
     inkscape:cx="64.0131"
     inkscape:cy="41.169772"
     inkscape:current-layer="layer3"
     showgrid="false"
     inkscape:document-units="px"
     inkscape:grid-bbox="true"
     guidetolerance="0.1px"
     showguides="true"
     inkscape:guide-bbox="true"
     inkscape:window-width="1106"
     inkscape:window-height="958"
     inkscape:window-x="571"
     inkscape:window-y="96"
     inkscape:window-maximized="0">
    <sodipodi:guide
       orientation="horizontal"
       position="1278.9474,-105.26316"
       id="guide2204" />
  </sodipodi:namedview>
  <metadata
     id="metadata1312">
    <rdf:RDF>
      <cc:Work
         rdf:about="">
        <dc:format>image/svg+xml</dc:format>
        <dc:type
           rdf:resource="http://purl.org/dc/dcmitype/StillImage" />
        <cc:license
           rdf:resource="http://creativecommons.org/licenses/GPL/2.0/" />
        <dc:contributor>
          <cc:Agent>
            <dc:title>Oxygen team</dc:title>
          </cc:Agent>
        </dc:contributor>
        <dc:title />
      </cc:Work>
      <cc:License
         rdf:about="http://creativecommons.org/licenses/LGPL/2.1/">
        <cc:permits
           rdf:resource="http://web.resource.org/cc/Reproduction" />
        <cc:permits
           rdf:resource="http://web.resource.org/cc/Distribution" />
        <cc:requires
           rdf:resource="http://web.resource.org/cc/Notice" />
        <cc:permits
           rdf:resource="http://web.resource.org/cc/DerivativeWorks" />
        <cc:requires
           rdf:resource="http://web.resource.org/cc/ShareAlike" />
        <cc:requires
           rdf:resource="http://web.resource.org/cc/SourceCode" />
      </cc:License>
    </rdf:RDF>
  </metadata>
  <g
     inkscape:groupmode="layer"
     id="layer3"
     inkscape:label="Layer#1">
    <rect
       ry="3.3934493"
       y="3.3759031"
       x="5.5732417"
       height="120.84921"
       width="102.99525"
       id="rect15391"
       style="color:#000000;fill:url(#radialGradient4785);fill-opacity:1;fill-rule:nonzero;stroke:url(#radialGradient4787);stroke-width:2.95326877;stroke-linecap:round;stroke-linejoin:round;stroke-miterlimit:4;stroke-opacity:1;stroke-dashoffset:0;marker:none;visibility:visible;display:block;overflow:visible" />
  </g>
  <g
     inkscape:groupmode="layer"
     id="layer2"
     inkscape:label="Layer">
    <line
       x1="17.224306"
       y1="48.873627"
       x2="99.031723"
       y2="48.873627"
       id="line3224"
       style="stroke:currentColor;stroke-width:1.25117588;stroke-linecap:round;stroke-linejoin:round" />
    <line
       x1="17.224306"
       y1="41.322777"
       x2="99.031723"
       y2="41.322777"
       id="line3226"
       style="stroke:currentColor;stroke-width:1.25117588;stroke-linecap:round;stroke-linejoin:round" />
    <line
       x1="17.224306"
       y1="33.771927"
       x2="99.031723"
       y2="33.771927"
       id="line3228"
       style="stroke:currentColor;stroke-width:1.25117588;stroke-linecap:round;stroke-linejoin:round" />
    <line
       x1="17.224306"
       y1="26.221079"
       x2="99.031723"
       y2="26.221079"
       id="line3230"
       style="stroke:currentColor;stroke-width:1.25117588;stroke-linecap:round;stroke-linejoin:round" />
    <line
       x1="17.224306"
       y1="18.670227"
       x2="99.031723"
       y2="18.670227"
       id="line3232"
       style="stroke:currentColor;stroke-width:1.25117588;stroke-linecap:round;stroke-linejoin:round" />
    <line
       x1="17.224306"
       y1="109.28043"
       x2="99.031723"
       y2="109.28043"
       id="line3234"
       style="stroke:currentColor;stroke-width:1.25117588;stroke-linecap:round;stroke-linejoin:round" />
    <line
       x1="17.224306"
       y1="101.72958"
       x2="99.031723"
       y2="101.72958"
       id="line3236"
       style="stroke:currentColor;stroke-width:1.25117588;stroke-linecap:round;stroke-linejoin:round" />
    <line
       x1="17.224306"
       y1="94.178726"
       x2="99.031723"
       y2="94.178726"
       id="line3238"
       style="stroke:currentColor;stroke-width:1.25117588;stroke-linecap:round;stroke-linejoin:round" />
    <line
       x1="17.224306"
       y1="86.627876"
       x2="99.031723"
       y2="86.627876"
       id="line3240"
       style="stroke:currentColor;stroke-width:1.25117588;stroke-linecap:round;stroke-linejoin:round" />
    <line
       x1="17.224306"
       y1="79.077026"
       x2="99.031723"
       y2="79.077026"
       id="line3242"
       style="stroke:currentColor;stroke-width:1.25117588;stroke-linecap:round;stroke-linejoin:round" />
    <rect
       x="15.351695"
       y="18.044262"
       width="2.0017304"
       height="91.861374"
       ry="0.62596548"
       id="rect3250"
       style="fill:currentColor" />
    <path
       style="fill:currentColor"
       d="m 35.201342,49.691802 c -5.82066,0 -10.310005,-5.325292 -10.310005,-11.579415 0,-5.603941 4.086843,-9.721754 7.771209,-13.994372 -0.681144,-2.167271 -1.238442,-4.396463 -1.517085,-6.656616 -0.18577,-1.702856 -0.247694,-3.374749 -0.247694,-5.108567 0,-3.6843575 1.702856,-7.1210295 4.644154,-9.3502205 0.09285,-0.06192 0.216719,-0.123847 0.309604,-0.123847 0.123797,0 0.216732,0.03096 0.309617,0.123847 2.383988,2.755529 4.489345,8.1427425 4.489345,11.8890235 0,4.61319 -2.786489,8.204666 -5.820672,11.73422 0.712106,2.260154 1.362289,4.551267 1.950548,6.842383 0.03095,0 0.0619,-0.03096 0.09285,-0.03096 4.798962,0 7.926018,3.963009 7.926018,8.080822 0,2.353036 -1.021711,4.767994 -3.312826,6.50181 -0.774017,0.58826 -1.640932,0.959791 -2.569758,1.20748 l 0,0.990751 c 0,1.486129 -0.03095,3.003218 -0.123797,4.489345 -0.216732,3.777243 -2.941298,7.05911 -6.687575,7.05911 -3.467634,0 -6.254124,-2.848412 -6.254124,-6.347006 0,-1.795738 1.640932,-3.219944 3.467635,-3.219944 1.671893,0 2.941285,1.486127 2.941285,3.219944 0,1.609972 -1.331315,2.941295 -2.941285,2.941295 -0.371541,0 -0.712107,-0.09288 -1.052685,-0.247688 0.804991,1.393245 2.260153,2.322076 3.932047,2.322076 3.034183,0 5.108566,-2.817451 5.294336,-5.913552 0.09285,-1.424206 0.123797,-2.879373 0.123797,-4.30358 l 0,-0.712102 c -0.804979,0.123847 -1.579008,0.185765 -2.414962,0.185765 z m 3.684366,-1.764776 c 2.229192,-0.712104 3.746277,-2.941296 3.746277,-5.170488 0,-2.724568 -1.950536,-5.449137 -5.077604,-5.913551 0.712106,3.374749 1.207481,7.306796 1.331327,11.084039 z m -3.591481,0.433453 c 0.77403,0 1.548047,-0.03096 2.291115,-0.123846 -0.123797,-3.901086 -0.650183,-7.987939 -1.393238,-11.455571 -2.662655,0.154805 -4.179741,1.888621 -4.179741,3.777243 0,1.362283 0.804992,2.848411 2.538809,3.839163 0.154796,0.154806 0.216719,0.309611 0.216719,0.464415 0,0.340571 -0.309604,0.681142 -0.681144,0.681142 -0.09285,0 -0.185758,-0.03096 -0.278643,-0.06192 -2.476885,-1.331323 -3.622443,-3.560516 -3.622443,-5.727785 0,-2.817451 1.919587,-5.54202 5.263375,-6.16124 -0.495375,-1.950543 -1.052673,-3.870125 -1.640932,-5.789707 -3.374749,3.870126 -6.749499,7.740251 -6.749499,12.848816 0,4.210696 4.024933,7.70929 8.235622,7.70929 z M 37.399585,7.4300345 c -3.096107,1.640933 -5.046656,4.8608775 -5.046656,8.3594705 0,2.693607 0.681145,4.891838 1.331328,7.12103 2.60072,-3.158022 4.798962,-6.470849 4.798962,-10.557703 0,-2.167269 -0.216732,-3.0341775 -1.083634,-4.9227975 z"
       id="path3429" />
  </g>
  <g
     id="layer1"
     inkscape:label="Layer 1"
     inkscape:groupmode="layer">
    <path
       sodipodi:nodetypes="ccc"
       id="path2276"
       d="M 50.892799,3.2812959 L 50.892799,0.48658747 L 50.892799,3.2812959 z "
       style="fill:#ffffff;fill-opacity:0.75688076;fill-rule:nonzero;stroke:none;stroke-width:0.5;stroke-linecap:round;stroke-linejoin:round;stroke-miterlimit:4;stroke-dasharray:none;stroke-dashoffset:4;stroke-opacity:1" />
    <g
       id="g2473"
       transform="matrix(1.011666,0,0,1.011666,-2.5300134,10.942653)">
      <path
         sodipodi:nodetypes="czccccc"
         id="path3180"
         d="m 118.78907,2.0588973 c 0.53184,-0.547895 3.35709,-0.6241909 5.87615,1.8593065 2.54375,2.5078422 2.63975,5.1933474 1.97354,5.8796153 -0.43361,0.4467089 -95.970314,97.3822009 -96.403928,97.8288909 -2.61659,-2.57964 -5.233159,-5.15926 -7.849735,-7.738898 0.433619,-0.446703 95.970333,-97.3821918 96.403973,-97.8289147 0,0 0,0 0,0"
         style="fill:#000000;fill-opacity:1;fill-rule:evenodd;stroke:none" />
      <path
         style="fill:url(#radialGradient2489);fill-opacity:1;fill-rule:nonzero;stroke:none"
         d="M 42.529815,79.422833 C 41.154594,80.330809 30.189224,91.548774 29.382098,92.806737 l 6.297737,6.180851 13.147692,-13.383895 -6.297712,-6.18086 z m 5.636697,5.524761 -13.147697,13.383884 2.203352,2.187022 C 38.416108,99.757068 49.437991,88.600492 50.36985,87.134608 l -2.203338,-2.187014 z"
         id="path2274"
         sodipodi:nodetypes="cccccccccc" />
      <path
         sodipodi:nodetypes="cszsss"
         id="path3233"
         d="m 123.84698,3.3831922 c 1.66285,1.3566771 2.70525,3.3114393 2.75025,3.5027664 0.045,0.1913336 -1.44629,-1.9742288 -2.84619,-2.9189915 -1.38919,-0.9375217 -3.54078,-0.82251 -3.68139,-0.9385225 -0.14059,-0.1160052 -1.04625,-1.2064534 -0.0754,-1.2275181 1.0155,-0.022039 2.56815,0.5354505 3.8527,1.5822657 z"
         style="fill:url(#linearGradient2491);fill-opacity:1;fill-rule:evenodd;stroke:none" />
      <rect
         transform="matrix(0.712123,0.702055,-0.696017,0.718025,0,0)"
         style="fill:url(#radialGradient2493);fill-opacity:1;fill-rule:nonzero;stroke:none"
         id="rect3245"
         width="3.1517863"
         height="1.2907414"
         x="86.731697"
         y="-82.606361" />
      <rect
         transform="matrix(0.712168,0.702009,-0.688266,0.725459,0,0)"
         y="-82.612938"
         x="87.71843"
         height="1.2909347"
         width="10.88204"
         id="rect3205"
         style="fill:url(#radialGradient2495);fill-opacity:1;fill-rule:nonzero;stroke:none" />
      <rect
         transform="matrix(-0.712123,-0.702055,-0.696017,0.718025,0,0)"
         y="-82.606361"
         x="-97.754829"
         height="1.2907414"
         width="3.1271715"
         id="rect3267"
         style="fill:url(#radialGradient2497);fill-opacity:1;fill-rule:nonzero;stroke:none" />
      <path
         id="text3284"
         d="m 39.4289,97.1653 c -0.05449,0.05527 -0.08604,0.108899 -0.09468,0.160888 -0.0086,0.052 0.0065,0.09754 0.0453,0.13663 0.03867,0.03893 0.08372,0.05393 0.135138,0.045 0.05142,-0.0089 0.104373,-0.04102 0.158857,-0.09629 0.0548,-0.05558 0.08651,-0.10937 0.09515,-0.161365 0.0086,-0.052 -0.0064,-0.09745 -0.04506,-0.136379 -0.03884,-0.03909 -0.08396,-0.05417 -0.135385,-0.04525 -0.05142,0.0089 -0.104526,0.04118 -0.159321,0.09676 m -0.06887,-0.06933 c 0.111446,-0.113044 0.215692,-0.184537 0.312744,-0.214473 0.09705,-0.02994 0.175443,-0.01484 0.235176,0.04529 0.05957,0.05996 0.07473,0.139035 0.04548,0.237216 -0.02925,0.09818 -0.0996,0.203796 -0.211049,0.316844 -0.111135,0.112729 -0.215381,0.184222 -0.312744,0.214475 -0.09705,0.02993 -0.175359,0.01492 -0.234931,-0.04504 -0.05973,-0.06013 -0.07497,-0.139284 -0.04572,-0.237463 0.02956,-0.0985 0.09991,-0.20411 0.211047,-0.316846 m 1.031296,-0.667986 0.428626,-0.05466 -0.186208,0.188884 -0.287944,0.03767 -0.03478,0.289695 -0.187133,0.189821 0.05244,-0.433319 -0.411684,0.05294 0.18667,-0.189353 0.270571,-0.03451 0.03265,-0.273067 0.1876,-0.190294 -0.05081,0.416197 m 0.07031,-0.435981 0.195492,-0.198301 0.289196,-0.02797 0.02656,-0.292333 0.195956,-0.198771 -0.05095,0.482687 0.155263,0.156284 -0.178779,0.181349 -0.15526,-0.15629 -0.477483,0.05334 m 1.748121,-1.083825 c -0.03306,0.05681 -0.0707,0.112452 -0.112926,0.166922 -0.04222,0.05447 -0.08888,0.107615 -0.139954,0.159425 -0.11547,0.11713 -0.22406,0.192692 -0.325775,0.226696 -0.101877,0.03384 -0.182191,0.02119 -0.240939,-0.03795 -0.05941,-0.0598 -0.07178,-0.141698 -0.03712,-0.245695 0.03466,-0.104004 0.11174,-0.216606 0.231231,-0.337817 0.04613,-0.04679 0.09255,-0.08922 0.139254,-0.127286 0.04702,-0.03838 0.09378,-0.07201 0.140289,-0.100905 l 0.07627,0.07678 c -0.05038,0.02749 -0.09764,0.05781 -0.14179,0.09095 -0.04384,0.03282 -0.08495,0.06871 -0.123335,0.107648 -0.0712,0.07222 -0.115533,0.138644 -0.133003,0.199263 -0.01732,0.06014 -0.0063,0.110011 0.03301,0.149595 0.039,0.03926 0.08769,0.05073 0.146067,0.03442 0.05837,-0.01631 0.121768,-0.05917 0.190185,-0.128569 0.01857,-0.01884 0.03518,-0.03684 0.04981,-0.05402 0.01478,-0.01765 0.0272,-0.03424 0.03726,-0.04977 l -0.07158,-0.07206 -0.109125,0.110694 -0.06368,-0.0641 0.278612,-0.282614 0.17723,0.178399 m -0.184179,-0.502587 0.482463,-0.489396 0.07183,0.0723 -0.303687,0.308052 0.06862,0.06907 0.285578,-0.289681 0.07183,0.0723 -0.285578,0.289681 0.08442,0.08498 0.313903,-0.318412 0.07183,0.0723 -0.492681,0.49976 -0.368527,-0.370961 m 0.650096,-0.659438 0.199671,-0.202541 0.504906,-0.0013 -0.252761,-0.254428 0.169488,-0.171924 0.368529,0.370961 -0.199673,0.202542 -0.504906,0.0013 0.252762,0.254432 -0.169489,0.171922 -0.368527,-0.37096 m 1.125593,-1.141765 0.199671,-0.202539 0.504905,-0.0013 -0.252761,-0.254426 0.169489,-0.171926 0.368528,0.37096 -0.199671,0.202542 -0.504908,0.0013 0.252763,0.254432 -0.169489,0.171923 -0.368527,-0.37096 m 0.969405,-0.996805 c 0.06594,-0.06688 0.127078,-0.110447 0.183422,-0.130686 0.05665,-0.02055 0.100611,-0.01509 0.131878,0.01638 0.03126,0.03147 0.03691,0.07563 0.01693,0.132475 -0.01997,0.05685 -0.06309,0.118869 -0.129334,0.186068 -0.06625,0.0672 -0.127616,0.111159 -0.184105,0.131875 -0.05618,0.0204 -0.0999,0.01487 -0.131166,-0.0166 -0.03127,-0.03147 -0.03699,-0.07571 -0.01718,-0.132726 0.02012,-0.05732 0.06331,-0.119583 0.129552,-0.186785 m 0.04244,0.429361 0.382163,-0.387653 0.04937,0.04969 -0.382163,0.387655 -0.04937,-0.04969 m -4.81e-4,-0.387122 c -0.026,0.02638 -0.04094,0.05201 -0.04481,0.07689 -0.0036,0.02457 0.0042,0.04646 0.02329,0.06567 0.01909,0.01922 0.0407,0.02689 0.06483,0.02303 0.02444,-0.0042 0.04967,-0.01945 0.07567,-0.04583 0.0257,-0.02606 0.04041,-0.05129 0.04414,-0.07569 0.004,-0.02472 -0.0035,-0.04668 -0.02258,-0.06589 -0.01909,-0.01921 -0.04094,-0.02682 -0.06555,-0.02281 -0.0243,0.0037 -0.04929,0.01858 -0.07499,0.04464 m 1.174679,-0.919683 c 0.05316,-0.04095 0.0998,-0.06564 0.139906,-0.07407 0.04025,-0.0089 0.07264,-0.001 0.09716,0.02367 0.03653,0.03677 0.03803,0.09146 0.0045,0.164054 -0.0337,0.07243 -0.101015,0.159833 -0.201934,0.262202 -0.0356,0.03611 -0.07292,0.07081 -0.111956,0.104087 -0.03856,0.03313 -0.07838,0.06437 -0.119445,0.09373 l -0.07331,-0.0738 c 0.04232,-0.02497 0.08219,-0.05178 0.119613,-0.08042 0.03757,-0.02913 0.07229,-0.05986 0.104179,-0.0922 0.04736,-0.04805 0.07922,-0.08917 0.09558,-0.123389 0.01666,-0.03453 0.01685,-0.05999 5.55e-4,-0.07639 -0.01678,-0.01689 -0.04246,-0.01646 -0.07702,0.0013 -0.03442,0.01729 -0.07685,0.05152 -0.127313,0.102705 l -0.07151,0.07254 -0.06121,-0.06162 0.07522,-0.07631 c 0.04489,-0.04553 0.07462,-0.08317 0.08919,-0.112923 0.01441,-0.02991 0.01396,-0.05257 -0.0013,-0.06798 -0.01416,-0.01425 -0.03578,-0.01443 -0.06487,-5.47e-4 -0.02909,0.01388 -0.06314,0.04061 -0.10215,0.08017 -0.02879,0.02921 -0.05616,0.06046 -0.08212,0.09377 -0.02595,0.03331 -0.05011,0.06812 -0.07246,0.104429 l -0.06961,-0.07007 c 0.03002,-0.0411 0.06106,-0.08056 0.09309,-0.118379 0.03204,-0.03782 0.06478,-0.07368 0.09821,-0.107601 0.09009,-0.09137 0.165313,-0.151727 0.22569,-0.181043 0.06052,-0.02979 0.106578,-0.02879 0.138173,0.003 0.02156,0.0217 0.02857,0.05034 0.02103,0.08592 -0.0077,0.03541 -0.02965,0.07713 -0.06585,0.125157"
         style="font-size:12px;font-style:normal;font-variant:normal;font-weight:bold;font-stretch:normal;text-align:start;line-height:125%;writing-mode:lr-tb;text-anchor:start;fill:#999999;fill-opacity:1;stroke:none;font-family:Bitstream Vera Sans" />
      <path
         transform="matrix(1.032406,-1.036404,-1.861463,-1.9626,52.02282,103.6246)"
         d="m 82.172836,7.4622769 c 0,0.6303168 -21.264324,1.1412895 -47.495197,1.1412895 -26.2308731,0 -47.495197,-0.5109727 -47.495197,-1.1412895 0,-0.6303167 21.2643239,-1.1412894 47.495197,-1.1412894 26.230873,0 47.495197,0.5109727 47.495197,1.1412894 z"
         sodipodi:ry="1.1412895"
         sodipodi:rx="47.495197"
         sodipodi:cy="7.4622769"
         sodipodi:cx="34.677639"
         id="path3301"
         style="fill:url(#radialGradient2499);fill-opacity:1;fill-rule:nonzero;stroke:none"
         sodipodi:type="arc" />
      <g
         transform="matrix(0.712202,0.701974,0.870513,-0.883197,9.637176,-69.26202)"
         id="g1463">
        <path
           sodipodi:nodetypes="czccccc"
           id="path1453"
           d="m 127.80368,-90.294455 c -0.006,-0.563594 1.95277,-2.067585 5.4902,-2.067265 3.5721,3.32e-4 5.52563,1.362339 5.5329,2.068292 0.005,0.459498 0.01,-0.08101 0.0143,0.378492 -3.67438,-3.28e-4 -7.34874,-6.64e-4 -11.02311,-9.99e-4 -0.005,-0.459504 -0.01,0.081 -0.0143,-0.37852 0,0 0,0 0,0"
           style="fill:#000000;fill-opacity:1;fill-rule:evenodd;stroke:none" />
        <path
           sodipodi:nodetypes="cszsss"
           id="path1455"
           d="m 132.33556,-92.205799 c 2.13664,-0.162122 4.25123,0.370455 4.41759,0.454862 0.16635,0.08442 -2.41591,-0.315135 -4.07612,-0.06529 -1.6475,0.247939 -3.09913,1.531941 -3.28071,1.544898 -0.18157,0.01297 -1.59205,-0.100623 -0.91537,-0.662315 0.70777,-0.587493 2.20492,-1.146223 3.85461,-1.272157 z"
           style="fill:url(#linearGradient2501);fill-opacity:1;fill-rule:evenodd;stroke:none" />
        <rect
           transform="matrix(1,9.166562e-5,0.01032906,0.999947,0,0)"
           style="fill:url(#radialGradient2503);fill-opacity:1;fill-rule:nonzero;stroke:none"
           id="rect1457"
           width="3.1517863"
           height="1.0408629"
           x="128.73668"
           y="-90.662788" />
        <rect
           transform="matrix(1,4.00345e-5,0.02364474,0.99972,0,0)"
           y="-90.676453"
           x="130.04366"
           height="1.0410988"
           width="10.882042"
           id="rect1459"
           style="fill:url(#radialGradient2505);fill-opacity:1;fill-rule:nonzero;stroke:none" />
        <rect
           transform="matrix(-1,-9.166562e-5,0.01032906,0.999947,0,0)"
           y="-90.662788"
           x="-139.75981"
           height="1.0408629"
           width="3.1271715"
           id="rect1461"
           style="fill:url(#radialGradient2507);fill-opacity:1;fill-rule:nonzero;stroke:none" />
      </g>
    </g>
    <g
       id="g2466"
       transform="translate(0.52356021,7.3298429)">
      <path
         transform="matrix(0.223351,-0.123676,0.123676,0.223351,54.16559,94.80329)"
         d="m -43.86199,91.807774 c -5.746548,-2.915528 0.576848,-17.216398 -2.358502,-22.952846 -2.935351,-5.736449 -18.233065,-8.973759 -17.236014,-15.34 0.997051,-6.36624 16.552023,-4.771544 21.100637,-9.335889 4.548613,-4.564344 2.900225,-20.113718 9.262985,-21.132743 6.36276,-1.019024 9.652865,14.267421 15.399413,17.18295 5.746549,2.915528 20.0255027,-3.457203 22.9608536,2.279245 2.9353508,5.736449 -10.5862245,13.589296 -11.5832757,19.955536 -0.9970512,6.36624 9.4762156,17.97705 4.9276022,22.541395 -4.5486132,4.564344 -16.1955121,-5.868775 -22.5582711,-4.84975 -6.36276,1.019024 -14.168879,14.56763 -19.915428,11.652102 z"
         inkscape:randomized="0"
         inkscape:rounded="0.27927222"
         inkscape:flatsided="false"
         sodipodi:arg2="2.6686275"
         sodipodi:arg1="2.040309"
         sodipodi:r2="21.246437"
         sodipodi:r1="36.590714"
         sodipodi:cy="59.176582"
         sodipodi:cx="-27.306458"
         sodipodi:sides="5"
         id="path1583"
         style="fill:#c99300;fill-opacity:1;fill-rule:nonzero;stroke:none"
         sodipodi:type="star" />
      <path
         d="m 10.588219,92.891701 c -0.9813944,-1.226743 1.864575,-3.763067 1.791672,-5.332372 -0.0729,-1.569305 -3.1417619,-3.830851 -2.278328,-5.143297 0.863434,-1.312446 4.155075,0.610465 5.625044,0.05619 1.469969,-0.554277 2.672499,-4.171791 4.187524,-3.756185 1.515026,0.415607 0.703403,4.140356 1.684797,5.367098 0.981394,1.226743 4.793456,1.252543 4.86636,2.821848 0.0729,1.569304 -3.720349,1.948415 -4.583783,3.26086 -0.863434,1.312446 0.290021,4.945906 -1.179948,5.500183 -1.469969,0.554277 -3.002705,-2.936169 -4.51773,-3.351775 -1.515026,-0.415607 -4.614214,1.804194 -5.595608,0.577452 z"
         inkscape:randomized="0"
         inkscape:rounded="0.27927222"
         inkscape:flatsided="false"
         sodipodi:arg2="3.0951702"
         sodipodi:arg1="2.4668517"
         sodipodi:r2="5.179841"
         sodipodi:r1="8.9207468"
         sodipodi:cy="87.318954"
         sodipodi:cx="17.554152"
         sodipodi:sides="5"
         id="path2458"
         style="fill:#c99300;fill-opacity:1;fill-rule:nonzero;stroke:none"
         sodipodi:type="star" />
      <path
         d="m 28.699643,66.421154 c -0.981394,1.079533 -3.723873,-1.159259 -5.152371,-0.862747 -1.428499,0.296512 -3.053401,3.441837 -4.383366,2.84207 -1.329965,-0.599767 -0.04822,-3.899844 -0.771649,-5.166799 -0.72343,-1.266956 -4.216935,-1.840371 -4.057504,-3.290581 0.15943,-1.45021 3.694072,-1.250977 4.675466,-2.33051 0.981394,-1.079534 0.447192,-4.57925 1.87569,-4.875762 1.428498,-0.296512 2.331281,3.126699 3.661246,3.726466 1.329964,0.599767 4.493315,-0.989762 5.216744,0.277194 0.72343,1.266955 -2.253261,3.183382 -2.412691,4.633592 -0.159431,1.45021 2.329829,3.967544 1.348435,5.047077 z"
         inkscape:randomized="0"
         inkscape:rounded="0.27927222"
         inkscape:flatsided="false"
         sodipodi:arg2="1.3661336"
         sodipodi:arg1="0.73781506"
         sodipodi:r2="4.8103938"
         sodipodi:r1="8.284483"
         sodipodi:cy="60.848408"
         sodipodi:cx="22.569622"
         sodipodi:sides="5"
         id="path2460"
         style="fill:#c99300;fill-opacity:1;fill-rule:nonzero;stroke:none"
         sodipodi:type="star" />
      <path
         d="m 40.123774,40.507884 c 0.147209,0.736045 -1.617347,1.187712 -1.930889,1.869713 -0.313542,0.682 0.492414,2.315431 -0.162117,2.682885 -0.65453,0.367455 -1.629369,-1.171165 -2.37488,-1.258611 -0.745511,-0.08745 -2.049941,1.183821 -2.601672,0.674875 -0.551732,-0.508946 0.610341,-1.911532 0.463132,-2.647577 -0.147209,-0.736046 -1.759348,-1.583789 -1.445806,-2.26579 0.313542,-0.682001 2.006581,-0.01023 2.661112,-0.377681 0.654531,-0.367455 0.962604,-2.162657 1.708115,-2.075211 0.745511,0.08745 0.629794,1.905212 1.181525,2.414158 0.551732,0.508946 2.354271,0.247193 2.50148,0.983239 z"
         inkscape:randomized="0"
         inkscape:rounded="0.27927222"
         inkscape:flatsided="false"
         sodipodi:arg2="0.43092297"
         sodipodi:arg1="-0.19739556"
         sodipodi:r2="2.4749272"
         sodipodi:r1="4.2623315"
         sodipodi:cy="41.343796"
         sodipodi:cx="35.944214"
         sodipodi:sides="5"
         id="path2462"
         style="fill:#c99300;fill-opacity:1;fill-rule:nonzero;stroke:none"
         sodipodi:type="star"
         transform="translate(10.994764,9.947644)" />
      <path
         d="M 7.8018446,39.950608 C 7.2620779,40.441305 6.0034111,39.196675 5.2783062,39.27639 4.5532013,39.356105 3.5949876,40.844451 2.9615099,40.482736 2.3280323,40.121021 3.1227963,38.539346 2.8229128,37.874364 2.5230293,37.209381 0.8114243,36.75799 0.95968028,36.043741 1.1079363,35.329492 2.8577942,35.596593 3.3975609,35.105896 c 0.5397668,-0.490697 0.4401504,-2.258018 1.1652553,-2.337733 0.7251049,-0.07972 1.0118125,1.667037 1.6452902,2.028752 0.6334777,0.361715 2.2835164,-0.279158 2.5833999,0.385824 0.2998835,0.664983 -1.2727794,1.477434 -1.4210354,2.191683 -0.148256,0.714249 0.9711404,2.085489 0.4313737,2.576186 z"
         inkscape:randomized="0"
         inkscape:rounded="0.27927222"
         inkscape:flatsided="false"
         sodipodi:arg2="1.4612998"
         sodipodi:arg1="0.83298127"
         sodipodi:r2="2.4051969"
         sodipodi:r1="4.1422415"
         sodipodi:cy="36.885597"
         sodipodi:cx="5.0154715"
         sodipodi:sides="5"
         id="path2464"
         style="fill:#c98400;fill-opacity:1;fill-rule:nonzero;stroke:none"
         sodipodi:type="star"
         transform="translate(73.298429,45.549738)" />
    </g>
    <g
       id="g3553"
       transform="matrix(1.1425034,0,0,1.1425034,203.38373,-38.946991)">
      <rect
         id="rect3516"
         ry="0.13503765"
         height="13.766372"
         width="0.80898124"
         y="45.516521"
         x="-115.56184"
         style="fill:currentColor" />
      <path
         id="path3518"
         d="m -117.4673,57.016503 c 1.39394,0 2.7132,0.72186 2.7132,2.265147 0,1.792205 -1.39394,3.0119 -2.56385,3.708868 -0.8961,0.522726 -1.89177,0.896102 -2.91233,0.896102 -1.39394,0 -2.7132,-0.72186 -2.7132,-2.265147 0,-1.792205 1.39394,-3.011899 2.56385,-3.708868 0.8961,-0.522726 1.89177,-0.896102 2.91233,-0.896102 z"
         style="fill:currentColor" />
    </g>
  </g>
</svg>
