<?xml version="1.0" encoding="UTF-8" standalone="no"?>
<svg
   xmlns:osb="http://www.openswatchbook.org/uri/2009/osb"
   xmlns:dc="http://purl.org/dc/elements/1.1/"
   xmlns:cc="http://creativecommons.org/ns#"
   xmlns:rdf="http://www.w3.org/1999/02/22-rdf-syntax-ns#"
   xmlns:svg="http://www.w3.org/2000/svg"
   xmlns="http://www.w3.org/2000/svg"
   xmlns:xlink="http://www.w3.org/1999/xlink"
   xmlns:sodipodi="http://sodipodi.sourceforge.net/DTD/sodipodi-0.dtd"
   xmlns:inkscape="http://www.inkscape.org/namespaces/inkscape"
   version="1.2"
   width="14.06mm"
   height="14.06mm"
   viewBox="0 0 8.0000 8.0000"
   id="svg2"
   inkscape:version="0.48.0 r9654"
   sodipodi:docname="tools_pitch.svg">
  <metadata
     id="metadata20">
    <rdf:RDF>
      <cc:Work
         rdf:about="">
        <dc:format>image/svg+xml</dc:format>
        <dc:type
           rdf:resource="http://purl.org/dc/dcmitype/StillImage" />
        <dc:title />
      </cc:Work>
    </rdf:RDF>
  </metadata>
  <defs
     id="defs18">
    <linearGradient
       id="linearGradient3814">
      <stop
         style="stop-color:#004cf9;stop-opacity:1;"
         offset="0"
         id="stop3816" />
      <stop
         style="stop-color:#2265ff;stop-opacity:1;"
         offset="1"
         id="stop3818" />
    </linearGradient>
    <linearGradient
       id="linearGradient3808"
       osb:paint="gradient">
      <stop
         id="stop3810"
         offset="0"
         style="stop-color:#4a8081;stop-opacity:1;" />
      <stop
         style="stop-color:#ffffff;stop-opacity:1;"
         offset="1"
         id="stop3812" />
    </linearGradient>
    <linearGradient
       id="linearGradient3798"
       osb:paint="gradient">
      <stop
         style="stop-color:#4a8081;stop-opacity:1;"
         offset="0"
         id="stop3804" />
      <stop
         id="stop3802"
         offset="1"
         style="stop-color:#ffffff;stop-opacity:1;" />
    </linearGradient>
    <linearGradient
       id="linearGradient3784"
       osb:paint="solid">
      <stop
         style="stop-color:#000000;stop-opacity:1;"
         offset="0"
         id="stop3786" />
    </linearGradient>
    <linearGradient
       inkscape:collect="always"
       xlink:href="#linearGradient3798"
       id="linearGradient3828"
       x1="4.2404366"
       y1="8.1821833"
       x2="3.7730191"
       y2="-0.48690748"
       gradientUnits="userSpaceOnUse" />
    <linearGradient
       inkscape:collect="always"
       xlink:href="#linearGradient3814-4"
       id="linearGradient3820-2"
       x1="4.2404366"
       y1="8.1821833"
       x2="3.7730191"
       y2="-0.48690748"
       gradientUnits="userSpaceOnUse" />
    <linearGradient
       id="linearGradient3814-4">
      <stop
         style="stop-color:#004cf9;stop-opacity:1;"
         offset="0"
         id="stop3816-7" />
      <stop
         style="stop-color:#2265ff;stop-opacity:1;"
         offset="1"
         id="stop3818-7" />
    </linearGradient>
  </defs>
  <sodipodi:namedview
     pagecolor="#ffffff"
     bordercolor="#666666"
     borderopacity="1"
     objecttolerance="10"
     gridtolerance="10"
     guidetolerance="10"
     inkscape:pageopacity="0"
     inkscape:pageshadow="2"
     inkscape:window-width="1024"
     inkscape:window-height="724"
     id="namedview16"
     showgrid="false"
     inkscape:zoom="5.5199937"
     inkscape:cx="-1.8115967"
     inkscape:cy="24.909449"
     inkscape:window-x="-3"
     inkscape:window-y="-3"
     inkscape:window-maximized="1"
     inkscape:current-layer="svg2" />
  <!-- Page: 1/1 -->
  <path
     style="fill:currentColor"
     inkscape:connector-curvature="0"
     d="m 6.595049,4.1018173 c 0,-0.2704877 0.2221851,-0.4926737 0.4926738,-0.4926737 0.2704877,0 0.4926736,0.2221852 0.4926736,0.4926737 0,0.2704876 -0.2221851,0.4926738 -0.4926736,0.4926738 -0.2704874,0 -0.4926738,-0.2221851 -0.4926738,-0.4926738 z m 0,-2.4150677 c 0,-0.2704874 0.2221851,-0.4926737 0.4926738,-0.4926737 0.2704877,0 0.4926736,0.2221862 0.4926736,0.4926737 0,0.2704878 -0.2221851,0.4926738 -0.4926736,0.4926738 -0.2704874,0 -0.4926738,-0.2221851 -0.4926738,-0.4926738 z M 3.4554609,0.35363237 c 1.6615668,0 2.8304595,0.85010373 2.8304595,2.42472793 0,2.5406511 -2.5406511,3.9993518 -4.9846997,5.0330007 -0.028982,0.028982 -0.057961,0.038643 -0.086943,0.038643 -0.067622,-1.3e-6 -0.1255834,-0.057964 -0.1255834,-0.1255859 0,-0.028982 0.00966,-0.057961 0.038641,-0.086943 1.9513744,-1.1399117 3.9800313,-2.5599712 3.9800313,-4.7625129 0,-1.1592324 -0.6085968,-2.27016363 -1.6519063,-2.27016363 -0.7148598,0 -1.2461749,0.52165453 -1.4876816,1.21719403 0.1062631,-0.048302 0.2125261,-0.077281 0.3284492,-0.077281 0.531315,0 0.9660271,0.4347123 0.9660271,0.966027 0,0.5602958 -0.425052,1.0239886 -0.9660271,1.0239886 -0.5796161,0 -1.0819504,-0.4540327 -1.0819504,-1.0239886 0,-1.284816 0.9853477,-2.35710597 2.2411828,-2.35710597 z"
     id="path3038-3" />
  <path
     style="fill:#001ced;fill-opacity:1"
     inkscape:connector-curvature="0"
     d="m 6.2861449,4.087272 c 0,-0.2704877 0.2221852,-0.4926738 0.4926739,-0.4926738 0.2704877,0 0.4926735,0.2221852 0.4926735,0.4926738 0,0.2704875 -0.2221851,0.4926738 -0.4926735,0.4926738 -0.2704875,0 -0.4926739,-0.2221851 -0.4926739,-0.4926738 z m 0,-2.4150677 c 0,-0.2704875 0.2221852,-0.4926737 0.4926739,-0.4926737 0.2704877,0 0.4926735,0.2221861 0.4926735,0.4926737 0,0.2704877 -0.2221851,0.4926738 -0.4926735,0.4926738 -0.2704875,0 -0.4926739,-0.2221852 -0.4926739,-0.4926738 z M 3.146557,0.33908706 c 1.6615667,0 2.8304593,0.85010374 2.8304593,2.42472794 0,2.540651 -2.540651,3.9993518 -4.98469954,5.0330006 -0.0289817,0.028982 -0.057961,0.038643 -0.0869427,0.038643 -0.0676224,-1.2e-6 -0.12558344,-0.057964 -0.12558344,-0.1255859 0,-0.028982 0.009661,-0.057961 0.0386407,-0.086943 C 2.7698058,6.483018 4.7984626,5.0629585 4.7984626,2.8604167 c 0,-1.1592324 -0.6085969,-2.27016358 -1.6519063,-2.27016358 -0.7148599,0 -1.2461749,0.52165458 -1.4876816,1.21719408 0.1062631,-0.048302 0.2125261,-0.077281 0.3284492,-0.077281 0.531315,0 0.9660271,0.4347123 0.9660271,0.966027 0,0.5602958 -0.425052,1.0239886 -0.9660271,1.0239886 -0.5796161,0 -1.08195037,-0.4540327 -1.08195037,-1.0239886 0,-1.284816 0.98534767,-2.35710598 2.24118277,-2.35710598 z"
     id="path3038" />
</svg>
