<?xml version="1.0" encoding="UTF-8" standalone="no"?>
<svg
   xmlns:osb="http://www.openswatchbook.org/uri/2009/osb"
   xmlns:dc="http://purl.org/dc/elements/1.1/"
   xmlns:cc="http://creativecommons.org/ns#"
   xmlns:rdf="http://www.w3.org/1999/02/22-rdf-syntax-ns#"
   xmlns:svg="http://www.w3.org/2000/svg"
   xmlns="http://www.w3.org/2000/svg"
   xmlns:xlink="http://www.w3.org/1999/xlink"
   xmlns:sodipodi="http://sodipodi.sourceforge.net/DTD/sodipodi-0.dtd"
   xmlns:inkscape="http://www.inkscape.org/namespaces/inkscape"
   version="1.2"
   width="14.06mm"
   height="14.06mm"
   viewBox="0 0 8.0000 8.0000"
   id="svg2"
   inkscape:version="0.48.0 r9654"
   sodipodi:docname="tools_transpose.svg">
  <metadata
     id="metadata20">
    <rdf:RDF>
      <cc:Work
         rdf:about="">
        <dc:format>image/svg+xml</dc:format>
        <dc:type
           rdf:resource="http://purl.org/dc/dcmitype/StillImage" />
        <dc:title></dc:title>
      </cc:Work>
    </rdf:RDF>
  </metadata>
  <defs
     id="defs18">
    <linearGradient
       id="linearGradient3814">
      <stop
         style="stop-color:#004cf9;stop-opacity:1;"
         offset="0"
         id="stop3816" />
      <stop
         style="stop-color:#2265ff;stop-opacity:1;"
         offset="1"
         id="stop3818" />
    </linearGradient>
    <linearGradient
       id="linearGradient3808"
       osb:paint="gradient">
      <stop
         id="stop3810"
         offset="0"
         style="stop-color:#4a8081;stop-opacity:1;" />
      <stop
         style="stop-color:#ffffff;stop-opacity:1;"
         offset="1"
         id="stop3812" />
    </linearGradient>
    <linearGradient
       id="linearGradient3798"
       osb:paint="gradient">
      <stop
         style="stop-color:#4a8081;stop-opacity:1;"
         offset="0"
         id="stop3804" />
      <stop
         id="stop3802"
         offset="1"
         style="stop-color:#ffffff;stop-opacity:1;" />
    </linearGradient>
    <linearGradient
       id="linearGradient3784"
       osb:paint="solid">
      <stop
         style="stop-color:#000000;stop-opacity:1;"
         offset="0"
         id="stop3786" />
    </linearGradient>
    <linearGradient
       inkscape:collect="always"
       xlink:href="#linearGradient3798"
       id="linearGradient3828"
       x1="4.2404366"
       y1="8.1821833"
       x2="3.7730191"
       y2="-0.48690748"
       gradientUnits="userSpaceOnUse" />
    <linearGradient
       inkscape:collect="always"
       xlink:href="#linearGradient3814-4"
       id="linearGradient3820-2"
       x1="4.2404366"
       y1="8.1821833"
       x2="3.7730191"
       y2="-0.48690748"
       gradientUnits="userSpaceOnUse" />
    <linearGradient
       id="linearGradient3814-4">
      <stop
         style="stop-color:#004cf9;stop-opacity:1;"
         offset="0"
         id="stop3816-7" />
      <stop
         style="stop-color:#2265ff;stop-opacity:1;"
         offset="1"
         id="stop3818-7" />
    </linearGradient>
  </defs>
  <sodipodi:namedview
     pagecolor="#ffffff"
     bordercolor="#666666"
     borderopacity="1"
     objecttolerance="10"
     gridtolerance="10"
     guidetolerance="10"
     inkscape:pageopacity="0"
     inkscape:pageshadow="2"
     inkscape:window-width="1024"
     inkscape:window-height="724"
     id="namedview16"
     showgrid="false"
     inkscape:zoom="5.5199937"
     inkscape:cx="-1.8115967"
     inkscape:cy="16.498224"
     inkscape:window-x="-3"
     inkscape:window-y="-3"
     inkscape:window-maximized="1"
     inkscape:current-layer="svg2" />
  <!-- Page: 1/1 -->
  <path
     style="fill:currentColor"
     d="m 5.503847,7.215799 c -0.09736,0.3039444 -0.6978806,0.2450076 -0.6532864,-0.1067715 0,-0.444557 0,-0.889114 0,-1.333671 -0.4884937,0.1026522 -0.9769873,0.2053045 -1.465481,0.3079567 -0.0048,0.5353931 0.00959,1.0709446 -0.00717,1.6062174 -0.1531974,0.2574828 -0.7079198,0.1960631 -0.6461137,-0.1611894 0,-0.4386283 0,-0.8772565 0,-1.3158848 C 2.4095577,6.2504002 2.0206384,6.4629651 1.7306516,6.2327494 1.6481435,5.8903446 1.5824909,5.2899503 2.1053632,5.3208107 c 0.1835542,-0.1093078 0.6684337,0.03244 0.6264277,-0.2640671 0,-0.4823394 0,-0.9646787 0,-1.4470181 C 2.408773,3.6412907 2.0197243,3.8474898 1.7306491,3.6200847 1.6469457,3.2770839 1.5840852,2.684386 2.1059158,2.7158959 2.3795105,2.6256944 2.8659897,2.7087833 2.7326895,2.2853231 2.7322419,1.8503184 2.7260176,1.4152074 2.7381986,0.98029767 2.8865394,0.71698109 3.4427155,0.78986434 3.385071,1.1414869 c 0,0.4386284 0,0.8772567 0,1.315885 0.4884952,-0.1026522 0.9769903,-0.2053044 1.4654855,-0.3079566 0.0048,-0.5353933 -0.00959,-1.0709452 0.00717,-1.60621821 0.1531973,-0.25748286 0.7079198,-0.19606322 0.6461139,0.16118926 0,0.43862825 0,0.87725655 0,1.31588485 C 5.8260813,1.9823268 6.2150002,1.7697623 6.5049876,1.9999752 6.5874969,2.3423808 6.6531462,2.942771 6.1302745,2.9119114 5.9467199,3.0212206 5.4618387,2.8794747 5.5038443,3.1759821 c 0,0.4823397 0,0.9646794 0,1.4470191 0.3230187,-0.031565 0.7120682,-0.2377647 1.0011443,-0.01036 0.083705,0.3430012 0.1465618,0.9356957 -0.3752679,0.9041863 -0.1833263,0.1115535 -0.6675716,-0.02395 -0.6258752,0.2718187 5e-7,0.4757176 1e-6,0.9514351 1.5e-6,1.4271527 z M 3.3850796,3.4706481 c 0,0.529818 0,1.0596359 0,1.5894539 0.4884937,-0.099341 0.9769873,-0.1986815 1.465481,-0.2980223 0,-0.529818 0,-1.0596361 0,-1.5894541 -0.4884937,0.099341 -0.9769873,0.1986817 -1.465481,0.2980225 z"
     id="path3877"
     inkscape:connector-curvature="0" />
  <path
     style="fill:#0052bf;fill-opacity:1"
     d="M 5.196937,6.9664871 C 5.099577,7.2704315 4.4990564,7.2114947 4.5436506,6.8597156 c 0,-0.444557 0,-0.8891141 0,-1.333671 -0.4884937,0.1026522 -0.9769872,0.2053046 -1.465481,0.3079567 -0.0048,0.5353932 0.00959,1.0709447 -0.00717,1.6062174 -0.1531974,0.2574828 -0.7079198,0.1960631 -0.6461137,-0.1611893 0,-0.4386284 0,-0.8772565 0,-1.3158849 C 2.1026477,6.0010885 1.7137285,6.2136533 1.4237417,5.9834375 1.3412337,5.6410328 1.275581,5.0406385 1.7984532,5.0714989 1.9820074,4.962191 2.4668869,5.1039389 2.4248809,4.8074317 c 0,-0.4823394 0,-0.9646786 0,-1.4470182 C 2.101863,3.3919785 1.7128144,3.5981779 1.4237392,3.3707725 1.3400362,3.0277717 1.2771753,2.4350737 1.7990058,2.4665837 c 0.2735947,-0.090202 0.7600739,-0.00711 0.6267737,-0.4305729 -4.48e-4,-0.4350047 -0.00667,-0.8701158 0.00551,-1.30502538 0.1483408,-0.2633166 0.7045169,-0.1904333 0.6468724,0.16118923 0,0.43862835 0,0.87725675 0,1.31588495 0.4884951,-0.1026521 0.9769903,-0.2053044 1.4654855,-0.3079565 0.0048,-0.5353934 -0.00959,-1.07094528 0.00717,-1.60621828 0.1531973,-0.2574829 0.7079198,-0.1960632 0.6461139,0.1611893 0,0.43862823 0,0.87725648 0,1.31588488 C 5.5191722,1.733014 5.9080911,1.52045 6.1980786,1.750663 6.2805876,2.0930687 6.3462372,2.6934588 5.8233654,2.6625992 5.6398108,2.7719084 5.1549297,2.6301622 5.1969353,2.9266699 c 0,0.4823397 0,0.9646794 0,1.4470191 C 5.5199539,4.342124 5.9090034,4.1359243 6.1980796,4.363328 6.2817846,4.7063291 6.3446413,5.2990237 5.8228117,5.2675142 5.6394853,5.3790677 5.1552399,5.2435642 5.1969364,5.539333 c 5e-7,0.4757176 1e-6,0.9514351 1.4e-6,1.4271527 z M 3.0781696,3.2213362 c 0,0.5298181 0,1.059636 0,1.5894539 0.4884938,-0.099341 0.9769873,-0.1986814 1.465481,-0.2980223 0,-0.529818 0,-1.059636 0,-1.5894541 -0.4884937,0.099341 -0.9769872,0.1986817 -1.465481,0.2980225 z"
     id="path3877-9"
     inkscape:connector-curvature="0" />
</svg>
