<?xml version="1.0" encoding="UTF-8" standalone="no"?>
<svg
   xmlns:osb="http://www.openswatchbook.org/uri/2009/osb"
   xmlns:dc="http://purl.org/dc/elements/1.1/"
   xmlns:cc="http://creativecommons.org/ns#"
   xmlns:rdf="http://www.w3.org/1999/02/22-rdf-syntax-ns#"
   xmlns:svg="http://www.w3.org/2000/svg"
   xmlns="http://www.w3.org/2000/svg"
   xmlns:xlink="http://www.w3.org/1999/xlink"
   xmlns:sodipodi="http://sodipodi.sourceforge.net/DTD/sodipodi-0.dtd"
   xmlns:inkscape="http://www.inkscape.org/namespaces/inkscape"
   version="1.2"
   width="128"
   height="128"
   viewBox="0 0 20.554449 20.554449"
   id="svg2"
   inkscape:version="0.48.2 r9819"
   sodipodi:docname="tools_pitch.svg">
  <metadata
     id="metadata20">
    <rdf:RDF>
      <cc:Work
         rdf:about="">
        <dc:format>image/svg+xml</dc:format>
        <dc:type
           rdf:resource="http://purl.org/dc/dcmitype/StillImage" />
        <dc:title />
      </cc:Work>
    </rdf:RDF>
  </metadata>
  <defs
     id="defs18">
    <inkscape:perspective
       sodipodi:type="inkscape:persp3d"
       inkscape:vp_x="0 : 24.909449 : 1"
       inkscape:vp_y="0 : 1000 : 0"
       inkscape:vp_z="49.818897 : 24.909449 : 1"
       inkscape:persp3d-origin="24.909449 : 16.606299 : 1"
       id="perspective24" />
    <linearGradient
       id="linearGradient3814">
      <stop
         style="stop-color:#004cf9;stop-opacity:1;"
         offset="0"
         id="stop3816" />
      <stop
         style="stop-color:#2265ff;stop-opacity:1;"
         offset="1"
         id="stop3818" />
    </linearGradient>
    <linearGradient
       id="linearGradient3808"
       osb:paint="gradient">
      <stop
         id="stop3810"
         offset="0"
         style="stop-color:#4a8081;stop-opacity:1;" />
      <stop
         style="stop-color:#ffffff;stop-opacity:1;"
         offset="1"
         id="stop3812" />
    </linearGradient>
    <linearGradient
       id="linearGradient3798"
       osb:paint="gradient">
      <stop
         style="stop-color:#4a8081;stop-opacity:1;"
         offset="0"
         id="stop3804" />
      <stop
         id="stop3802"
         offset="1"
         style="stop-color:#ffffff;stop-opacity:1;" />
    </linearGradient>
    <linearGradient
       id="linearGradient3784"
       osb:paint="solid">
      <stop
         style="stop-color:#000000;stop-opacity:1;"
         offset="0"
         id="stop3786" />
    </linearGradient>
    <linearGradient
       inkscape:collect="always"
       xlink:href="#linearGradient3798"
       id="linearGradient3828"
       x1="4.2404366"
       y1="8.1821833"
       x2="3.7730191"
       y2="-0.48690748"
       gradientUnits="userSpaceOnUse" />
    <linearGradient
       inkscape:collect="always"
       xlink:href="#linearGradient3814-4"
       id="linearGradient3820-2"
       x1="4.2404366"
       y1="8.1821833"
       x2="3.7730191"
       y2="-0.48690748"
       gradientUnits="userSpaceOnUse" />
    <linearGradient
       id="linearGradient3814-4">
      <stop
         style="stop-color:#004cf9;stop-opacity:1;"
         offset="0"
         id="stop3816-7" />
      <stop
         style="stop-color:#2265ff;stop-opacity:1;"
         offset="1"
         id="stop3818-7" />
    </linearGradient>
  </defs>
  <sodipodi:namedview
     pagecolor="#ffffff"
     bordercolor="#666666"
     borderopacity="1"
     objecttolerance="10"
     gridtolerance="10"
     guidetolerance="10"
     inkscape:pageopacity="0"
     inkscape:pageshadow="2"
     inkscape:window-width="1920"
     inkscape:window-height="1055"
     id="namedview16"
     showgrid="false"
     inkscape:zoom="2.02"
     inkscape:cx="-193.58049"
     inkscape:cy="104.90945"
     inkscape:window-x="0"
     inkscape:window-y="0"
     inkscape:window-maximized="1"
     inkscape:current-layer="svg2" />
  <!-- Page: 1/1 -->
  <path
     style="fill:currentColor"
     inkscape:connector-curvature="0"
     d="m 16.860742,10.296509 c 0,-0.7170876 0.589033,-1.3061235 1.306124,-1.3061235 0.717088,0 1.306123,0.589033 1.306123,1.3061235 0,0.717086 -0.589033,1.306121 -1.306123,1.306121 -0.717087,0 -1.306124,-0.589032 -1.306124,-1.306121 z m 0,-6.4025664 c 0,-0.7170861 0.589033,-1.3061243 1.306124,-1.3061243 0.717088,0 1.306123,0.5890355 1.306123,1.3061243 0,0.7170882 -0.589033,1.3061241 -1.306123,1.3061241 -0.717087,0 -1.306124,-0.589033 -1.306124,-1.3061241 z M 8.5374054,0.35972668 c 4.4049656,0 7.5038086,2.25370122 7.5038086,6.42817652 0,6.7354988 -6.7354999,10.6026468 -13.2148974,13.3429458 -0.076834,0.07683 -0.1536599,0.102437 -0.2304938,0.102437 -0.1792721,-2e-6 -0.3329331,-0.153656 -0.3329331,-0.33294 0,-0.07683 0.02561,-0.153656 0.1024408,-0.230485 C 7.5386034,16.647852 12.91676,12.883142 12.91676,7.0440039 c 0,-3.0732326 -1.613447,-6.018413 -4.3793561,-6.018413 -1.895159,0 -3.3037242,1.3829527 -3.9439807,3.2268929 0.2817133,-0.1280474 0.5634263,-0.2048761 0.870749,-0.2048761 1.4085649,0 2.5610267,1.1524619 2.5610267,2.5610264 0,1.485396 -1.126852,2.7146885 -2.5610267,2.7146885 -1.5366155,0 -2.86835,-1.2036826 -2.86835,-2.7146885 0,-3.4061654 2.6122474,-6.24890471 5.9415817,-6.24890471 z"
     id="path3038-3" />
  <path
     style="fill:#0052bf;fill-opacity:1"
     inkscape:connector-curvature="0"
     d="m 16.041809,10.257946 c 0,-0.7170848 0.589034,-1.3061206 1.306124,-1.3061206 0.717088,0 1.306123,0.5890329 1.306123,1.3061206 0,0.717089 -0.589033,1.306124 -1.306123,1.306124 -0.717087,0 -1.306124,-0.589032 -1.306124,-1.306124 z m 0,-6.4025635 c 0,-0.7170888 0.589034,-1.3061243 1.306124,-1.3061243 0.717088,0 1.306123,0.5890355 1.306123,1.3061243 0,0.7170853 -0.589033,1.3061211 -1.306123,1.3061211 -0.717087,0 -1.306124,-0.5890329 -1.306124,-1.3061211 z M 7.7184728,0.32116394 c 4.4049662,0 7.5038082,2.25370386 7.5038082,6.42817716 0,6.7354989 -6.7354997,10.6026489 -13.214897,13.3429479 -0.076834,0.07683 -0.15366,0.102437 -0.2304932,0.102437 -0.1792732,-2e-6 -0.3329332,-0.153656 -0.3329332,-0.33294 0,-0.07683 0.025612,-0.153656 0.1024401,-0.230485 5.1732731,-3.022012 10.5514293,-6.786719 10.5514293,-12.6258592 0,-3.0732306 -1.613447,-6.0184137 -4.3793561,-6.0184137 -1.8951592,0 -3.3037242,1.3829553 -3.9439806,3.2268956 0.2817132,-0.1280475 0.5634262,-0.2048761 0.870749,-0.2048761 1.408565,0 2.5610267,1.1524609 2.5610267,2.5610263 0,1.4853932 -1.1268519,2.7146866 -2.5610267,2.7146866 -1.5366155,0 -2.8683498,-1.2036835 -2.8683498,-2.7146866 0,-3.4061653 2.6122472,-6.24890464 5.9415814,-6.24890464 z"
     id="path3038" />
</svg>
