<?xml version="1.0" encoding="UTF-8" standalone="no"?>
<svg
   width="24"
   height="24"
   viewBox="0 0 24 24"
   version="1.1"
   xml:space="preserve"
   style="fill-rule:evenodd;fill:black;clip-rule:evenodd;stroke-linecap:round;stroke-linejoin:round;"
   id="svg6"
   sodipodi:docname="application-pdf.svg"
   xmlns:inkscape="http://www.inkscape.org/namespaces/inkscape"
   xmlns:sodipodi="http://sodipodi.sourceforge.net/DTD/sodipodi-0.dtd"
   xmlns="http://www.w3.org/2000/svg"
   xmlns:svg="http://www.w3.org/2000/svg"><defs
   id="defs6" /><sodipodi:namedview
   id="namedview6"
   pagecolor="#ffffff"
   bordercolor="#000000"
   borderopacity="0.25"
   inkscape:showpageshadow="2"
   inkscape:pageopacity="0.0"
   inkscape:pagecheckerboard="0"
   inkscape:deskcolor="#d1d1d1" />
    <path
   d="M14,3L14,7C14,7.549 14.451,8 15,8L19,8"
   style="fill:none;fill-rule:nonzero;stroke:black;stroke-width:1px;"
   id="path1" />
    <path
   d="M17,21L7,21C5.903,21 5,20.097 5,19L5,5C5,3.903 5.903,3 7,3L14,3L19,8L19,19C19,20.097 18.097,21 17,21Z"
   style="fill:none;fill-rule:nonzero;stroke:black;stroke-width:1px;"
   id="path2" />
    <g
   transform="matrix(0.498769,0,0,0.498769,6.15146,8.30836)"
   id="g3">
        <path
   d="M10,8L10,16L12,16C13.097,16 14,15.097 14,14L14,10C14,8.903 13.097,8 12,8L10,8Z"
   style="fill:none;fill-rule:nonzero;stroke:black;stroke-width:2px;"
   id="path3" />
    </g>
    <g
   transform="matrix(0.498769,0,0,0.498769,6.15146,8.30836)"
   id="g4">
        <path
   d="M3,12L5,12C6.097,12 7,11.097 7,10C7,8.903 6.097,8 5,8L3,8L3,16"
   style="fill:none;fill-rule:nonzero;stroke:black;stroke-width:2px;"
   id="path4" />
    </g>
    <g
   transform="matrix(0.498769,0,0,0.498769,6.15146,8.30836)"
   id="g5">
        <path
   d="M17,12L20,12"
   style="fill:none;fill-rule:nonzero;stroke:black;stroke-width:2px;"
   id="path5" />
    </g>
    <g
   transform="matrix(0.498769,0,0,0.498769,6.15146,8.30836)"
   id="g6">
        <path
   d="M21,8L17,8L17,16"
   style="fill:none;fill-rule:nonzero;stroke:black;stroke-width:2px;"
   id="path6" />
    </g>
</svg>
