<?xml version="1.0" encoding="UTF-8" standalone="no"?>
<!DOCTYPE svg PUBLIC "-//W3C//DTD SVG 1.1//EN" "http://www.w3.org/Graphics/SVG/1.1/DTD/svg11.dtd">
<svg width="24px" height="24px" viewBox="0 0 24 24" version="1.1" xmlns="http://www.w3.org/2000/svg" xmlns:xlink="http://www.w3.org/1999/xlink" xml:space="preserve" xmlns:serif="http://www.serif.com/" style="fill-rule:evenodd;clip-rule:evenodd;stroke-linejoin:round;stroke-miterlimit:2;">
    <path id="path1" d="M1.5,13.546C1.499,13.531 1.498,13.515 1.498,13.5C1.498,13.324 1.591,13.16 1.742,13.07L6.5,10.216L6.5,5.046C6.499,5.031 6.498,5.015 6.498,5C6.498,4.824 6.591,4.66 6.742,4.57L11.742,1.57C11.901,1.475 12.099,1.475 12.258,1.57L17.258,4.57C17.328,4.613 17.387,4.672 17.429,4.742C17.476,4.82 17.502,4.909 17.502,5C17.502,5.013 17.501,5.026 17.5,5.039L17.5,10.216L22.258,13.07C22.328,13.113 22.387,13.172 22.429,13.242C22.476,13.32 22.502,13.409 22.502,13.5C22.502,13.513 22.501,13.526 22.5,13.539L22.5,19C22.5,19.176 22.408,19.339 22.258,19.43L17.258,22.43C17.181,22.476 17.092,22.501 17,22.501C16.908,22.501 16.819,22.476 16.742,22.429L12,19.584L7.258,22.43C7.181,22.476 7.092,22.501 7,22.501C6.908,22.501 6.819,22.476 6.742,22.429L1.742,19.43C1.592,19.339 1.5,19.176 1.5,19L1.5,13.546ZM7.5,10.216L11.5,12.616L11.5,8.283L7.5,5.884L7.5,10.216ZM11.044,13.51L7,11.084L2.975,13.5L7.037,15.938L11.044,13.51ZM7.5,16.827L7.5,21.115L11.5,18.717L11.5,14.404L7.5,16.827ZM12.5,14.385L12.5,18.716L16.5,21.116L16.5,16.785L12.5,14.385ZM6.5,21.116L6.5,16.785L2.5,14.384L2.5,18.717L6.5,21.116ZM16.027,4.999L12,2.584L7.975,5L12,7.416L16.027,4.999ZM12.5,8.284L12.5,12.616L16.5,10.216L16.5,5.884L12.5,8.284ZM21.027,13.499L17,11.084L12.975,13.5L17,15.916L21.027,13.499ZM17.5,16.784L17.5,21.115L21.5,18.717L21.5,14.384L17.5,16.784Z"/>
</svg>
