<?xml version="1.0" encoding="UTF-8" standalone="no"?>
<!DOCTYPE svg PUBLIC "-//W3C//DTD SVG 1.1//EN" "http://www.w3.org/Graphics/SVG/1.1/DTD/svg11.dtd">
<svg width="24px" height="24px" viewBox="0 0 24 24" version="1.1" xmlns="http://www.w3.org/2000/svg" xmlns:xlink="http://www.w3.org/1999/xlink" xml:space="preserve" xmlns:serif="http://www.serif.com/" style="fill-rule:evenodd;clip-rule:evenodd;stroke-linejoin:round;stroke-miterlimit:2;">
    <path id="path1" d="M2.501,12C2.501,11.87 2.551,11.742 2.646,11.646L5.646,8.646C5.74,8.553 5.867,8.5 6,8.5C6.133,8.5 6.26,8.553 6.354,8.646C6.547,8.84 6.547,9.16 6.354,9.354L4.207,11.5L15,11.5C15.274,11.5 15.5,11.726 15.5,12C15.5,12.274 15.274,12.5 15,12.5L4.207,12.5L6.354,14.646C6.547,14.84 6.547,15.16 6.354,15.354C6.16,15.547 5.84,15.547 5.646,15.354L2.646,12.354C2.55,12.257 2.501,12.128 2.501,12ZM12,3.5L19,3.5C20.375,3.5 21.5,4.625 21.5,6L21.5,18C21.5,19.375 20.375,20.5 19,20.5L12,20.5C10.625,20.5 9.5,19.375 9.5,18L9.5,16C9.5,15.726 9.726,15.5 10,15.5C10.274,15.5 10.5,15.726 10.5,16L10.5,18C10.5,18.834 11.166,19.5 12,19.5L19,19.5C19.834,19.5 20.5,18.834 20.5,18L20.5,6C20.5,5.166 19.834,4.5 19,4.5L12,4.5C11.166,4.5 10.5,5.166 10.5,6L10.5,8C10.5,8.274 10.274,8.5 10,8.5C9.726,8.5 9.5,8.274 9.5,8L9.5,6C9.5,4.625 10.625,3.5 12,3.5Z"/>
</svg>
