<?xml version="1.0" encoding="UTF-8" standalone="no"?>
<svg
   width="24px"
   height="24px"
   viewBox="0 0 24 24"
   version="1.1"
   xml:space="preserve"
   style="fill-rule:evenodd;clip-rule:evenodd;stroke-linejoin:round;stroke-miterlimit:2;"
   id="svg1"
   sodipodi:docname="applications-graphics.svg"
   inkscape:version="1.4.2 (ebf0e940, 2025-05-08)"
   xmlns:inkscape="http://www.inkscape.org/namespaces/inkscape"
   xmlns:sodipodi="http://sodipodi.sourceforge.net/DTD/sodipodi-0.dtd"
   xmlns="http://www.w3.org/2000/svg"
   xmlns:svg="http://www.w3.org/2000/svg"><defs
   id="defs1" /><sodipodi:namedview
   id="namedview1"
   pagecolor="#ffffff"
   bordercolor="#000000"
   borderopacity="0.25"
   inkscape:showpageshadow="2"
   inkscape:pageopacity="0.0"
   inkscape:pagecheckerboard="0"
   inkscape:deskcolor="#d1d1d1"
   inkscape:zoom="34.666667"
   inkscape:cx="12.014423"
   inkscape:cy="11.985577"
   inkscape:window-width="976"
   inkscape:window-height="1186"
   inkscape:window-x="0"
   inkscape:window-y="25"
   inkscape:window-maximized="0"
   inkscape:current-layer="svg1" />
    <path
   id="path1"
   d="M12,2.5C17.21,2.5 21.5,6.278 21.5,11C21.5,12.209 20.956,13.364 20.014,14.201C19.071,15.038 17.811,15.5 16.5,15.5L13.969,15.5C13.146,15.5 12.469,16.177 12.469,17C12.469,17.545 12.765,18.048 13.242,18.313C13.277,18.332 13.309,18.356 13.338,18.383C13.708,18.724 13.918,19.204 13.918,19.705C13.918,20.693 13.105,21.506 12.117,21.506C12.084,21.506 12.042,21.503 12,21.5C11.982,21.499 11.969,21.5 11.949,21.498L11.941,21.488C6.758,21.454 2.5,17.191 2.5,12C2.5,6.789 6.789,2.5 12,2.5ZM12.7,19.154C11.939,18.706 11.469,17.886 11.469,17C11.469,15.629 12.597,14.5 13.969,14.5L16.5,14.5C17.575,14.5 18.604,14.118 19.35,13.455C20.095,12.793 20.5,11.911 20.5,11C20.5,6.886 16.73,3.5 12,3.5C7.337,3.5 3.5,7.337 3.5,12C3.5,16.663 7.337,20.5 12,20.5L12.014,20.514L12.051,20.502C12.064,20.503 12.087,20.506 12.117,20.506C12.558,20.506 12.918,20.146 12.918,19.705C12.918,19.5 12.84,19.302 12.7,19.154ZM16.5,9C17.323,9 18,9.677 18,10.5C18,11.323 17.323,12 16.5,12C15.677,12 15,11.323 15,10.5C15,9.677 15.677,9 16.5,9ZM12.5,6C13.323,6 14,6.677 14,7.5C14,8.323 13.323,9 12.5,9C11.677,9 11,8.323 11,7.5C11,6.677 11.677,6 12.5,6ZM8.5,9C9.323,9 10,9.677 10,10.5C10,11.323 9.323,12 8.5,12C7.677,12 7,11.323 7,10.5C7,9.677 7.677,9 8.5,9Z" />
    
    
    
</svg>
