<?xml version="1.0" encoding="UTF-8" standalone="no"?>
<!DOCTYPE svg PUBLIC "-//W3C//DTD SVG 1.1//EN" "http://www.w3.org/Graphics/SVG/1.1/DTD/svg11.dtd">
<svg width="24px" height="24px" viewBox="0 0 24 24" version="1.1" xmlns="http://www.w3.org/2000/svg" xmlns:xlink="http://www.w3.org/1999/xlink" xml:space="preserve" xmlns:serif="http://www.serif.com/" style="fill-rule:evenodd;clip-rule:evenodd;stroke-linejoin:round;stroke-miterlimit:2;">
    <path id="path1" d="M19.5,8L19.5,19C19.5,20.375 18.375,21.5 17,21.5L7,21.5C5.625,21.5 4.5,20.375 4.5,19L4.5,5C4.5,3.625 5.625,2.5 7,2.5L14,2.5C14.135,2.5 14.261,2.555 14.353,2.647L19.353,7.647C19.445,7.739 19.5,7.865 19.5,8ZM13.5,3.5L7,3.5C6.166,3.5 5.5,4.166 5.5,5L5.5,19C5.5,19.834 6.166,20.5 7,20.5L17,20.5C17.834,20.5 18.5,19.834 18.5,19L18.5,8.5L15,8.5C14.177,8.5 13.5,7.823 13.5,7L13.5,3.5ZM17.793,7.5L14.5,4.207L14.5,7C14.5,7.282 14.718,7.5 15,7.5L17.793,7.5ZM12.5,16C12.5,16.458 12.31,16.865 12.02,17.123C11.729,17.381 11.361,17.5 11,17.5C10.639,17.5 10.271,17.381 9.98,17.123C9.69,16.865 9.5,16.458 9.5,16C9.5,15.542 9.69,15.135 9.98,14.877C10.271,14.619 10.639,14.5 11,14.5C11.168,14.5 11.338,14.526 11.5,14.579L11.5,11C11.5,10.726 11.726,10.5 12,10.5C12.077,10.5 12.153,10.518 12.223,10.553L14.223,11.553C14.468,11.675 14.569,11.977 14.447,12.223C14.325,12.468 14.023,12.569 13.777,12.447L12.5,11.809L12.5,16ZM11.5,16C11.5,15.792 11.44,15.698 11.355,15.623C11.271,15.548 11.139,15.5 11,15.5C10.861,15.5 10.729,15.548 10.645,15.623C10.56,15.698 10.5,15.792 10.5,16C10.5,16.208 10.56,16.302 10.645,16.377C10.729,16.452 10.861,16.5 11,16.5C11.139,16.5 11.271,16.452 11.355,16.377C11.44,16.302 11.5,16.208 11.5,16Z"/>
</svg>
