<?xml version="1.0" encoding="UTF-8" standalone="no"?>
<svg
   width="24"
   height="24"
   viewBox="0 0 24 24"
   version="1.1"
   xml:space="preserve"
   style="fill-rule:evenodd;fill:black;clip-rule:evenodd;stroke-linejoin:round;stroke-miterlimit:2;"
   id="svg1"
   sodipodi:docname="audio-volume-muted.svg"
   xmlns:inkscape="http://www.inkscape.org/namespaces/inkscape"
   xmlns:sodipodi="http://sodipodi.sourceforge.net/DTD/sodipodi-0.dtd"
   xmlns="http://www.w3.org/2000/svg"
   xmlns:svg="http://www.w3.org/2000/svg"><defs
   id="defs1" /><sodipodi:namedview
   id="namedview1"
   pagecolor="#ffffff"
   bordercolor="#000000"
   borderopacity="0.25"
   inkscape:showpageshadow="2"
   inkscape:pageopacity="0.0"
   inkscape:pagecheckerboard="0"
   inkscape:deskcolor="#d1d1d1" />
    <g
   transform="matrix(0.0422807,0,0,0.0422807,-1.93777,1.82971)"
   id="g1">
        <path
   d="M287.661,62.708C293.223,61.659 299.414,62.821 303.642,66.764C307.832,70.674 311.668,75.456 312.846,81.201C313.453,84.433 313.276,87.736 313.297,91.006C313.265,192.496 313.313,293.991 313.276,395.48C313.491,402.822 309.096,409.272 303.922,414.07C300.162,417.706 294.724,419.169 289.598,418.636C283.622,418.12 278.361,414.871 273.542,411.541C264.5,404.904 256.356,397.169 247.922,389.811C233.028,376.557 217.978,363.481 203.25,350.05L181.783,330.616C177.41,326.694 172.956,322.805 167.975,319.664C164.947,317.728 161.413,316.604 157.804,316.647C143.108,316.555 128.413,316.421 113.718,316.292C104.455,316.125 95.123,316.614 85.963,314.925C80.96,313.963 75.662,312.892 71.682,309.487C65.759,304.641 62.059,297.487 60.402,290.102C57.514,279.199 58.025,267.844 57.847,256.677C57.696,240.535 57.783,224.387 58.057,208.245C58.358,200.435 59.509,192.582 62.134,185.197C64.861,178.408 69.46,171.841 76.302,168.748C82.897,166.187 90.018,165.408 97.027,164.94C115.681,164.767 134.335,164.595 152.989,164.472C157.077,164.429 161.386,164.741 165.178,162.901C170.422,160.384 174.822,156.473 179.228,152.746C190.368,142.735 201.443,132.645 212.556,122.602C229.456,107.59 246.389,92.609 263.338,77.656C270.729,71.707 278.108,64.784 287.661,62.708ZM282.842,91.243C278.539,92.276 275.096,95.245 271.482,97.628C261.315,105.078 251.859,113.453 242.651,122.043C232.291,131.574 222.119,141.31 211.932,151.03C203.637,158.867 195.806,167.226 187.011,174.514C182.735,177.989 178.018,181.507 172.354,182.077C156.539,184.062 140.569,182.599 124.686,183.196C114.202,183.61 103.509,183.013 93.262,185.675C88.679,186.799 84.279,189.494 82.068,193.792C78.443,200.892 78.12,209.063 78.034,216.873C77.921,232.649 77.943,248.426 78.034,264.207C78.104,270.13 78.319,276.133 79.933,281.866C80.976,285.287 82.375,288.784 85.107,291.22C88.528,294.405 93.224,295.577 97.705,296.379C105.843,297.75 114.127,297.584 122.351,297.826C135.427,298.283 148.514,297.713 161.59,298.079C165.565,298.261 169.54,298.557 173.472,299.17C177.517,299.794 181.062,302.032 184.295,304.431C187.748,307.04 190.986,309.923 194.176,312.844C203.142,321.455 211.969,330.212 221.027,338.722C234.329,351.244 247.422,364.029 261.504,375.691C267.082,380.231 272.746,384.744 278.985,388.353C281.572,389.773 285.236,391.005 287.71,388.713C290.62,385.69 290.894,381.167 291.072,377.197C290.948,362.125 290.959,347.054 290.873,331.982C290.878,303.829 290.442,275.681 290.276,247.527C290.141,231.934 290.475,216.335 290.545,200.736C290.905,170.797 290.867,140.853 291.018,110.914C291.045,106.971 291.308,102.996 290.657,99.091C290.211,96.676 289.539,94.115 287.704,92.367C286.435,91.125 284.52,90.861 282.842,91.243ZM456.999,257.281L403.878,310.402C401.663,312.618 398.949,313.8 395.736,313.95C392.524,314.104 389.658,312.921 387.139,310.402C384.624,307.887 383.367,305.099 383.367,302.036C383.367,298.973 384.624,296.184 387.139,293.669L440.266,240.542L387.139,187.415C384.928,185.203 383.745,182.489 383.591,179.273C383.442,176.06 384.624,173.196 387.139,170.682C389.658,168.163 392.447,166.903 395.506,166.903C398.569,166.903 401.359,168.163 403.878,170.682L456.999,223.803L510.127,170.682C512.342,168.466 515.056,167.284 518.269,167.134C521.481,166.98 524.347,168.163 526.866,170.682C529.381,173.196 530.638,175.985 530.638,179.048C530.638,182.111 529.381,184.9 526.866,187.415L473.739,240.542L526.866,293.669C529.077,295.88 530.26,298.594 530.414,301.811C530.563,305.024 529.381,307.887 526.866,310.402C524.347,312.921 521.556,314.181 518.493,314.181C515.434,314.181 512.645,312.921 510.127,310.402L456.999,257.281Z"
   id="path1" />
    </g>
</svg>
