<?xml version="1.0" encoding="UTF-8" standalone="no"?>
<!--
tags: [mp3, wma, wav]
category: Document
version: "1.0"
unicode: "ea9f"
-->

<svg
   width="24"
   height="24"
   viewBox="0 0 24 24"
   fill="none"
   stroke="black"
   stroke-width="1"
   stroke-linecap="round"
   stroke-linejoin="round"
   version="1.1"
   id="svg4"
   sodipodi:docname="audio-x-generic.svg"
   xmlns:inkscape="http://www.inkscape.org/namespaces/inkscape"
   xmlns:sodipodi="http://sodipodi.sourceforge.net/DTD/sodipodi-0.dtd"
   xmlns="http://www.w3.org/2000/svg"
   xmlns:svg="http://www.w3.org/2000/svg">
  <defs
     id="defs4" />
  <sodipodi:namedview
     id="namedview4"
     pagecolor="#ffffff"
     bordercolor="#000000"
     borderopacity="0.25"
     inkscape:showpageshadow="2"
     inkscape:pageopacity="0.0"
     inkscape:pagecheckerboard="0"
     inkscape:deskcolor="#d1d1d1" />
  <path
     d="M14 3v4a1 1 0 0 0 1 1h4"
     id="path1" />
  <path
     d="M17 21h-10a2 2 0 0 1 -2 -2v-14a2 2 0 0 1 2 -2h7l5 5v11a2 2 0 0 1 -2 2z"
     id="path2" />
  <path
     d="M11 16m-1 0a1 1 0 1 0 2 0a1 1 0 1 0 -2 0"
     id="path3" />
  <path
     d="M12 16l0 -5l2 1"
     id="path4" />
</svg>
