<?xml version="1.0" encoding="UTF-8" standalone="no"?>
<!--
category: System
tags: [equalizer, sliders, controls, settings, filter]
version: "1.11"
unicode: "ec38"
-->

<svg
   width="24"
   height="24"
   viewBox="0 0 24 24"
   fill="none"
   stroke="black"
   stroke-width="1"
   stroke-linecap="round"
   stroke-linejoin="round"
   version="1.1"
   id="svg9"
   sodipodi:docname="document-properties.svg"
   xmlns:inkscape="http://www.inkscape.org/namespaces/inkscape"
   xmlns:sodipodi="http://sodipodi.sourceforge.net/DTD/sodipodi-0.dtd"
   xmlns="http://www.w3.org/2000/svg"
   xmlns:svg="http://www.w3.org/2000/svg">
  <defs
     id="defs9" />
  <sodipodi:namedview
     id="namedview9"
     pagecolor="#ffffff"
     bordercolor="#000000"
     borderopacity="0.25"
     inkscape:showpageshadow="2"
     inkscape:pageopacity="0.0"
     inkscape:pagecheckerboard="0"
     inkscape:deskcolor="#d1d1d1" />
  <path
     d="M14 6m-2 0a2 2 0 1 0 4 0a2 2 0 1 0 -4 0"
     id="path1" />
  <path
     d="M4 6l8 0"
     id="path2" />
  <path
     d="M16 6l4 0"
     id="path3" />
  <path
     d="M8 12m-2 0a2 2 0 1 0 4 0a2 2 0 1 0 -4 0"
     id="path4" />
  <path
     d="M4 12l2 0"
     id="path5" />
  <path
     d="M10 12l10 0"
     id="path6" />
  <path
     d="M17 18m-2 0a2 2 0 1 0 4 0a2 2 0 1 0 -4 0"
     id="path7" />
  <path
     d="M4 18l11 0"
     id="path8" />
  <path
     d="M19 18l1 0"
     id="path9" />
</svg>
