<?xml version="1.0" encoding="UTF-8" standalone="no"?>
<svg
   width="24px"
   height="24px"
   viewBox="0 0 24 24"
   version="1.1"
   xml:space="preserve"
   style="fill-rule:evenodd;clip-rule:evenodd;stroke-linejoin:round;stroke-miterlimit:2;"
   id="svg1"
   sodipodi:docname="document-save-all.svg"
   inkscape:version="1.4.2 (ebf0e940, 2025-05-08)"
   xmlns:inkscape="http://www.inkscape.org/namespaces/inkscape"
   xmlns:sodipodi="http://sodipodi.sourceforge.net/DTD/sodipodi-0.dtd"
   xmlns="http://www.w3.org/2000/svg"
   xmlns:svg="http://www.w3.org/2000/svg"><defs
   id="defs1" /><sodipodi:namedview
   id="namedview1"
   pagecolor="#ffffff"
   bordercolor="#000000"
   borderopacity="0.25"
   inkscape:showpageshadow="2"
   inkscape:pageopacity="0.0"
   inkscape:pagecheckerboard="0"
   inkscape:deskcolor="#d1d1d1"
   inkscape:zoom="34.666667"
   inkscape:cx="12.014423"
   inkscape:cy="11.985577"
   inkscape:window-width="976"
   inkscape:window-height="1186"
   inkscape:window-x="0"
   inkscape:window-y="25"
   inkscape:window-maximized="0"
   inkscape:current-layer="svg1" />
    <path
   d="M7,2.5C5.629,2.5 4.5,3.629 4.5,5L4.5,19C4.5,20.371 5.629,21.5 7,21.5L17,21.5C18.371,21.5 19.5,20.371 19.5,19L19.5,5C19.5,3.629 18.371,2.5 17,2.5L7,2.5ZM7,3.5L17,3.5C17.823,3.5 18.5,4.177 18.5,5L18.5,19C18.5,19.823 17.823,20.5 17,20.5L7,20.5C6.177,20.5 5.5,19.823 5.5,19L5.5,5C5.5,4.177 6.177,3.5 7,3.5ZM12,9.693C9.637,9.693 7.693,11.637 7.693,14C7.693,16.363 9.637,18.307 12,18.307C14.363,18.307 16.307,16.363 16.307,14C16.307,11.637 14.363,9.693 12,9.693ZM12,11.197C13.538,11.197 14.803,12.462 14.803,14C14.803,15.538 13.538,16.803 12,16.803C10.462,16.803 9.197,15.538 9.197,14C9.197,12.462 10.462,11.197 12,11.197ZM12,13.25C11.589,13.25 11.25,13.589 11.25,14L11.25,14.01C11.25,14.421 11.589,14.76 12,14.76C12.411,14.76 12.75,14.421 12.75,14.01L12.75,14C12.75,13.589 12.411,13.25 12,13.25ZM8.793,6.664L15.207,6.664C15.467,6.664 15.682,6.429 15.682,6.143C15.682,5.858 15.467,5.623 15.207,5.623L8.793,5.623C8.532,5.623 8.318,5.858 8.318,6.143C8.318,6.428 8.532,6.664 8.793,6.664Z"
   id="path1"
   style="fill-rule:evenodd;clip-rule:evenodd;stroke-linejoin:round;stroke-miterlimit:2"
   transform="matrix(1,0,0,-1,0,24)" />
</svg>
