<?xml version="1.0" encoding="UTF-8" standalone="no"?>
<!DOCTYPE svg PUBLIC "-//W3C//DTD SVG 1.1//EN" "http://www.w3.org/Graphics/SVG/1.1/DTD/svg11.dtd">
<svg width="24px" height="24px" viewBox="0 0 24 24" version="1.1" xmlns="http://www.w3.org/2000/svg" xmlns:xlink="http://www.w3.org/1999/xlink" xml:space="preserve" xmlns:serif="http://www.serif.com/" style="fill-rule:evenodd;clip-rule:evenodd;stroke-linejoin:round;stroke-miterlimit:2;">
    <path id="path1" d="M12,2.5C17.211,2.5 21.5,6.789 21.5,12C21.5,17.211 17.211,21.5 12,21.5C6.789,21.5 2.5,17.211 2.5,12C2.5,6.789 6.789,2.5 12,2.5ZM12,3.5C7.337,3.5 3.5,7.337 3.5,12C3.5,16.663 7.337,20.5 12,20.5C16.663,20.5 20.5,16.663 20.5,12C20.5,7.337 16.663,3.5 12,3.5ZM11.293,12L8.146,8.854C7.953,8.66 7.953,8.34 8.146,8.146C8.34,7.953 8.66,7.953 8.854,8.146L12,11.293L15.146,8.146C15.34,7.953 15.66,7.953 15.854,8.146C16.047,8.34 16.047,8.66 15.854,8.854L12.707,12L15.854,15.146C16.047,15.34 16.047,15.66 15.854,15.854C15.66,16.047 15.34,16.047 15.146,15.854L12,12.707L8.854,15.854C8.66,16.047 8.34,16.047 8.146,15.854C7.953,15.66 7.953,15.34 8.146,15.146L11.293,12Z" style="fill:rgb(255,0,0);"/>
</svg>
