<?xml version="1.0" encoding="UTF-8" standalone="no"?>
<svg
   width="24px"
   height="24px"
   viewBox="0 0 24 24"
   version="1.1"
   xml:space="preserve"
   style="fill-rule:evenodd;clip-rule:evenodd;stroke-linejoin:round;stroke-miterlimit:2;"
   id="svg1"
   sodipodi:docname="document-new.svg"
   inkscape:version="1.4.2 (ebf0e940, 2025-05-08)"
   xmlns:inkscape="http://www.inkscape.org/namespaces/inkscape"
   xmlns:sodipodi="http://sodipodi.sourceforge.net/DTD/sodipodi-0.dtd"
   xmlns="http://www.w3.org/2000/svg"
   xmlns:svg="http://www.w3.org/2000/svg"><defs
   id="defs1" /><sodipodi:namedview
   id="namedview1"
   pagecolor="#ffffff"
   bordercolor="#000000"
   borderopacity="0.25"
   inkscape:showpageshadow="2"
   inkscape:pageopacity="0.0"
   inkscape:pagecheckerboard="0"
   inkscape:deskcolor="#d1d1d1"
   inkscape:zoom="34.666667"
   inkscape:cx="12.014423"
   inkscape:cy="11.985577"
   inkscape:window-width="976"
   inkscape:window-height="1186"
   inkscape:window-x="0"
   inkscape:window-y="25"
   inkscape:window-maximized="0"
   inkscape:current-layer="svg1" />
    <path
   d="M682.504,-696.1L582.504,-696.1C571.533,-696.1 562.504,-705.128 562.504,-716.1C562.504,-727.072 571.533,-736.1 582.504,-736.1L682.504,-736.1L682.504,-836.1C682.504,-847.072 691.533,-856.1 702.504,-856.1C713.476,-856.1 722.504,-847.072 722.504,-836.1L722.504,-736.1L822.504,-736.1C833.476,-736.1 842.504,-727.072 842.504,-716.1C842.504,-705.128 833.476,-696.1 822.504,-696.1L722.504,-696.1L722.504,-596.1C722.504,-585.128 713.476,-576.1 702.504,-576.1C691.533,-576.1 682.504,-585.128 682.504,-596.1L682.504,-696.1ZM224.62,-160C206.207,-160 190.833,-166.167 178.5,-178.5C166.167,-190.833 160,-206.207 160,-224.62L160,-735.38C160,-753.793 166.167,-769.167 178.5,-781.5C190.833,-793.833 206.207,-800 224.62,-800L404.62,-800C410.287,-800 415.037,-798.08 418.87,-794.24C422.703,-790.4 424.62,-785.643 424.62,-779.97C424.62,-774.297 422.703,-769.55 418.87,-765.73C415.037,-761.91 410.287,-760 404.62,-760L224.62,-760C218.46,-760 212.817,-757.437 207.69,-752.31C202.563,-747.183 200,-741.54 200,-735.38L200,-224.62C200,-218.46 202.563,-212.817 207.69,-207.69C212.817,-202.563 218.46,-200 224.62,-200L735.38,-200C741.54,-200 747.183,-202.563 752.31,-207.69C757.437,-212.817 760,-218.46 760,-224.62L760,-404.62C760,-410.287 761.92,-415.037 765.76,-418.87C769.6,-422.703 774.357,-424.62 780.03,-424.62C785.703,-424.62 790.45,-422.703 794.27,-418.87C798.09,-415.037 800,-410.287 800,-404.62L800,-224.62C800,-206.207 793.833,-190.833 781.5,-178.5C769.167,-166.167 753.793,-160 735.38,-160L224.62,-160Z"
   id="path1"
   style="fill-rule:evenodd;clip-rule:evenodd;stroke-linejoin:round;stroke-miterlimit:2"
   transform="matrix(0.025,0,0,0.025,0,24)" />
</svg>
