<?xml version="1.0" encoding="UTF-8" standalone="no"?>
<!DOCTYPE svg PUBLIC "-//W3C//DTD SVG 1.1//EN" "http://www.w3.org/Graphics/SVG/1.1/DTD/svg11.dtd">
<svg width="24px" height="24px" viewBox="0 0 24 24" version="1.1" xmlns="http://www.w3.org/2000/svg" xmlns:xlink="http://www.w3.org/1999/xlink" xml:space="preserve" xmlns:serif="http://www.serif.com/" style="fill-rule:evenodd;clip-rule:evenodd;stroke-linejoin:round;stroke-miterlimit:2;">
    <path id="path1" d="M11.647,14.353L7.646,10.354C7.453,10.16 7.453,9.84 7.646,9.646C7.84,9.453 8.16,9.453 8.354,9.646L11.5,12.793L11.5,4C11.5,3.726 11.726,3.5 12,3.5C12.274,3.5 12.5,3.726 12.5,4L12.5,12.793L15.646,9.646C15.84,9.453 16.16,9.453 16.354,9.646C16.547,9.84 16.547,10.16 16.354,10.354L12.353,14.353C12.333,14.374 12.311,14.392 12.287,14.409C12.206,14.466 12.106,14.5 12,14.5C11.889,14.5 11.785,14.463 11.701,14.401C11.682,14.386 11.664,14.371 11.647,14.353ZM4,19.5L20,19.5C20.274,19.5 20.5,19.726 20.5,20C20.5,20.274 20.274,20.5 20,20.5L4,20.5C3.726,20.5 3.5,20.274 3.5,20C3.5,19.726 3.726,19.5 4,19.5Z"/>
</svg>
