<?xml version="1.0" encoding="UTF-8" standalone="no"?>
<svg
   width="24px"
   height="24px"
   viewBox="0 0 24 24"
   version="1.1"
   xml:space="preserve"
   style="fill-rule:evenodd;clip-rule:evenodd;stroke-linejoin:round;stroke-miterlimit:2;"
   id="svg1"
   sodipodi:docname="document-open.svg"
   inkscape:version="1.4.2 (ebf0e940, 2025-05-08)"
   xmlns:inkscape="http://www.inkscape.org/namespaces/inkscape"
   xmlns:sodipodi="http://sodipodi.sourceforge.net/DTD/sodipodi-0.dtd"
   xmlns="http://www.w3.org/2000/svg"
   xmlns:svg="http://www.w3.org/2000/svg"><defs
   id="defs1" /><sodipodi:namedview
   id="namedview1"
   pagecolor="#ffffff"
   bordercolor="#000000"
   borderopacity="0.25"
   inkscape:showpageshadow="2"
   inkscape:pageopacity="0.0"
   inkscape:pagecheckerboard="0"
   inkscape:deskcolor="#d1d1d1"
   inkscape:zoom="34.666667"
   inkscape:cx="12.014423"
   inkscape:cy="11.985577"
   inkscape:window-width="976"
   inkscape:window-height="1186"
   inkscape:window-x="0"
   inkscape:window-y="25"
   inkscape:window-maximized="0"
   inkscape:current-layer="svg1" />
    <path
   d="M224.62,-160C206.207,-160 190.833,-166.167 178.5,-178.5C166.167,-190.833 160,-206.207 160,-224.62L160,-735.38C160,-753.793 166.167,-769.167 178.5,-781.5C190.833,-793.833 206.207,-800 224.62,-800L404.62,-800C410.287,-800 415.037,-798.08 418.87,-794.24C422.703,-790.4 424.62,-785.643 424.62,-779.97C424.62,-774.297 422.703,-769.55 418.87,-765.73C415.037,-761.91 410.287,-760 404.62,-760L224.62,-760C218.46,-760 212.817,-757.437 207.69,-752.31C202.563,-747.183 200,-741.54 200,-735.38L200,-224.62C200,-218.46 202.563,-212.817 207.69,-207.69C212.817,-202.563 218.46,-200 224.62,-200L735.38,-200C741.54,-200 747.183,-202.563 752.31,-207.69C757.437,-212.817 760,-218.46 760,-224.62L760,-404.62C760,-410.287 761.92,-415.037 765.76,-418.87C769.6,-422.703 774.357,-424.62 780.03,-424.62C785.703,-424.62 790.45,-422.703 794.27,-418.87C798.09,-415.037 800,-410.287 800,-404.62L800,-224.62C800,-206.207 793.833,-190.833 781.5,-178.5C769.167,-166.167 753.793,-160 735.38,-160L224.62,-160ZM650.572,-276.902C650.572,-271.235 648.652,-266.485 644.812,-262.652C640.972,-258.819 636.215,-256.902 630.542,-256.902C624.869,-256.902 620.122,-258.819 616.302,-262.652C612.482,-266.485 610.572,-271.235 610.572,-276.902L610.572,-516.902C610.572,-522.569 612.492,-527.319 616.332,-531.152C620.172,-534.985 624.929,-536.902 630.602,-536.902C636.275,-536.902 641.022,-534.985 644.842,-531.152C648.662,-527.319 650.572,-522.569 650.572,-516.902L650.572,-276.902ZM490.572,-276.902C490.572,-271.235 488.652,-266.485 484.812,-262.652C480.972,-258.819 476.215,-256.902 470.542,-256.902C464.869,-256.902 460.122,-258.819 456.302,-262.652C452.482,-266.485 450.572,-271.235 450.572,-276.902L450.572,-676.902C450.572,-682.569 452.492,-687.319 456.332,-691.152C460.172,-694.985 464.929,-696.902 470.602,-696.902C476.275,-696.902 481.022,-694.985 484.842,-691.152C488.662,-687.319 490.572,-682.569 490.572,-676.902L490.572,-276.902ZM330.572,-276.902C330.572,-271.235 328.652,-266.485 324.812,-262.652C320.972,-258.819 316.215,-256.902 310.542,-256.902C304.869,-256.902 300.122,-258.819 296.302,-262.652C292.482,-266.485 290.572,-271.235 290.572,-276.902L290.572,-676.902C290.572,-682.569 292.492,-687.319 296.332,-691.152C300.172,-694.985 304.929,-696.902 310.602,-696.902C316.275,-696.902 321.022,-694.985 324.842,-691.152C328.662,-687.319 330.572,-682.569 330.572,-676.902L330.572,-276.902ZM669.588,-641.294L767.818,-641.294C773.511,-641.294 778.268,-639.384 782.088,-635.564C785.908,-631.744 787.818,-626.987 787.818,-621.294C787.818,-615.601 785.908,-610.844 782.088,-607.024C778.268,-603.204 773.511,-601.294 767.818,-601.294L633.358,-601.294C624.071,-601.294 616.365,-604.357 610.238,-610.484C604.111,-616.611 601.048,-624.317 601.048,-633.604L601.048,-768.064C601.048,-773.757 602.958,-778.514 606.778,-782.334C610.598,-786.154 615.355,-788.064 621.048,-788.064C626.741,-788.064 631.498,-786.154 635.318,-782.334C639.138,-778.514 641.048,-773.757 641.048,-768.064L641.048,-668.834L765.668,-793.444C769.408,-797.191 773.958,-799.064 779.318,-799.064C784.678,-799.064 789.305,-797.191 793.198,-793.444C797.611,-789.551 799.688,-784.794 799.428,-779.174C799.175,-773.561 797.098,-768.807 793.198,-764.914L669.588,-641.294Z"
   id="path1"
   style="fill-rule:evenodd;clip-rule:evenodd;stroke-linejoin:round;stroke-miterlimit:2"
   transform="matrix(0,0.025,-0.025,0,0,0)" />
</svg>
