<?xml version="1.0" encoding="UTF-8" standalone="no"?>
<svg
   width="24"
   height="24"
   viewBox="0 0 24 24"
   version="1.1"
   xml:space="preserve"
   style="fill-rule:evenodd;fill:black;clip-rule:evenodd;stroke-linecap:round;stroke-linejoin:round;"
   id="svg4"
   sodipodi:docname="document-edit.svg"
   xmlns:inkscape="http://www.inkscape.org/namespaces/inkscape"
   xmlns:sodipodi="http://sodipodi.sourceforge.net/DTD/sodipodi-0.dtd"
   xmlns="http://www.w3.org/2000/svg"
   xmlns:svg="http://www.w3.org/2000/svg"><defs
   id="defs4" /><sodipodi:namedview
   id="namedview4"
   pagecolor="#ffffff"
   bordercolor="#000000"
   borderopacity="0.25"
   inkscape:showpageshadow="2"
   inkscape:pageopacity="0.0"
   inkscape:pagecheckerboard="0"
   inkscape:deskcolor="#d1d1d1" />
    <path
   d="M12,15L20.385,6.585C20.779,6.191 21,5.657 21,5.1C21,3.948 20.052,3 18.9,3C18.343,3 17.809,3.221 17.415,3.615L9,12L9,15L12,15Z"
   style="fill:none;fill-rule:nonzero;stroke:black;stroke-width:1px;"
   id="path1" />
    <path
   d="M16,5L19,8"
   style="fill:none;fill-rule:nonzero;stroke:black;stroke-width:1px;"
   id="path2" />
    <path
   d="M9,7.07C5.566,7.559 2.987,10.531 2.987,14C2.987,17.84 6.147,21 9.987,21C9.992,21 9.996,21 10,21C13.464,21 16.434,18.429 16.929,15"
   style="fill:none;fill-rule:nonzero;stroke:black;stroke-width:1px;"
   id="path3" />
    <g
   transform="matrix(-0.705857,-0.708355,0.634677,-0.632439,11.8016,22.498)"
   id="g4">
        <path
   d="M7.365,4.314L9.089,6.332L5.641,6.332L7.365,4.314Z"
   id="path4" />
    </g>
</svg>
