<?xml version="1.0" encoding="UTF-8" standalone="no"?>
<!DOCTYPE svg PUBLIC "-//W3C//DTD SVG 1.1//EN" "http://www.w3.org/Graphics/SVG/1.1/DTD/svg11.dtd">
<svg width="24px" height="24px" viewBox="0 0 24 24" version="1.1" xmlns="http://www.w3.org/2000/svg" xmlns:xlink="http://www.w3.org/1999/xlink" xml:space="preserve" xmlns:serif="http://www.serif.com/" style="fill-rule:evenodd;clip-rule:evenodd;stroke-linejoin:round;stroke-miterlimit:2;">
    <path id="path1" d="M11.544,6.5L4,6.5C3.726,6.5 3.5,6.274 3.5,6C3.5,5.726 3.726,5.5 4,5.5L11.544,5.5C11.646,4.932 11.92,4.459 12.293,4.127C12.771,3.702 13.389,3.5 14,3.5C14.611,3.5 15.229,3.702 15.707,4.127C16.08,4.459 16.354,4.932 16.456,5.5L20,5.5C20.274,5.5 20.5,5.726 20.5,6C20.5,6.274 20.274,6.5 20,6.5L16.456,6.5C16.354,7.068 16.08,7.541 15.707,7.873C15.229,8.298 14.611,8.5 14,8.5C13.389,8.5 12.771,8.298 12.293,7.873C11.92,7.541 11.646,7.068 11.544,6.5ZM15.5,6C15.5,5.458 15.315,5.115 15.043,4.873C14.771,4.631 14.389,4.5 14,4.5C13.611,4.5 13.229,4.631 12.957,4.873C12.685,5.115 12.5,5.458 12.5,6C12.5,6.542 12.685,6.885 12.957,7.127C13.229,7.369 13.611,7.5 14,7.5C14.389,7.5 14.771,7.369 15.043,7.127C15.315,6.885 15.5,6.542 15.5,6ZM5.544,12.5L4,12.5C3.726,12.5 3.5,12.274 3.5,12C3.5,11.726 3.726,11.5 4,11.5L5.544,11.5C5.646,10.932 5.92,10.459 6.293,10.127C6.771,9.702 7.389,9.5 8,9.5C8.611,9.5 9.229,9.702 9.707,10.127C10.08,10.459 10.354,10.932 10.456,11.5L20,11.5C20.274,11.5 20.5,11.726 20.5,12C20.5,12.274 20.274,12.5 20,12.5L10.456,12.5C10.354,13.068 10.08,13.541 9.707,13.873C9.229,14.298 8.611,14.5 8,14.5C7.389,14.5 6.771,14.298 6.293,13.873C5.92,13.541 5.646,13.068 5.544,12.5ZM9.5,12C9.5,11.458 9.315,11.115 9.043,10.873C8.771,10.631 8.389,10.5 8,10.5C7.611,10.5 7.229,10.631 6.957,10.873C6.685,11.115 6.5,11.458 6.5,12C6.5,12.542 6.685,12.885 6.957,13.127C7.229,13.369 7.611,13.5 8,13.5C8.389,13.5 8.771,13.369 9.043,13.127C9.315,12.885 9.5,12.542 9.5,12ZM14.544,18.5L4,18.5C3.726,18.5 3.5,18.274 3.5,18C3.5,17.726 3.726,17.5 4,17.5L14.544,17.5C14.646,16.932 14.92,16.459 15.293,16.127C15.771,15.702 16.389,15.5 17,15.5C17.611,15.5 18.229,15.702 18.707,16.127C19.08,16.459 19.354,16.932 19.456,17.5L20,17.5C20.274,17.5 20.5,17.726 20.5,18C20.5,18.274 20.274,18.5 20,18.5L19.456,18.5C19.354,19.068 19.08,19.541 18.707,19.873C18.229,20.298 17.611,20.5 17,20.5C16.389,20.5 15.771,20.298 15.293,19.873C14.92,19.541 14.646,19.068 14.544,18.5ZM18.5,18C18.5,17.458 18.315,17.115 18.043,16.873C17.771,16.631 17.389,16.5 17,16.5C16.611,16.5 16.229,16.631 15.957,16.873C15.685,17.115 15.5,17.458 15.5,18C15.5,18.542 15.685,18.885 15.957,19.127C16.229,19.369 16.611,19.5 17,19.5C17.389,19.5 17.771,19.369 18.043,19.127C18.315,18.885 18.5,18.542 18.5,18Z"/>
</svg>
