<?xml version="1.0" encoding="UTF-8" standalone="no"?>
<!DOCTYPE svg PUBLIC "-//W3C//DTD SVG 1.1//EN" "http://www.w3.org/Graphics/SVG/1.1/DTD/svg11.dtd">
<svg width="24px" height="24px" viewBox="0 0 24 24" version="1.1" xmlns="http://www.w3.org/2000/svg" xmlns:xlink="http://www.w3.org/1999/xlink" xml:space="preserve" xmlns:serif="http://www.serif.com/" style="fill-rule:evenodd;clip-rule:evenodd;stroke-linejoin:round;stroke-miterlimit:2;">
    <g id="path1" transform="matrix(0.88823,0,0,0.88823,1.34124,1.34124)">
        <path d="M5,2.436L19,2.436C20.407,2.436 21.564,3.593 21.564,5L21.564,19C21.564,20.407 20.407,21.564 19,21.564L5,21.564C3.593,21.564 2.436,20.407 2.436,19L2.436,5C2.436,3.593 3.593,2.436 5,2.436ZM5,3.564C4.213,3.564 3.564,4.213 3.564,5L3.564,19C3.564,19.787 4.213,20.436 5,20.436L19,20.436C19.787,20.436 20.436,19.787 20.436,19L20.436,5C20.436,4.213 19.787,3.564 19,3.564L5,3.564ZM8.001,7.898C8.221,7.678 8.583,7.678 8.802,7.898L12,11.095L15.198,7.898C15.418,7.678 15.779,7.678 15.999,7.898C16.219,8.117 16.219,8.479 15.999,8.699L12.801,11.897L15.999,15.094C16.219,15.314 16.219,15.676 15.999,15.895C15.779,16.115 15.418,16.115 15.198,15.895L12,12.698L8.802,15.895C8.583,16.115 8.221,16.115 8.001,15.895C7.782,15.676 7.782,15.314 8.001,15.094L11.199,11.897L8.001,8.699C7.782,8.479 7.782,8.117 8.001,7.898Z"/>
    </g>
</svg>
