<svg xmlns="http://www.w3.org/2000/svg" height="24px" viewBox="0 -960 960 960" width="24px" fill="#666666"><path d="M546.15-451.69 636-361.85q5.62 5.62 13.77 6 8.15.39 14.54-6 6.38-6.38 6.38-14.15 0-7.77-6.38-14.15L574.46-480l89.85-89.85q5.61-5.61 6-13.77.38-8.15-6-14.53-6.39-6.39-14.16-6.39-7.77 0-14.15 6.39l-89.85 89.84-89.84-89.84q-5.62-5.62-13.77-6-8.16-.39-14.54 6-6.38 6.38-6.38 14.15 0 7.77 6.38 14.15L517.85-480 428-390.15q-5.62 5.61-6 13.77-.38 8.15 6 14.53 6.38 6.39 14.15 6.39 7.77 0 14.16-6.39l89.84-89.84ZM366.92-200q-15.15 0-29.07-6.58-13.93-6.57-22.62-18.5L149.85-440.46q-13.7-17.92-13.7-39.54 0-21.62 13.7-39.54l165.38-215.38q8.69-11.93 22.62-18.5 13.92-6.58 29.07-6.58h408.46q26.85 0 45.74 18.88Q840-722.23 840-695.38v430.76q0 26.85-18.88 45.74Q802.23-200 775.38-200H366.92Zm0-40h408.46q10.77 0 17.7-6.92 6.92-6.93 6.92-17.7v-430.76q0-10.77-6.92-17.7-6.93-6.92-17.7-6.92H366.92q-6.15 0-11.15 2.31t-8.85 6.92L181.54-495.38q-5.39 6.92-5.39 15.38t5.39 15.38l165.38 215.39q3.85 4.61 8.85 6.92 5 2.31 11.15 2.31Zm120.77-240Z"/></svg>