<?xml version="1.0" encoding="UTF-8" standalone="no"?>
<!DOCTYPE svg PUBLIC "-//W3C//DTD SVG 1.1//EN" "http://www.w3.org/Graphics/SVG/1.1/DTD/svg11.dtd">
<svg width="24px" height="24px" viewBox="0 0 24 24" version="1.1" xmlns="http://www.w3.org/2000/svg" xmlns:xlink="http://www.w3.org/1999/xlink" xml:space="preserve" xmlns:serif="http://www.serif.com/" style="fill-rule:evenodd;clip-rule:evenodd;stroke-linejoin:round;stroke-miterlimit:2;">
    <path id="path1" d="M9,5.5L20,5.5C20.823,5.5 21.5,6.177 21.5,7L21.5,17C21.5,17.823 20.823,18.5 20,18.5L9,18.5C8.867,18.5 8.74,18.447 8.646,18.354L3.627,13.334C2.951,12.578 2.951,11.422 3.627,10.666L8.646,5.646C8.74,5.553 8.867,5.5 9,5.5ZM9.207,6.5L4.373,11.334C4.031,11.717 4.031,12.283 4.373,12.666L9.207,17.5L20,17.5C20.282,17.5 20.5,17.282 20.5,17L20.5,7C20.5,6.718 20.282,6.5 20,6.5L9.207,6.5ZM11.646,9.646C11.84,9.453 12.16,9.453 12.354,9.646L14,11.293L15.646,9.646C15.84,9.453 16.16,9.453 16.354,9.646C16.547,9.84 16.547,10.16 16.354,10.354L14.707,12L16.354,13.646C16.547,13.84 16.547,14.16 16.354,14.354C16.16,14.547 15.84,14.547 15.646,14.354L14,12.707L12.354,14.354C12.16,14.547 11.84,14.547 11.646,14.354C11.453,14.16 11.453,13.84 11.646,13.646L13.293,12L11.646,10.354C11.453,10.16 11.453,9.84 11.646,9.646Z"/>
</svg>
