<?xml version="1.0" encoding="UTF-8" standalone="no"?>
<!--
category: Text
tags: [clipboard, clone, duplicate]
version: "1.0"
unicode: "ea7a"
-->

<svg
   width="24"
   height="24"
   viewBox="0 0 24 24"
   fill="none"
   stroke="black"
   stroke-width="1"
   stroke-linecap="round"
   stroke-linejoin="round"
   version="1.1"
   id="svg2"
   sodipodi:docname="edit-copy.svg"
   xmlns:inkscape="http://www.inkscape.org/namespaces/inkscape"
   xmlns:sodipodi="http://sodipodi.sourceforge.net/DTD/sodipodi-0.dtd"
   xmlns="http://www.w3.org/2000/svg"
   xmlns:svg="http://www.w3.org/2000/svg">
  <defs
     id="defs2" />
  <sodipodi:namedview
     id="namedview2"
     pagecolor="#ffffff"
     bordercolor="#000000"
     borderopacity="0.25"
     inkscape:showpageshadow="2"
     inkscape:pageopacity="0.0"
     inkscape:pagecheckerboard="0"
     inkscape:deskcolor="#d1d1d1" />
  <path
     d="M7 7m0 2.667a2.667 2.667 0 0 1 2.667 -2.667h8.666a2.667 2.667 0 0 1 2.667 2.667v8.666a2.667 2.667 0 0 1 -2.667 2.667h-8.666a2.667 2.667 0 0 1 -2.667 -2.667z"
     id="path1" />
  <path
     d="M4.012 16.737a2.005 2.005 0 0 1 -1.012 -1.737v-10c0 -1.1 .9 -2 2 -2h10c.75 0 1.158 .385 1.5 1"
     id="path2" />
</svg>
