<?xml version="1.0" encoding="UTF-8" standalone="no"?>
<svg
   width="24"
   height="24"
   viewBox="0 0 24 24"
   version="1.1"
   xml:space="preserve"
   style="fill-rule:evenodd;fill:black;clip-rule:evenodd;stroke-linecap:round;stroke-linejoin:round;"
   id="svg4"
   sodipodi:docname="edit-cut.svg"
   xmlns:inkscape="http://www.inkscape.org/namespaces/inkscape"
   xmlns:sodipodi="http://sodipodi.sourceforge.net/DTD/sodipodi-0.dtd"
   xmlns="http://www.w3.org/2000/svg"
   xmlns:svg="http://www.w3.org/2000/svg"><defs
   id="defs4" /><sodipodi:namedview
   id="namedview4"
   pagecolor="#ffffff"
   bordercolor="#000000"
   borderopacity="0.25"
   inkscape:showpageshadow="2"
   inkscape:pageopacity="0.0"
   inkscape:pagecheckerboard="0"
   inkscape:deskcolor="#d1d1d1" />
    <path
   d="M4,17C4,18.646 5.354,20 7,20C8.646,20 10,18.646 10,17C10,15.354 8.646,14 7,14C5.354,14 4,15.354 4,17"
   style="fill:none;fill-rule:nonzero;stroke:black;stroke-width:1px;"
   id="path1" />
    <path
   d="M14,17C14,18.646 15.354,20 17,20C18.646,20 20,18.646 20,17C20,15.354 18.646,14 17,14C15.354,14 14,15.354 14,17"
   style="fill:none;fill-rule:nonzero;stroke:black;stroke-width:1px;"
   id="path2" />
    <path
   d="M9.322,14.677L18,4"
   style="fill:none;fill-rule:nonzero;stroke:black;stroke-width:1.5px;"
   id="path3" />
    <path
   d="M6,4L14.69,14.676"
   style="fill:none;fill-rule:nonzero;stroke:black;stroke-width:1.5px;"
   id="path4" />
</svg>
