<?xml version="1.0" encoding="UTF-8" standalone="no"?>
<!DOCTYPE svg PUBLIC "-//W3C//DTD SVG 1.1//EN" "http://www.w3.org/Graphics/SVG/1.1/DTD/svg11.dtd">
<svg width="24px" height="24px" viewBox="0 0 24 24" version="1.1" xmlns="http://www.w3.org/2000/svg" xmlns:xlink="http://www.w3.org/1999/xlink" xml:space="preserve" xmlns:serif="http://www.serif.com/" style="fill-rule:evenodd;clip-rule:evenodd;stroke-linejoin:round;stroke-miterlimit:2;">
    <path id="path1" d="M9.938,15.108C10.293,15.655 10.5,16.305 10.5,17C10.5,18.92 8.92,20.5 7,20.5C5.08,20.5 3.5,18.92 3.5,17C3.5,15.08 5.08,13.5 7,13.5C7.685,13.5 8.326,13.701 8.868,14.046L11.037,11.377L5.418,4.473C5.159,4.153 5.208,3.677 5.527,3.418C5.847,3.159 6.323,3.208 6.582,3.527L12.004,10.188L17.418,3.527C17.677,3.208 18.153,3.159 18.473,3.418C18.792,3.677 18.841,4.153 18.582,4.473L12.971,11.377L15.14,14.041C15.68,13.699 16.319,13.5 17,13.5C18.92,13.5 20.5,15.08 20.5,17C20.5,18.92 18.92,20.5 17,20.5C15.08,20.5 13.5,18.92 13.5,17C13.5,16.302 13.709,15.649 14.067,15.1L12.004,12.566L9.938,15.108ZM7,14.5C5.628,14.5 4.5,15.628 4.5,17C4.5,18.372 5.628,19.5 7,19.5C8.372,19.5 9.5,18.372 9.5,17C9.5,15.628 8.372,14.5 7,14.5ZM17,14.5C15.628,14.5 14.5,15.628 14.5,17C14.5,18.372 15.628,19.5 17,19.5C18.372,19.5 19.5,18.372 19.5,17C19.5,15.628 18.372,14.5 17,14.5Z"/>
</svg>
