<?xml version="1.0" encoding="UTF-8" standalone="no"?>
<!DOCTYPE svg PUBLIC "-//W3C//DTD SVG 1.1//EN" "http://www.w3.org/Graphics/SVG/1.1/DTD/svg11.dtd">
<svg width="100%" height="100%" viewBox="0 0 24 24" version="1.1" fill="#666666" xmlns="http://www.w3.org/2000/svg" xmlns:xlink="http://www.w3.org/1999/xlink" xml:space="preserve" xmlns:serif="http://www.serif.com/" style="fill-rule:evenodd;clip-rule:evenodd;stroke-linejoin:round;stroke-miterlimit:2;">
    <g transform="matrix(-0.025,0,0,0.025,23.9893,24)">
        <path d="M480,-120C435.64,-120 394.063,-128.347 355.27,-145.04C316.477,-161.733 282.58,-184.58 253.58,-213.58C224.58,-242.58 201.733,-276.477 185.04,-315.27C168.347,-354.063 160,-395.64 160,-440C160,-484.36 168.347,-525.937 185.04,-564.73C201.733,-603.523 224.58,-637.42 253.58,-666.42C282.58,-695.42 316.477,-718.267 355.27,-734.96C394.063,-751.653 435.64,-760 480,-760L495.23,-760L442.77,-812.46C438.51,-816.72 436.38,-821.4 436.38,-826.5C436.38,-831.6 438.51,-836.357 442.77,-840.77C446.67,-844.67 451.297,-846.657 456.65,-846.73C462.01,-846.81 466.897,-844.9 471.31,-841L549.69,-763.38C555.997,-757.073 559.15,-749.537 559.15,-740.77C559.15,-732.003 555.997,-724.463 549.69,-718.15L472.85,-640.54C468.95,-636.127 464.32,-633.96 458.96,-634.04C453.6,-634.113 448.717,-636.357 444.31,-640.77C440.05,-645.177 437.92,-649.933 437.92,-655.04C437.92,-660.14 440.05,-664.82 444.31,-669.08L495.23,-720L480,-720C402,-720 335.833,-692.833 281.5,-638.5C227.167,-584.167 200,-518 200,-440C200,-362 227.167,-295.833 281.5,-241.5C335.833,-187.167 402,-160 480,-160C553.747,-160 617.207,-184.923 670.38,-234.77C723.56,-284.617 753.023,-346.333 758.77,-419.92C759.59,-425.46 761.95,-430.193 765.85,-434.12C769.743,-438.04 774.46,-440 780,-440C785.54,-440 790.257,-438.077 794.15,-434.23C798.05,-430.383 799.847,-425.767 799.54,-420.38C794.307,-335.407 761.023,-264.1 699.69,-206.46C638.357,-148.82 565.127,-120 480,-120Z"/>
    </g>
</svg>
