<?xml version="1.0" encoding="UTF-8" standalone="no"?>
<!--
tags: [stack, arrange, pile, order, sort, group, select, organize, choose, layout]
category: Design
unicode: "fea9"
version: "3.1"
-->

<svg
   width="24"
   height="24"
   viewBox="0 0 24 24"
   fill="none"
   stroke="currentColor"
   stroke-width="1"
   stroke-linecap="round"
   stroke-linejoin="round"
   version="1.1"
   id="svg5"
   sodipodi:docname="go-next-view.svg"
   xmlns:inkscape="http://www.inkscape.org/namespaces/inkscape"
   xmlns:sodipodi="http://sodipodi.sourceforge.net/DTD/sodipodi-0.dtd"
   xmlns="http://www.w3.org/2000/svg"
   xmlns:svg="http://www.w3.org/2000/svg">
  <defs
     id="defs5" />
  <sodipodi:namedview
     id="namedview5"
     pagecolor="#ffffff"
     bordercolor="#000000"
     borderopacity="0.25"
     inkscape:showpageshadow="2"
     inkscape:pageopacity="0.0"
     inkscape:pagecheckerboard="0"
     inkscape:deskcolor="#d1d1d1" />
  <path
     style="baseline-shift:baseline;display:inline;overflow:visible;vector-effect:none;fill:#000000;stroke:none;stroke-linecap:butt;stroke-linejoin:miter;enable-background:accumulate;stop-color:#000000;stop-opacity:1;opacity:1"
     d="M 14.138672,3.6542969 7.6464844,10.146484 a 0.5,0.5 0 0 0 0,0.707032 0.5,0.5 0 0 0 0.7070312,0 L 14.845703,4.3613281 a 0.5,0.5 0 0 0 0,-0.7070312 0.5,0.5 0 0 0 -0.707031,0 z"
     id="path1" />
  <path
     style="baseline-shift:baseline;display:inline;overflow:visible;vector-effect:none;fill:#000000;stroke:none;stroke-linecap:butt;stroke-linejoin:miter;enable-background:accumulate;stop-color:#000000;stop-opacity:1;opacity:1"
     d="m 19.646484,9.1425781 -6.503906,6.5039059 a 0.50005,0.50005 0 0 0 0.0039,0.701172 0.50005,0.50005 0 0 0 0.703125,0.0059 l 6.503907,-6.5039066 a 0.50005,0.50005 0 0 0 -0.0059,-0.703125 0.50005,0.50005 0 0 0 -0.701172,-0.00391 z"
     id="path2" />
  <path
     style="baseline-shift:baseline;display:inline;overflow:visible;vector-effect:none;fill:#000000;stroke:none;stroke-linecap:butt;stroke-linejoin:miter;enable-background:accumulate;stop-color:#000000;stop-opacity:1;opacity:1"
     d="M 19.058594,4.234375 8.2324219,15.060547 a 0.5,0.5 0 0 0 0,0.707031 0.5,0.5 0 0 0 0.7070312,0 L 19.765625,4.9414062 a 0.5,0.5 0 0 0 0,-0.7070312 0.5,0.5 0 0 0 -0.707031,0 z"
     id="path3" />
  <path
     style="baseline-shift:baseline;display:inline;overflow:visible;vector-effect:none;fill:#000000;stroke:none;stroke-linecap:butt;stroke-linejoin:miter;enable-background:accumulate;stop-color:#000000;stop-opacity:1;opacity:1"
     d="M 10,3.5 C 8.6252104,3.5 7.5,4.6252104 7.5,6 v 8 c 0,1.37479 1.1252104,2.5 2.5,2.5 h 8 c 1.37479,0 2.5,-1.12521 2.5,-2.5 V 6 C 20.5,4.6252104 19.37479,3.5 18,3.5 Z m 0,1 h 8 c 0.834349,0 1.5,0.6656506 1.5,1.5 v 8 c 0,0.834349 -0.665651,1.5 -1.5,1.5 H 10 C 9.1656506,15.5 8.5,14.834349 8.5,14 V 6 C 8.5,5.1656506 9.1656506,4.5 10,4.5 Z"
     id="path4" />
  <path
     style="baseline-shift:baseline;display:inline;overflow:visible;vector-effect:none;fill:#000000;stroke:none;stroke-linecap:butt;stroke-linejoin:miter;enable-background:accumulate;stop-color:#000000;stop-opacity:1;opacity:1"
     d="M 6,7.5 C 4.6252104,7.5 3.5,8.6252104 3.5,10 v 8 c 0,1.37479 1.1252104,2.5 2.5,2.5 h 8 c 1.37479,0 2.5,-1.12521 2.5,-2.5 V 16 A 0.5,0.5 0 0 0 16,15.5 0.5,0.5 0 0 0 15.5,16 v 2 c 0,0.834349 -0.665651,1.5 -1.5,1.5 H 6 C 5.1656506,19.5 4.5,18.834349 4.5,18 V 10 C 4.5,9.1656506 5.1656506,8.5 6,8.5 H 8 A 0.5,0.5 0 0 0 8.5,8 0.5,0.5 0 0 0 8,7.5 Z"
     id="path5" />
</svg>
