<?xml version="1.0" encoding="UTF-8" standalone="no"?>
<!DOCTYPE svg PUBLIC "-//W3C//DTD SVG 1.1//EN" "http://www.w3.org/Graphics/SVG/1.1/DTD/svg11.dtd">
<svg width="24px" height="24px" viewBox="0 0 24 24" version="1.1" xmlns="http://www.w3.org/2000/svg" xmlns:xlink="http://www.w3.org/1999/xlink" xml:space="preserve" xmlns:serif="http://www.serif.com/" style="fill-rule:evenodd;clip-rule:evenodd;stroke-linejoin:round;stroke-miterlimit:2;">
    <path id="path1" d="M17.793,12.5L5,12.5C4.726,12.5 4.5,12.274 4.5,12C4.5,11.726 4.726,11.5 5,11.5L17.793,11.5L12.646,6.354C12.453,6.16 12.453,5.84 12.646,5.646C12.84,5.453 13.16,5.453 13.354,5.646L19.353,11.647C19.374,11.667 19.392,11.689 19.409,11.713C19.466,11.794 19.5,11.894 19.5,12C19.5,12.106 19.466,12.206 19.409,12.287C19.392,12.311 19.374,12.333 19.353,12.353L13.354,18.354C13.16,18.547 12.84,18.547 12.646,18.354C12.453,18.16 12.453,17.84 12.646,17.646L17.793,12.5Z"/>
</svg>
