<?xml version="1.0" encoding="UTF-8" standalone="no"?>
<!DOCTYPE svg PUBLIC "-//W3C//DTD SVG 1.1//EN" "http://www.w3.org/Graphics/SVG/1.1/DTD/svg11.dtd">
<svg width="24px" height="24px" viewBox="0 0 24 24" version="1.1" xmlns="http://www.w3.org/2000/svg" xmlns:xlink="http://www.w3.org/1999/xlink" xml:space="preserve" xmlns:serif="http://www.serif.com/" style="fill-rule:evenodd;clip-rule:evenodd;stroke-linejoin:round;stroke-miterlimit:2;">
    <path id="path1" d="M19.5,8L19.5,19C19.5,20.371 18.371,21.5 17,21.5L7,21.5C5.629,21.5 4.5,20.371 4.5,19L4.5,5C4.5,3.629 5.629,2.5 7,2.5L14,2.5C14.135,2.5 14.261,2.555 14.353,2.647L19.353,7.647C19.445,7.739 19.5,7.865 19.5,8ZM13.5,3.5L7,3.5C6.177,3.5 5.5,4.177 5.5,5L5.5,19C5.5,19.823 6.177,20.5 7,20.5L17,20.5C17.823,20.5 18.5,19.823 18.5,19L18.5,8.5L15,8.5C14.177,8.5 13.5,7.823 13.5,7L13.5,3.5ZM17.793,7.5L14.5,4.207L14.5,7C14.5,7.275 14.725,7.5 15,7.5L17.793,7.5ZM8.308,16.5C8.146,16.5 8.028,16.428 7.954,16.283C7.879,16.138 7.896,15.995 8.004,15.854L9.158,14.333C9.245,14.225 9.349,14.171 9.471,14.171C9.593,14.171 9.697,14.219 9.785,14.314L11.212,16.038L13.504,13.141C13.591,13.033 13.699,12.979 13.827,12.979C13.955,12.979 14.063,13.033 14.15,13.141L16.169,15.854C16.264,15.995 16.274,16.138 16.2,16.283C16.126,16.428 16.008,16.5 15.846,16.5L8.308,16.5Z"/>
</svg>
