<?xml version="1.0" encoding="UTF-8" standalone="no"?>
<!DOCTYPE svg PUBLIC "-//W3C//DTD SVG 1.1//EN" "http://www.w3.org/Graphics/SVG/1.1/DTD/svg11.dtd">
<svg width="24px" height="24px" viewBox="0 0 24 24" version="1.1" xmlns="http://www.w3.org/2000/svg" xmlns:xlink="http://www.w3.org/1999/xlink" xml:space="preserve" xmlns:serif="http://www.serif.com/" style="fill-rule:evenodd;clip-rule:evenodd;stroke-linejoin:round;stroke-miterlimit:2;">
    <path id="path1" d="M11.353,21.478C6.413,21.145 2.5,17.023 2.5,12C2.5,6.975 6.415,2.853 11.357,2.521C11.367,2.519 11.377,2.516 11.387,2.514C11.454,2.498 11.524,2.496 11.591,2.509C11.727,2.503 11.863,2.5 12,2.5C12.137,2.5 12.273,2.503 12.409,2.509C12.476,2.496 12.546,2.498 12.613,2.514C12.623,2.516 12.633,2.519 12.643,2.521C17.585,2.853 21.5,6.975 21.5,12C21.5,17.023 17.587,21.145 12.647,21.478C12.6,21.493 12.55,21.5 12.5,21.5C12.469,21.5 12.437,21.497 12.407,21.491C12.272,21.497 12.136,21.5 12,21.5C11.864,21.5 11.728,21.497 11.593,21.491C11.563,21.497 11.531,21.5 11.5,21.5C11.45,21.5 11.4,21.493 11.353,21.478ZM10.558,3.621C7.736,4.102 5.392,5.97 4.25,8.5L8.776,8.5C9.119,6.815 9.713,5.17 10.558,3.621ZM3.872,9.5C3.63,10.29 3.5,11.13 3.5,12C3.5,12.87 3.63,13.71 3.872,14.5L8.602,14.5C8.363,12.842 8.363,11.158 8.602,9.5L3.872,9.5ZM4.25,15.5C5.392,18.03 7.736,19.898 10.558,20.379C9.713,18.83 9.119,17.185 8.776,15.5L4.25,15.5ZM13.442,20.379C16.264,19.898 18.608,18.03 19.75,15.5L15.224,15.5C14.881,17.185 14.287,18.83 13.442,20.379ZM20.128,14.5C20.37,13.71 20.5,12.87 20.5,12C20.5,11.13 20.37,10.29 20.128,9.5L15.398,9.5C15.637,11.158 15.637,12.842 15.398,14.5L20.128,14.5ZM19.75,8.5C18.608,5.97 16.264,4.102 13.442,3.621C14.287,5.17 14.881,6.815 15.224,8.5L19.75,8.5ZM12.221,3.503C12.148,3.501 12.074,3.5 12,3.5C11.926,3.5 11.852,3.501 11.779,3.503C10.834,5.074 10.174,6.764 9.797,8.5L14.203,8.5C13.826,6.764 13.166,5.074 12.221,3.503ZM9.612,9.5C9.358,11.157 9.358,12.843 9.612,14.5L14.388,14.5C14.642,12.843 14.642,11.157 14.388,9.5L9.612,9.5ZM9.797,15.5C10.174,17.236 10.834,18.926 11.779,20.497C11.852,20.499 11.926,20.5 12,20.5C12.074,20.5 12.148,20.499 12.221,20.497C13.166,18.926 13.826,17.236 14.203,15.5L9.797,15.5Z"/>
</svg>
