<?xml version="1.0" encoding="UTF-8" standalone="no"?>
<!DOCTYPE svg PUBLIC "-//W3C//DTD SVG 1.1//EN" "http://www.w3.org/Graphics/SVG/1.1/DTD/svg11.dtd">
<svg width="24px" height="24px" viewBox="0 0 24 24" version="1.1" xmlns="http://www.w3.org/2000/svg" xmlns:xlink="http://www.w3.org/1999/xlink" xml:space="preserve" xmlns:serif="http://www.serif.com/" style="fill-rule:evenodd;clip-rule:evenodd;stroke-linejoin:round;stroke-miterlimit:2;">
    <path id="path1" d="M1.5,9C1.5,8.726 1.726,8.5 2,8.5C4.453,8.5 6.712,9.344 8.5,10.757C8.568,8.079 9.69,5.522 11.639,3.654C11.644,3.649 11.649,3.644 11.654,3.639C11.744,3.552 11.864,3.503 11.988,3.5C11.996,3.5 12.004,3.5 12.012,3.5C12.136,3.503 12.256,3.552 12.346,3.639C12.351,3.644 12.356,3.649 12.361,3.654C14.31,5.522 15.432,8.079 15.5,10.757C17.288,9.344 19.547,8.5 22,8.5C22.274,8.5 22.5,8.726 22.5,9C22.5,14.793 17.793,19.5 12,19.5C6.207,19.5 1.5,14.793 1.5,9ZM9.489,11.645C10.624,12.8 11.493,14.216 12,15.793C12.507,14.216 13.376,12.8 14.511,11.645C14.497,11.599 14.49,11.551 14.49,11.501L14.49,11.475C14.615,8.968 13.711,6.527 12,4.709C10.289,6.527 9.385,8.968 9.51,11.475L9.51,11.501C9.51,11.551 9.503,11.599 9.489,11.645ZM11.486,18.486C11.229,13.643 7.357,9.771 2.514,9.514C2.771,14.357 6.643,18.229 11.486,18.486ZM21.486,9.514C16.643,9.771 12.771,13.643 12.514,18.486C17.357,18.229 21.229,14.357 21.486,9.514Z"/>
</svg>
