<?xml version="1.0" encoding="UTF-8" standalone="no"?>
<svg
   width="24px"
   height="24px"
   viewBox="0 0 24 24"
   version="1.1"
   xml:space="preserve"
   style="fill-rule:evenodd;clip-rule:evenodd;stroke-linejoin:round;stroke-miterlimit:2;"
   id="svg1"
   sodipodi:docname="list-add.svg"
   inkscape:version="1.4.2 (ebf0e940, 2025-05-08)"
   xmlns:inkscape="http://www.inkscape.org/namespaces/inkscape"
   xmlns:sodipodi="http://sodipodi.sourceforge.net/DTD/sodipodi-0.dtd"
   xmlns="http://www.w3.org/2000/svg"
   xmlns:svg="http://www.w3.org/2000/svg"><defs
   id="defs1" /><sodipodi:namedview
   id="namedview1"
   pagecolor="#ffffff"
   bordercolor="#000000"
   borderopacity="0.25"
   inkscape:showpageshadow="2"
   inkscape:pageopacity="0.0"
   inkscape:pagecheckerboard="0"
   inkscape:deskcolor="#d1d1d1"
   inkscape:zoom="34.666667"
   inkscape:cx="12.014423"
   inkscape:cy="11.985577"
   inkscape:window-width="976"
   inkscape:window-height="1186"
   inkscape:window-x="0"
   inkscape:window-y="25"
   inkscape:window-maximized="0"
   inkscape:current-layer="svg1" />
    <path
   d="M459.996,-459.992L180,-459.992C174.333,-459.992 169.583,-461.92 165.75,-465.76C161.917,-469.6 160,-474.357 160,-480.03C160,-485.703 161.917,-490.45 165.75,-494.27C169.583,-498.09 174.333,-500 180,-500L459.996,-500L459.996,-779.996C459.996,-785.663 461.916,-790.413 465.756,-794.246C469.596,-798.079 474.353,-799.996 480.026,-799.996C485.699,-799.996 490.446,-798.079 494.266,-794.246C498.086,-790.413 500.004,-785.663 500.004,-779.996L500.004,-500L780,-500C785.667,-500 790.417,-498.08 794.25,-494.24C798.083,-490.4 800,-485.643 800,-479.97C800,-474.297 798.083,-469.55 794.25,-465.73C790.417,-461.91 785.667,-459.992 780,-459.992L500.004,-459.992L500.004,-179.996C500.004,-174.329 498.076,-169.579 494.236,-165.746C490.396,-161.913 485.639,-159.996 479.966,-159.996C474.293,-159.996 469.546,-161.913 465.726,-165.746C461.906,-169.579 459.996,-174.329 459.996,-179.996L459.996,-459.992Z"
   id="path1"
   style="fill-rule:evenodd;clip-rule:evenodd;stroke-linejoin:round;stroke-miterlimit:2"
   transform="matrix(0.025,0,0,0.025,0,24)" />
</svg>
