<?xml version="1.0" encoding="UTF-8" standalone="no"?>
<!DOCTYPE svg PUBLIC "-//W3C//DTD SVG 1.1//EN" "http://www.w3.org/Graphics/SVG/1.1/DTD/svg11.dtd">
<svg width="24px" height="24px" viewBox="0 0 24 24" version="1.1" xmlns="http://www.w3.org/2000/svg" xmlns:xlink="http://www.w3.org/1999/xlink" xml:space="preserve" xmlns:serif="http://www.serif.com/" style="fill-rule:evenodd;clip-rule:evenodd;stroke-linejoin:round;stroke-miterlimit:2;">
    <path id="path1" d="M12,3.5C12.144,3.5 12.282,3.562 12.377,3.67L19.377,11.67C19.457,11.761 19.501,11.879 19.501,12C19.501,12.274 19.275,12.5 19.001,12.5L4.999,12.5C4.725,12.5 4.499,12.274 4.499,12C4.499,11.879 4.543,11.761 4.623,11.67L11.623,3.67C11.718,3.562 11.856,3.5 12,3.5ZM12,4.762L6.104,11.5L17.896,11.5L12,4.762ZM6,15.5L18,15.5C18.823,15.5 19.5,16.177 19.5,17L19.5,19C19.5,19.823 18.823,20.5 18,20.5L6,20.5C5.177,20.5 4.5,19.823 4.5,19L4.5,17C4.5,16.177 5.177,15.5 6,15.5ZM6,16.5C5.718,16.5 5.5,16.718 5.5,17L5.5,19C5.5,19.282 5.718,19.5 6,19.5L18,19.5C18.282,19.5 18.5,19.282 18.5,19L18.5,17C18.5,16.718 18.282,16.5 18,16.5L6,16.5Z"/>
</svg>
