<?xml version="1.0" encoding="UTF-8" standalone="no"?>
<!DOCTYPE svg PUBLIC "-//W3C//DTD SVG 1.1//EN" "http://www.w3.org/Graphics/SVG/1.1/DTD/svg11.dtd">
<svg width="100%" height="100%" viewBox="0 0 24 24" version="1.1" fill="#666666" xmlns="http://www.w3.org/2000/svg" xmlns:xlink="http://www.w3.org/1999/xlink" xml:space="preserve" xmlns:serif="http://www.serif.com/" style="fill-rule:evenodd;clip-rule:evenodd;stroke-linejoin:round;stroke-miterlimit:2;">
    <g transform="matrix(2.44929e-18,0.04,-0.04,2.44929e-18,-11.3434,-7.2)">
        <path d="M285.77,-424.31L453.15,-673.52C456.637,-678.713 460.65,-682.423 465.19,-684.65C469.723,-686.883 474.66,-688 480,-688C485.34,-688 490.277,-686.883 494.81,-684.65C499.35,-682.423 503.363,-678.713 506.85,-673.52L674.23,-424.31C681.51,-413.537 681.983,-402.433 675.65,-391C669.317,-379.567 659.817,-373.85 647.15,-373.85L312.85,-373.85C300.183,-373.85 290.683,-379.567 284.35,-391C278.017,-402.433 278.49,-413.537 285.77,-424.31ZM652.83,-408.069L480,-665.543L307.239,-408.173L306.765,-407.467C306.295,-406.638 306.016,-405.66 306.016,-404.622C306.016,-401.742 308.078,-399.366 310.722,-399.077L311.825,-399.077L312.141,-399.122L312.141,-399.077L649.953,-399.077C652.299,-399.635 654.053,-401.862 654.053,-404.518C654.053,-405.556 653.773,-406.535 653.303,-407.364L652.83,-408.069ZM258.3,-793.319L701.401,-793.319C704.942,-793.319 707.911,-792.119 710.307,-789.719C712.702,-787.319 713.901,-784.345 713.901,-780.8C713.901,-777.254 712.702,-774.287 710.307,-771.9C707.911,-769.512 704.942,-768.319 701.401,-768.319L258.3,-768.319C254.843,-768.319 251.945,-769.519 249.607,-771.919C247.269,-774.319 246.099,-777.292 246.099,-780.837C246.099,-784.383 247.269,-787.35 249.607,-789.737C251.945,-792.125 254.843,-793.319 258.3,-793.319Z"/>
    </g>
</svg>
