<?xml version="1.0" encoding="UTF-8" standalone="no"?>
<!DOCTYPE svg PUBLIC "-//W3C//DTD SVG 1.1//EN" "http://www.w3.org/Graphics/SVG/1.1/DTD/svg11.dtd">
<svg height="24px" viewBox="0 0 24 24" version="1.1" fill="#666666" xmlns="http://www.w3.org/2000/svg" xmlns:xlink="http://www.w3.org/1999/xlink" xml:space="preserve" xmlns:serif="http://www.serif.com/" style="fill-rule:evenodd;clip-rule:evenodd;stroke-linejoin:round;stroke-miterlimit:2;">
    <g transform="matrix(0.0342857,0,0,0.0342857,-4.44207,28.4571)">
        <path d="M280,-240C269.28,-240 259.933,-243.987 251.96,-251.96C243.987,-259.933 240,-269.28 240,-280L240,-680C240,-690.72 243.987,-700.067 251.96,-708.04C259.933,-716.013 269.28,-720 280,-720L380,-720C390.72,-720 400.067,-716.013 408.04,-708.04C416.013,-700.067 420,-690.72 420,-680L420,-280C420,-269.28 416.013,-259.933 408.04,-251.96C400.067,-243.987 390.72,-240 380,-240L280,-240ZM388.918,-660.076C388.918,-676.335 375.718,-689.535 359.459,-689.535L300.541,-689.535C284.282,-689.535 271.082,-676.335 271.082,-660.076L271.082,-299.924C271.082,-283.665 284.282,-270.465 300.541,-270.465L359.459,-270.465C375.718,-270.465 388.918,-283.665 388.918,-299.924L388.918,-660.076ZM579.121,-240C568.401,-240 559.054,-243.987 551.081,-251.96C543.107,-259.933 539.121,-269.28 539.121,-280L539.121,-680C539.121,-690.72 543.107,-700.067 551.081,-708.04C559.054,-716.013 568.401,-720 579.121,-720L679.121,-720C689.841,-720 699.187,-716.013 707.161,-708.04C715.134,-700.067 719.121,-690.72 719.121,-680L719.121,-280C719.121,-269.28 715.134,-259.933 707.161,-251.96C699.187,-243.987 689.841,-240 679.121,-240L579.121,-240ZM688.039,-660.076C688.039,-676.335 674.839,-689.535 658.58,-689.535L599.662,-689.535C583.403,-689.535 570.202,-676.335 570.202,-660.076L570.202,-299.924C570.202,-283.665 583.403,-270.465 599.662,-270.465L658.58,-270.465C674.839,-270.465 688.039,-283.665 688.039,-299.924L688.039,-660.076Z"/>
    </g>
</svg>
