<?xml version="1.0" encoding="UTF-8" standalone="no"?>
<!DOCTYPE svg PUBLIC "-//W3C//DTD SVG 1.1//EN" "http://www.w3.org/Graphics/SVG/1.1/DTD/svg11.dtd">
<svg height="24px" viewBox="0 0 24 24" version="1.1" fill="#666666" xmlns="http://www.w3.org/2000/svg" xmlns:xlink="http://www.w3.org/1999/xlink" xml:space="preserve" xmlns:serif="http://www.serif.com/" style="fill-rule:evenodd;clip-rule:evenodd;stroke-linejoin:round;stroke-miterlimit:2;">
    <g transform="matrix(0.04,0,0,0.04,-7.2,31.6)">
        <path d="M701.594,-231.845L258.493,-231.845C254.951,-231.845 251.982,-233.045 249.587,-235.445C247.191,-237.845 245.993,-240.818 245.993,-244.364C245.993,-247.909 247.191,-250.876 249.587,-253.264C251.982,-255.651 254.951,-256.845 258.493,-256.845L701.594,-256.845C705.051,-256.845 707.948,-255.645 710.287,-253.245C712.625,-250.845 713.794,-247.872 713.794,-244.326C713.794,-240.781 712.625,-237.814 710.287,-235.426C707.948,-233.039 705.051,-231.845 701.594,-231.845ZM285.77,-424.31L453.15,-673.52C456.637,-678.713 460.65,-682.423 465.19,-684.65C469.723,-686.883 474.66,-688 480,-688C485.34,-688 490.277,-686.883 494.81,-684.65C499.35,-682.423 503.363,-678.713 506.85,-673.52L674.23,-424.31C681.51,-413.537 681.983,-402.433 675.65,-391C669.317,-379.567 659.817,-373.85 647.15,-373.85L312.85,-373.85C300.183,-373.85 290.683,-379.567 284.35,-391C278.017,-402.433 278.49,-413.537 285.77,-424.31ZM652.83,-408.069L480,-665.543L307.239,-408.173C307.073,-407.946 306.915,-407.71 306.765,-407.467C306.295,-406.638 306.016,-405.66 306.016,-404.622C306.016,-401.742 308.078,-399.366 310.722,-399.077L311.825,-399.077C311.933,-399.089 312.039,-399.104 312.141,-399.122L312.141,-399.077L649.953,-399.077C652.299,-399.635 654.053,-401.862 654.053,-404.518C654.053,-405.556 653.773,-406.535 653.303,-407.364C653.153,-407.607 652.995,-407.842 652.83,-408.069Z"/>
    </g>
</svg>
