<?xml version="1.0" encoding="UTF-8" standalone="no"?>
<!DOCTYPE svg PUBLIC "-//W3C//DTD SVG 1.1//EN" "http://www.w3.org/Graphics/SVG/1.1/DTD/svg11.dtd">
<svg width="24px" height="24px" viewBox="0 0 24 24" version="1.1" xmlns="http://www.w3.org/2000/svg" xmlns:xlink="http://www.w3.org/1999/xlink" xml:space="preserve" xmlns:serif="http://www.serif.com/" style="fill-rule:evenodd;clip-rule:evenodd;stroke-linejoin:round;stroke-miterlimit:2;">
    <path id="path1" d="M19.5,11.44C18.863,12.092 17.975,12.5 17,12.5C15.08,12.5 13.5,10.92 13.5,9C13.5,7.08 15.08,5.5 17,5.5C17.975,5.5 18.863,5.908 19.5,6.56L19.5,6C19.5,5.726 19.726,5.5 20,5.5C20.274,5.5 20.5,5.726 20.5,6L20.5,12C20.5,12.274 20.274,12.5 20,12.5C19.726,12.5 19.5,12.274 19.5,12L19.5,11.44ZM19.5,9C19.5,7.628 18.372,6.5 17,6.5C15.628,6.5 14.5,7.628 14.5,9C14.5,10.372 15.628,11.5 17,11.5C18.372,11.5 19.5,10.372 19.5,9ZM3.5,12L3.5,7C3.5,5.08 5.08,3.5 7,3.5C8.92,3.5 10.5,5.08 10.5,7L10.5,12C10.5,12.274 10.274,12.5 10,12.5C9.726,12.5 9.5,12.274 9.5,12L9.5,9.5L4.5,9.5L4.5,12C4.5,12.274 4.274,12.5 4,12.5C3.726,12.5 3.5,12.274 3.5,12ZM9.5,8.5L9.5,7C9.5,5.628 8.372,4.5 7,4.5C5.628,4.5 4.5,5.628 4.5,7L4.5,8.5L9.5,8.5ZM4,15.57L19.536,15.57C19.841,15.57 20.092,15.764 20.092,16C20.092,16.236 19.841,16.43 19.536,16.43L4,16.43C3.695,16.43 3.444,16.236 3.444,16C3.444,15.764 3.695,15.57 4,15.57ZM4,19.57L19.536,19.57C19.841,19.57 20.092,19.764 20.092,20C20.092,20.236 19.841,20.43 19.536,20.43L4,20.43C3.695,20.43 3.444,20.236 3.444,20C3.444,19.764 3.695,19.57 4,19.57Z"/>
</svg>
