<?xml version="1.0" encoding="UTF-8" standalone="no"?>
<!DOCTYPE svg PUBLIC "-//W3C//DTD SVG 1.1//EN" "http://www.w3.org/Graphics/SVG/1.1/DTD/svg11.dtd">
<svg width="24px" height="24px" viewBox="0 0 24 24" version="1.1" xmlns="http://www.w3.org/2000/svg" xmlns:xlink="http://www.w3.org/1999/xlink" xml:space="preserve" xmlns:serif="http://www.serif.com/" style="fill-rule:evenodd;clip-rule:evenodd;stroke-linejoin:round;stroke-miterlimit:2;">
    <path id="path1" d="M12,2.5C12.931,2.5 13.894,3.104 14.16,4.199C14.293,4.747 14.787,5.135 15.352,5.135C15.576,5.135 15.795,5.074 15.986,4.957L15.988,4.955C16.951,4.369 18.058,4.625 18.717,5.283C19.375,5.942 19.631,7.05 19.045,8.014C18.928,8.205 18.865,8.425 18.865,8.65C18.865,9.212 19.254,9.707 19.801,9.84C20.896,10.106 21.5,11.069 21.5,12C21.5,12.931 20.896,13.894 19.801,14.16C19.253,14.293 18.865,14.787 18.865,15.352C18.865,15.576 18.926,15.795 19.043,15.986L19.045,15.988C19.631,16.951 19.375,18.058 18.717,18.717C18.058,19.375 16.95,19.631 15.986,19.045C15.795,18.928 15.575,18.865 15.35,18.865C14.788,18.865 14.293,19.254 14.16,19.801C13.894,20.896 12.931,21.5 12,21.5C11.069,21.5 10.106,20.896 9.84,19.801C9.707,19.253 9.213,18.865 8.648,18.865C8.424,18.865 8.205,18.926 8.014,19.043L8.012,19.045C7.049,19.631 5.942,19.375 5.283,18.717C4.625,18.058 4.369,16.95 4.955,15.986C5.072,15.795 5.135,15.575 5.135,15.35C5.135,14.788 4.746,14.293 4.199,14.16C3.104,13.894 2.5,12.931 2.5,12C2.5,11.069 3.104,10.106 4.199,9.84C4.747,9.707 5.135,9.213 5.135,8.648C5.135,8.424 5.074,8.205 4.957,8.014L4.955,8.012C4.369,7.049 4.625,5.942 5.283,5.283C5.942,4.625 7.05,4.369 8.014,4.955C8.738,5.395 9.64,5.02 9.84,4.199C10.106,3.104 11.069,2.5 12,2.5ZM12,3.5C11.469,3.5 10.971,3.775 10.811,4.436C10.458,5.884 8.77,6.584 7.494,5.809L7.492,5.809C6.911,5.455 6.366,5.615 5.99,5.99C5.615,6.366 5.457,6.912 5.811,7.492C6.024,7.841 6.135,8.241 6.135,8.648C6.135,9.672 5.43,10.569 4.436,10.811C3.775,10.971 3.5,11.469 3.5,12C3.5,12.531 3.775,13.029 4.436,13.189C5.429,13.431 6.135,14.327 6.135,15.35C6.135,15.758 6.022,16.159 5.809,16.508C5.455,17.089 5.615,17.634 5.99,18.01C6.366,18.385 6.912,18.543 7.492,18.189C7.841,17.976 8.241,17.865 8.648,17.865C9.672,17.865 10.569,18.57 10.811,19.564C10.971,20.225 11.469,20.5 12,20.5C12.531,20.5 13.029,20.225 13.189,19.564C13.431,18.571 14.327,17.865 15.35,17.865C15.758,17.865 16.159,17.978 16.508,18.191C17.089,18.545 17.634,18.385 18.01,18.01C18.385,17.634 18.543,17.088 18.189,16.508C17.976,16.159 17.865,15.759 17.865,15.352C17.865,14.328 18.57,13.431 19.564,13.189C20.225,13.029 20.5,12.531 20.5,12C20.5,11.469 20.225,10.971 19.564,10.811C18.571,10.569 17.865,9.673 17.865,8.65C17.865,8.242 17.978,7.841 18.191,7.492C18.545,6.911 18.385,6.366 18.01,5.99C17.634,5.615 17.088,5.457 16.508,5.811C16.159,6.024 15.759,6.135 15.352,6.135C14.328,6.135 13.431,5.43 13.189,4.436C13.029,3.775 12.531,3.5 12,3.5ZM12,8.5C13.92,8.5 15.5,10.08 15.5,12C15.5,13.92 13.92,15.5 12,15.5C10.08,15.5 8.5,13.92 8.5,12C8.5,10.08 10.08,8.5 12,8.5ZM12,9.5C10.628,9.5 9.5,10.628 9.5,12C9.5,13.372 10.628,14.5 12,14.5C13.372,14.5 14.5,13.372 14.5,12C14.5,10.628 13.372,9.5 12,9.5Z"/>
</svg>
