<?xml version="1.0" encoding="UTF-8" standalone="no"?>
<!DOCTYPE svg PUBLIC "-//W3C//DTD SVG 1.1//EN" "http://www.w3.org/Graphics/SVG/1.1/DTD/svg11.dtd">
<svg width="24px" height="24px" viewBox="0 0 24 24" version="1.1" xmlns="http://www.w3.org/2000/svg" xmlns:xlink="http://www.w3.org/1999/xlink" xml:space="preserve" xmlns:serif="http://www.serif.com/" style="fill-rule:evenodd;clip-rule:evenodd;stroke-linejoin:round;stroke-miterlimit:2;">
    <path id="path1" d="M4,5.5L20,5.5C21.375,5.5 22.5,6.625 22.5,8L22.5,16C22.5,17.375 21.375,18.5 20,18.5L4,18.5C2.625,18.5 1.5,17.375 1.5,16L1.5,8C1.5,6.625 2.625,5.5 4,5.5ZM4,6.5C3.166,6.5 2.5,7.166 2.5,8L2.5,16C2.5,16.834 3.166,17.5 4,17.5L20,17.5C20.834,17.5 21.5,16.834 21.5,16L21.5,8C21.5,7.166 20.834,6.5 20,6.5L4,6.5ZM6,9.5C6.274,9.5 6.5,9.726 6.5,10L6.5,10.01C6.5,10.284 6.274,10.51 6,10.51C5.726,10.51 5.5,10.284 5.5,10.01L5.5,10C5.5,9.726 5.726,9.5 6,9.5ZM10,9.5C10.274,9.5 10.5,9.726 10.5,10L10.5,10.01C10.5,10.284 10.274,10.51 10,10.51C9.726,10.51 9.5,10.284 9.5,10.01L9.5,10C9.5,9.726 9.726,9.5 10,9.5ZM14,9.5C14.274,9.5 14.5,9.726 14.5,10L14.5,10.01C14.5,10.284 14.274,10.51 14,10.51C13.726,10.51 13.5,10.284 13.5,10.01L13.5,10C13.5,9.726 13.726,9.5 14,9.5ZM18,9.5C18.274,9.5 18.5,9.726 18.5,10L18.5,10.01C18.5,10.284 18.274,10.51 18,10.51C17.726,10.51 17.5,10.284 17.5,10.01L17.5,10C17.5,9.726 17.726,9.5 18,9.5ZM6,13.5C6.274,13.5 6.5,13.726 6.5,14L6.5,14.01C6.5,14.284 6.274,14.51 6,14.51C5.726,14.51 5.5,14.284 5.5,14.01L5.5,14C5.5,13.726 5.726,13.5 6,13.5ZM18,13.5C18.274,13.5 18.5,13.726 18.5,14L18.5,14.01C18.5,14.284 18.274,14.51 18,14.51C17.726,14.51 17.5,14.284 17.5,14.01L17.5,14C17.5,13.726 17.726,13.5 18,13.5ZM10,13.5L14.002,13.51C14.276,13.511 14.5,13.736 14.5,14.01L14.5,14.012C14.499,14.285 14.274,14.51 14,14.51L9.998,14.5C9.724,14.499 9.5,14.274 9.5,14L9.5,13.998C9.501,13.724 9.726,13.5 10,13.5Z"/>
</svg>
