<?xml version="1.0" encoding="UTF-8" standalone="no"?>
<!DOCTYPE svg PUBLIC "-//W3C//DTD SVG 1.1//EN" "http://www.w3.org/Graphics/SVG/1.1/DTD/svg11.dtd">
<svg width="24px" height="24px" viewBox="0 0 24 24" version="1.1" xmlns="http://www.w3.org/2000/svg" xmlns:xlink="http://www.w3.org/1999/xlink" xml:space="preserve" xmlns:serif="http://www.serif.com/" style="fill-rule:evenodd;clip-rule:evenodd;stroke-linejoin:round;stroke-miterlimit:2;">
    <path id="path1" d="M17.21,20.161L15.115,20.161C14.84,20.161 14.614,19.935 14.614,19.66L14.614,18.622C14.614,18.544 14.632,18.467 14.667,18.398L15.653,16.427L15.653,13.931L15.634,13.931C15.36,13.931 15.134,13.705 15.133,13.43C15.134,13.156 15.36,12.929 15.634,12.929L19.788,12.929C20.062,12.929 20.289,13.156 20.289,13.43C20.289,13.705 20.062,13.931 19.788,13.931L19.769,13.931L19.769,16.427L20.755,18.398C20.79,18.467 20.808,18.544 20.808,18.622L20.808,19.66C20.808,19.935 20.582,20.161 20.307,20.161L18.212,20.161L18.212,22.256C18.212,22.531 17.986,22.757 17.711,22.757C17.436,22.757 17.21,22.531 17.21,22.256L17.21,20.161ZM16.654,13.931L16.654,16.545C16.654,16.623 16.636,16.7 16.602,16.769L15.616,18.741L15.616,19.159L19.806,19.159L19.806,18.741L18.82,16.769C18.786,16.7 18.768,16.623 18.768,16.545L18.768,13.931L16.654,13.931ZM5,4.5L19,4.5C20.371,4.5 21.5,5.629 21.5,7L21.5,11.5C21.5,11.774 21.274,12 21,12C20.726,12 20.5,11.774 20.5,11.5L20.5,7C20.5,6.177 19.823,5.5 19,5.5L5,5.5C4.177,5.5 3.5,6.177 3.5,7L3.5,17C3.5,17.823 4.177,18.5 5,18.5L12,18.5C12.274,18.5 12.5,18.726 12.5,19C12.5,19.274 12.274,19.5 12,19.5L5,19.5C3.629,19.5 2.5,18.371 2.5,17L2.5,7C2.5,5.629 3.629,4.5 5,4.5Z"/>
</svg>
