<?xml version="1.0" encoding="UTF-8" standalone="no"?>
<!DOCTYPE svg PUBLIC "-//W3C//DTD SVG 1.1//EN" "http://www.w3.org/Graphics/SVG/1.1/DTD/svg11.dtd">
<svg width="24px" height="24px" viewBox="0 0 24 24" version="1.1" xmlns="http://www.w3.org/2000/svg" xmlns:xlink="http://www.w3.org/1999/xlink" xml:space="preserve" xmlns:serif="http://www.serif.com/" style="fill-rule:evenodd;clip-rule:evenodd;stroke-linejoin:round;stroke-miterlimit:2;">
    <path id="path1" d="M14.646,4.646C14.453,4.84 14.453,5.16 14.646,5.354L17.793,8.5L9,8.5C7.073,8.5 5.5,10.073 5.5,12L5.5,18C5.5,18.274 5.726,18.5 6,18.5C6.274,18.5 6.5,18.274 6.5,18L6.5,12C6.5,10.613 7.613,9.5 9,9.5L17.793,9.5L14.646,12.646C14.453,12.84 14.453,13.16 14.646,13.354C14.84,13.547 15.16,13.547 15.354,13.354L19.354,9.354C19.356,9.324 19.356,9.294 19.354,9.264C19.495,9.083 19.495,8.827 19.354,8.646L15.354,4.646C15.16,4.453 14.84,4.453 14.646,4.646Z" style="fill-rule:nonzero;"/>
</svg>
