<?xml version="1.0" encoding="UTF-8" standalone="no"?>
<!DOCTYPE svg PUBLIC "-//W3C//DTD SVG 1.1//EN" "http://www.w3.org/Graphics/SVG/1.1/DTD/svg11.dtd">
<svg width="24px" height="24px" viewBox="0 0 24 24" version="1.1" xmlns="http://www.w3.org/2000/svg" xmlns:xlink="http://www.w3.org/1999/xlink" xml:space="preserve" xmlns:serif="http://www.serif.com/" style="fill-rule:evenodd;clip-rule:evenodd;stroke-linejoin:round;stroke-miterlimit:2;">
    <path id="path1" d="M19.5,8L19.5,19C19.5,20.375 18.375,21.5 17,21.5L7,21.5C5.625,21.5 4.5,20.375 4.5,19L4.5,5C4.5,3.625 5.625,2.5 7,2.5L14,2.5C14.135,2.5 14.261,2.555 14.353,2.647L19.353,7.647C19.445,7.739 19.5,7.865 19.5,8ZM13.5,3.5L7,3.5C6.166,3.5 5.5,4.166 5.5,5L5.5,19C5.5,19.834 6.166,20.5 7,20.5L17,20.5C17.834,20.5 18.5,19.834 18.5,19L18.5,8.5L15,8.5C14.177,8.5 13.5,7.823 13.5,7L13.5,3.5ZM17.793,7.5L14.5,4.207L14.5,7C14.5,7.282 14.718,7.5 15,7.5L17.793,7.5ZM9,12.5L15,12.5C15.274,12.5 15.5,12.726 15.5,13C15.5,13.274 15.274,13.5 15,13.5L9,13.5C8.726,13.5 8.5,13.274 8.5,13C8.5,12.726 8.726,12.5 9,12.5ZM9,16.5L15,16.5C15.274,16.5 15.5,16.726 15.5,17C15.5,17.274 15.274,17.5 15,17.5L9,17.5C8.726,17.5 8.5,17.274 8.5,17C8.5,16.726 8.726,16.5 9,16.5ZM9,8.5L10,8.5C10.274,8.5 10.5,8.726 10.5,9C10.5,9.274 10.274,9.5 10,9.5L9,9.5C8.726,9.5 8.5,9.274 8.5,9C8.5,8.726 8.726,8.5 9,8.5Z"/>
</svg>
