<?xml version="1.0" encoding="UTF-8" standalone="no"?>
<!DOCTYPE svg PUBLIC "-//W3C//DTD SVG 1.1//EN" "http://www.w3.org/Graphics/SVG/1.1/DTD/svg11.dtd">
<svg height="24px" viewBox="0 0 24 24" version="1.1" fill="#666666" xmlns="http://www.w3.org/2000/svg" xmlns:xlink="http://www.w3.org/1999/xlink" xml:space="preserve" xmlns:serif="http://www.serif.com/" style="fill-rule:evenodd;clip-rule:evenodd;stroke-linejoin:round;stroke-miterlimit:2;">
    <g transform="matrix(0.0254154,0,0,0.0208629,-1.01266,1.31846)">
        <path d="M397.55,143.57C400.83,136.63 408.31,131.92 416.01,132.12C424.95,132.03 433.48,138.63 435.48,147.37C436.65,152.83 436.18,158.46 436.26,164C436.3,217.58 436.34,271.15 436.41,324.73C448.33,321.44 460.01,317.37 471.85,313.8C478.91,311.78 486.04,308.23 493.58,309.59C503.03,311.25 510.47,320.37 510.02,330C510.02,338.82 503.55,346.77 495.16,349.17C477.41,354.77 459.65,360.37 441.84,365.79C440.06,366.39 438.36,367.19 436.67,367.99C436.39,442.32 436.81,516.66 436.7,591C436.64,594.32 436.75,597.66 436.94,600.99C452.52,596.97 467.72,591.56 483.2,587.16C487.56,585.98 492.3,585.76 496.58,587.39C503.96,589.98 509.47,597.2 509.87,605.04C510.42,611.82 507.25,618.76 501.74,622.75C498.62,625.02 494.88,626.19 491.23,627.32C477.94,631.28 464.7,635.42 451.43,639.45C446.6,640.92 441.65,642.1 437.01,644.15C436.52,661.42 437.03,678.72 436.88,696C436.95,740.33 436.99,784.67 437.08,829C437.04,834.27 437.39,839.58 436.71,844.83C435.85,851.51 431.29,857.51 425.15,860.23C417.78,863.66 408.41,862.14 402.62,856.38C398.13,852.24 396.24,846.02 396.32,840.04C396.32,787.69 396.23,735.35 396.15,683C396.01,674.24 396.43,665.47 395.93,656.72C389.27,658.08 382.89,660.49 376.38,662.39C355.94,668.58 335.56,674.95 315.09,681.03C313.6,681.59 311.93,681.99 310.8,683.18C310.58,684.42 310.46,685.67 310.45,686.95C310.72,747.3 310.79,807.66 311.17,868.01C311.29,873.78 310.39,879.97 306.46,884.47C300.67,891.79 289.6,894.02 281.39,889.59C274.52,886.14 270.33,878.59 270.4,870.98C270.17,812.39 270.02,753.8 269.65,695.21C255.83,698.89 242.29,703.55 228.56,707.55C221.77,709.42 215.14,712.55 207.98,712.48C199.67,712.33 191.99,706.34 189.59,698.43C187.27,691.28 189.28,682.92 194.76,677.74C198.37,674.14 203.37,672.59 208.13,671.15C226.59,665.71 244.91,659.79 263.39,654.43C265.45,653.8 267.41,652.91 269.36,652.01C269.52,574.76 268.89,497.5 268.64,420.25C251.39,425.23 234.36,430.96 217.19,436.2C212.74,437.51 207.89,438.06 203.4,436.6C195.41,434.19 189.39,426.37 189.24,418C188.93,411.54 192,405.05 197.18,401.17C200.23,398.85 203.92,397.63 207.54,396.48C223.05,391.72 238.51,386.82 254,381.99C258.82,380.46 263.82,379.38 268.33,377.02C268.51,318.35 268,259.67 267.81,201C267.96,193.55 266.69,185.4 270.73,178.7C274.27,172.72 281.03,168.78 288,168.83C295,168.69 301.89,172.53 305.49,178.53C307.82,182.23 308.54,186.67 308.59,190.97C308.74,248.69 308.88,306.43 309.3,364.15C314.42,363.54 319.2,361.55 324.09,360.04C342.86,354.17 361.63,348.32 380.39,342.42C385.44,340.83 390.59,339.52 395.5,337.52C395.99,320.03 395.5,302.51 395.65,285C395.59,244 395.61,203 395.51,162C395.58,155.84 394.86,149.31 397.55,143.57ZM350.44,394.49C336.84,398.93 323.02,402.73 309.53,407.49C309.33,410.99 309.23,414.5 309.34,418.01C309.72,491.93 309.88,565.86 310.34,639.78C321.6,636.84 332.6,632.99 343.78,629.75C361.09,624.31 378.56,619.36 395.8,613.7C396.29,608.14 396.05,602.56 396.03,597C395.94,524.8 395.84,452.59 395.74,380.39C380.59,384.91 365.56,389.84 350.44,394.49ZM620.73,137.71C627.95,135.89 636.08,138.39 640.91,144.09C645.1,148.62 646.2,155.02 645.9,161C643.27,282.99 640.69,404.99 638.07,526.99C637.97,536.77 637.28,546.56 637.76,556.34C651.1,548.8 664,540.34 678.06,534.12C695.58,525.61 714.35,519.04 733.87,517.44C747.88,516.19 762.27,518.06 775.16,523.83C790.66,530.38 803.73,542.03 812.98,556C825.05,574.13 831.39,595.53 834.03,617.01C836.14,635.16 836,653.8 831.67,671.64C829.26,682.27 823.31,691.56 817.78,700.79C808.16,716.04 796.35,729.88 782.9,741.88C767.44,755.58 750.67,767.7 734.47,780.49C715.89,794.9 697.29,809.29 678.7,823.7C663.23,835.31 647.48,846.56 631.61,857.63C625.84,861.55 620.28,866.72 613.02,867.43C604.52,868.49 595.78,863.48 592.39,855.63C589.54,848.79 590.85,841.2 590.8,834.02C595.56,611.67 600.33,389.33 605.04,166.99C605.21,162.05 604.9,157.01 606.08,152.16C607.79,145.12 613.69,139.35 620.73,137.71ZM699.23,569.15C679.37,578 661.01,589.82 643.14,602.11C640.9,603.78 638.34,605.2 636.72,607.53C635.86,611.28 636.21,615.17 636.08,618.98C634.89,681.69 633.35,744.38 632.16,807.09C638.07,803.49 643.41,799.07 649.04,795.06C674.57,775.63 699.79,755.78 725.21,736.2C738.38,725.79 752.09,715.92 763.83,703.84C774.07,693.4 782.63,681.36 789.5,668.46C792.64,662.55 793.6,655.82 794.22,649.25C795.27,637.06 794.52,624.73 792.21,612.73C789.38,598.52 784.42,584.23 774.92,573.06C766.89,563.48 754.58,557.45 742,557.77C727.08,558.02 712.64,562.92 699.23,569.15Z"/>
    </g>
</svg>
