<?xml version="1.0" encoding="UTF-8" standalone="no"?>
<!DOCTYPE svg PUBLIC "-//W3C//DTD SVG 1.1//EN" "http://www.w3.org/Graphics/SVG/1.1/DTD/svg11.dtd">
<svg width="24px" height="24px" viewBox="0 0 24 24" version="1.1" xmlns="http://www.w3.org/2000/svg" xmlns:xlink="http://www.w3.org/1999/xlink" xml:space="preserve" xmlns:serif="http://www.serif.com/" style="fill-rule:evenodd;clip-rule:evenodd;stroke-linecap:round;stroke-linejoin:round;stroke-miterlimit:1.5;">
    <g transform="matrix(1,0,0,1,-0.217798,1.87503)">
        <g transform="matrix(0.0254154,0,0,0.0208629,-6.01266,1.31846)">
            <g transform="matrix(39.3462,0,0,47.932,186.128,-63.1964)">
                <path d="M6.282,4.061L6.282,16.655" style="fill:none;stroke:black;stroke-width:1px;"/>
            </g>
            <g transform="matrix(39.3462,0,0,47.932,343.513,-63.1964)">
                <path d="M6.282,4.061L6.282,16.655" style="fill:none;stroke:black;stroke-width:1px;"/>
            </g>
            <g transform="matrix(39.3462,0,0,47.932,193.84,-63.1964)">
                <path d="M3.217,7.017L12.955,7.017" style="fill:none;stroke:black;stroke-width:1px;"/>
            </g>
            <g transform="matrix(39.3462,0,0,47.932,193.84,272.327)">
                <path d="M3.217,7.017L12.955,7.017" style="fill:none;stroke:black;stroke-width:1px;"/>
            </g>
        </g>
        <g id="path1" transform="matrix(0.0254154,0,0,0.0208629,1.07345,-0.355452)">
            <path d="M620.73,137.71C627.95,135.89 636.08,138.39 640.91,144.09C645.1,148.62 646.2,155.02 645.9,161L638.07,526.99C637.97,536.77 637.28,546.56 637.76,556.34C651.1,548.8 664,540.34 678.06,534.12C695.58,525.61 714.35,519.04 733.87,517.44C747.88,516.19 762.27,518.06 775.16,523.83C790.66,530.38 803.73,542.03 812.98,556C825.05,574.13 831.39,595.53 834.03,617.01C836.14,635.16 836,653.8 831.67,671.64C829.26,682.27 823.31,691.56 817.78,700.79C808.16,716.04 796.35,729.88 782.9,741.88C767.44,755.58 750.67,767.7 734.47,780.49L678.7,823.7C663.23,835.31 647.48,846.56 631.61,857.63C625.84,861.55 620.28,866.72 613.02,867.43C604.52,868.49 595.78,863.48 592.39,855.63C589.54,848.79 590.85,841.2 590.8,834.02L605.04,166.99C605.21,162.05 604.9,157.01 606.08,152.16C607.79,145.12 613.69,139.35 620.73,137.71ZM699.23,569.15C679.37,578 661.01,589.82 643.14,602.11C640.9,603.78 638.34,605.2 636.72,607.53C635.86,611.28 636.21,615.17 636.08,618.98C634.89,681.69 633.35,744.38 632.16,807.09C638.07,803.49 643.41,799.07 649.04,795.06C674.57,775.63 699.79,755.78 725.21,736.2C738.38,725.79 752.09,715.92 763.83,703.84C774.07,693.4 782.63,681.36 789.5,668.46C792.64,662.55 793.6,655.82 794.22,649.25C795.27,637.06 794.52,624.73 792.21,612.73C789.38,598.52 784.42,584.23 774.92,573.06C766.89,563.48 754.58,557.45 742,557.77C727.08,558.02 712.64,562.92 699.23,569.15Z"/>
        </g>
    </g>
</svg>
