<?xml version="1.0" encoding="UTF-8" standalone="no"?>
<svg
   width="24px"
   height="24px"
   viewBox="0 0 24 24"
   version="1.1"
   xml:space="preserve"
   style="fill-rule:evenodd;clip-rule:evenodd;stroke-linejoin:round;stroke-miterlimit:2;"
   id="svg1"
   sodipodi:docname="tools-transpose.svg"
   inkscape:version="1.4.2 (ebf0e940, 2025-05-08)"
   xmlns:inkscape="http://www.inkscape.org/namespaces/inkscape"
   xmlns:sodipodi="http://sodipodi.sourceforge.net/DTD/sodipodi-0.dtd"
   xmlns="http://www.w3.org/2000/svg"
   xmlns:svg="http://www.w3.org/2000/svg"><defs
   id="defs1" /><sodipodi:namedview
   id="namedview1"
   pagecolor="#ffffff"
   bordercolor="#000000"
   borderopacity="0.25"
   inkscape:showpageshadow="2"
   inkscape:pageopacity="0.0"
   inkscape:pagecheckerboard="0"
   inkscape:deskcolor="#d1d1d1"
   inkscape:zoom="34.666667"
   inkscape:cx="12.014423"
   inkscape:cy="11.985577"
   inkscape:window-width="976"
   inkscape:window-height="1186"
   inkscape:window-x="0"
   inkscape:window-y="25"
   inkscape:window-maximized="0"
   inkscape:current-layer="svg1" />
    <path
   d="M413.598,297.136L320.409,297.136C309.616,297.136 300.736,286.318 300.736,273.17C300.736,260.023 309.616,249.204 320.409,249.204L413.598,249.204L413.598,131.434C413.598,118.286 422.479,107.468 433.271,107.468C444.064,107.468 452.944,118.286 452.944,131.434L452.944,249.204L570.983,249.204L570.983,131.434C570.983,118.286 579.864,107.468 590.656,107.468C601.449,107.468 610.329,118.286 610.329,131.434L610.329,249.204L703.573,249.204C714.365,249.204 723.246,260.023 723.246,273.17C723.246,286.318 714.365,297.136 703.573,297.136L610.329,297.136L610.329,584.728L703.573,584.728C714.365,584.728 723.246,595.546 723.246,608.694C723.246,621.841 714.365,632.66 703.573,632.66L610.329,632.66L610.329,735.077C610.329,748.225 601.449,759.043 590.656,759.043C579.864,759.043 570.983,748.225 570.983,735.077L570.983,632.66L452.944,632.66L452.944,735.077C452.944,748.225 444.064,759.043 433.271,759.043C422.479,759.043 413.598,748.225 413.598,735.077L413.598,632.66L320.409,632.66C309.616,632.66 300.736,621.841 300.736,608.694C300.736,595.546 309.616,584.728 320.409,584.728L413.598,584.728L413.598,297.136ZM570.983,297.136L452.944,297.136L452.944,584.728L570.983,584.728L570.983,297.136ZM899.542,57.476C906.762,55.656 914.892,58.156 919.722,63.856C923.912,68.386 925.012,74.786 924.712,80.766L916.882,446.756C916.782,456.536 916.092,466.326 916.572,476.106C929.912,468.566 942.812,460.106 956.872,453.886C974.392,445.376 993.162,438.806 1012.68,437.206C1026.69,435.956 1041.08,437.826 1053.97,443.596C1069.47,450.146 1082.54,461.796 1091.79,475.766C1103.86,493.896 1110.2,515.296 1112.84,536.776C1114.95,554.926 1114.81,573.566 1110.48,591.406C1108.07,602.036 1102.12,611.326 1096.59,620.556C1086.97,635.806 1075.16,649.646 1061.71,661.646C1046.25,675.346 1029.48,687.466 1013.28,700.256L957.512,743.466C942.042,755.076 926.292,766.326 910.422,777.396C904.652,781.316 899.092,786.486 891.832,787.196C883.332,788.256 874.592,783.246 871.202,775.396C868.352,768.556 869.662,760.966 869.612,753.786L883.852,86.756C884.022,81.816 883.712,76.776 884.892,71.926C886.602,64.886 892.502,59.116 899.542,57.476ZM978.042,488.916C958.182,497.766 939.822,509.586 921.952,521.876C919.712,523.546 917.152,524.966 915.532,527.296C914.672,531.046 915.022,534.936 914.892,538.746C913.702,601.456 912.162,664.146 910.972,726.856C916.882,723.256 922.222,718.836 927.852,714.826C953.382,695.396 978.602,675.546 1004.02,655.966C1017.19,645.556 1030.9,635.686 1042.64,623.606C1052.88,613.166 1061.44,601.126 1068.31,588.226C1071.45,582.316 1072.41,575.586 1073.03,569.016C1074.08,556.826 1073.33,544.496 1071.02,532.496C1068.19,518.286 1063.23,503.996 1053.73,492.826C1045.7,483.246 1033.39,477.216 1020.81,477.536C1005.89,477.786 991.452,482.686 978.042,488.916Z"
   id="path1"
   style="fill-rule:evenodd;clip-rule:evenodd;stroke-linejoin:round;stroke-miterlimit:2"
   transform="matrix(0.0254154,0,0,0.0208629,-6.23046,3.19349)" />
</svg>
