<?xml version="1.0" encoding="UTF-8" standalone="no"?>
<svg
   width="24"
   height="24"
   viewBox="0 0 24 24"
   version="1.1"
   xml:space="preserve"
   style="fill-rule:evenodd;fill:black;clip-rule:evenodd;stroke-linejoin:round;stroke-miterlimit:2;"
   id="svg1"
   sodipodi:docname="tools-rhythm.svg"
   xmlns:inkscape="http://www.inkscape.org/namespaces/inkscape"
   xmlns:sodipodi="http://sodipodi.sourceforge.net/DTD/sodipodi-0.dtd"
   xmlns="http://www.w3.org/2000/svg"
   xmlns:svg="http://www.w3.org/2000/svg"><defs
   id="defs1" /><sodipodi:namedview
   id="namedview1"
   pagecolor="#ffffff"
   bordercolor="#000000"
   borderopacity="0.25"
   inkscape:showpageshadow="2"
   inkscape:pageopacity="0.0"
   inkscape:pagecheckerboard="0"
   inkscape:deskcolor="#d1d1d1" />
    <g
   transform="matrix(0.025,0,0,0.025,6.35775,23.9919)"
   id="g1">
        <path
   d="M209.365,-690.78L122.31,-690.77L122.31,-287.69C122.31,-254.69 110.56,-226.44 87.06,-202.94C63.56,-179.44 35.31,-167.69 2.31,-167.69C-30.69,-167.69 -58.94,-179.44 -82.44,-202.94C-105.94,-226.44 -117.69,-254.69 -117.69,-287.69C-117.69,-320.69 -105.94,-348.94 -82.44,-372.44C-58.94,-395.94 -30.69,-407.69 2.31,-407.69C17.643,-407.69 32.193,-404.96 45.96,-399.5C59.733,-394.04 71.85,-385.847 82.31,-374.92L82.31,-760C82.31,-769.153 85.437,-776.827 91.69,-783.02C97.943,-789.213 105.69,-792.31 114.93,-792.31L245.44,-792.31C247.187,-792.31 248.879,-792.199 250.515,-791.978L356.5,-791.978C357.398,-792.041 358.312,-792.072 359.241,-792.072L489.751,-792.072C498.991,-792.072 506.738,-788.975 512.991,-782.782C519.245,-776.589 522.371,-768.915 522.371,-759.762L522.371,-665.898L522.31,-665.898L522.31,-287.69C522.31,-254.69 510.56,-226.44 487.06,-202.94C463.56,-179.44 435.31,-167.69 402.31,-167.69C369.31,-167.69 341.06,-179.44 317.56,-202.94C294.06,-226.44 282.31,-254.69 282.31,-287.69C282.31,-320.69 294.06,-348.94 317.56,-372.44C341.06,-395.94 369.31,-407.69 402.31,-407.69C417.643,-407.69 432.193,-404.96 445.96,-399.5C459.733,-394.04 471.85,-385.847 482.31,-374.92L482.31,-523.029L350.491,-523.029L350.491,-624.217L482.31,-624.217L482.31,-673.803L482.371,-673.803L482.371,-690.532L359.301,-690.532C357.787,-690.532 356.314,-690.617 354.881,-690.786L245.38,-690.78L209.365,-690.78ZM177.143,-315.258C193.223,-315.258 206.278,-302.203 206.278,-286.124C206.278,-270.044 193.223,-256.989 177.143,-256.989C161.064,-256.989 148.009,-270.044 148.009,-286.124C148.009,-302.203 161.064,-315.258 177.143,-315.258Z"
   id="path1" />
    </g>
</svg>
