<?xml version="1.0" encoding="UTF-8" standalone="no"?>
<!DOCTYPE svg PUBLIC "-//W3C//DTD SVG 1.1//EN" "http://www.w3.org/Graphics/SVG/1.1/DTD/svg11.dtd">
<svg width="24px" height="24px" viewBox="0 0 24 24" version="1.1" xmlns="http://www.w3.org/2000/svg" xmlns:xlink="http://www.w3.org/1999/xlink" xml:space="preserve" xmlns:serif="http://www.serif.com/" style="fill-rule:evenodd;clip-rule:evenodd;stroke-linejoin:round;stroke-miterlimit:2;">
    <path id="path1" d="M8.49,6.871L4,6.871C3.726,6.871 3.5,6.645 3.5,6.371C3.5,6.097 3.726,5.871 4,5.871L11,5.871C11.274,5.871 11.5,6.097 11.5,6.371C11.5,6.645 11.274,6.871 11,6.871L9.491,6.871C9.412,8.924 8.844,10.532 7.922,11.658C7.869,11.723 7.815,11.786 7.759,11.847C8.617,12.225 9.711,12.468 11.012,12.5C11.282,12.506 11.5,12.73 11.5,13L11.5,13.012C11.494,13.282 11.27,13.5 11,13.5L10.988,13.5C9.383,13.461 8.019,13.129 6.953,12.57C6.094,13.186 5.073,13.5 4,13.5C3.726,13.5 3.5,13.274 3.5,13C3.5,12.726 3.726,12.5 4,12.5C4.745,12.5 5.433,12.328 6.04,11.978C5.068,11.2 4.5,10.145 4.5,9C4.5,8.726 4.726,8.5 5,8.5C5.274,8.5 5.5,8.726 5.5,9C5.5,9.89 5.947,10.699 6.86,11.345C6.96,11.245 7.056,11.138 7.148,11.025C7.897,10.112 8.412,8.739 8.49,6.871ZM13.214,18.5L12.457,20.203C12.377,20.383 12.197,20.5 12,20.5C11.93,20.5 11.861,20.485 11.797,20.457C11.617,20.377 11.5,20.197 11.5,20C11.5,19.93 11.515,19.861 11.543,19.797L15.543,10.797C15.623,10.617 15.803,10.5 16,10.5C16.197,10.5 16.377,10.617 16.457,10.797L20.457,19.797C20.485,19.861 20.5,19.93 20.5,20C20.5,20.197 20.383,20.377 20.203,20.457C20.139,20.485 20.07,20.5 20,20.5C19.803,20.5 19.623,20.383 19.543,20.203L18.786,18.5L13.214,18.5ZM18.342,17.5L16,12.23L13.658,17.5L18.342,17.5ZM6.99,2.598L7.783,3.18C8.003,3.342 8.052,3.656 7.891,3.877C7.797,4.005 7.647,4.081 7.487,4.081C7.381,4.081 7.277,4.047 7.191,3.984L6.398,3.402C6.178,3.24 6.13,2.926 6.291,2.705C6.385,2.577 6.535,2.501 6.694,2.501C6.801,2.501 6.904,2.535 6.99,2.598Z"/>
</svg>
