<?xml version="1.0" encoding="UTF-8" standalone="no"?>
<!DOCTYPE svg PUBLIC "-//W3C//DTD SVG 1.1//EN" "http://www.w3.org/Graphics/SVG/1.1/DTD/svg11.dtd">
<svg width="24px" height="24px" viewBox="0 0 24 24" version="1.1" xmlns="http://www.w3.org/2000/svg" xmlns:xlink="http://www.w3.org/1999/xlink" xml:space="preserve" xmlns:serif="http://www.serif.com/" style="fill-rule:evenodd;clip-rule:evenodd;stroke-linejoin:round;stroke-miterlimit:2;">
    <path id="path1" d="M13.078,3.586C16.61,4.042 19.898,6.629 20.496,10.932C20.499,10.955 20.501,10.978 20.501,11.001C20.501,11.25 20.315,11.463 20.068,11.496C20.045,11.499 20.022,11.501 19.999,11.501C19.75,11.501 19.537,11.315 19.504,11.068C18.967,7.202 16.09,4.983 12.949,4.578C10.044,4.203 7.029,5.47 5.395,8.5L8,8.5C8.274,8.5 8.5,8.726 8.5,9C8.5,9.274 8.274,9.5 8,9.5L4,9.5C3.726,9.5 3.5,9.274 3.5,9L3.5,5C3.5,4.726 3.726,4.5 4,4.5C4.274,4.5 4.5,4.726 4.5,5L4.5,8.076C6.326,4.66 9.797,3.163 13.078,3.586ZM3.932,12.504C3.955,12.501 3.978,12.499 4.001,12.499C4.25,12.499 4.463,12.685 4.496,12.932C5.033,16.798 7.91,19.017 11.051,19.422C13.956,19.797 16.971,18.53 18.605,15.5L16,15.5C15.726,15.5 15.5,15.274 15.5,15C15.5,14.726 15.726,14.5 16,14.5L20,14.5C20.274,14.5 20.5,14.726 20.5,15L20.5,19C20.5,19.274 20.274,19.5 20,19.5C19.726,19.5 19.5,19.274 19.5,19L19.5,15.924C17.674,19.34 14.203,20.837 10.922,20.414C7.39,19.958 4.102,17.371 3.504,13.068C3.501,13.045 3.499,13.022 3.499,12.999C3.499,12.75 3.685,12.537 3.932,12.504Z"/>
</svg>
